<svg width="500" height="200" version="1" xmlns="http://www.w3.org/2000/svg"><g fill="none" fill-rule="evenodd"><path fill="#0070BA" d="M0 0h500v200H0z"/><g fill-rule="nonzero"><path d="M177 74h20l12 2c3 1 6 2 8 5s3 7 2 11l-2 10-5 8-12 5h-13l-2 2-1 2-2 14c-1 2-2 3-4 3h-10l-2-2v-1l9-56 2-3zm12 13l-1 1-2 14h3c3 1 6 0 9-1 2-1 4-3 4-6v-6l-4-3-7-1-2 2zm39 10c4-3 8-4 12-4s7 1 10 3l3 3v-3l2-2h10c2 0 2 1 2 2v1l-5 36-4 2h-9l-2-1v-4c-2 3-5 4-8 5-3 2-7 2-11 1l-8-4c-2-2-4-6-4-9-1-5-1-8 1-13s6-10 11-13zm13 8l-6 2c-3 2-4 5-5 8 0 2 0 5 2 7l4 3c3 0 7 0 9-2 5-2 7-7 6-12 0-2-2-4-4-5l-6-1zm32-10l2-1h10l2 1 1 2 6 20 14-20 1-2 3-1h10c1 0 2 1 1 2v1l-35 51-3 1h-12v-3l10-15v-1l-11-33 1-2zm61-21h21l12 2c3 1 6 3 8 6s2 6 2 10l-4 11c-1 4-4 6-6 8-4 2-7 4-11 4h-13l-2 2-1 2-2 15-2 2h-11c-2 0-2-1-2-2v-1l9-56c0-2 1-2 2-3zm12 14l-3 15 11-1c2 0 3-2 4-3l2-6-1-5-4-1-7-1-2 2zm91-14h11l2 2v1l-9 56-3 3h-10l-1-2v-1l8-57 2-2zm-312 3c3 1 6 5 7 8v12c0 6-3 12-7 16-2 3-5 5-9 6-5 2-10 3-16 3h-3l-2 3-3 18v3c-1 2-2 3-4 3H73l-2-1v-3l1-7v-1l5-27v-2l3-2h3l14-1c6 0 13-3 18-7 4-4 7-9 9-15l1-6zm265 18c3-2 7-2 11-1l7 2 2 3 1-3c0-1 1-2 2-1h10c1 0 2 0 2 2l-6 36c0 1-1 2-3 2h-9l-2-1v-4l-9 6h-11l-8-5c-3-4-4-8-4-13a25 25 0 0 1 17-23zm8 10c-3 0-7 2-9 5l-2 9 4 5 7 1c4-1 7-3 8-5 2-3 2-6 2-9-1-3-3-4-5-5l-5-1z" fill="#FFF"/><path d="M53 137l-1-1v-3l12-76 1-2 2-2h33c5 0 10 2 15 4 4 2 7 5 8 9v11l-1 6c-2 5-5 10-9 14-5 4-10 6-16 7l-9 1h-9l-4 2v4l-2 12-3 15H53v-1z" fill="#FFF"/><path d="M100 55l15 3c3 2 5 5 7 9v10l-2 5c-1 6-4 10-8 14-5 4-10 6-16 7H78l-4 4v1l-1 3-2 11-2 14H53v-4l4-27 8-47v-2l1-1h34zm0-3H67l-3 2-1 3-12 75-1 3v2l3 2h19v-2l4-26 1-3 2-1h9l9-1c6-1 12-3 17-7s8-9 9-15l2-7V66c-2-4-5-8-9-10-5-2-10-3-16-3v-1z" fill="#0070BA"/></g></g></svg>