<svg height="200" width="500" xmlns="http://www.w3.org/2000/svg"><g fill="none" fill-rule="evenodd"><path d="m0 0h500v200h-500z" fill="#f29c3b"/><g fill="#fff"><path d="m289 128a128 128 0 0 1 -157-11c-2-2 0-4 2-3a173 173 0 0 0 152 10c4-2 6 2 3 4"/><path d="m296 118c-2-3-16-1-22-1-1 1-2-1 0-2 11-8 28-6 30-3s0 20-10 29c-2 1-3 0-3-1 3-6 8-19 5-22m-21-57v-8l2-2h34l2 2v7l-3 4-17 25c6 0 13 1 19 4l2 3v8c0 1-1 3-3 2-10-5-24-6-35 0-1 1-2 0-2-2v-7l1-5 20-29h-18zm-122 47h-10l-2-2v-53l2-1h10l1 1v7h1c2-6 7-10 13-10s10 4 13 10c3-6 8-10 14-10 5 0 9 2 12 6 3 5 3 11 3 17v33l-2 2h-10l-2-2v-28l-1-10c0-3-3-4-6-4-2 0-5 1-6 4l-1 10v28c0 1 0 2-2 2h-10l-2-2v-28c0-6 1-15-6-15s-7 9-7 15v28zm189-47c-8 0-8 10-8 17 0 6 0 20 8 20s8-11 8-18l-1-14c-2-3-4-5-7-5zm0-11c15 0 23 13 23 30 0 16-9 29-23 29-15 0-23-13-23-30 0-16 8-29 23-29zm43 58h-10l-2-2v-53l2-1h9l2 1v8c3-7 7-10 14-10 5 0 9 1 12 6 3 4 3 11 3 16v33l-2 2h-11l-1-2v-28c0-6 0-15-7-15-2 0-4 2-6 5l-1 10v28zm-126 0h-2c-4-3-4-4-6-7-6 6-10 7-17 7-9 0-15-5-15-16 0-8 4-13 11-16 5-3 13-3 19-4v-1l-1-8-6-2c-4 0-8 2-8 6l-2 2-10-1-2-2c3-12 14-16 23-16 5 0 12 1 16 5 5 5 4 11 4 18v16c0 4 2 6 4 9v3zm-10-25c0 4 0 7-2 10s-4 5-7 5c-4 0-6-3-6-7 0-9 7-11 15-11zm-124 25h-2l-6-7c-6 6-9 7-17 7s-15-5-15-16c0-8 4-13 11-16 5-3 13-3 19-4v-1l-1-8-6-2c-4 0-7 2-8 6l-2 2-10-1-1-2c2-12 13-16 23-16 5 0 11 1 15 5 5 5 4 11 4 18v16c0 4 2 6 4 9v3zm-10-25c0 4 0 7-2 10s-4 5-7 5c-4 0-6-3-6-7 0-9 8-11 15-11z"/></g></g></svg>