<?xml version="1.0" encoding="UTF-8"?>
<svg width="500px" height="200px" viewBox="0 0 500 200" version="1.1" xmlns="http://www.w3.org/2000/svg" xmlns:xlink="http://www.w3.org/1999/xlink">
    <!-- Generator: Sketch 48.1 (47250) - http://www.bohemiancoding.com/sketch -->
    <title>amazon</title>
    <desc>Created with Sketch.</desc>
    <defs></defs>
    <g id="Donate-Buttons" stroke="none" stroke-width="1" fill="none" fill-rule="evenodd" transform="translate(-205.000000, -904.000000)">
        <g id="amazon" transform="translate(205.000000, 904.000000)">
            <rect id="Rectangle" fill="#F29C3B" x="0" y="0" width="500" height="200"></rect>
            <g id="logo" transform="translate(85.000000, 50.000000)" fill="#FFFFFF">
                <path d="M204.117644,78.1046568 C184.976809,92.2763236 157.244575,99.8238403 133.348501,99.8238403 C99.8620292,99.8238403 69.7321964,87.4186135 46.9150418,66.7030891 C45.1168422,65.0972345 46.7152419,62.849038 48.8730813,64.1337217 C73.4884355,78.5061204 103.897988,87.1777353 135.346501,87.1777353 C156.565256,87.1777353 179.86193,82.7616351 201.320445,73.6082639 C204.557204,72.2031411 207.274484,75.7360212 204.117644,78.1046568" id="Shape"></path>
                <path d="M211.19005,68.1044081 C208.817677,64.9858692 195.439051,66.6438266 189.449783,67.3543798 C187.621889,67.5912308 187.34965,65.9727486 188.983086,64.7884933 C199.639318,57.2092593 217.101536,59.3803941 219.123886,61.9462805 C221.185128,64.512167 218.579407,82.2759965 208.62322,90.7631595 C207.067566,92.0658404 205.628586,91.3552872 206.289739,89.6578546 C208.545438,83.933954 213.562422,71.1834719 211.19005,68.1044081" id="Shape"></path>
                <path d="M190.497526,10.8547712 L190.497526,3.36457852 C190.497526,2.24305235 191.337603,1.48201673 192.377699,1.48201673 L225.900783,1.48201673 C226.980882,1.48201673 227.82096,2.28310685 227.82096,3.36457852 L227.82096,9.77329951 C227.82096,10.8547712 226.900875,12.2566789 225.300728,14.4997312 L207.979134,39.2934706 C214.419727,39.1332525 221.260356,40.0945607 227.100893,43.4190847 C228.421015,44.1801203 228.781048,45.261592 228.901059,46.3430636 L228.901059,54.3539649 C228.901059,55.475491 227.700948,56.7171807 226.420831,56.0763086 C216.099881,50.6689503 202.418623,50.0681327 190.97757,56.1564177 C189.817463,56.7972898 188.577349,55.5155456 188.577349,54.4340739 L188.577349,46.8237177 C188.577349,45.6220825 188.617353,43.5392482 189.817463,41.6566864 L209.939314,12.737333 L192.417702,12.737333 C191.377607,12.6972785 190.497526,11.9762973 190.497526,10.8547712 Z M68.1662713,57.6384344 L57.9653328,57.6384344 C57.0052445,57.5983799 56.2051709,56.8373443 56.1251635,55.9160906 L56.1251635,3.48474204 C56.1251635,2.40327037 57.0052445,1.60218025 58.0853439,1.60218025 L67.6062198,1.60218025 C68.6063118,1.64223475 69.4063854,2.40327037 69.4463891,3.36457852 L69.4463891,10.2138991 L69.6464075,10.2138991 C72.1266357,3.60490556 76.8070663,0.480654074 83.0876441,0.480654074 C89.4482292,0.480654074 93.4485973,3.56485105 96.3288623,10.2138991 C98.8090904,3.60490556 104.409606,0.480654074 110.410158,0.480654074 C114.690552,0.480654074 119.370982,2.24305235 122.211243,6.24850296 C125.451542,10.6544986 124.771479,17.0632196 124.771479,22.6708505 L124.771479,55.7558726 C124.771479,56.7972898 123.891398,57.6384344 122.811299,57.6384344 L112.61036,57.6384344 C111.570264,57.5583254 110.770191,56.7572352 110.770191,55.7558726 L110.770191,27.9580453 C110.770191,25.7550475 110.970209,20.2275256 110.490165,18.1446913 C109.730095,14.6198948 107.449885,13.6185321 104.489613,13.6185321 C102.009385,13.6185321 99.4491493,15.2607669 98.4090536,17.9043643 C97.3689579,20.5479617 97.4489653,24.9539573 97.4489653,27.9179908 L97.4489653,55.7158181 C97.4489653,56.7572352 96.5688843,57.5983799 95.488785,57.5983799 L85.2878465,57.5983799 C84.2477508,57.5182709 83.4476772,56.7171807 83.4476772,55.7158181 L83.4476772,27.9179908 C83.4476772,22.0700329 84.4077655,13.4583141 77.1670994,13.4583141 C69.8464259,13.4583141 70.1264516,21.8297059 70.1264516,27.9179908 L70.1264516,55.7158181 C70.1264516,56.7972898 69.2463707,57.6384344 68.1662713,57.6384344 Z M256.823628,11.1752072 C249.302936,11.1752072 248.822892,21.4291608 248.822892,27.8378818 C248.822892,34.2466028 248.742884,47.9051894 256.74362,47.9051894 C264.664349,47.9051894 265.024382,36.8902002 265.024382,30.1610431 C265.024382,25.7550475 264.824364,20.4277981 263.504242,16.2621295 C262.344136,12.6171694 260.063926,11.1752072 256.823628,11.1752072 Z M256.74362,0.480654074 C271.865012,0.480654074 280.065766,13.4983686 280.065766,30.0408796 C280.065766,46.0226276 271.024934,58.719906 256.74362,58.719906 C241.902255,58.719906 233.781508,45.7021915 233.781508,29.4801165 C233.781508,13.1779325 241.982262,0.480654074 256.74362,0.480654074 Z M299.707573,57.6384344 L289.546638,57.6384344 C288.546546,57.5583254 287.706469,56.7572352 287.706469,55.7558726 L287.706469,3.32452401 C287.786476,2.36321586 288.626554,1.60218025 289.666649,1.60218025 L299.147522,1.60218025 C300.027603,1.64223475 300.787672,2.24305235 300.987691,3.08419698 L300.987691,11.1351527 L301.187709,11.1351527 C304.027971,3.96539611 308.028339,0.52070858 315.10899,0.52070858 C319.66941,0.52070858 324.149822,2.16294333 326.990083,6.72915704 C329.67033,10.9348802 329.67033,17.9844733 329.67033,23.031341 L329.67033,56.0362541 C329.550319,56.9575078 328.710241,57.6784889 327.710149,57.6784889 L317.469207,57.6784889 C316.509119,57.6384344 315.749049,56.9174533 315.669042,56.0362541 L315.669042,27.5575002 C315.669042,21.8297059 316.349104,13.4182596 309.308456,13.4182596 C306.828228,13.4182596 304.548018,15.0604943 303.387912,17.6239827 C301.947779,20.8283432 301.787764,24.0327037 301.787764,27.5575002 L301.787764,55.7959271 C301.667753,56.7972898 300.787672,57.6384344 299.707573,57.6384344 Z M174.056013,57.5182709 C173.375951,58.1190885 172.415862,58.159143 171.655792,57.7585979 C168.25548,54.914728 167.655424,53.6329838 165.815255,50.9493319 C160.21474,56.6771262 156.254375,58.3594155 149.013709,58.3594155 C140.412918,58.3594155 133.732303,53.0722207 133.732303,42.4577765 C133.732303,34.1664938 138.212716,28.5188084 144.613304,25.7550475 C150.133812,23.3117226 157.894526,22.871123 163.815071,22.2302509 L163.815071,20.8683977 C163.815071,18.4250728 164.015089,15.5812029 162.574957,13.4583141 C161.334843,11.5757523 158.934622,10.8147167 156.854431,10.8147167 C152.974074,10.8147167 149.493753,12.817442 148.653676,16.9430561 C148.493661,17.8643098 147.813599,18.7855634 146.893514,18.8256179 L137.012605,17.7441462 C136.172528,17.5839282 135.252443,16.9030016 135.492465,15.6212574 C137.772675,3.60490556 148.613672,0 158.294563,0 C163.255019,0 169.735616,1.3217987 173.655976,5.08692228 C178.616433,9.733245 178.136389,15.901639 178.136389,22.6708505 L178.136389,38.5724894 C178.136389,43.3790302 180.136573,45.4618645 181.976742,48.0253529 C182.616801,48.9466065 182.776815,50.0681327 181.936738,50.7490593 C179.816543,52.4714031 176.096201,55.7158181 174.056013,57.5182709 Z M163.775067,32.604368 C163.775067,36.6098186 163.855075,39.8942881 161.854891,43.4591392 C160.21474,46.3430636 157.654504,48.1054619 154.774239,48.1054619 C150.853879,48.1054619 148.573669,45.1414285 148.573669,40.6953783 C148.573669,32.0035504 156.374386,30.4013702 163.735064,30.4013702 L163.735064,32.604368 L163.775067,32.604368 Z M40.3237098,57.5182709 C39.6436472,58.1190885 38.6835589,58.159143 37.923489,57.7585979 C34.5231761,54.914728 33.9231209,53.6329838 32.0829516,50.9493319 C26.4824364,56.6771262 22.522072,58.3594155 15.2814059,58.3594155 C6.68061462,58.3594155 0,53.0722207 0,42.4577765 C0,34.1664938 4.4804122,28.5188084 10.8810011,25.7550475 C16.4015089,23.3117226 24.1622229,22.871123 30.0827676,22.2302509 L30.0827676,20.8683977 C30.0827676,18.4250728 30.282786,15.5812029 28.8426535,13.4583141 C27.6025394,11.5757523 25.2023186,10.8147167 23.1221272,10.8147167 C19.2417702,10.8147167 15.7614501,12.817442 14.9213728,16.9430561 C14.761358,17.8643098 14.0812955,18.7855634 13.1612108,18.8256179 L3.28030179,17.7441462 C2.4402245,17.5839282 1.52013985,16.9030016 1.76016193,15.6212574 C4.04037171,3.60490556 14.8813691,0 24.5622597,0 C29.5227161,0 36.0033123,1.3217987 39.923673,5.08692228 C44.8841293,9.733245 44.4040852,15.901639 44.4040852,22.6708505 L44.4040852,38.5724894 C44.4040852,43.3790302 46.4042692,45.4618645 48.2444385,48.0253529 C48.8844974,48.9466065 49.0445121,50.0681327 48.2044348,50.7490593 C46.0842398,52.4714031 42.3638975,55.7158181 40.3237098,57.5182709 Z M30.0027603,32.604368 C30.0027603,36.6098186 30.1227713,39.8942881 28.0825836,43.4591392 C26.4824364,46.3430636 23.8821972,48.1054619 21.0019322,48.1054619 C17.0815715,48.1054619 14.8013617,45.1414285 14.8013617,40.6953783 C14.8013617,32.0035504 22.6020794,30.4013702 29.9627566,30.4013702 L29.9627566,32.604368 L30.0027603,32.604368 Z" id="Shape"></path>
            </g>
        </g>
    </g>
</svg>