<?xml version="1.0" encoding="UTF-8"?>
<svg width="250px" height="200px" viewBox="0 0 250 200" version="1.1" xmlns="http://www.w3.org/2000/svg" xmlns:xlink="http://www.w3.org/1999/xlink">
    <!-- Generator: Sketch 48.1 (47250) - http://www.bohemiancoding.com/sketch -->
    <title>cash</title>
    <desc>Created with Sketch.</desc>
    <defs></defs>
    <g id="Donate-Buttons" stroke="none" stroke-width="1" fill="none" fill-rule="evenodd" transform="translate(-206.000000, -1156.000000)">
        <g id="cash" transform="translate(206.000000, 1156.000000)">
            <rect id="Rectangle" fill="#69C910" x="0" y="0" width="250" height="200"></rect>
            <g id="logo" transform="translate(97.000000, 50.000000)" fill="#FFFFFF" fill-rule="nonzero">
                <path d="M55.5911443,18.4279701 C55.5911443,18.4279701 48.0646654,5.93220339 30.1062556,5.93220339 C12.1480158,5.93220339 2.1124839,14.5729478 2.1124839,29.1957593 C2.1124839,43.8185707 14.1288204,48.4712134 27.5973726,52.1933275 C41.0660949,55.9154416 48.8567831,58.8401067 48.8567831,71.0700571 C48.8567831,83.3000075 35.7842897,87.1552011 28.8518991,87.1552011 C21.9193384,87.1552011 13.7325914,83.3000075 6.73419104,74.659263 L0,79.312077 C0,79.312077 9.11122454,94.0677966 28.6538697,94.0677966 C48.1965149,94.0677966 56.779661,83.698732 56.779661,68.8101042 C56.779661,53.9213051 45.4237628,48.4710421 33.5396161,44.8818362 C21.6554693,41.2926302 10.5636104,40.4950098 10.5636104,28.13198 C10.5636104,15.7691214 22.0515282,13.2433522 29.3139678,13.2433522 C36.5765775,13.2433522 45.1595535,17.231454 49.5170513,23.3464292 L55.5911443,18.4279701 Z" id="Shape"></path>
                <rect id="Rectangle-path" x="26.2711864" y="0" width="7.62711864" height="100"></rect>
            </g>
        </g>
    </g>
</svg>