<?xml version="1.0" encoding="UTF-8"?>
<svg width="250px" height="50px" viewBox="0 0 250 50" version="1.1" xmlns="http://www.w3.org/2000/svg" xmlns:xlink="http://www.w3.org/1999/xlink">
    <!-- Generator: Sketch 47.1 (45422) - http://www.bohemiancoding.com/sketch -->
    <title>patreon</title>
    <desc>Created with Sketch.</desc>
    <defs></defs>
    <g id="Page-1" stroke="none" stroke-width="1" fill="none" fill-rule="evenodd">
        <g id="Donate-Buttons" transform="translate(-51.000000, -77.000000)">
            <g id="patreon" transform="translate(51.000000, 77.000000)">
                <path d="M6.6,0 L243.4,0 C247.1,0 250,3.06122449 250,6.73469388 L250,43.2653061 C250,47.0408163 247,50 243.4,50 C243.4,50 243.4,50 243.4,50 L6.6,50 C3,50 0,46.9387755 0,43.2653061 C0,43.2653061 0,43.2653061 0,43.2653061 L0,6.73469388 C0,3.06122449 3,0 6.6,0 Z" id="Shape" fill="#F86753" fill-rule="nonzero"></path>
                <path d="M76.9873047,32 L76.9873047,17.78125 L81.8603516,17.78125 C83.4684325,17.78125 84.6923786,18.1035124 85.5322266,18.7480469 C86.3720745,19.3925813 86.7919922,20.3528582 86.7919922,21.6289062 C86.7919922,22.2799512 86.6162127,22.8658828 86.2646484,23.3867188 C85.9130842,23.9075547 85.3987664,24.3111965 84.7216797,24.5976562 C85.4899127,24.8059906 86.0839823,25.1982393 86.5039062,25.7744141 C86.9238302,26.3505888 87.1337891,27.0423137 87.1337891,27.8496094 C87.1337891,29.1842515 86.7057334,30.2096318 85.8496094,30.9257812 C84.9934853,31.6419307 83.7679116,32 82.1728516,32 L76.9873047,32 Z M79.4580078,25.5839844 L79.4580078,30.0273438 L82.2021484,30.0273438 C82.9768919,30.0273438 83.5823546,29.8352884 84.0185547,29.4511719 C84.4547548,29.0670554 84.6728516,28.5332065 84.6728516,27.8496094 C84.6728516,26.3717374 83.9176508,25.6165366 82.4072266,25.5839844 L79.4580078,25.5839844 Z M79.4580078,23.7675781 L81.8798828,23.7675781 C82.6481158,23.7675781 83.2486958,23.5934262 83.6816406,23.2451172 C84.1145855,22.8968082 84.3310547,22.403649 84.3310547,21.765625 C84.3310547,21.0624965 84.1308614,20.5546891 83.7304688,20.2421875 C83.3300761,19.9296859 82.70671,19.7734375 81.8603516,19.7734375 L79.4580078,19.7734375 L79.4580078,23.7675781 Z M94.0283203,32.1953125 C92.5244065,32.1953125 91.3053432,31.7216844 90.3710938,30.7744141 C89.4368443,29.8271437 88.9697266,28.5657631 88.9697266,26.9902344 L88.9697266,26.6972656 C88.9697266,25.6425729 89.173175,24.7001995 89.5800781,23.8701172 C89.9869812,23.0400349 90.5582646,22.3938825 91.2939453,21.9316406 C92.0296261,21.4693987 92.8499304,21.2382812 93.7548828,21.2382812 C95.1936921,21.2382812 96.3053346,21.697261 97.0898438,22.6152344 C97.8743529,23.5332077 98.2666016,24.8320229 98.2666016,26.5117188 L98.2666016,27.46875 L91.3623047,27.46875 C91.4339196,28.3411502 91.7252579,29.0312475 92.2363281,29.5390625 C92.7473984,30.0468775 93.3902956,30.3007812 94.1650391,30.3007812 C95.2522841,30.3007812 96.1376919,29.8613325 96.8212891,28.9824219 L98.1005859,30.203125 C97.6774067,30.8346386 97.1126337,31.3245425 96.40625,31.6728516 C95.6998663,32.0211606 94.907231,32.1953125 94.0283203,32.1953125 Z M93.7451172,23.1425781 C93.0940723,23.1425781 92.5683614,23.3704404 92.1679688,23.8261719 C91.7675761,24.2819033 91.5120448,24.9166626 91.4013672,25.7304688 L95.9228516,25.7304688 L95.9228516,25.5546875 C95.870768,24.7604127 95.6591815,24.1598328 95.2880859,23.7529297 C94.9169903,23.3460266 94.4026726,23.1425781 93.7451172,23.1425781 Z M104.448242,30.3007812 C105.040693,30.3007812 105.532225,30.1282569 105.922852,29.7832031 C106.313479,29.4381493 106.52181,29.0117213 106.547852,28.5039062 L108.78418,28.5039062 C108.758138,29.1614616 108.553062,29.7750623 108.168945,30.3447266 C107.784829,30.9143909 107.264001,31.3652327 106.606445,31.6972656 C105.94889,32.0292985 105.239262,32.1953125 104.477539,32.1953125 C102.999667,32.1953125 101.827804,31.7168017 100.961914,30.7597656 C100.096024,29.8027296 99.6630859,28.4811282 99.6630859,26.7949219 L99.6630859,26.5507812 C99.6630859,24.9427003 100.092769,23.6552783 100.952148,22.6884766 C101.811528,21.7216749 102.983391,21.2382812 104.467773,21.2382812 C105.72429,21.2382812 106.748043,21.6044885 107.539062,22.3369141 C108.330082,23.0693396 108.745117,24.031244 108.78418,25.2226562 L106.547852,25.2226562 C106.52181,24.6171845 106.315106,24.1191426 105.927734,23.7285156 C105.540363,23.3378887 105.047204,23.1425781 104.448242,23.1425781 C103.680009,23.1425781 103.087567,23.4208957 102.670898,23.9775391 C102.25423,24.5341825 102.042643,25.3789006 102.036133,26.5117188 L102.036133,26.8925781 C102.036133,28.0384172 102.242836,28.8929008 102.65625,29.4560547 C103.069664,30.0192085 103.666988,30.3007812 104.448242,30.3007812 Z M110.131836,26.6191406 C110.131836,25.5839792 110.336912,24.6513713 110.74707,23.8212891 C111.157229,22.9912068 111.733395,22.3531923 112.475586,21.9072266 C113.217777,21.4612608 114.070633,21.2382812 115.03418,21.2382812 C116.459968,21.2382812 117.617183,21.697261 118.505859,22.6152344 C119.394536,23.5332077 119.874674,24.7506435 119.946289,26.2675781 L119.956055,26.8242188 C119.956055,27.8658906 119.755861,28.7968709 119.355469,29.6171875 C118.955076,30.4375041 118.382165,31.0722634 117.636719,31.5214844 C116.891272,31.9707054 116.030278,32.1953125 115.053711,32.1953125 C113.562818,32.1953125 112.369796,31.6988982 111.474609,30.7060547 C110.579423,29.7132112 110.131836,28.3899822 110.131836,26.7363281 L110.131836,26.6191406 Z M112.504883,26.8242188 C112.504883,27.9114638 112.72949,28.7626922 113.178711,29.3779297 C113.627932,29.9931671 114.252926,30.3007812 115.053711,30.3007812 C115.854496,30.3007812 116.477862,29.9882844 116.923828,29.3632812 C117.369794,28.7382781 117.592773,27.8235737 117.592773,26.6191406 C117.592773,25.551427 117.363284,24.7050812 116.904297,24.0800781 C116.44531,23.455075 115.821944,23.1425781 115.03418,23.1425781 C114.259436,23.1425781 113.644208,23.4501922 113.188477,24.0654297 C112.732745,24.6806671 112.504883,25.6002543 112.504883,26.8242188 Z M124.194336,21.4335938 L124.262695,22.5371094 C125.004887,21.6712196 126.020501,21.2382812 127.30957,21.2382812 C128.722338,21.2382812 129.689125,21.7786404 130.209961,22.859375 C130.978194,21.7786404 132.058912,21.2382812 133.452148,21.2382812 C134.617519,21.2382812 135.485023,21.5605437 136.054688,22.2050781 C136.624352,22.8496126 136.91569,23.8001239 136.928711,25.0566406 L136.928711,32 L134.555664,32 L134.555664,25.125 C134.555664,24.4544237 134.409181,23.9628922 134.116211,23.6503906 C133.823241,23.3378891 133.33822,23.1816406 132.661133,23.1816406 C132.120766,23.1816406 131.679689,23.3264959 131.337891,23.6162109 C130.996092,23.9059259 130.756837,24.2851539 130.620117,24.7539062 L130.629883,32 L128.256836,32 L128.256836,25.046875 C128.224284,23.8033792 127.589524,23.1816406 126.352539,23.1816406 C125.402013,23.1816406 124.728192,23.5690065 124.331055,24.34375 L124.331055,32 L121.958008,32 L121.958008,21.4335938 L124.194336,21.4335938 Z M144.018555,32.1953125 C142.514641,32.1953125 141.295578,31.7216844 140.361328,30.7744141 C139.427079,29.8271437 138.959961,28.5657631 138.959961,26.9902344 L138.959961,26.6972656 C138.959961,25.6425729 139.163409,24.7001995 139.570312,23.8701172 C139.977216,23.0400349 140.548499,22.3938825 141.28418,21.9316406 C142.01986,21.4693987 142.840165,21.2382812 143.745117,21.2382812 C145.183926,21.2382812 146.295569,21.697261 147.080078,22.6152344 C147.864587,23.5332077 148.256836,24.8320229 148.256836,26.5117188 L148.256836,27.46875 L141.352539,27.46875 C141.424154,28.3411502 141.715492,29.0312475 142.226562,29.5390625 C142.737633,30.0468775 143.38053,30.3007812 144.155273,30.3007812 C145.242518,30.3007812 146.127926,29.8613325 146.811523,28.9824219 L148.09082,30.203125 C147.667641,30.8346386 147.102868,31.3245425 146.396484,31.6728516 C145.690101,32.0211606 144.897465,32.1953125 144.018555,32.1953125 Z M143.735352,23.1425781 C143.084307,23.1425781 142.558596,23.3704404 142.158203,23.8261719 C141.75781,24.2819033 141.502279,24.9166626 141.391602,25.7304688 L145.913086,25.7304688 L145.913086,25.5546875 C145.861002,24.7604127 145.649416,24.1598328 145.27832,23.7529297 C144.907225,23.3460266 144.392907,23.1425781 143.735352,23.1425781 Z M161.391602,32 C161.287434,31.7981761 161.196289,31.4694033 161.118164,31.0136719 C160.362952,31.8014362 159.438482,32.1953125 158.344727,32.1953125 C157.283523,32.1953125 156.417647,31.8925812 155.74707,31.2871094 C155.076494,30.6816376 154.741211,29.9329472 154.741211,29.0410156 C154.741211,27.9147079 155.159501,27.0504587 155.996094,26.4482422 C156.832686,25.8460256 158.028964,25.5449219 159.584961,25.5449219 L161.040039,25.5449219 L161.040039,24.8515625 C161.040039,24.3046848 160.887046,23.8668636 160.581055,23.5380859 C160.275064,23.2093083 159.809573,23.0449219 159.18457,23.0449219 C158.644203,23.0449219 158.201499,23.1800117 157.856445,23.4501953 C157.511392,23.720379 157.338867,24.0638 157.338867,24.4804688 L154.96582,24.4804688 C154.96582,23.9010388 155.157876,23.359052 155.541992,22.8544922 C155.926109,22.3499324 156.448564,21.9544285 157.109375,21.6679688 C157.770186,21.381509 158.507483,21.2382812 159.321289,21.2382812 C160.558274,21.2382812 161.544593,21.5491505 162.280273,22.1708984 C163.015954,22.7926463 163.393555,23.666661 163.413086,24.7929688 L163.413086,29.5585938 C163.413086,30.5091193 163.546548,31.2675753 163.813477,31.8339844 L163.813477,32 L161.391602,32 Z M158.78418,30.2910156 C159.252932,30.2910156 159.694008,30.1770845 160.107422,29.9492188 C160.520835,29.721353 160.831705,29.4153665 161.040039,29.03125 L161.040039,27.0390625 L159.760742,27.0390625 C158.881832,27.0390625 158.221031,27.1920558 157.77832,27.4980469 C157.33561,27.804038 157.114258,28.2369764 157.114258,28.796875 C157.114258,29.2526064 157.265623,29.6155585 157.568359,29.8857422 C157.871095,30.1559258 158.276365,30.2910156 158.78418,30.2910156 Z M173.579102,26.7167969 L173.579102,32 L171.108398,32 L171.108398,17.78125 L176.547852,17.78125 C178.136401,17.78125 179.397782,18.1946573 180.332031,19.0214844 C181.266281,19.8483114 181.733398,20.9420505 181.733398,22.3027344 C181.733398,23.6959705 181.276046,24.779944 180.361328,25.5546875 C179.44661,26.329431 178.165698,26.7167969 176.518555,26.7167969 L173.579102,26.7167969 Z M173.579102,24.734375 L176.547852,24.734375 C177.426762,24.734375 178.097328,24.5276713 178.55957,24.1142578 C179.021812,23.7008443 179.25293,23.1035195 179.25293,22.3222656 C179.25293,21.5540326 179.018557,20.940432 178.549805,20.4814453 C178.081052,20.0224586 177.436528,19.7864584 176.616211,19.7734375 L173.579102,19.7734375 L173.579102,24.734375 Z M189.975586,32 C189.871419,31.7981761 189.780274,31.4694033 189.702148,31.0136719 C188.946936,31.8014362 188.022466,32.1953125 186.928711,32.1953125 C185.867508,32.1953125 185.001631,31.8925812 184.331055,31.2871094 C183.660478,30.6816376 183.325195,29.9329472 183.325195,29.0410156 C183.325195,27.9147079 183.743485,27.0504587 184.580078,26.4482422 C185.416671,25.8460256 186.612948,25.5449219 188.168945,25.5449219 L189.624023,25.5449219 L189.624023,24.8515625 C189.624023,24.3046848 189.47103,23.8668636 189.165039,23.5380859 C188.859048,23.2093083 188.393558,23.0449219 187.768555,23.0449219 C187.228187,23.0449219 186.785483,23.1800117 186.44043,23.4501953 C186.095376,23.720379 185.922852,24.0638 185.922852,24.4804688 L183.549805,24.4804688 C183.549805,23.9010388 183.74186,23.359052 184.125977,22.8544922 C184.510093,22.3499324 185.032549,21.9544285 185.693359,21.6679688 C186.35417,21.381509 187.091467,21.2382812 187.905273,21.2382812 C189.142259,21.2382812 190.128577,21.5491505 190.864258,22.1708984 C191.599939,22.7926463 191.977539,23.666661 191.99707,24.7929688 L191.99707,29.5585938 C191.99707,30.5091193 192.130533,31.2675753 192.397461,31.8339844 L192.397461,32 L189.975586,32 Z M187.368164,30.2910156 C187.836916,30.2910156 188.277993,30.1770845 188.691406,29.9492188 C189.10482,29.721353 189.415689,29.4153665 189.624023,29.03125 L189.624023,27.0390625 L188.344727,27.0390625 C187.465816,27.0390625 186.805015,27.1920558 186.362305,27.4980469 C185.919594,27.804038 185.698242,28.2369764 185.698242,28.796875 C185.698242,29.2526064 185.849608,29.6155585 186.152344,29.8857422 C186.45508,30.1559258 186.860349,30.2910156 187.368164,30.2910156 Z M197.456055,18.8652344 L197.456055,21.4335938 L199.321289,21.4335938 L199.321289,23.1914062 L197.456055,23.1914062 L197.456055,29.0898438 C197.456055,29.4934916 197.535806,29.7848298 197.695312,29.9638672 C197.854819,30.1429045 198.139646,30.2324219 198.549805,30.2324219 C198.823244,30.2324219 199.099933,30.1998701 199.379883,30.1347656 L199.379883,31.9707031 C198.839516,32.1204435 198.318687,32.1953125 197.817383,32.1953125 C195.994457,32.1953125 195.083008,31.1894632 195.083008,29.1777344 L195.083008,23.1914062 L193.344727,23.1914062 L193.344727,21.4335938 L195.083008,21.4335938 L195.083008,18.8652344 L197.456055,18.8652344 Z M206.665039,23.6015625 C206.352537,23.5494789 206.030275,23.5234375 205.698242,23.5234375 C204.610997,23.5234375 203.878583,23.9401 203.500977,24.7734375 L203.500977,32 L201.12793,32 L201.12793,21.4335938 L203.393555,21.4335938 L203.452148,22.6152344 C204.025068,21.697261 204.819331,21.2382812 205.834961,21.2382812 C206.173504,21.2382812 206.453449,21.2838537 206.674805,21.375 L206.665039,23.6015625 Z M207.719727,26.6191406 C207.719727,25.5839792 207.924803,24.6513713 208.334961,23.8212891 C208.745119,22.9912068 209.321285,22.3531923 210.063477,21.9072266 C210.805668,21.4612608 211.658524,21.2382812 212.62207,21.2382812 C214.047859,21.2382812 215.205074,21.697261 216.09375,22.6152344 C216.982426,23.5332077 217.462565,24.7506435 217.53418,26.2675781 L217.543945,26.8242188 C217.543945,27.8658906 217.343752,28.7968709 216.943359,29.6171875 C216.542967,30.4375041 215.970056,31.0722634 215.224609,31.5214844 C214.479163,31.9707054 213.618169,32.1953125 212.641602,32.1953125 C211.150709,32.1953125 209.957687,31.6988982 209.0625,30.7060547 C208.167313,29.7132112 207.719727,28.3899822 207.719727,26.7363281 L207.719727,26.6191406 Z M210.092773,26.8242188 C210.092773,27.9114638 210.317381,28.7626922 210.766602,29.3779297 C211.215823,29.9931671 211.840816,30.3007812 212.641602,30.3007812 C213.442387,30.3007812 214.065753,29.9882844 214.511719,29.3632812 C214.957685,28.7382781 215.180664,27.8235737 215.180664,26.6191406 C215.180664,25.551427 214.951174,24.7050812 214.492188,24.0800781 C214.033201,23.455075 213.409835,23.1425781 212.62207,23.1425781 C211.847327,23.1425781 211.232099,23.4501922 210.776367,24.0654297 C210.320636,24.6806671 210.092773,25.6002543 210.092773,26.8242188 Z M221.75293,21.4335938 L221.821289,22.6542969 C222.602543,21.7102817 223.627923,21.2382812 224.897461,21.2382812 C227.097993,21.2382812 228.217773,22.4980343 228.256836,25.0175781 L228.256836,32 L225.883789,32 L225.883789,25.1542969 C225.883789,24.4837206 225.738934,23.9873063 225.449219,23.6650391 C225.159504,23.3427718 224.685876,23.1816406 224.02832,23.1816406 C223.071284,23.1816406 222.358401,23.614579 221.889648,24.4804688 L221.889648,32 L219.516602,32 L219.516602,21.4335938 L221.75293,21.4335938 Z" id="Become-a-Patron" fill="#FFFFFF"></path>
                <g id="Group" transform="translate(24.000000, 12.244898)" fill-rule="nonzero">
                    <g id="logo">
                        <path d="M20.4341618,0 C14.2212907,0 9.16666667,5.15720688 9.16666667,11.4967261 C9.16666667,17.8170511 14.2212907,22.9591837 20.4341618,22.9591837 C26.6278164,22.9591837 31.6666667,17.8170511 31.6666667,11.4967261 C31.6666667,5.15720688 26.6278164,8.50975966e-16 20.4341618,8.50975966e-16" id="Shape" fill="#FFFFFF"></path>
                        <polygon id="Shape" fill="#052A49" points="0 30.6122449 0 0 5.83333333 0 5.83333333 30.6122449"></polygon>
                    </g>
                </g>
            </g>
        </g>
    </g>
</svg>