<?xml version="1.0" encoding="UTF-8"?>
<svg width="1000px" height="200px" viewBox="0 0 1000 200" version="1.1" xmlns="http://www.w3.org/2000/svg" xmlns:xlink="http://www.w3.org/1999/xlink">
    <!-- Generator: Sketch 48.1 (47250) - http://www.bohemiancoding.com/sketch -->
    <title>patreon</title>
    <desc>Created with Sketch.</desc>
    <defs></defs>
    <g id="Donate-Buttons" stroke="none" stroke-width="1" fill="none" fill-rule="evenodd" transform="translate(-202.000000, -396.000000)">
        <g id="patreon" transform="translate(202.000000, 396.000000)">
            <rect id="Rectangle" fill="#F86753" x="0" y="0" width="1000" height="200"></rect>
            <g id="Group" transform="translate(83.000000, 39.000000)">
                <path d="M227,89.875 L227,33 L246.492188,33 C252.924511,33 257.820296,34.2890496 261.179688,36.8671875 C264.539079,39.4453254 266.21875,43.2864328 266.21875,48.390625 C266.21875,50.9948047 265.515632,53.3385313 264.109375,55.421875 C262.703118,57.5052187 260.645847,59.1197859 257.9375,60.265625 C261.010432,61.0989625 263.38671,62.6679572 265.066406,64.9726562 C266.746102,67.2773553 267.585938,70.0442547 267.585938,73.2734375 C267.585938,78.6120059 265.873715,82.7135273 262.449219,85.578125 C259.024722,88.4427227 254.122428,89.875 247.742188,89.875 L227,89.875 Z M236.882812,64.2109375 L236.882812,81.984375 L247.859375,81.984375 C250.958349,81.984375 253.3802,81.2161535 255.125,79.6796875 C256.8698,78.1432215 257.742188,76.0078262 257.742188,73.2734375 C257.742188,67.3619496 254.721384,64.3411465 248.679688,64.2109375 L236.882812,64.2109375 Z M236.882812,56.9453125 L246.570312,56.9453125 C249.643245,56.9453125 252.045564,56.2487049 253.777344,54.8554688 C255.509123,53.4622326 256.375,51.4895961 256.375,48.9375 C256.375,46.1249859 255.574227,44.0937563 253.972656,42.84375 C252.371086,41.5937437 249.877621,40.96875 246.492188,40.96875 L236.882812,40.96875 L236.882812,56.9453125 Z M295.164062,90.65625 C289.148407,90.65625 284.272154,88.7617377 280.535156,84.9726562 C276.798158,81.1835748 274.929688,76.1380523 274.929688,69.8359375 L274.929688,68.6640625 C274.929688,64.4452914 275.743481,60.6757979 277.371094,57.3554688 C278.998706,54.0351396 281.283839,51.4505301 284.226562,49.6015625 C287.169286,47.7525949 290.450503,46.828125 294.070312,46.828125 C299.82555,46.828125 304.27212,48.6640441 307.410156,52.3359375 C310.548193,56.0078309 312.117188,61.2030914 312.117188,67.921875 L312.117188,71.75 L284.5,71.75 C284.78646,75.2396008 285.951813,77.9999898 287.996094,80.03125 C290.040375,82.0625102 292.611964,83.078125 295.710938,83.078125 C300.059918,83.078125 303.601549,81.3203301 306.335938,77.8046875 L311.453125,82.6875 C309.760408,85.2135543 307.501316,87.1731701 304.675781,88.5664062 C301.850246,89.9596424 298.679705,90.65625 295.164062,90.65625 Z M294.03125,54.4453125 C291.42707,54.4453125 289.324227,55.3567617 287.722656,57.1796875 C286.121086,59.0026133 285.098961,61.5416504 284.65625,64.796875 L302.742188,64.796875 L302.742188,64.09375 C302.533853,60.9166508 301.687507,58.5143311 300.203125,56.8867188 C298.718743,55.2591064 296.661471,54.4453125 294.03125,54.4453125 Z M336.84375,83.078125 C339.213554,83.078125 341.17968,82.3880277 342.742188,81.0078125 C344.304695,79.6275973 345.13802,77.9218852 345.242188,75.890625 L354.1875,75.890625 C354.083333,78.5208465 353.263029,80.975249 351.726562,83.2539062 C350.190096,85.5325635 348.106784,87.3359309 345.476562,88.6640625 C342.846341,89.9921941 340.007828,90.65625 336.960938,90.65625 C331.04945,90.65625 326.361996,88.7422066 322.898438,84.9140625 C319.434879,81.0859184 317.703125,75.7995129 317.703125,69.0546875 L317.703125,68.078125 C317.703125,61.6458012 319.421858,56.4961131 322.859375,52.6289062 C326.296892,48.7616994 330.984345,46.828125 336.921875,46.828125 C341.947942,46.828125 346.042953,48.2929541 349.207031,51.2226562 C352.37111,54.1523584 354.031249,57.9999762 354.1875,62.765625 L345.242188,62.765625 C345.13802,60.3437379 344.311206,58.3515703 342.761719,56.7890625 C341.212232,55.2265547 339.239595,54.4453125 336.84375,54.4453125 C333.770818,54.4453125 331.40105,55.5585826 329.734375,57.7851562 C328.0677,60.0117299 327.221354,63.3906023 327.195312,67.921875 L327.195312,69.4453125 C327.195312,74.0286688 328.022127,77.4466033 329.675781,79.6992188 C331.329435,81.9518342 333.718734,83.078125 336.84375,83.078125 Z M359.578125,68.3515625 C359.578125,64.2109168 360.398429,60.4804854 362.039062,57.1601562 C363.679696,53.8398271 365.98436,51.2877693 368.953125,49.5039062 C371.92189,47.7200432 375.333314,46.828125 379.1875,46.828125 C384.890654,46.828125 389.519513,48.6640441 393.074219,52.3359375 C396.628924,56.0078309 398.549478,60.8775738 398.835938,66.9453125 L398.875,69.171875 C398.875,73.3385625 398.074227,77.0624836 396.472656,80.34375 C394.871086,83.6250164 392.579442,86.1640535 389.597656,87.9609375 C386.615871,89.7578215 383.171895,90.65625 379.265625,90.65625 C373.302054,90.65625 368.529966,88.6705928 364.949219,84.6992188 C361.368472,80.7278447 359.578125,75.4349289 359.578125,68.8203125 L359.578125,68.3515625 Z M369.070312,69.171875 C369.070312,73.5208551 369.968741,76.9257689 371.765625,79.3867188 C373.562509,81.8476686 376.062484,83.078125 379.265625,83.078125 C382.468766,83.078125 384.962231,81.8281375 386.746094,79.328125 C388.529957,76.8281125 389.421875,73.1692949 389.421875,68.3515625 C389.421875,64.0807078 388.503915,60.695325 386.667969,58.1953125 C384.832022,55.6953 382.338557,54.4453125 379.1875,54.4453125 C376.088526,54.4453125 373.627613,55.6757689 371.804688,58.1367188 C369.981762,60.5976686 369.070312,64.2760172 369.070312,69.171875 Z M415.828125,47.609375 L416.101562,52.0234375 C419.070327,48.5598785 423.132787,46.828125 428.289062,46.828125 C433.940132,46.828125 437.807281,48.9895617 439.890625,53.3125 C442.963557,48.9895617 447.28643,46.828125 452.859375,46.828125 C457.520857,46.828125 460.990874,48.1171746 463.269531,50.6953125 C465.548188,53.2734504 466.713541,57.0754957 466.765625,62.1015625 L466.765625,89.875 L457.273438,89.875 L457.273438,62.375 C457.273438,59.6926949 456.687506,57.7265688 455.515625,56.4765625 C454.343744,55.2265562 452.403659,54.6015625 449.695312,54.6015625 C447.533843,54.6015625 445.769538,55.1809838 444.402344,56.3398438 C443.035149,57.4987037 442.078128,59.0156156 441.53125,60.890625 L441.570312,89.875 L432.078125,89.875 L432.078125,62.0625 C431.947916,57.0885168 429.408879,54.6015625 424.460938,54.6015625 C420.658835,54.6015625 417.96355,56.1510262 416.375,59.25 L416.375,89.875 L406.882812,89.875 L406.882812,47.609375 L415.828125,47.609375 Z M495.125,90.65625 C489.109345,90.65625 484.233092,88.7617377 480.496094,84.9726562 C476.759096,81.1835748 474.890625,76.1380523 474.890625,69.8359375 L474.890625,68.6640625 C474.890625,64.4452914 475.704419,60.6757979 477.332031,57.3554688 C478.959644,54.0351396 481.244777,51.4505301 484.1875,49.6015625 C487.130223,47.7525949 490.41144,46.828125 494.03125,46.828125 C499.786487,46.828125 504.233057,48.6640441 507.371094,52.3359375 C510.50913,56.0078309 512.078125,61.2030914 512.078125,67.921875 L512.078125,71.75 L484.460938,71.75 C484.747397,75.2396008 485.91275,77.9999898 487.957031,80.03125 C490.001312,82.0625102 492.572901,83.078125 495.671875,83.078125 C500.020855,83.078125 503.562486,81.3203301 506.296875,77.8046875 L511.414062,82.6875 C509.721346,85.2135543 507.462254,87.1731701 504.636719,88.5664062 C501.811184,89.9596424 498.640643,90.65625 495.125,90.65625 Z M493.992188,54.4453125 C491.388008,54.4453125 489.285164,55.3567617 487.683594,57.1796875 C486.082023,59.0026133 485.059898,61.5416504 484.617188,64.796875 L502.703125,64.796875 L502.703125,64.09375 C502.494791,60.9166508 501.648445,58.5143311 500.164062,56.8867188 C498.67968,55.2591064 496.622409,54.4453125 493.992188,54.4453125 Z M564.617188,89.875 C564.200519,89.0677043 563.835939,87.7526133 563.523438,85.9296875 C560.502589,89.0807449 556.804709,90.65625 552.429688,90.65625 C548.184875,90.65625 544.721368,89.4453246 542.039062,87.0234375 C539.356757,84.6015504 538.015625,81.6067887 538.015625,78.0390625 C538.015625,73.5338316 539.688785,70.076835 543.035156,67.6679688 C546.381527,65.2591025 551.166636,64.0546875 557.390625,64.0546875 L563.210938,64.0546875 L563.210938,61.28125 C563.210938,59.0937391 562.598964,57.3424545 561.375,56.0273438 C560.151036,54.712233 558.289075,54.0546875 555.789062,54.0546875 C553.627593,54.0546875 551.856778,54.5950467 550.476562,55.6757812 C549.096347,56.7565158 548.40625,58.1302 548.40625,59.796875 L538.914062,59.796875 C538.914062,57.4791551 539.682284,55.311208 541.21875,53.2929688 C542.755216,51.2747295 544.845039,49.6927141 547.488281,48.546875 C550.131524,47.4010359 553.080713,46.828125 556.335938,46.828125 C561.283879,46.828125 565.229152,48.0716021 568.171875,50.5585938 C571.114598,53.0455854 572.625,56.5416441 572.703125,61.046875 L572.703125,80.109375 C572.703125,83.9114773 573.236974,86.9453012 574.304688,89.2109375 L574.304688,89.875 L564.617188,89.875 Z M554.1875,83.0390625 C556.062509,83.0390625 557.826815,82.5833379 559.480469,81.671875 C561.134123,80.7604121 562.3776,79.536466 563.210938,78 L563.210938,70.03125 L558.09375,70.03125 C554.578107,70.03125 551.934905,70.643223 550.164062,71.8671875 C548.39322,73.091152 547.507812,74.8229055 547.507812,77.0625 C547.507812,78.8854258 548.113275,80.3372342 549.324219,81.4179688 C550.535162,82.4987033 552.15624,83.0390625 554.1875,83.0390625 Z M613.367188,68.7421875 L613.367188,89.875 L603.484375,89.875 L603.484375,33 L625.242188,33 C631.596386,33 636.641908,34.6536293 640.378906,37.9609375 C644.115904,41.2682457 645.984375,45.643202 645.984375,51.0859375 C645.984375,56.658882 644.154966,60.9947762 640.496094,64.09375 C636.837221,67.1927238 631.713575,68.7421875 625.125,68.7421875 L613.367188,68.7421875 Z M613.367188,60.8125 L625.242188,60.8125 C628.75783,60.8125 631.440095,59.9856854 633.289062,58.3320312 C635.13803,56.6783771 636.0625,54.2890781 636.0625,51.1640625 C636.0625,48.0911305 635.125009,45.6367279 633.25,43.8007812 C631.374991,41.9648346 628.796891,41.0208336 625.515625,40.96875 L613.367188,40.96875 L613.367188,60.8125 Z M678.953125,89.875 C678.536456,89.0677043 678.171877,87.7526133 677.859375,85.9296875 C674.838527,89.0807449 671.140647,90.65625 666.765625,90.65625 C662.520812,90.65625 659.057305,89.4453246 656.375,87.0234375 C653.692695,84.6015504 652.351562,81.6067887 652.351562,78.0390625 C652.351562,73.5338316 654.024723,70.076835 657.371094,67.6679688 C660.717465,65.2591025 665.502573,64.0546875 671.726562,64.0546875 L677.546875,64.0546875 L677.546875,61.28125 C677.546875,59.0937391 676.934902,57.3424545 675.710938,56.0273438 C674.486973,54.712233 672.625013,54.0546875 670.125,54.0546875 C667.963531,54.0546875 666.192715,54.5950467 664.8125,55.6757812 C663.432285,56.7565158 662.742188,58.1302 662.742188,59.796875 L653.25,59.796875 C653.25,57.4791551 654.018221,55.311208 655.554688,53.2929688 C657.091154,51.2747295 659.180976,49.6927141 661.824219,48.546875 C664.467461,47.4010359 667.41665,46.828125 670.671875,46.828125 C675.619816,46.828125 679.565089,48.0716021 682.507812,50.5585938 C685.450536,53.0455854 686.960937,56.5416441 687.039062,61.046875 L687.039062,80.109375 C687.039062,83.9114773 687.572911,86.9453012 688.640625,89.2109375 L688.640625,89.875 L678.953125,89.875 Z M668.523438,83.0390625 C670.398447,83.0390625 672.162752,82.5833379 673.816406,81.671875 C675.47006,80.7604121 676.713538,79.536466 677.546875,78 L677.546875,70.03125 L672.429688,70.03125 C668.914045,70.03125 666.270842,70.643223 664.5,71.8671875 C662.729158,73.091152 661.84375,74.8229055 661.84375,77.0625 C661.84375,78.8854258 662.449213,80.3372342 663.660156,81.4179688 C664.8711,82.4987033 666.492177,83.0390625 668.523438,83.0390625 Z M708.875,37.3359375 L708.875,47.609375 L716.335938,47.609375 L716.335938,54.640625 L708.875,54.640625 L708.875,78.234375 C708.875,79.8489664 709.194007,81.0143193 709.832031,81.7304688 C710.470055,82.4466182 711.609367,82.8046875 713.25,82.8046875 C714.343755,82.8046875 715.450515,82.6744805 716.570312,82.4140625 L716.570312,89.7578125 C714.408843,90.3567738 712.325531,90.65625 710.320312,90.65625 C703.028609,90.65625 699.382812,86.6328527 699.382812,78.5859375 L699.382812,54.640625 L692.429688,54.640625 L692.429688,47.609375 L699.382812,47.609375 L699.382812,37.3359375 L708.875,37.3359375 Z M745.710938,56.28125 C744.460931,56.0729156 743.171882,55.96875 741.84375,55.96875 C737.49477,55.96875 734.565112,57.6354 733.054688,60.96875 L733.054688,89.875 L723.5625,89.875 L723.5625,47.609375 L732.625,47.609375 L732.859375,52.3359375 C735.151053,48.6640441 738.328105,46.828125 742.390625,46.828125 C743.744798,46.828125 744.864579,47.0104148 745.75,47.375 L745.710938,56.28125 Z M749.929688,68.3515625 C749.929688,64.2109168 750.749992,60.4804854 752.390625,57.1601562 C754.031258,53.8398271 756.335923,51.2877693 759.304688,49.5039062 C762.273452,47.7200432 765.684877,46.828125 769.539062,46.828125 C775.242216,46.828125 779.871076,48.6640441 783.425781,52.3359375 C786.980487,56.0078309 788.90104,60.8775738 789.1875,66.9453125 L789.226562,69.171875 C789.226562,73.3385625 788.425789,77.0624836 786.824219,80.34375 C785.222648,83.6250164 782.931004,86.1640535 779.949219,87.9609375 C776.967433,89.7578215 773.523457,90.65625 769.617188,90.65625 C763.653616,90.65625 758.881528,88.6705928 755.300781,84.6992188 C751.720034,80.7278447 749.929688,75.4349289 749.929688,68.8203125 L749.929688,68.3515625 Z M759.421875,69.171875 C759.421875,73.5208551 760.320304,76.9257689 762.117188,79.3867188 C763.914071,81.8476686 766.414046,83.078125 769.617188,83.078125 C772.820329,83.078125 775.313793,81.8281375 777.097656,79.328125 C778.881519,76.8281125 779.773438,73.1692949 779.773438,68.3515625 C779.773438,64.0807078 778.855478,60.695325 777.019531,58.1953125 C775.183585,55.6953 772.69012,54.4453125 769.539062,54.4453125 C766.440089,54.4453125 763.979176,55.6757689 762.15625,58.1367188 C760.333324,60.5976686 759.421875,64.2760172 759.421875,69.171875 Z M806.0625,47.609375 L806.335938,52.4921875 C809.460953,48.716127 813.562475,46.828125 818.640625,46.828125 C827.442752,46.828125 831.921874,51.8671371 832.078125,61.9453125 L832.078125,89.875 L822.585938,89.875 L822.585938,62.4921875 C822.585938,59.8098824 822.006516,57.8242252 820.847656,56.5351562 C819.688796,55.2460873 817.794284,54.6015625 815.164062,54.6015625 C811.335918,54.6015625 808.484384,56.333316 806.609375,59.796875 L806.609375,89.875 L797.117188,89.875 L797.117188,47.609375 L806.0625,47.609375 Z" id="Become-a-Patron" fill="#FFFFFF"></path>
                <g id="logo" fill-rule="nonzero">
                    <path d="M81.7366472,0 C56.8851629,0 36.6666667,20.6288275 36.6666667,45.9869044 C36.6666667,71.2682045 56.8851629,91.8367347 81.7366472,91.8367347 C106.511266,91.8367347 126.666667,71.2682045 126.666667,45.9869044 C126.666667,20.6288275 106.511266,3.40390387e-15 81.7366472,3.40390387e-15" id="Shape" fill="#FFFFFF"></path>
                    <polygon id="Shape" fill="#052A49" points="0 122.44898 0 0 23.3333333 0 23.3333333 122.44898"></polygon>
                </g>
            </g>
        </g>
    </g>
</svg>