<?xml version="1.0" encoding="UTF-8"?>
<svg width="1000px" height="200px" viewBox="0 0 1000 200" version="1.1" xmlns="http://www.w3.org/2000/svg" xmlns:xlink="http://www.w3.org/1999/xlink">
    <!-- Generator: Sketch 48 (47235) - http://www.bohemiancoding.com/sketch -->
    <title>patreon</title>
    <desc>Created with Sketch.</desc>
    <defs></defs>
    <g id="Donate-Buttons" stroke="none" stroke-width="1" fill="none" fill-rule="evenodd" transform="translate(-200.000000, -304.000000)">
        <g id="patreon" transform="translate(200.000000, 304.000000)">
            <rect id="Rectangle" fill="#F86753" x="0" y="0" width="1000" height="200"></rect>
            <path d="M320,127.875 L320,71 L339.492188,71 C345.924511,71 350.820296,72.2890496 354.179688,74.8671875 C357.539079,77.4453254 359.21875,81.2864328 359.21875,86.390625 C359.21875,88.9948047 358.515632,91.3385313 357.109375,93.421875 C355.703118,95.5052187 353.645847,97.1197859 350.9375,98.265625 C354.010432,99.0989625 356.38671,100.667957 358.066406,102.972656 C359.746102,105.277355 360.585938,108.044255 360.585938,111.273438 C360.585938,116.612006 358.873715,120.713527 355.449219,123.578125 C352.024722,126.442723 347.122428,127.875 340.742188,127.875 L320,127.875 Z M329.882812,102.210938 L329.882812,119.984375 L340.859375,119.984375 C343.958349,119.984375 346.3802,119.216154 348.125,117.679688 C349.8698,116.143221 350.742188,114.007826 350.742188,111.273438 C350.742188,105.36195 347.721384,102.341146 341.679688,102.210938 L329.882812,102.210938 Z M329.882812,94.9453125 L339.570312,94.9453125 C342.643245,94.9453125 345.045564,94.2487049 346.777344,92.8554688 C348.509123,91.4622326 349.375,89.4895961 349.375,86.9375 C349.375,84.1249859 348.574227,82.0937563 346.972656,80.84375 C345.371086,79.5937437 342.877621,78.96875 339.492188,78.96875 L329.882812,78.96875 L329.882812,94.9453125 Z M388.164062,128.65625 C382.148407,128.65625 377.272154,126.761738 373.535156,122.972656 C369.798158,119.183575 367.929688,114.138052 367.929688,107.835938 L367.929688,106.664062 C367.929688,102.445291 368.743481,98.6757979 370.371094,95.3554688 C371.998706,92.0351396 374.283839,89.4505301 377.226562,87.6015625 C380.169286,85.7525949 383.450503,84.828125 387.070312,84.828125 C392.82555,84.828125 397.27212,86.6640441 400.410156,90.3359375 C403.548193,94.0078309 405.117188,99.2030914 405.117188,105.921875 L405.117188,109.75 L377.5,109.75 C377.78646,113.239601 378.951813,115.99999 380.996094,118.03125 C383.040375,120.06251 385.611964,121.078125 388.710938,121.078125 C393.059918,121.078125 396.601549,119.32033 399.335938,115.804688 L404.453125,120.6875 C402.760408,123.213554 400.501316,125.17317 397.675781,126.566406 C394.850246,127.959642 391.679705,128.65625 388.164062,128.65625 Z M387.03125,92.4453125 C384.42707,92.4453125 382.324227,93.3567617 380.722656,95.1796875 C379.121086,97.0026133 378.098961,99.5416504 377.65625,102.796875 L395.742188,102.796875 L395.742188,102.09375 C395.533853,98.9166508 394.687507,96.5143311 393.203125,94.8867188 C391.718743,93.2591064 389.661471,92.4453125 387.03125,92.4453125 Z M429.84375,121.078125 C432.213554,121.078125 434.17968,120.388028 435.742188,119.007812 C437.304695,117.627597 438.13802,115.921885 438.242188,113.890625 L447.1875,113.890625 C447.083333,116.520846 446.263029,118.975249 444.726562,121.253906 C443.190096,123.532563 441.106784,125.335931 438.476562,126.664062 C435.846341,127.992194 433.007828,128.65625 429.960938,128.65625 C424.04945,128.65625 419.361996,126.742207 415.898438,122.914062 C412.434879,119.085918 410.703125,113.799513 410.703125,107.054688 L410.703125,106.078125 C410.703125,99.6458012 412.421858,94.4961131 415.859375,90.6289062 C419.296892,86.7616994 423.984345,84.828125 429.921875,84.828125 C434.947942,84.828125 439.042953,86.2929541 442.207031,89.2226562 C445.37111,92.1523584 447.031249,95.9999762 447.1875,100.765625 L438.242188,100.765625 C438.13802,98.3437379 437.311206,96.3515703 435.761719,94.7890625 C434.212232,93.2265547 432.239595,92.4453125 429.84375,92.4453125 C426.770818,92.4453125 424.40105,93.5585826 422.734375,95.7851562 C421.0677,98.0117299 420.221354,101.390602 420.195312,105.921875 L420.195312,107.445312 C420.195312,112.028669 421.022127,115.446603 422.675781,117.699219 C424.329435,119.951834 426.718734,121.078125 429.84375,121.078125 Z M452.578125,106.351562 C452.578125,102.210917 453.398429,98.4804854 455.039062,95.1601562 C456.679696,91.8398271 458.98436,89.2877693 461.953125,87.5039062 C464.92189,85.7200432 468.333314,84.828125 472.1875,84.828125 C477.890654,84.828125 482.519513,86.6640441 486.074219,90.3359375 C489.628924,94.0078309 491.549478,98.8775738 491.835938,104.945312 L491.875,107.171875 C491.875,111.338562 491.074227,115.062484 489.472656,118.34375 C487.871086,121.625016 485.579442,124.164054 482.597656,125.960938 C479.615871,127.757821 476.171895,128.65625 472.265625,128.65625 C466.302054,128.65625 461.529966,126.670593 457.949219,122.699219 C454.368472,118.727845 452.578125,113.434929 452.578125,106.820312 L452.578125,106.351562 Z M462.070312,107.171875 C462.070312,111.520855 462.968741,114.925769 464.765625,117.386719 C466.562509,119.847669 469.062484,121.078125 472.265625,121.078125 C475.468766,121.078125 477.962231,119.828137 479.746094,117.328125 C481.529957,114.828113 482.421875,111.169295 482.421875,106.351562 C482.421875,102.080708 481.503915,98.695325 479.667969,96.1953125 C477.832022,93.6953 475.338557,92.4453125 472.1875,92.4453125 C469.088526,92.4453125 466.627613,93.6757689 464.804688,96.1367188 C462.981762,98.5976686 462.070312,102.276017 462.070312,107.171875 Z M508.828125,85.609375 L509.101562,90.0234375 C512.070327,86.5598785 516.132787,84.828125 521.289062,84.828125 C526.940132,84.828125 530.807281,86.9895617 532.890625,91.3125 C535.963557,86.9895617 540.28643,84.828125 545.859375,84.828125 C550.520857,84.828125 553.990874,86.1171746 556.269531,88.6953125 C558.548188,91.2734504 559.713541,95.0754957 559.765625,100.101562 L559.765625,127.875 L550.273438,127.875 L550.273438,100.375 C550.273438,97.6926949 549.687506,95.7265688 548.515625,94.4765625 C547.343744,93.2265562 545.403659,92.6015625 542.695312,92.6015625 C540.533843,92.6015625 538.769538,93.1809838 537.402344,94.3398438 C536.035149,95.4987037 535.078128,97.0156156 534.53125,98.890625 L534.570312,127.875 L525.078125,127.875 L525.078125,100.0625 C524.947916,95.0885168 522.408879,92.6015625 517.460938,92.6015625 C513.658835,92.6015625 510.96355,94.1510262 509.375,97.25 L509.375,127.875 L499.882812,127.875 L499.882812,85.609375 L508.828125,85.609375 Z M588.125,128.65625 C582.109345,128.65625 577.233092,126.761738 573.496094,122.972656 C569.759096,119.183575 567.890625,114.138052 567.890625,107.835938 L567.890625,106.664062 C567.890625,102.445291 568.704419,98.6757979 570.332031,95.3554688 C571.959644,92.0351396 574.244777,89.4505301 577.1875,87.6015625 C580.130223,85.7525949 583.41144,84.828125 587.03125,84.828125 C592.786487,84.828125 597.233057,86.6640441 600.371094,90.3359375 C603.50913,94.0078309 605.078125,99.2030914 605.078125,105.921875 L605.078125,109.75 L577.460938,109.75 C577.747397,113.239601 578.91275,115.99999 580.957031,118.03125 C583.001312,120.06251 585.572901,121.078125 588.671875,121.078125 C593.020855,121.078125 596.562486,119.32033 599.296875,115.804688 L604.414062,120.6875 C602.721346,123.213554 600.462254,125.17317 597.636719,126.566406 C594.811184,127.959642 591.640643,128.65625 588.125,128.65625 Z M586.992188,92.4453125 C584.388008,92.4453125 582.285164,93.3567617 580.683594,95.1796875 C579.082023,97.0026133 578.059898,99.5416504 577.617188,102.796875 L595.703125,102.796875 L595.703125,102.09375 C595.494791,98.9166508 594.648445,96.5143311 593.164062,94.8867188 C591.67968,93.2591064 589.622409,92.4453125 586.992188,92.4453125 Z M657.617188,127.875 C657.200519,127.067704 656.835939,125.752613 656.523438,123.929688 C653.502589,127.080745 649.804709,128.65625 645.429688,128.65625 C641.184875,128.65625 637.721368,127.445325 635.039062,125.023438 C632.356757,122.60155 631.015625,119.606789 631.015625,116.039062 C631.015625,111.533832 632.688785,108.076835 636.035156,105.667969 C639.381527,103.259103 644.166636,102.054688 650.390625,102.054688 L656.210938,102.054688 L656.210938,99.28125 C656.210938,97.0937391 655.598964,95.3424545 654.375,94.0273438 C653.151036,92.712233 651.289075,92.0546875 648.789062,92.0546875 C646.627593,92.0546875 644.856778,92.5950467 643.476562,93.6757812 C642.096347,94.7565158 641.40625,96.1302 641.40625,97.796875 L631.914062,97.796875 C631.914062,95.4791551 632.682284,93.311208 634.21875,91.2929688 C635.755216,89.2747295 637.845039,87.6927141 640.488281,86.546875 C643.131524,85.4010359 646.080713,84.828125 649.335938,84.828125 C654.283879,84.828125 658.229152,86.0716021 661.171875,88.5585938 C664.114598,91.0455854 665.625,94.5416441 665.703125,99.046875 L665.703125,118.109375 C665.703125,121.911477 666.236974,124.945301 667.304688,127.210938 L667.304688,127.875 L657.617188,127.875 Z M647.1875,121.039062 C649.062509,121.039062 650.826815,120.583338 652.480469,119.671875 C654.134123,118.760412 655.3776,117.536466 656.210938,116 L656.210938,108.03125 L651.09375,108.03125 C647.578107,108.03125 644.934905,108.643223 643.164062,109.867188 C641.39322,111.091152 640.507812,112.822905 640.507812,115.0625 C640.507812,116.885426 641.113275,118.337234 642.324219,119.417969 C643.535162,120.498703 645.15624,121.039062 647.1875,121.039062 Z M706.367188,106.742188 L706.367188,127.875 L696.484375,127.875 L696.484375,71 L718.242188,71 C724.596386,71 729.641908,72.6536293 733.378906,75.9609375 C737.115904,79.2682457 738.984375,83.643202 738.984375,89.0859375 C738.984375,94.658882 737.154966,98.9947762 733.496094,102.09375 C729.837221,105.192724 724.713575,106.742188 718.125,106.742188 L706.367188,106.742188 Z M706.367188,98.8125 L718.242188,98.8125 C721.75783,98.8125 724.440095,97.9856854 726.289062,96.3320312 C728.13803,94.6783771 729.0625,92.2890781 729.0625,89.1640625 C729.0625,86.0911305 728.125009,83.6367279 726.25,81.8007812 C724.374991,79.9648346 721.796891,79.0208336 718.515625,78.96875 L706.367188,78.96875 L706.367188,98.8125 Z M771.953125,127.875 C771.536456,127.067704 771.171877,125.752613 770.859375,123.929688 C767.838527,127.080745 764.140647,128.65625 759.765625,128.65625 C755.520812,128.65625 752.057305,127.445325 749.375,125.023438 C746.692695,122.60155 745.351562,119.606789 745.351562,116.039062 C745.351562,111.533832 747.024723,108.076835 750.371094,105.667969 C753.717465,103.259103 758.502573,102.054688 764.726562,102.054688 L770.546875,102.054688 L770.546875,99.28125 C770.546875,97.0937391 769.934902,95.3424545 768.710938,94.0273438 C767.486973,92.712233 765.625013,92.0546875 763.125,92.0546875 C760.963531,92.0546875 759.192715,92.5950467 757.8125,93.6757812 C756.432285,94.7565158 755.742188,96.1302 755.742188,97.796875 L746.25,97.796875 C746.25,95.4791551 747.018221,93.311208 748.554688,91.2929688 C750.091154,89.2747295 752.180976,87.6927141 754.824219,86.546875 C757.467461,85.4010359 760.41665,84.828125 763.671875,84.828125 C768.619816,84.828125 772.565089,86.0716021 775.507812,88.5585938 C778.450536,91.0455854 779.960937,94.5416441 780.039062,99.046875 L780.039062,118.109375 C780.039062,121.911477 780.572911,124.945301 781.640625,127.210938 L781.640625,127.875 L771.953125,127.875 Z M761.523438,121.039062 C763.398447,121.039062 765.162752,120.583338 766.816406,119.671875 C768.47006,118.760412 769.713538,117.536466 770.546875,116 L770.546875,108.03125 L765.429688,108.03125 C761.914045,108.03125 759.270842,108.643223 757.5,109.867188 C755.729158,111.091152 754.84375,112.822905 754.84375,115.0625 C754.84375,116.885426 755.449213,118.337234 756.660156,119.417969 C757.8711,120.498703 759.492177,121.039062 761.523438,121.039062 Z M801.875,75.3359375 L801.875,85.609375 L809.335938,85.609375 L809.335938,92.640625 L801.875,92.640625 L801.875,116.234375 C801.875,117.848966 802.194007,119.014319 802.832031,119.730469 C803.470055,120.446618 804.609367,120.804688 806.25,120.804688 C807.343755,120.804688 808.450515,120.67448 809.570312,120.414062 L809.570312,127.757812 C807.408843,128.356774 805.325531,128.65625 803.320312,128.65625 C796.028609,128.65625 792.382812,124.632853 792.382812,116.585938 L792.382812,92.640625 L785.429688,92.640625 L785.429688,85.609375 L792.382812,85.609375 L792.382812,75.3359375 L801.875,75.3359375 Z M838.710938,94.28125 C837.460931,94.0729156 836.171882,93.96875 834.84375,93.96875 C830.49477,93.96875 827.565112,95.6354 826.054688,98.96875 L826.054688,127.875 L816.5625,127.875 L816.5625,85.609375 L825.625,85.609375 L825.859375,90.3359375 C828.151053,86.6640441 831.328105,84.828125 835.390625,84.828125 C836.744798,84.828125 837.864579,85.0104148 838.75,85.375 L838.710938,94.28125 Z M842.929688,106.351562 C842.929688,102.210917 843.749992,98.4804854 845.390625,95.1601562 C847.031258,91.8398271 849.335923,89.2877693 852.304688,87.5039062 C855.273452,85.7200432 858.684877,84.828125 862.539062,84.828125 C868.242216,84.828125 872.871076,86.6640441 876.425781,90.3359375 C879.980487,94.0078309 881.90104,98.8775738 882.1875,104.945312 L882.226562,107.171875 C882.226562,111.338562 881.425789,115.062484 879.824219,118.34375 C878.222648,121.625016 875.931004,124.164054 872.949219,125.960938 C869.967433,127.757821 866.523457,128.65625 862.617188,128.65625 C856.653616,128.65625 851.881528,126.670593 848.300781,122.699219 C844.720034,118.727845 842.929688,113.434929 842.929688,106.820312 L842.929688,106.351562 Z M852.421875,107.171875 C852.421875,111.520855 853.320304,114.925769 855.117188,117.386719 C856.914071,119.847669 859.414046,121.078125 862.617188,121.078125 C865.820329,121.078125 868.313793,119.828137 870.097656,117.328125 C871.881519,114.828113 872.773438,111.169295 872.773438,106.351562 C872.773438,102.080708 871.855478,98.695325 870.019531,96.1953125 C868.183585,93.6953 865.69012,92.4453125 862.539062,92.4453125 C859.440089,92.4453125 856.979176,93.6757689 855.15625,96.1367188 C853.333324,98.5976686 852.421875,102.276017 852.421875,107.171875 Z M899.0625,85.609375 L899.335938,90.4921875 C902.460953,86.716127 906.562475,84.828125 911.640625,84.828125 C920.442752,84.828125 924.921874,89.8671371 925.078125,99.9453125 L925.078125,127.875 L915.585938,127.875 L915.585938,100.492188 C915.585938,97.8098824 915.006516,95.8242252 913.847656,94.5351562 C912.688796,93.2460873 910.794284,92.6015625 908.164062,92.6015625 C904.335918,92.6015625 901.484384,94.333316 899.609375,97.796875 L899.609375,127.875 L890.117188,127.875 L890.117188,85.609375 L899.0625,85.609375 Z" id="Become-a-Patron" fill="#FFFFFF"></path>
            <g id="Group" transform="translate(91.000000, 39.000000)" fill-rule="nonzero">
                <g id="logo">
                    <path d="M81.7366472,0 C56.8851629,0 36.6666667,20.6288275 36.6666667,45.9869044 C36.6666667,71.2682045 56.8851629,91.8367347 81.7366472,91.8367347 C106.511266,91.8367347 126.666667,71.2682045 126.666667,45.9869044 C126.666667,20.6288275 106.511266,3.40390387e-15 81.7366472,3.40390387e-15" id="Shape" fill="#FFFFFF"></path>
                    <polygon id="Shape" fill="#052A49" points="0 122.44898 0 0 23.3333333 0 23.3333333 122.44898"></polygon>
                </g>
            </g>
        </g>
    </g>
</svg>