<?xml version="1.0" encoding="UTF-8"?>
<svg width="1000px" height="200px" viewBox="0 0 1000 200" version="1.1" xmlns="http://www.w3.org/2000/svg" xmlns:xlink="http://www.w3.org/1999/xlink">
    <!-- Generator: Sketch 48 (47235) - http://www.bohemiancoding.com/sketch -->
    <title>paypal</title>
    <desc>Created with Sketch.</desc>
    <defs></defs>
    <g id="Donate-Buttons" stroke="none" stroke-width="1" fill="none" fill-rule="evenodd" transform="translate(-204.000000, -560.000000)">
        <g id="paypal" transform="translate(204.000000, 560.000000)">
            <rect id="Rectangle" fill="#0070BA" x="0" y="0" width="1000" height="200"></rect>
            <g id="logo" transform="translate(500.000000, 48.000000)" fill-rule="nonzero">
                <path d="M132,25.2 C132.4,25.2 132.8,25.2 133.2,25.2 L152.8,25.2 C157.2,24.8 161.6,25.6 165.6,26.8 C168.8,27.6 171.6,29.6 173.6,32.4 C175.6,35.6 176.4,39.6 176,43.6 C175.6,47.2 174.8,50.4 173.6,53.6 C172.4,56.8 170.4,59.6 168,62 C164.4,64.8 160,66.8 155.6,67.6 C151.2,68 146.8,68 142.4,68 C141.2,68 140.4,68.4 140,69.6 C139.6,70.4 139.2,71.2 139.2,72 C138.4,76.8 137.6,81.6 136.8,86.4 C136.4,88 135.2,89.2 133.6,89.2 L122.4,89.2 C121.2,89.2 120.4,88.4 120.4,87.2 C120.4,87.2 120.4,87.2 120.4,86.8 C123.6,67.2 126.4,47.6 129.6,28.4 C129.6,26.8 130.8,25.6 132,25.2 Z M144.4,38 C144,38.4 143.6,39.2 143.6,39.6 C142.8,44.4 142,49.6 141.2,54.4 L144.8,54.4 C148,54.8 151.2,54 154,52.8 C156,51.6 157.6,49.6 158,47.2 C158.8,45.2 158.8,42.8 158,40.8 C157.2,39.2 156,38.4 154.4,37.6 C151.6,36.8 149.2,36.8 146.4,36.8 C146,37.6 145.2,37.6 144.4,38 Z" id="Shape" fill="#FFFFFF"></path>
                <path d="M185.2,48.4 C189.2,46 193.6,44.8 198,45.2 C201.6,45.2 204.8,46 208,47.6 C209.2,48.4 210,49.6 210.8,50.8 C211.2,49.6 211.2,48.8 211.2,47.6 C211.6,46.8 212.4,46 213.2,46 L224,46 C225.2,46 226,46.8 226,48 C226,48 226,48.4 226,48.4 C224,60.8 222,73.2 220,86 C219.6,87.6 218.4,88.8 216.8,88.8 L206.8,88.8 C206,88.8 205.2,88.4 204.8,87.6 C204.8,87.2 204.8,86.4 204.8,86 C204.8,85.2 205.2,84.4 205.2,83.6 C202.8,86 200,87.6 196.8,88.8 C193.2,90 189.2,90 185.2,89.2 C182.4,88.8 179.6,87.2 177.2,85.2 C174.8,82.8 172.8,79.2 172.4,75.6 C171.6,71.2 172,67.2 173.2,62.8 C175.6,56.8 179.6,51.6 185.2,48.4 Z M198.4,56.8 C196,57.2 193.6,58 192,59.6 C189.6,61.6 188,64 187.6,67.2 C187.2,69.6 187.6,72.4 188.8,74.4 C190,76 191.6,77.2 193.6,77.6 C196.8,78.4 200.4,78 203.2,76.4 C207.6,73.6 210,68.8 209.2,63.6 C208.8,61.2 207.2,58.8 204.8,58 C202.4,56.8 200.4,56.8 198.4,56.8 Z" id="Shape" fill="#FFFFFF"></path>
                <path d="M232,46.8 C232.4,46.4 233.2,46 234,46 L244.4,46 C245.2,46 246,46.4 246.8,46.8 C247.2,47.6 247.6,48.4 248,49.2 L254,69.6 C258.8,62.8 263.2,55.6 268,48.8 C268.4,48 269.2,47.2 269.6,46.4 C270.4,46 271.2,45.6 272,45.6 C275.6,45.6 279.2,45.6 282.8,45.6 C284,45.6 284.8,46.8 284.4,47.6 C284.4,48 284.4,48.4 284,48.8 L247.2,101.6 C246.8,102.4 245.6,103.2 244.4,103.2 L233.6,103.2 C232.8,103.2 232.4,103.2 232,102.8 C231.2,102 231.2,100.8 231.6,100 L242.8,84.4 C242.8,84 242.8,84 242.8,83.6 L230.8,48.4 C231.2,48 231.6,47.2 232,46.8 Z" id="Shape" fill="#FFFFFF"></path>
                <path d="M295.6,25.2 C296,25.2 296.4,25.2 297.2,25.2 L317.6,25.2 C321.6,24.8 326,25.6 330,26.8 C333.2,28 335.6,30 337.6,32.8 C339.6,36.4 340.4,40 339.6,44 C339.2,48 338,52 336,55.6 C334.4,58.8 332,61.6 329.2,63.6 C326,65.6 322.4,67.2 318.4,67.6 C314,68 309.6,68 305.2,68 C304,68 303.2,68.8 302.8,69.6 C302.4,70.4 302.4,71.2 302,72 L299.6,87.2 C299.6,88.4 298.4,89.2 297.6,89.2 L285.6,89.2 C284.4,89.2 283.6,88.4 283.6,87.2 C283.6,87.2 283.6,87.2 283.6,86.8 C286.8,67.2 289.6,47.6 292.8,28.4 C293.2,26.4 294.4,25.6 295.6,25.2 Z M307.6,39.6 C306.8,44.8 306,49.6 305.2,54.8 C308.8,54.8 312.4,54.8 316,54 C318,53.6 319.6,52.4 320.4,51.2 C321.6,49.2 322.4,47.2 322.4,45.2 C322.8,43.6 322,41.6 321.2,40 C320,38.8 318.4,38 316.8,38 C314.4,37.6 312.4,37.6 310,37.6 C308.4,37.6 307.6,38.4 307.6,39.6 C307.6,39.2 307.6,39.2 307.6,39.6 Z" id="Shape" fill="#FFFFFF"></path>
                <path d="M402.4,25.2 C402.8,25.2 403.6,25.2 404,25.2 L413.6,25.2 C414.8,25.2 415.6,26 415.6,27.2 C415.6,27.2 415.6,27.6 415.6,27.6 C412.4,47.2 409.6,66.8 406.4,86.4 C406,88 404.8,89.2 403.2,89.2 L393.6,89.2 C392.4,89.2 391.6,88.4 391.6,87.2 C391.6,87.2 391.6,86.8 391.6,86.8 C394.8,66.8 398,47.2 400.8,27.2 C400.8,26.4 401.6,25.6 402.4,25.2 Z" id="Shape" fill="#FFFFFF"></path>
                <path d="M78,28 C81.2,29.6 84,32.8 85.2,36 C86.4,40.4 86.8,44.8 85.6,49.2 C84.8,55.2 82,61.2 78,65.6 C75.6,68.4 72.4,70.8 68.8,72 C63.6,74 58,74.8 52.4,74.8 C51.2,74.8 50,74.8 49.2,75.2 C48,76 47.2,77.2 46.8,78.4 C45.6,84.8 44.8,90.8 43.6,97.2 C43.6,98 43.2,99.2 43.2,100 C42.8,101.6 41.2,102.8 39.6,102.8 L24,102.8 C23.2,102.8 22,102.4 21.6,101.6 C21.2,100.8 21.2,100 21.6,99.2 C22,96.8 22.4,94 22.8,91.6 C22.8,91.2 22.8,90.8 23.2,90 C24.4,80.8 26,71.6 27.6,62.8 C27.6,62 28,61.2 28.4,60 C29.2,59.2 30,58.4 31.2,58 C32.4,58 33.6,58 34.8,58 C39.6,58 44.4,58 49.2,57.6 C55.6,56.8 62,54.4 67.2,50 C72,45.6 75.2,40.4 76.8,34.4 C77.2,32.4 77.6,30.4 78,28 Z" id="Shape" fill="#FFFFFF"></path>
                <path d="M353.6,46.4 C357.2,45.2 361.2,44.8 365.2,45.6 C367.6,46 370,46.8 372.4,48 C373.2,48.8 374.4,49.6 374.8,50.8 C374.8,49.6 375.2,48.8 375.2,47.6 C375.6,46.8 376.4,46 377.2,46.4 L388,46.4 C389.2,46.4 390,47.2 390,48.4 C390,48.4 390,48.8 390,48.8 L384,86 C384,87.6 382.4,88.8 380.8,88.8 L370.8,88.8 C369.6,88.8 368.8,88 368.8,87.2 C368.8,87.2 368.8,87.2 368.8,86.8 C368.8,85.6 369.2,84.8 369.2,83.6 C366.4,86.4 363.2,88 359.6,89.2 C356,90 352.4,90 348.8,89.2 C345.2,88.4 342.4,86.4 340,84 C337.2,80.4 336,76 336,71.2 C336,64.4 338.8,57.6 343.6,52.8 C346.8,49.6 350,47.6 353.6,46.4 Z M362,56.8 C358.4,57.2 354.8,59.2 352.8,62.4 C351.2,65.2 350.4,68.4 350.8,71.6 C351.2,74 352.4,76 354.4,76.8 C356.8,78 359.6,78.4 362.4,78 C365.6,77.2 368.8,75.2 370.4,72.4 C372,69.6 372.8,66.4 372,63.2 C371.2,60.8 369.6,58.8 367.6,58 C366,56.8 364.4,56.8 362,56.8 Z" id="Shape" fill="#FFFFFF"></path>
                <path d="M3.2,90.8 C2.4,90.8 2,90.4 2,89.6 L2,88.8 C2.4,88 2.4,86.8 2.4,86 L14.8,7.2 C14.8,6.4 15.2,5.6 15.6,4.8 C16,4 16.8,3.6 18,3.6 L52,3.6 C57.6,3.6 62.8,4.8 68,7.2 C71.6,9.2 74.8,12.4 76,16.4 C77.2,20 77.2,23.6 76.4,27.6 C76,30 75.6,32 74.8,34 C73.2,39.6 70,45.2 65.6,49.2 C60.8,53.2 54.8,55.6 48.4,56.4 C45.2,56.8 42,56.8 39.2,56.8 L32.4,56.8 C31.6,56.8 30.8,56.8 30,56.8 C28.4,57.2 27.2,58 26.4,59.6 L26.4,60 L26.4,60.4 C26,61.2 26,62.4 25.6,63.6 C24.8,67.6 24.4,71.6 23.6,76 C22.8,81.2 22,86 21.2,91.2 L2.8,91.2 L3.2,90.8 Z" id="Shape" fill="#FFFFFF"></path>
                <path d="M52,5.2 C57.2,5.2 62.4,6.4 67.2,8.8 C70.8,10.8 73.2,13.6 74.4,17.2 C75.2,20.4 75.6,24 74.8,27.6 C74.4,29.6 74,31.6 73.2,33.6 C71.6,39.2 68.8,44 64.4,48 C59.6,52 54,54 48,54.8 C44.8,55.2 42,55.2 38.8,55.2 L32,55.2 C31.2,55.2 30.4,55.2 29.6,55.6 C27.6,56 26,57.2 25.2,58.8 L24.8,59.2 L24.8,60 C24.4,61.2 24.4,62 24,63.2 C23.2,67.2 22.8,71.2 22,75.2 C21.2,80 20.4,84.4 19.6,89.2 L2.8,89.2 C3.2,88.4 3.2,87.2 3.2,86.4 L3.2,85.6 L7.6,57.2 L15.2,8.8 C15.2,8.4 15.2,8.4 15.2,8 C15.2,7.6 15.2,6.8 15.6,6.4 C16,6 16.4,6 16.8,5.6 L52,5.2 Z M52,2 L17.6,2 C16.4,2 15.2,2.8 14.4,4 C13.6,5.2 13.6,6.4 13.2,7.6 L1.2,84.8 C0.8,86 0.8,87.2 0.4,88.8 L0.4,90 C0.8,91.2 1.6,92 2.8,92.4 L20.4,92.4 L22.4,92.4 C22.4,92 22.4,91.6 22.8,90.8 C24,81.6 25.6,72.4 27.2,63.6 C27.2,62.8 27.6,62 27.6,60.8 C28.4,60 29.2,59.2 30.4,58.8 C31.2,58.8 31.6,58.8 32.4,58.8 L39.2,58.8 C42.4,58.8 45.6,58.8 48.8,58.4 C55.2,57.6 61.6,55.2 66.8,50.8 C71.6,46.4 74.8,41.2 76.4,35.2 C77.2,33.2 77.6,30.8 78,28.4 C78.8,24.4 78.4,20.4 77.6,16.8 C76,12.4 72.8,8.8 68.8,6.4 C63.6,4 58,2.8 52.4,2.8 L52,2 Z" id="Shape" fill="#0070BA"></path>
            </g>
            <path d="M87.3339844,140 L87.3339844,54.6875 L112.529297,54.6875 C120.068397,54.6875 126.757783,56.3671707 132.597656,59.7265625 C138.437529,63.0859543 142.958968,67.8515316 146.162109,74.0234375 C149.36525,80.1953434 150.966797,87.2655852 150.966797,95.234375 L150.966797,99.5117188 C150.966797,107.597697 149.355485,114.707001 146.132812,120.839844 C142.91014,126.972687 138.320342,131.699202 132.363281,135.019531 C126.40622,138.33986 119.580117,140 111.884766,140 L87.3339844,140 Z M102.158203,66.640625 L102.158203,128.164062 L111.826172,128.164062 C119.599648,128.164062 125.566385,125.732446 129.726562,120.869141 C133.88674,116.005835 136.005859,109.023483 136.083984,99.921875 L136.083984,95.1757812 C136.083984,85.9179225 134.072286,78.8476807 130.048828,73.9648438 C126.025371,69.0820068 120.185585,66.640625 112.529297,66.640625 L102.158203,66.640625 Z M161.689453,107.714844 C161.689453,101.503875 162.91991,95.908228 165.380859,90.9277344 C167.841809,85.9472407 171.298806,82.119154 175.751953,79.4433594 C180.2051,76.7675647 185.322237,75.4296875 191.103516,75.4296875 C199.658246,75.4296875 206.601536,78.1835662 211.933594,83.6914062 C217.265652,89.1992463 220.146482,96.5038607 220.576172,105.605469 L220.634766,108.945312 C220.634766,115.195344 219.433606,120.781225 217.03125,125.703125 C214.628894,130.625025 211.191429,134.43358 206.71875,137.128906 C202.246071,139.824232 197.080107,141.171875 191.220703,141.171875 C182.275346,141.171875 175.117214,138.193389 169.746094,132.236328 C164.374973,126.279267 161.689453,118.339893 161.689453,108.417969 L161.689453,107.714844 Z M175.927734,108.945312 C175.927734,115.468783 177.275377,120.576153 179.970703,124.267578 C182.666029,127.959003 186.415992,129.804688 191.220703,129.804688 C196.025415,129.804688 199.765612,127.929706 202.441406,124.179688 C205.117201,120.429669 206.455078,114.941442 206.455078,107.714844 C206.455078,101.308562 205.078139,96.2304875 202.324219,92.4804688 C199.570299,88.73045 195.830102,86.8554688 191.103516,86.8554688 C186.455055,86.8554688 182.763686,88.7011534 180.029297,92.3925781 C177.294908,96.0840028 175.927734,101.601526 175.927734,108.945312 Z M245.888672,76.6015625 L246.298828,83.9257812 C250.986352,78.2616904 257.138634,75.4296875 264.755859,75.4296875 C277.95905,75.4296875 284.677733,82.9882057 284.912109,98.1054688 L284.912109,140 L270.673828,140 L270.673828,98.9257812 C270.673828,94.9023236 269.804696,91.9238378 268.066406,89.9902344 C266.328116,88.056631 263.486348,87.0898438 259.541016,87.0898438 C253.798799,87.0898438 249.521498,89.687474 246.708984,94.8828125 L246.708984,140 L232.470703,140 L232.470703,76.6015625 L245.888672,76.6015625 Z M337.294922,140 C336.669919,138.789056 336.123049,136.81642 335.654297,134.082031 C331.123024,138.808617 325.576205,141.171875 319.013672,141.171875 C312.646453,141.171875 307.451192,139.355487 303.427734,135.722656 C299.404277,132.089826 297.392578,127.597683 297.392578,122.246094 C297.392578,115.488247 299.902319,110.302752 304.921875,106.689453 C309.941431,103.076154 317.119094,101.269531 326.455078,101.269531 L335.185547,101.269531 L335.185547,97.109375 C335.185547,93.8281086 334.267587,91.2011817 332.431641,89.2285156 C330.595694,87.2558495 327.802753,86.2695312 324.052734,86.2695312 C320.810531,86.2695312 318.154307,87.08007 316.083984,88.7011719 C314.013662,90.3222737 312.978516,92.3828 312.978516,94.8828125 L298.740234,94.8828125 C298.740234,91.4062326 299.892567,88.154312 302.197266,85.1269531 C304.501965,82.0995942 307.636699,79.7265711 311.601562,78.0078125 C315.566426,76.2890539 319.99021,75.4296875 324.873047,75.4296875 C332.294959,75.4296875 338.212869,77.2949032 342.626953,81.0253906 C347.041038,84.755878 349.30664,89.9999662 349.423828,96.7578125 L349.423828,125.351563 C349.423828,131.054716 350.224601,135.605452 351.826172,139.003906 L351.826172,140 L337.294922,140 Z M321.650391,129.746094 C324.462905,129.746094 327.109363,129.062507 329.589844,127.695312 C332.070325,126.328118 333.935541,124.492199 335.185547,122.1875 L335.185547,110.234375 L327.509766,110.234375 C322.236302,110.234375 318.271498,111.152335 315.615234,112.988281 C312.958971,114.824228 311.630859,117.421858 311.630859,120.78125 C311.630859,123.515639 312.539053,125.693351 314.355469,127.314453 C316.171884,128.935555 318.6035,129.746094 321.650391,129.746094 Z M382.177734,61.1914062 L382.177734,76.6015625 L393.369141,76.6015625 L393.369141,87.1484375 L382.177734,87.1484375 L382.177734,122.539062 C382.177734,124.96095 382.656245,126.708979 383.613281,127.783203 C384.570317,128.857427 386.279285,129.394531 388.740234,129.394531 C390.380868,129.394531 392.041007,129.199221 393.720703,128.808594 L393.720703,139.824219 C390.478499,140.722661 387.353531,141.171875 384.345703,141.171875 C373.408148,141.171875 367.939453,135.136779 367.939453,123.066406 L367.939453,87.1484375 L357.509766,87.1484375 L357.509766,76.6015625 L367.939453,76.6015625 L367.939453,61.1914062 L382.177734,61.1914062 Z M432.158203,141.171875 C423.134721,141.171875 415.820341,138.330107 410.214844,132.646484 C404.609347,126.962862 401.806641,119.394579 401.806641,109.941406 L401.806641,108.183594 C401.806641,101.855437 403.027332,96.2011968 405.46875,91.2207031 C407.910168,86.2402095 411.337869,82.3632951 415.751953,79.5898438 C420.166038,76.8163924 425.087863,75.4296875 430.517578,75.4296875 C439.150434,75.4296875 445.820289,78.1835662 450.527344,83.6914062 C455.234399,89.1992463 457.587891,96.9921371 457.587891,107.070312 L457.587891,112.8125 L416.162109,112.8125 C416.591799,118.046901 418.339828,122.187485 421.40625,125.234375 C424.472672,128.281265 428.330055,129.804688 432.978516,129.804688 C439.501986,129.804688 444.814433,127.167995 448.916016,121.894531 L456.591797,129.21875 C454.052722,133.007831 450.664084,135.947255 446.425781,138.037109 C442.187479,140.126964 437.431667,141.171875 432.158203,141.171875 Z M430.458984,86.8554688 C426.552715,86.8554688 423.39845,88.2226426 420.996094,90.9570312 C418.593738,93.6914199 417.06055,97.4999756 416.396484,102.382812 L443.525391,102.382812 L443.525391,101.328125 C443.212889,96.5624762 441.943371,92.9589966 439.716797,90.5175781 C437.490223,88.0761597 434.404317,86.8554688 430.458984,86.8554688 Z" id="Donate" fill="#FFFFFF"></path>
        </g>
    </g>
</svg>