<?xml version="1.0" encoding="UTF-8"?>
<svg width="250px" height="49px" viewBox="0 0 250 49" version="1.1" xmlns="http://www.w3.org/2000/svg" xmlns:xlink="http://www.w3.org/1999/xlink">
    <!-- Generator: Sketch 47.1 (45422) - http://www.bohemiancoding.com/sketch -->
    <title>paypal</title>
    <desc>Created with Sketch.</desc>
    <defs></defs>
    <g id="Page-1" stroke="none" stroke-width="1" fill="none" fill-rule="evenodd">
        <g id="Donate-Buttons" transform="translate(-51.000000, -141.000000)">
            <g id="paypal" transform="translate(51.000000, 140.000000)">
                <path d="M6.6,1 L243.4,1 C247.1,1 250,4 250,7.6 L250,43.4 C250,47.1 247,50 243.4,50 C243.4,50 243.4,50 243.4,50 L6.6,50 C3,50 0,47 0,43.4 C0,43.4 0,43.4 0,43.4 L0,7.6 C0,4 3,1 6.6,1 Z" id="Shape" fill="#0070BA" fill-rule="nonzero"></path>
                <g id="logo" transform="translate(125.000000, 13.000000)" fill-rule="nonzero">
                    <path d="M33,6.3 C33.1,6.3 33.2,6.3 33.3,6.3 L38.2,6.3 C39.3,6.2 40.4,6.4 41.4,6.7 C42.2,6.9 42.9,7.4 43.4,8.1 C43.9,8.9 44.1,9.9 44,10.9 C43.9,11.8 43.7,12.6 43.4,13.4 C43.1,14.2 42.6,14.9 42,15.5 C41.1,16.2 40,16.7 38.9,16.9 C37.8,17 36.7,17 35.6,17 C35.3,17 35.1,17.1 35,17.4 C34.9,17.6 34.8,17.8 34.8,18 C34.6,19.2 34.4,20.4 34.2,21.6 C34.1,22 33.8,22.3 33.4,22.3 L30.6,22.3 C30.3,22.3 30.1,22.1 30.1,21.8 C30.1,21.8 30.1,21.8 30.1,21.7 C30.9,16.8 31.6,11.9 32.4,7.1 C32.4,6.7 32.7,6.4 33,6.3 Z M36.1,9.5 C36,9.6 35.9,9.8 35.9,9.9 C35.7,11.1 35.5,12.4 35.3,13.6 L36.2,13.6 C37,13.7 37.8,13.5 38.5,13.2 C39,12.9 39.4,12.4 39.5,11.8 C39.7,11.3 39.7,10.7 39.5,10.2 C39.3,9.8 39,9.6 38.6,9.4 C37.9,9.2 37.3,9.2 36.6,9.2 C36.5,9.4 36.3,9.4 36.1,9.5 L36.1,9.5 Z" id="Shape" fill="#FFFFFF"></path>
                    <path d="M46.3,12.1 C47.3,11.5 48.4,11.2 49.5,11.3 C50.4,11.3 51.2,11.5 52,11.9 C52.3,12.1 52.5,12.4 52.7,12.7 C52.8,12.4 52.8,12.2 52.8,11.9 C52.9,11.7 53.1,11.5 53.3,11.5 L56,11.5 C56.3,11.5 56.5,11.7 56.5,12 C56.5,12 56.5,12.1 56.5,12.1 C56,15.2 55.5,18.3 55,21.5 C54.9,21.9 54.6,22.2 54.2,22.2 L51.7,22.2 C51.5,22.2 51.3,22.1 51.2,21.9 C51.2,21.8 51.2,21.6 51.2,21.5 C51.2,21.3 51.3,21.1 51.3,20.9 C50.7,21.5 50,21.9 49.2,22.2 C48.3,22.5 47.3,22.5 46.3,22.3 C45.6,22.2 44.9,21.8 44.3,21.3 C43.7,20.7 43.2,19.8 43.1,18.9 C42.9,17.8 43,16.8 43.3,15.7 C43.9,14.2 44.9,12.9 46.3,12.1 Z M49.6,14.2 C49,14.3 48.4,14.5 48,14.9 C47.4,15.4 47,16 46.9,16.8 C46.8,17.4 46.9,18.1 47.2,18.6 C47.5,19 47.9,19.3 48.4,19.4 C49.2,19.6 50.1,19.5 50.8,19.1 C51.9,18.4 52.5,17.2 52.3,15.9 C52.2,15.3 51.8,14.7 51.2,14.5 C50.6,14.2 50.1,14.2 49.6,14.2 Z" id="Shape" fill="#FFFFFF"></path>
                    <path d="M58,11.7 C58.1,11.6 58.3,11.5 58.5,11.5 L61.1,11.5 C61.3,11.5 61.5,11.6 61.7,11.7 C61.8,11.9 61.9,12.1 62,12.3 L63.5,17.4 C64.7,15.7 65.8,13.9 67,12.2 C67.1,12 67.3,11.8 67.4,11.6 C67.6,11.5 67.8,11.4 68,11.4 C68.9,11.4 69.8,11.4 70.7,11.4 C71,11.4 71.2,11.7 71.1,11.9 C71.1,12 71.1,12.1 71,12.2 L61.8,25.4 C61.7,25.6 61.4,25.8 61.1,25.8 L58.4,25.8 C58.2,25.8 58.1,25.8 58,25.7 C57.8,25.5 57.8,25.2 57.9,25 L60.7,21.1 C60.7,21 60.7,21 60.7,20.9 L57.7,12.1 C57.8,12 57.9,11.8 58,11.7 Z" id="Shape" fill="#FFFFFF"></path>
                    <path d="M73.9,6.3 C74,6.3 74.1,6.3 74.3,6.3 L79.4,6.3 C80.4,6.2 81.5,6.4 82.5,6.7 C83.3,7 83.9,7.5 84.4,8.2 C84.9,9.1 85.1,10 84.9,11 C84.8,12 84.5,13 84,13.9 C83.6,14.7 83,15.4 82.3,15.9 C81.5,16.4 80.6,16.8 79.6,16.9 C78.5,17 77.4,17 76.3,17 C76,17 75.8,17.2 75.7,17.4 C75.6,17.6 75.6,17.8 75.5,18 L74.9,21.8 C74.9,22.1 74.6,22.3 74.4,22.3 L71.4,22.3 C71.1,22.3 70.9,22.1 70.9,21.8 C70.9,21.8 70.9,21.8 70.9,21.7 C71.7,16.8 72.4,11.9 73.2,7.1 C73.3,6.6 73.6,6.4 73.9,6.3 Z M76.9,9.9 C76.7,11.2 76.5,12.4 76.3,13.7 C77.2,13.7 78.1,13.7 79,13.5 C79.5,13.4 79.9,13.1 80.1,12.8 C80.4,12.3 80.6,11.8 80.6,11.3 C80.7,10.9 80.5,10.4 80.3,10 C80,9.7 79.6,9.5 79.2,9.5 C78.6,9.4 78.1,9.4 77.5,9.4 C77.1,9.4 76.9,9.6 76.9,9.9 C76.9,9.8 76.9,9.8 76.9,9.9 L76.9,9.9 Z" id="Shape" fill="#FFFFFF"></path>
                    <path d="M100.6,6.3 C100.7,6.3 100.9,6.3 101,6.3 L103.4,6.3 C103.7,6.3 103.9,6.5 103.9,6.8 C103.9,6.8 103.9,6.9 103.9,6.9 C103.1,11.8 102.4,16.7 101.6,21.6 C101.5,22 101.2,22.3 100.8,22.3 L98.4,22.3 C98.1,22.3 97.9,22.1 97.9,21.8 C97.9,21.8 97.9,21.7 97.9,21.7 C98.7,16.7 99.5,11.8 100.2,6.8 C100.2,6.6 100.4,6.4 100.6,6.3 Z" id="Shape" fill="#FFFFFF"></path>
                    <path d="M19.5,7 C20.3,7.4 21,8.2 21.3,9 C21.6,10.1 21.7,11.2 21.4,12.3 C21.2,13.8 20.5,15.3 19.5,16.4 C18.9,17.1 18.1,17.7 17.2,18 C15.9,18.5 14.5,18.7 13.1,18.7 C12.8,18.7 12.5,18.7 12.3,18.8 C12,19 11.8,19.3 11.7,19.6 C11.4,21.2 11.2,22.7 10.9,24.3 C10.9,24.5 10.8,24.8 10.8,25 C10.7,25.4 10.3,25.7 9.9,25.7 L6,25.7 C5.8,25.7 5.5,25.6 5.4,25.4 C5.3,25.2 5.3,25 5.4,24.8 C5.5,24.2 5.6,23.5 5.7,22.9 C5.7,22.8 5.7,22.7 5.8,22.5 C6.1,20.2 6.5,17.9 6.9,15.7 C6.9,15.5 7,15.3 7.1,15 C7.3,14.8 7.5,14.6 7.8,14.5 C8.1,14.5 8.4,14.5 8.7,14.5 C9.9,14.5 11.1,14.5 12.3,14.4 C13.9,14.2 15.5,13.6 16.8,12.5 C18,11.4 18.8,10.1 19.2,8.6 C19.3,8.1 19.4,7.6 19.5,7 Z" id="Shape" fill="#FFFFFF"></path>
                    <path d="M88.4,11.6 C89.3,11.3 90.3,11.2 91.3,11.4 C91.9,11.5 92.5,11.7 93.1,12 C93.3,12.2 93.6,12.4 93.7,12.7 C93.7,12.4 93.8,12.2 93.8,11.9 C93.9,11.7 94.1,11.5 94.3,11.6 L97,11.6 C97.3,11.6 97.5,11.8 97.5,12.1 C97.5,12.1 97.5,12.2 97.5,12.2 L96,21.5 C96,21.9 95.6,22.2 95.2,22.2 L92.7,22.2 C92.4,22.2 92.2,22 92.2,21.8 C92.2,21.8 92.2,21.8 92.2,21.7 C92.2,21.4 92.3,21.2 92.3,20.9 C91.6,21.6 90.8,22 89.9,22.3 C89,22.5 88.1,22.5 87.2,22.3 C86.3,22.1 85.6,21.6 85,21 C84.3,20.1 84,19 84,17.8 C84,16.1 84.7,14.4 85.9,13.2 C86.7,12.4 87.5,11.9 88.4,11.6 Z M90.5,14.2 C89.6,14.3 88.7,14.8 88.2,15.6 C87.8,16.3 87.6,17.1 87.7,17.9 C87.8,18.5 88.1,19 88.6,19.2 C89.2,19.5 89.9,19.6 90.6,19.5 C91.4,19.3 92.2,18.8 92.6,18.1 C93,17.4 93.2,16.6 93,15.8 C92.8,15.2 92.4,14.7 91.9,14.5 C91.5,14.2 91.1,14.2 90.5,14.2 L90.5,14.2 Z" id="Shape" fill="#FFFFFF"></path>
                    <path d="M0.8,22.7 C0.6,22.7 0.5,22.6 0.5,22.4 L0.5,22.2 C0.6,22 0.6,21.7 0.6,21.5 L3.7,1.8 C3.7,1.6 3.8,1.4 3.9,1.2 C4,1 4.2,0.9 4.5,0.9 L13,0.9 C14.4,0.9 15.7,1.2 17,1.8 C17.9,2.3 18.7,3.1 19,4.1 C19.3,5 19.3,5.9 19.1,6.9 C19,7.5 18.9,8 18.7,8.5 C18.3,9.9 17.5,11.3 16.4,12.3 C15.2,13.3 13.7,13.9 12.1,14.1 C11.3,14.2 10.5,14.2 9.8,14.2 L8.1,14.2 C7.9,14.2 7.7,14.2 7.5,14.2 C7.1,14.3 6.8,14.5 6.6,14.9 L6.6,15 L6.6,15.1 C6.5,15.3 6.5,15.6 6.4,15.9 C6.2,16.9 6.1,17.9 5.9,19 C5.7,20.3 5.5,21.5 5.3,22.8 L5.3,22.8 L0.7,22.8 L0.8,22.7 Z" id="Shape" fill="#FFFFFF"></path>
                    <path d="M13,1.3 C14.3,1.3 15.6,1.6 16.8,2.2 C17.7,2.7 18.3,3.4 18.6,4.3 C18.8,5.1 18.9,6 18.7,6.9 L18.7,6.9 L18.7,6.9 C18.6,7.4 18.5,7.9 18.3,8.4 C17.9,9.8 17.2,11 16.1,12 C14.9,13 13.5,13.5 12,13.7 C11.2,13.8 10.5,13.8 9.7,13.8 L8,13.8 C7.8,13.8 7.6,13.8 7.4,13.9 C6.9,14 6.5,14.3 6.3,14.7 L6.2,14.8 L6.2,15 C6.1,15.3 6.1,15.5 6,15.8 C5.8,16.8 5.7,17.8 5.5,18.8 C5.3,20 5.1,21.1 4.9,22.3 L0.7,22.3 C0.8,22.1 0.8,21.8 0.8,21.6 L0.8,21.4 L1.9,14.3 L3.8,2.2 C3.8,2.1 3.8,2.1 3.8,2 C3.8,1.9 3.8,1.7 3.9,1.6 C4,1.5 4.1,1.5 4.2,1.4 L13,1.3 L13,1.3 Z M13,0.5 L4.4,0.5 C4.1,0.5 3.8,0.7 3.6,1 C3.4,1.3 3.4,1.6 3.3,1.9 L0.3,21.2 C0.2,21.5 0.2,21.8 0.1,22.2 L0.1,22.5 C0.2,22.8 0.4,23 0.7,23.1 L5.1,23.1 L5.6,23.1 C5.6,23 5.6,22.9 5.7,22.7 C6,20.4 6.4,18.1 6.8,15.9 C6.8,15.7 6.9,15.5 6.9,15.2 C7.1,15 7.3,14.8 7.6,14.7 C7.8,14.7 7.9,14.7 8.1,14.7 L9.8,14.7 C10.6,14.7 11.4,14.7 12.2,14.6 C13.8,14.4 15.4,13.8 16.7,12.7 C17.9,11.6 18.7,10.3 19.1,8.8 C19.3,8.3 19.4,7.7 19.5,7.1 L19.5,7.1 C19.7,6.1 19.6,5.1 19.4,4.2 C19,3.1 18.2,2.2 17.2,1.6 C15.9,1 14.5,0.7 13.1,0.7 L13.1,0.7 L13,0.5 Z" id="Shape" fill="#0070BA"></path>
                </g>
                <path d="M21.8334961,36 L21.8334961,14.671875 L28.1323242,14.671875 C30.0170993,14.671875 31.6894458,15.0917927 33.1494141,15.9316406 C34.6093823,16.7714886 35.7397421,17.9628829 36.5405273,19.5058594 C37.3413126,21.0488358 37.7416992,22.8163963 37.7416992,24.8085938 L37.7416992,25.8779297 C37.7416992,27.8994242 37.3388712,29.6767501 36.5332031,31.2099609 C35.727535,32.7431717 34.5800856,33.9248005 33.0908203,34.7548828 C31.6015551,35.5849651 29.8950292,36 27.9711914,36 L21.8334961,36 Z M25.5395508,17.6601562 L25.5395508,33.0410156 L27.956543,33.0410156 C29.8999121,33.0410156 31.3915964,32.4331115 32.4316406,31.2172852 C33.4716849,30.0014588 34.0014647,28.2558708 34.0209961,25.9804688 L34.0209961,24.7939453 C34.0209961,22.4794806 33.5180714,20.7119202 32.512207,19.4912109 C31.5063426,18.2705017 30.0463963,17.6601562 28.1323242,17.6601562 L25.5395508,17.6601562 Z M40.4223633,27.9287109 C40.4223633,26.3759688 40.7299774,24.977057 41.3452148,23.7319336 C41.9604523,22.4868102 42.8247015,21.5297885 43.9379883,20.8608398 C45.0512751,20.1918912 46.3305592,19.8574219 47.7758789,19.8574219 C49.9145615,19.8574219 51.650384,20.5458916 52.9833984,21.9228516 C54.3164129,23.2998116 55.0366206,25.1259652 55.144043,27.4013672 L55.1586914,28.2363281 C55.1586914,29.7988359 54.8584014,31.1953063 54.2578125,32.4257812 C53.6572236,33.6562562 52.7978572,34.6083951 51.6796875,35.2822266 C50.5615178,35.9560581 49.2700269,36.2929688 47.8051758,36.2929688 C45.5688365,36.2929688 43.7793036,35.5483473 42.4365234,34.059082 C41.0937433,32.5698168 40.4223633,30.5849733 40.4223633,28.1044922 L40.4223633,27.9287109 Z M43.9819336,28.2363281 C43.9819336,29.8671957 44.3188443,31.1440384 44.9926758,32.0668945 C45.6665073,32.9897507 46.6039979,33.4511719 47.8051758,33.4511719 C49.0063537,33.4511719 49.9414029,32.9824266 50.6103516,32.0449219 C51.2793002,31.1074172 51.6137695,29.7353606 51.6137695,27.9287109 C51.6137695,26.3271404 51.2695347,25.0576219 50.5810547,24.1201172 C49.8925747,23.1826125 48.9575254,22.7138672 47.7758789,22.7138672 C46.6137637,22.7138672 45.6909214,23.1752884 45.0073242,24.0981445 C44.3237271,25.0210007 43.9819336,26.4003814 43.9819336,28.2363281 Z M61.472168,20.1503906 L61.574707,21.9814453 C62.7465879,20.5654226 64.2846584,19.8574219 66.1889648,19.8574219 C69.4897626,19.8574219 71.1694333,21.7470514 71.2280273,25.5263672 L71.2280273,36 L67.668457,36 L67.668457,25.7314453 C67.668457,24.7255809 67.451174,23.9809594 67.0166016,23.4975586 C66.5820291,23.0141577 65.871587,22.7724609 64.8852539,22.7724609 C63.4496999,22.7724609 62.3803746,23.4218685 61.6772461,24.7207031 L61.6772461,36 L58.1176758,36 L58.1176758,20.1503906 L61.472168,20.1503906 Z M84.3237305,36 C84.1674797,35.6972641 84.0307623,35.204105 83.9135742,34.5205078 C82.7807561,35.7021543 81.3940512,36.2929688 79.753418,36.2929688 C78.1616131,36.2929688 76.862798,35.8388717 75.8569336,34.9306641 C74.8510692,34.0224564 74.3481445,32.8994208 74.3481445,31.5615234 C74.3481445,29.8720619 74.9755797,28.5756881 76.2304688,27.6723633 C77.4853578,26.7690385 79.2797735,26.3173828 81.6137695,26.3173828 L83.7963867,26.3173828 L83.7963867,25.2773438 C83.7963867,24.4570271 83.5668968,23.8002954 83.1079102,23.3071289 C82.6489235,22.8139624 81.9506883,22.5673828 81.0131836,22.5673828 C80.2026327,22.5673828 79.5385768,22.7700175 79.0209961,23.175293 C78.5034154,23.5805684 78.2446289,24.0957 78.2446289,24.7207031 L74.6850586,24.7207031 C74.6850586,23.8515582 74.9731417,23.038578 75.5493164,22.2817383 C76.1254912,21.5248986 76.9091747,20.9316428 77.9003906,20.5019531 C78.8916065,20.0722635 79.9975525,19.8574219 81.2182617,19.8574219 C83.0737397,19.8574219 84.5532171,20.3237258 85.6567383,21.2563477 C86.7602594,22.1889695 87.32666,23.4999916 87.355957,25.1894531 L87.355957,32.3378906 C87.355957,33.763679 87.5561503,34.9013629 87.956543,35.7509766 L87.956543,36 L84.3237305,36 Z M80.4125977,33.4365234 C81.1157262,33.4365234 81.7773406,33.2656267 82.3974609,32.9238281 C83.0175812,32.5820295 83.4838852,32.1230498 83.7963867,31.546875 L83.7963867,28.5585938 L81.8774414,28.5585938 C80.5590754,28.5585938 79.5678744,28.7880836 78.9038086,29.2470703 C78.2397428,29.706057 77.9077148,30.3554646 77.9077148,31.1953125 C77.9077148,31.8789097 78.1347634,32.4233378 78.5888672,32.8286133 C79.042971,33.2338887 79.6508751,33.4365234 80.4125977,33.4365234 Z M95.5444336,16.2978516 L95.5444336,20.1503906 L98.3422852,20.1503906 L98.3422852,22.7871094 L95.5444336,22.7871094 L95.5444336,31.6347656 C95.5444336,32.2402374 95.6640613,32.6772448 95.9033203,32.9458008 C96.1425793,33.2143568 96.5698211,33.3486328 97.1850586,33.3486328 C97.5952169,33.3486328 98.0102518,33.2998052 98.4301758,33.2021484 L98.4301758,35.9560547 C97.6196249,36.1806652 96.8383827,36.2929688 96.0864258,36.2929688 C93.3520371,36.2929688 91.9848633,34.7841948 91.9848633,31.7666016 L91.9848633,22.7871094 L89.3774414,22.7871094 L89.3774414,20.1503906 L91.9848633,20.1503906 L91.9848633,16.2978516 L95.5444336,16.2978516 Z M108.039551,36.2929688 C105.78368,36.2929688 103.955085,35.5825266 102.553711,34.1616211 C101.152337,32.7407156 100.45166,30.8486446 100.45166,28.4853516 L100.45166,28.0458984 C100.45166,26.4638593 100.756833,25.0502992 101.367188,23.8051758 C101.977542,22.5600524 102.834467,21.5908238 103.937988,20.8974609 C105.041509,20.2040981 106.271966,19.8574219 107.629395,19.8574219 C109.787608,19.8574219 111.455072,20.5458916 112.631836,21.9228516 C113.8086,23.2998116 114.396973,25.2480343 114.396973,27.7675781 L114.396973,29.203125 L104.040527,29.203125 C104.14795,30.5117253 104.584957,31.5468712 105.351562,32.3085938 C106.118168,33.0703163 107.082514,33.4511719 108.244629,33.4511719 C109.875496,33.4511719 111.203608,32.7919988 112.229004,31.4736328 L114.147949,33.3046875 C113.51318,34.2519579 112.666021,34.9868138 111.606445,35.5092773 C110.54687,36.0317409 109.357917,36.2929688 108.039551,36.2929688 Z M107.614746,22.7138672 C106.638179,22.7138672 105.849612,23.0556606 105.249023,23.7392578 C104.648434,24.422855 104.265138,25.3749939 104.099121,26.5957031 L110.881348,26.5957031 L110.881348,26.3320312 C110.803222,25.140619 110.485843,24.2397491 109.929199,23.6293945 C109.372556,23.0190399 108.601079,22.7138672 107.614746,22.7138672 Z" id="Donate" fill="#FFFFFF"></path>
            </g>
        </g>
    </g>
</svg>