<?xml version="1.0" encoding="UTF-8"?>
<svg width="500px" height="200px" viewBox="0 0 500 200" version="1.1" xmlns="http://www.w3.org/2000/svg" xmlns:xlink="http://www.w3.org/1999/xlink">
    <!-- Generator: Sketch 48.1 (47250) - http://www.bohemiancoding.com/sketch -->
    <title>paypal</title>
    <desc>Created with Sketch.</desc>
    <defs></defs>
    <g id="Donate-Buttons" stroke="none" stroke-width="1" fill="none" fill-rule="evenodd" transform="translate(-206.000000, -652.000000)">
        <g id="paypal" transform="translate(206.000000, 652.000000)">
            <rect id="Rectangle" fill="#0070BA" x="0" y="0" width="500" height="200"></rect>
            <g id="logo" transform="translate(50.000000, 50.000000)" fill-rule="nonzero">
                <path d="M126.923077,24.2307692 C127.307692,24.2307692 127.692308,24.2307692 128.076923,24.2307692 L146.923077,24.2307692 C151.153846,23.8461538 155.384615,24.6153846 159.230769,25.7692308 C162.307692,26.5384615 165,28.4615385 166.923077,31.1538462 C168.846154,34.2307692 169.615385,38.0769231 169.230769,41.9230769 C168.846154,45.3846154 168.076923,48.4615385 166.923077,51.5384615 C165.769231,54.6153846 163.846154,57.3076923 161.538462,59.6153846 C158.076923,62.3076923 153.846154,64.2307692 149.615385,65 C145.384615,65.3846154 141.153846,65.3846154 136.923077,65.3846154 C135.769231,65.3846154 135,65.7692308 134.615385,66.9230769 C134.230769,67.6923077 133.846154,68.4615385 133.846154,69.2307692 C133.076923,73.8461538 132.307692,78.4615385 131.538462,83.0769231 C131.153846,84.6153846 130,85.7692308 128.461538,85.7692308 L117.692308,85.7692308 C116.538462,85.7692308 115.769231,85 115.769231,83.8461538 C115.769231,83.8461538 115.769231,83.8461538 115.769231,83.4615385 C118.846154,64.6153846 121.538462,45.7692308 124.615385,27.3076923 C124.615385,25.7692308 125.769231,24.6153846 126.923077,24.2307692 Z M138.846154,36.5384615 C138.461538,36.9230769 138.076923,37.6923077 138.076923,38.0769231 C137.307692,42.6923077 136.538462,47.6923077 135.769231,52.3076923 L139.230769,52.3076923 C142.307692,52.6923077 145.384615,51.9230769 148.076923,50.7692308 C150,49.6153846 151.538462,47.6923077 151.923077,45.3846154 C152.692308,43.4615385 152.692308,41.1538462 151.923077,39.2307692 C151.153846,37.6923077 150,36.9230769 148.461538,36.1538462 C145.769231,35.3846154 143.461538,35.3846154 140.769231,35.3846154 C140.384615,36.1538462 139.615385,36.1538462 138.846154,36.5384615 Z" id="Shape" fill="#FFFFFF"></path>
                <path d="M178.076923,46.5384615 C181.923077,44.2307692 186.153846,43.0769231 190.384615,43.4615385 C193.846154,43.4615385 196.923077,44.2307692 200,45.7692308 C201.153846,46.5384615 201.923077,47.6923077 202.692308,48.8461538 C203.076923,47.6923077 203.076923,46.9230769 203.076923,45.7692308 C203.461538,45 204.230769,44.2307692 205,44.2307692 L215.384615,44.2307692 C216.538462,44.2307692 217.307692,45 217.307692,46.1538462 C217.307692,46.1538462 217.307692,46.5384615 217.307692,46.5384615 C215.384615,58.4615385 213.461538,70.3846154 211.538462,82.6923077 C211.153846,84.2307692 210,85.3846154 208.461538,85.3846154 L198.846154,85.3846154 C198.076923,85.3846154 197.307692,85 196.923077,84.2307692 C196.923077,83.8461538 196.923077,83.0769231 196.923077,82.6923077 C196.923077,81.9230769 197.307692,81.1538462 197.307692,80.3846154 C195,82.6923077 192.307692,84.2307692 189.230769,85.3846154 C185.769231,86.5384615 181.923077,86.5384615 178.076923,85.7692308 C175.384615,85.3846154 172.692308,83.8461538 170.384615,81.9230769 C168.076923,79.6153846 166.153846,76.1538462 165.769231,72.6923077 C165,68.4615385 165.384615,64.6153846 166.538462,60.3846154 C168.846154,54.6153846 172.692308,49.6153846 178.076923,46.5384615 Z M190.769231,54.6153846 C188.461538,55 186.153846,55.7692308 184.615385,57.3076923 C182.307692,59.2307692 180.769231,61.5384615 180.384615,64.6153846 C180,66.9230769 180.384615,69.6153846 181.538462,71.5384615 C182.692308,73.0769231 184.230769,74.2307692 186.153846,74.6153846 C189.230769,75.3846154 192.692308,75 195.384615,73.4615385 C199.615385,70.7692308 201.923077,66.1538462 201.153846,61.1538462 C200.769231,58.8461538 199.230769,56.5384615 196.923077,55.7692308 C194.615385,54.6153846 192.692308,54.6153846 190.769231,54.6153846 Z" id="Shape" fill="#FFFFFF"></path>
                <path d="M223.076923,45 C223.461538,44.6153846 224.230769,44.2307692 225,44.2307692 L235,44.2307692 C235.769231,44.2307692 236.538462,44.6153846 237.307692,45 C237.692308,45.7692308 238.076923,46.5384615 238.461538,47.3076923 L244.230769,66.9230769 C248.846154,60.3846154 253.076923,53.4615385 257.692308,46.9230769 C258.076923,46.1538462 258.846154,45.3846154 259.230769,44.6153846 C260,44.2307692 260.769231,43.8461538 261.538462,43.8461538 C265,43.8461538 268.461538,43.8461538 271.923077,43.8461538 C273.076923,43.8461538 273.846154,45 273.461538,45.7692308 C273.461538,46.1538462 273.461538,46.5384615 273.076923,46.9230769 L237.692308,97.6923077 C237.307692,98.4615385 236.153846,99.2307692 235,99.2307692 L224.615385,99.2307692 C223.846154,99.2307692 223.461538,99.2307692 223.076923,98.8461538 C222.307692,98.0769231 222.307692,96.9230769 222.692308,96.1538462 L233.461538,81.1538462 C233.461538,80.7692308 233.461538,80.7692308 233.461538,80.3846154 L221.923077,46.5384615 C222.307692,46.1538462 222.692308,45.3846154 223.076923,45 Z" id="Shape" fill="#FFFFFF"></path>
                <path d="M284.230769,24.2307692 C284.615385,24.2307692 285,24.2307692 285.769231,24.2307692 L305.384615,24.2307692 C309.230769,23.8461538 313.461538,24.6153846 317.307692,25.7692308 C320.384615,26.9230769 322.692308,28.8461538 324.615385,31.5384615 C326.538462,35 327.307692,38.4615385 326.538462,42.3076923 C326.153846,46.1538462 325,50 323.076923,53.4615385 C321.538462,56.5384615 319.230769,59.2307692 316.538462,61.1538462 C313.461538,63.0769231 310,64.6153846 306.153846,65 C301.923077,65.3846154 297.692308,65.3846154 293.461538,65.3846154 C292.307692,65.3846154 291.538462,66.1538462 291.153846,66.9230769 C290.769231,67.6923077 290.769231,68.4615385 290.384615,69.2307692 L288.076923,83.8461538 C288.076923,85 286.923077,85.7692308 286.153846,85.7692308 L274.615385,85.7692308 C273.461538,85.7692308 272.692308,85 272.692308,83.8461538 C272.692308,83.8461538 272.692308,83.8461538 272.692308,83.4615385 C275.769231,64.6153846 278.461538,45.7692308 281.538462,27.3076923 C281.923077,25.3846154 283.076923,24.6153846 284.230769,24.2307692 Z M295.769231,38.0769231 C295,43.0769231 294.230769,47.6923077 293.461538,52.6923077 C296.923077,52.6923077 300.384615,52.6923077 303.846154,51.9230769 C305.769231,51.5384615 307.307692,50.3846154 308.076923,49.2307692 C309.230769,47.3076923 310,45.3846154 310,43.4615385 C310.384615,41.9230769 309.615385,40 308.846154,38.4615385 C307.692308,37.3076923 306.153846,36.5384615 304.615385,36.5384615 C302.307692,36.1538462 300.384615,36.1538462 298.076923,36.1538462 C296.538462,36.1538462 295.769231,36.9230769 295.769231,38.0769231 C295.769231,37.6923077 295.769231,37.6923077 295.769231,38.0769231 Z" id="Shape" fill="#FFFFFF"></path>
                <path d="M386.923077,24.2307692 C387.307692,24.2307692 388.076923,24.2307692 388.461538,24.2307692 L397.692308,24.2307692 C398.846154,24.2307692 399.615385,25 399.615385,26.1538462 C399.615385,26.1538462 399.615385,26.5384615 399.615385,26.5384615 C396.538462,45.3846154 393.846154,64.2307692 390.769231,83.0769231 C390.384615,84.6153846 389.230769,85.7692308 387.692308,85.7692308 L378.461538,85.7692308 C377.307692,85.7692308 376.538462,85 376.538462,83.8461538 C376.538462,83.8461538 376.538462,83.4615385 376.538462,83.4615385 C379.615385,64.2307692 382.692308,45.3846154 385.384615,26.1538462 C385.384615,25.3846154 386.153846,24.6153846 386.923077,24.2307692 Z" id="Shape" fill="#FFFFFF"></path>
                <path d="M75,26.9230769 C78.0769231,28.4615385 80.7692308,31.5384615 81.9230769,34.6153846 C83.0769231,38.8461538 83.4615385,43.0769231 82.3076923,47.3076923 C81.5384615,53.0769231 78.8461538,58.8461538 75,63.0769231 C72.6923077,65.7692308 69.6153846,68.0769231 66.1538462,69.2307692 C61.1538462,71.1538462 55.7692308,71.9230769 50.3846154,71.9230769 C49.2307692,71.9230769 48.0769231,71.9230769 47.3076923,72.3076923 C46.1538462,73.0769231 45.3846154,74.2307692 45,75.3846154 C43.8461538,81.5384615 43.0769231,87.3076923 41.9230769,93.4615385 C41.9230769,94.2307692 41.5384615,95.3846154 41.5384615,96.1538462 C41.1538462,97.6923077 39.6153846,98.8461538 38.0769231,98.8461538 L23.0769231,98.8461538 C22.3076923,98.8461538 21.1538462,98.4615385 20.7692308,97.6923077 C20.3846154,96.9230769 20.3846154,96.1538462 20.7692308,95.3846154 C21.1538462,93.0769231 21.5384615,90.3846154 21.9230769,88.0769231 C21.9230769,87.6923077 21.9230769,87.3076923 22.3076923,86.5384615 C23.4615385,77.6923077 25,68.8461538 26.5384615,60.3846154 C26.5384615,59.6153846 26.9230769,58.8461538 27.3076923,57.6923077 C28.0769231,56.9230769 28.8461538,56.1538462 30,55.7692308 C31.1538462,55.7692308 32.3076923,55.7692308 33.4615385,55.7692308 C38.0769231,55.7692308 42.6923077,55.7692308 47.3076923,55.3846154 C53.4615385,54.6153846 59.6153846,52.3076923 64.6153846,48.0769231 C69.2307692,43.8461538 72.3076923,38.8461538 73.8461538,33.0769231 C74.2307692,31.1538462 74.6153846,29.2307692 75,26.9230769 Z" id="Shape" fill="#FFFFFF"></path>
                <path d="M340,44.6153846 C343.461538,43.4615385 347.307692,43.0769231 351.153846,43.8461538 C353.461538,44.2307692 355.769231,45 358.076923,46.1538462 C358.846154,46.9230769 360,47.6923077 360.384615,48.8461538 C360.384615,47.6923077 360.769231,46.9230769 360.769231,45.7692308 C361.153846,45 361.923077,44.2307692 362.692308,44.6153846 L373.076923,44.6153846 C374.230769,44.6153846 375,45.3846154 375,46.5384615 C375,46.5384615 375,46.9230769 375,46.9230769 L369.230769,82.6923077 C369.230769,84.2307692 367.692308,85.3846154 366.153846,85.3846154 L356.538462,85.3846154 C355.384615,85.3846154 354.615385,84.6153846 354.615385,83.8461538 C354.615385,83.8461538 354.615385,83.8461538 354.615385,83.4615385 C354.615385,82.3076923 355,81.5384615 355,80.3846154 C352.307692,83.0769231 349.230769,84.6153846 345.769231,85.7692308 C342.307692,86.5384615 338.846154,86.5384615 335.384615,85.7692308 C331.923077,85 329.230769,83.0769231 326.923077,80.7692308 C324.230769,77.3076923 323.076923,73.0769231 323.076923,68.4615385 C323.076923,61.9230769 325.769231,55.3846154 330.384615,50.7692308 C333.461538,47.6923077 336.538462,45.7692308 340,44.6153846 Z M348.076923,54.6153846 C344.615385,55 341.153846,56.9230769 339.230769,60 C337.692308,62.6923077 336.923077,65.7692308 337.307692,68.8461538 C337.692308,71.1538462 338.846154,73.0769231 340.769231,73.8461538 C343.076923,75 345.769231,75.3846154 348.461538,75 C351.538462,74.2307692 354.615385,72.3076923 356.153846,69.6153846 C357.692308,66.9230769 358.461538,63.8461538 357.692308,60.7692308 C356.923077,58.4615385 355.384615,56.5384615 353.461538,55.7692308 C351.923077,54.6153846 350.384615,54.6153846 348.076923,54.6153846 Z" id="Shape" fill="#FFFFFF"></path>
                <path d="M3.07692308,87.3076923 C2.30769231,87.3076923 1.92307692,86.9230769 1.92307692,86.1538462 L1.92307692,85.3846154 C2.30769231,84.6153846 2.30769231,83.4615385 2.30769231,82.6923077 L14.2307692,6.92307692 C14.2307692,6.15384615 14.6153846,5.38461538 15,4.61538462 C15.3846154,3.84615385 16.1538462,3.46153846 17.3076923,3.46153846 L50,3.46153846 C55.3846154,3.46153846 60.3846154,4.61538462 65.3846154,6.92307692 C68.8461538,8.84615385 71.9230769,11.9230769 73.0769231,15.7692308 C74.2307692,19.2307692 74.2307692,22.6923077 73.4615385,26.5384615 C73.0769231,28.8461538 72.6923077,30.7692308 71.9230769,32.6923077 C70.3846154,38.0769231 67.3076923,43.4615385 63.0769231,47.3076923 C58.4615385,51.1538462 52.6923077,53.4615385 46.5384615,54.2307692 C43.4615385,54.6153846 40.3846154,54.6153846 37.6923077,54.6153846 L31.1538462,54.6153846 C30.3846154,54.6153846 29.6153846,54.6153846 28.8461538,54.6153846 C27.3076923,55 26.1538462,55.7692308 25.3846154,57.3076923 L25.3846154,57.6923077 L25.3846154,58.0769231 C25,58.8461538 25,60 24.6153846,61.1538462 C23.8461538,65 23.4615385,68.8461538 22.6923077,73.0769231 C21.9230769,78.0769231 21.1538462,82.6923077 20.3846154,87.6923077 L2.69230769,87.6923077 L3.07692308,87.3076923 Z" id="Shape" fill="#FFFFFF"></path>
                <path d="M50,5 C55,5 60,6.15384615 64.6153846,8.46153846 C68.0769231,10.3846154 70.3846154,13.0769231 71.5384615,16.5384615 C72.3076923,19.6153846 72.6923077,23.0769231 71.9230769,26.5384615 C71.5384615,28.4615385 71.1538462,30.3846154 70.3846154,32.3076923 C68.8461538,37.6923077 66.1538462,42.3076923 61.9230769,46.1538462 C57.3076923,50 51.9230769,51.9230769 46.1538462,52.6923077 C43.0769231,53.0769231 40.3846154,53.0769231 37.3076923,53.0769231 L30.7692308,53.0769231 C30,53.0769231 29.2307692,53.0769231 28.4615385,53.4615385 C26.5384615,53.8461538 25,55 24.2307692,56.5384615 L23.8461538,56.9230769 L23.8461538,57.6923077 C23.4615385,58.8461538 23.4615385,59.6153846 23.0769231,60.7692308 C22.3076923,64.6153846 21.9230769,68.4615385 21.1538462,72.3076923 C20.3846154,76.9230769 19.6153846,81.1538462 18.8461538,85.7692308 L2.69230769,85.7692308 C3.07692308,85 3.07692308,83.8461538 3.07692308,83.0769231 L3.07692308,82.3076923 L7.30769231,55 L14.6153846,8.46153846 C14.6153846,8.07692308 14.6153846,8.07692308 14.6153846,7.69230769 C14.6153846,7.30769231 14.6153846,6.53846154 15,6.15384615 C15.3846154,5.76923077 15.7692308,5.76923077 16.1538462,5.38461538 L50,5 Z M50,1.92307692 L16.9230769,1.92307692 C15.7692308,1.92307692 14.6153846,2.69230769 13.8461538,3.84615385 C13.0769231,5 13.0769231,6.15384615 12.6923077,7.30769231 L1.15384615,81.5384615 C0.769230769,82.6923077 0.769230769,83.8461538 0.384615385,85.3846154 L0.384615385,86.5384615 C0.769230769,87.6923077 1.53846154,88.4615385 2.69230769,88.8461538 L19.6153846,88.8461538 L21.5384615,88.8461538 C21.5384615,88.4615385 21.5384615,88.0769231 21.9230769,87.3076923 C23.0769231,78.4615385 24.6153846,69.6153846 26.1538462,61.1538462 C26.1538462,60.3846154 26.5384615,59.6153846 26.5384615,58.4615385 C27.3076923,57.6923077 28.0769231,56.9230769 29.2307692,56.5384615 C30,56.5384615 30.3846154,56.5384615 31.1538462,56.5384615 L37.6923077,56.5384615 C40.7692308,56.5384615 43.8461538,56.5384615 46.9230769,56.1538462 C53.0769231,55.3846154 59.2307692,53.0769231 64.2307692,48.8461538 C68.8461538,44.6153846 71.9230769,39.6153846 73.4615385,33.8461538 C74.2307692,31.9230769 74.6153846,29.6153846 75,27.3076923 C75.7692308,23.4615385 75.3846154,19.6153846 74.6153846,16.1538462 C73.0769231,11.9230769 70,8.46153846 66.1538462,6.15384615 C61.1538462,3.84615385 55.7692308,2.69230769 50.3846154,2.69230769 L50,1.92307692 Z" id="Shape" fill="#0070BA"></path>
            </g>
        </g>
    </g>
</svg>