<?xml version="1.0" encoding="UTF-8"?>
<svg width="500px" height="200px" viewBox="0 0 500 200" version="1.1" xmlns="http://www.w3.org/2000/svg" xmlns:xlink="http://www.w3.org/1999/xlink">
    <!-- Generator: Sketch 48.1 (47250) - http://www.bohemiancoding.com/sketch -->
    <title>venmo</title>
    <desc>Created with Sketch.</desc>
    <defs></defs>
    <g id="Donate-Buttons" stroke="none" stroke-width="1" fill="none" fill-rule="evenodd" transform="translate(-206.000000, -144.000000)">
        <g id="venmo" transform="translate(206.000000, 144.000000)">
            <rect id="Rectangle" fill="#3D95CE" x="0" y="0" width="500" height="200"></rect>
            <g id="text" transform="translate(58.000000, 63.000000)" fill="#FFFFFF" fill-rule="nonzero">
                <path d="M63.0600997,0 C65.6503899,4.29784632 66.8181818,8.72463471 66.8181818,14.3165784 C66.8181818,32.1520059 51.6628228,55.321493 39.3624357,71.5909091 L11.2675961,71.5909091 L0,3.90500727 L24.6001091,1.55866244 L30.5574441,49.7215322 C36.1237416,40.6114075 42.9928322,26.2948291 42.9928322,16.5339812 C42.9928322,11.1912364 42.0817416,7.55213039 40.6579133,4.55573046 L63.0600997,0 Z" id="Shape"></path>
                <path d="M94.7885887,30.4560104 C99.3193832,30.4560104 110.72591,28.3116186 110.72591,21.6043687 C110.72591,18.3836492 108.524744,16.7770769 105.930869,16.7770769 C101.392753,16.7770769 95.4375566,22.4073105 94.7885887,30.4560104 Z M94.2694143,43.7396706 C94.2694143,51.9295394 98.6710809,55.142684 104.506467,55.142684 C110.861028,55.142684 116.945352,53.5361117 124.853442,49.3781677 L121.874846,70.3042364 C116.30304,73.1207305 107.619517,75 99.1909209,75 C77.810922,75 70.1590909,61.5855002 70.1590909,44.8153096 C70.1590909,23.0794127 82.605963,0 108.267153,0 C122.395352,0 130.295455,8.18918026 130.295455,19.5921937 C130.296786,37.9751543 107.49172,43.6067651 94.2694143,43.7396706 Z" id="Shape"></path>
                <path d="M203.795455,15.6813394 C203.795455,18.2936667 203.396724,22.0827481 203.000017,24.5589608 L195.511163,71.5902386 L171.21017,71.5902386 L178.041219,28.4774517 C178.170756,27.3080731 178.568812,24.9538942 178.568812,23.6477306 C178.568812,20.511731 176.597422,19.7292397 174.227301,19.7292397 C171.079283,19.7292397 167.923845,21.1648128 165.822243,22.2128281 L158.074315,71.5909091 L133.636364,71.5909091 L144.800828,1.17675441 L165.95178,1.17675441 L166.219624,6.79701289 C171.209495,3.53160382 177.780121,2.14981453e-07 187.102732,2.14981453e-07 C199.453943,-0.00134081544 203.795455,6.27132897 203.795455,15.6813394 Z" id="Shape"></path>
                <path d="M274.836259,7.70802629 C281.760425,2.74903512 288.298647,0 297.31362,0 C309.727584,0 314.045455,6.27249356 314.045455,15.6822396 C314.045455,18.2944935 313.650114,22.0834685 313.255445,24.5596116 L305.813779,71.5895681 L281.630882,71.5895681 L288.55639,27.5667878 C288.683919,26.3900667 288.95173,24.954534 288.95173,24.0439999 C288.95173,20.513166 286.989794,19.7300262 284.632517,19.7300262 C281.629539,19.7300262 278.627904,21.0361532 276.399499,22.2135448 L268.692706,71.5902386 L244.51585,71.5902386 L251.441358,27.5674583 C251.568888,26.3907372 251.828645,24.9552045 251.828645,24.0446704 C251.828645,20.5138365 249.866037,19.7306967 247.516814,19.7306967 C244.378253,19.7306967 241.245733,21.1662295 239.154925,22.2142153 L231.440749,71.5909091 L207.136364,71.5909091 L218.242145,1.17873262 L239.027395,1.17873262 L239.680479,7.05697431 C244.51585,3.53418638 251.04736,0.00268198549 259.803248,0.00268198549 C267.384525,0 272.348097,3.26598783 274.836259,7.70802629 Z" id="Shape"></path>
                <path d="M359.306603,28.8782969 C359.306603,22.9960112 357.864024,18.9855179 353.544361,18.9855179 C343.979875,18.9855179 342.015841,36.228924 342.015841,45.0499511 C342.015841,51.741883 343.852034,55.8834292 348.170351,55.8834292 C357.210692,55.8834292 359.306603,37.6986378 359.306603,28.8782969 Z M317.386364,43.9850604 C317.386364,21.2621333 329.174602,0 356.296969,0 C376.733952,0 384.204545,12.3018196 384.204545,29.2817477 C384.204545,51.7411968 372.543475,75 344.767103,75 C324.198243,75 317.386364,61.2291528 317.386364,43.9850604 Z" id="Shape"></path>
            </g>
        </g>
    </g>
</svg>