<?xml version="1.0" encoding="UTF-8"?>
<svg width="250px" height="50px" viewBox="0 0 250 50" version="1.1" xmlns="http://www.w3.org/2000/svg" xmlns:xlink="http://www.w3.org/1999/xlink">
    <!-- Generator: Sketch 47.1 (45422) - http://www.bohemiancoding.com/sketch -->
    <title>venmo</title>
    <desc>Created with Sketch.</desc>
    <defs></defs>
    <g id="Page-1" stroke="none" stroke-width="1" fill="none" fill-rule="evenodd">
        <g id="Donate-Buttons" transform="translate(-51.000000, -13.000000)">
            <g id="venmo" transform="translate(51.000000, 13.000000)">
                <path d="M6.6,0 L243.4,0 C247.1,0 250,3.06122449 250,6.73469388 L250,43.2653061 C250,47.0408163 247,50 243.4,50 C243.4,50 243.4,50 243.4,50 L6.6,50 C3,50 0,46.9387755 0,43.2653061 C0,43.2653061 0,43.2653061 0,43.2653061 L0,6.73469388 C0,3.06122449 3,0 6.6,0 Z" id="Shape" fill="#3D95CE" fill-rule="nonzero"></path>
                <path d="M21.8334961,35 L21.8334961,13.671875 L28.1323242,13.671875 C30.0170993,13.671875 31.6894458,14.0917927 33.1494141,14.9316406 C34.6093823,15.7714886 35.7397421,16.9628829 36.5405273,18.5058594 C37.3413126,20.0488358 37.7416992,21.8163963 37.7416992,23.8085938 L37.7416992,24.8779297 C37.7416992,26.8994242 37.3388712,28.6767501 36.5332031,30.2099609 C35.727535,31.7431717 34.5800856,32.9248005 33.0908203,33.7548828 C31.6015551,34.5849651 29.8950292,35 27.9711914,35 L21.8334961,35 Z M25.5395508,16.6601562 L25.5395508,32.0410156 L27.956543,32.0410156 C29.8999121,32.0410156 31.3915964,31.4331115 32.4316406,30.2172852 C33.4716849,29.0014588 34.0014647,27.2558708 34.0209961,24.9804688 L34.0209961,23.7939453 C34.0209961,21.4794806 33.5180714,19.7119202 32.512207,18.4912109 C31.5063426,17.2705017 30.0463963,16.6601562 28.1323242,16.6601562 L25.5395508,16.6601562 Z M40.4223633,26.9287109 C40.4223633,25.3759688 40.7299774,23.977057 41.3452148,22.7319336 C41.9604523,21.4868102 42.8247015,20.5297885 43.9379883,19.8608398 C45.0512751,19.1918912 46.3305592,18.8574219 47.7758789,18.8574219 C49.9145615,18.8574219 51.650384,19.5458916 52.9833984,20.9228516 C54.3164129,22.2998116 55.0366206,24.1259652 55.144043,26.4013672 L55.1586914,27.2363281 C55.1586914,28.7988359 54.8584014,30.1953063 54.2578125,31.4257812 C53.6572236,32.6562562 52.7978572,33.6083951 51.6796875,34.2822266 C50.5615178,34.9560581 49.2700269,35.2929688 47.8051758,35.2929688 C45.5688365,35.2929688 43.7793036,34.5483473 42.4365234,33.059082 C41.0937433,31.5698168 40.4223633,29.5849733 40.4223633,27.1044922 L40.4223633,26.9287109 Z M43.9819336,27.2363281 C43.9819336,28.8671957 44.3188443,30.1440384 44.9926758,31.0668945 C45.6665073,31.9897507 46.6039979,32.4511719 47.8051758,32.4511719 C49.0063537,32.4511719 49.9414029,31.9824266 50.6103516,31.0449219 C51.2793002,30.1074172 51.6137695,28.7353606 51.6137695,26.9287109 C51.6137695,25.3271404 51.2695347,24.0576219 50.5810547,23.1201172 C49.8925747,22.1826125 48.9575254,21.7138672 47.7758789,21.7138672 C46.6137637,21.7138672 45.6909214,22.1752884 45.0073242,23.0981445 C44.3237271,24.0210007 43.9819336,25.4003814 43.9819336,27.2363281 Z M61.472168,19.1503906 L61.574707,20.9814453 C62.7465879,19.5654226 64.2846584,18.8574219 66.1889648,18.8574219 C69.4897626,18.8574219 71.1694333,20.7470514 71.2280273,24.5263672 L71.2280273,35 L67.668457,35 L67.668457,24.7314453 C67.668457,23.7255809 67.451174,22.9809594 67.0166016,22.4975586 C66.5820291,22.0141577 65.871587,21.7724609 64.8852539,21.7724609 C63.4496999,21.7724609 62.3803746,22.4218685 61.6772461,23.7207031 L61.6772461,35 L58.1176758,35 L58.1176758,19.1503906 L61.472168,19.1503906 Z M84.3237305,35 C84.1674797,34.6972641 84.0307623,34.204105 83.9135742,33.5205078 C82.7807561,34.7021543 81.3940512,35.2929688 79.753418,35.2929688 C78.1616131,35.2929688 76.862798,34.8388717 75.8569336,33.9306641 C74.8510692,33.0224564 74.3481445,31.8994208 74.3481445,30.5615234 C74.3481445,28.8720619 74.9755797,27.5756881 76.2304688,26.6723633 C77.4853578,25.7690385 79.2797735,25.3173828 81.6137695,25.3173828 L83.7963867,25.3173828 L83.7963867,24.2773438 C83.7963867,23.4570271 83.5668968,22.8002954 83.1079102,22.3071289 C82.6489235,21.8139624 81.9506883,21.5673828 81.0131836,21.5673828 C80.2026327,21.5673828 79.5385768,21.7700175 79.0209961,22.175293 C78.5034154,22.5805684 78.2446289,23.0957 78.2446289,23.7207031 L74.6850586,23.7207031 C74.6850586,22.8515582 74.9731417,22.038578 75.5493164,21.2817383 C76.1254912,20.5248986 76.9091747,19.9316428 77.9003906,19.5019531 C78.8916065,19.0722635 79.9975525,18.8574219 81.2182617,18.8574219 C83.0737397,18.8574219 84.5532171,19.3237258 85.6567383,20.2563477 C86.7602594,21.1889695 87.32666,22.4999916 87.355957,24.1894531 L87.355957,31.3378906 C87.355957,32.763679 87.5561503,33.9013629 87.956543,34.7509766 L87.956543,35 L84.3237305,35 Z M80.4125977,32.4365234 C81.1157262,32.4365234 81.7773406,32.2656267 82.3974609,31.9238281 C83.0175812,31.5820295 83.4838852,31.1230498 83.7963867,30.546875 L83.7963867,27.5585938 L81.8774414,27.5585938 C80.5590754,27.5585938 79.5678744,27.7880836 78.9038086,28.2470703 C78.2397428,28.706057 77.9077148,29.3554646 77.9077148,30.1953125 C77.9077148,30.8789097 78.1347634,31.4233378 78.5888672,31.8286133 C79.042971,32.2338887 79.6508751,32.4365234 80.4125977,32.4365234 Z M95.5444336,15.2978516 L95.5444336,19.1503906 L98.3422852,19.1503906 L98.3422852,21.7871094 L95.5444336,21.7871094 L95.5444336,30.6347656 C95.5444336,31.2402374 95.6640613,31.6772448 95.9033203,31.9458008 C96.1425793,32.2143568 96.5698211,32.3486328 97.1850586,32.3486328 C97.5952169,32.3486328 98.0102518,32.2998052 98.4301758,32.2021484 L98.4301758,34.9560547 C97.6196249,35.1806652 96.8383827,35.2929688 96.0864258,35.2929688 C93.3520371,35.2929688 91.9848633,33.7841948 91.9848633,30.7666016 L91.9848633,21.7871094 L89.3774414,21.7871094 L89.3774414,19.1503906 L91.9848633,19.1503906 L91.9848633,15.2978516 L95.5444336,15.2978516 Z M108.039551,35.2929688 C105.78368,35.2929688 103.955085,34.5825266 102.553711,33.1616211 C101.152337,31.7407156 100.45166,29.8486446 100.45166,27.4853516 L100.45166,27.0458984 C100.45166,25.4638593 100.756833,24.0502992 101.367188,22.8051758 C101.977542,21.5600524 102.834467,20.5908238 103.937988,19.8974609 C105.041509,19.2040981 106.271966,18.8574219 107.629395,18.8574219 C109.787608,18.8574219 111.455072,19.5458916 112.631836,20.9228516 C113.8086,22.2998116 114.396973,24.2480343 114.396973,26.7675781 L114.396973,28.203125 L104.040527,28.203125 C104.14795,29.5117253 104.584957,30.5468712 105.351562,31.3085938 C106.118168,32.0703163 107.082514,32.4511719 108.244629,32.4511719 C109.875496,32.4511719 111.203608,31.7919988 112.229004,30.4736328 L114.147949,32.3046875 C113.51318,33.2519579 112.666021,33.9868138 111.606445,34.5092773 C110.54687,35.0317409 109.357917,35.2929688 108.039551,35.2929688 Z M107.614746,21.7138672 C106.638179,21.7138672 105.849612,22.0556606 105.249023,22.7392578 C104.648434,23.422855 104.265138,24.3749939 104.099121,25.5957031 L110.881348,25.5957031 L110.881348,25.3320312 C110.803222,24.140619 110.485843,23.2397491 109.929199,22.6293945 C109.372556,22.0190399 108.601079,21.7138672 107.614746,21.7138672 Z" id="Donate" fill="#FFFFFF"></path>
                <g id="text" transform="translate(125.000000, 17.346939)" fill-rule="nonzero" fill="#FFFFFF">
                    <path d="M17.1592108,0 C17.8640517,1.16948199 18.1818182,2.37405026 18.1818182,3.89566759 C18.1818182,8.74884515 14.057911,15.0534675 10.7108669,19.4805195 L3.06601256,19.4805195 L0,1.06258701 L6.69390724,0.424125834 L8.31495077,13.5296686 C9.82958956,11.0507231 11.6987298,7.15505553 11.6987298,4.49904249 C11.6987298,3.04523439 11.4508141,2.05500147 11.0633778,1.23965455 L17.1592108,0 Z" id="Shape"></path>
                    <path d="M25.7928132,8.28734976 C27.0256825,8.28734976 30.1294993,7.70384178 30.1294993,5.87873977 C30.1294993,5.00235352 29.5305425,4.56519099 28.8247262,4.56519099 C27.5898646,4.56519099 25.9694032,6.09722734 25.7928132,8.28734976 Z M25.6515413,11.9019512 C25.6515413,14.1304869 26.8492737,15.004812 28.437134,15.004812 C30.1662662,15.004812 31.8218645,14.5676494 33.9737258,13.4362361 L33.1632234,19.1304045 C31.6470858,19.8967974 29.2842222,20.4081633 26.9907268,20.4081633 C21.17304,20.4081633 19.0909091,16.7579592 19.0909091,12.1946421 C19.0909091,6.28011231 22.4778131,0 29.4604499,0 C33.3048576,0 35.4545455,2.22834837 35.4545455,5.33120917 C35.4549077,10.3333753 29.2494476,11.8657864 25.6515413,11.9019512 Z" id="Shape"></path>
                    <path d="M55.4545455,4.26703113 C55.4545455,4.97786848 55.3460473,6.00891105 55.2380998,6.68271042 L53.2003165,19.480337 L46.5878013,19.480337 L48.4465901,7.74896644 C48.4818383,7.4307682 48.5901529,6.7901753 48.5901529,6.43475663 C48.5901529,5.5814234 48.0537202,5.36850061 47.4087893,5.36850061 C46.552186,5.36850061 45.6935632,5.75913273 45.1216988,6.04430696 L43.0134191,19.4805195 L36.3636364,19.4805195 L39.4015858,0.320205281 L45.1569469,0.320205281 L45.2298298,1.84952732 C46.5876177,0.960980632 48.3755431,5.84983581e-08 50.912308,5.84983581e-08 C54.2731819,-0.000364847738 55.4545455,1.70648407 55.4545455,4.26703113 Z" id="Shape"></path>
                    <path d="M74.7853766,2.09742212 C76.6695033,0.748036768 78.4486113,0 80.9016654,0 C84.2796146,0 85.4545455,1.70680097 85.4545455,4.26727609 C85.4545455,4.97809347 85.3469698,6.00910707 85.2395768,6.68288751 L83.2146337,19.4801546 L76.6342536,19.4801546 L78.5187456,7.50116675 C78.5534474,7.18097053 78.6263212,6.79034938 78.6263212,6.542585 C78.6263212,5.58181388 78.092461,5.36871462 77.451025,5.36871462 C76.6338883,5.36871462 75.8171168,5.72412331 75.210748,6.04450198 L73.1136616,19.480337 L66.5349253,19.480337 L68.4194173,7.5013492 C68.4541191,7.18115298 68.5248012,6.79053182 68.5248012,6.54276745 C68.5248012,5.58199632 67.9907584,5.36889707 67.3515141,5.36889707 C66.4974838,5.36889707 65.6450973,5.75951822 65.0761699,6.04468443 L62.9770745,19.4805195 L56.3636364,19.4805195 L59.3856178,0.32074357 L65.0414681,0.32074357 L65.219178,1.92026512 C66.5349253,0.961683367 68.3122069,0.000729791969 70.6947615,0.000729791969 C72.7576939,0 74.1083256,0.88870417 74.7853766,2.09742212 Z" id="Shape"></path>
                    <path d="M97.7705041,7.85803997 C97.7705041,6.25741802 97.3779657,5.16612731 96.2025473,5.16612731 C93.5999659,5.16612731 93.0655351,9.85821062 93.0655351,12.2584901 C93.0655351,14.0794239 93.5651794,15.2063753 94.7402316,15.2063753 C97.2001882,15.2063753 97.7705041,10.2581327 97.7705041,7.85803997 Z M86.3636364,11.9687239 C86.3636364,5.78561449 89.5713202,0 96.9515561,0 C102.51264,0 104.545455,3.34743392 104.545455,7.96782251 C104.545455,14.0792372 101.372374,20.4081633 93.8141777,20.4081633 C88.2172089,20.4081633 86.3636364,16.6609939 86.3636364,11.9687239 Z" id="Shape"></path>
                </g>
            </g>
        </g>
    </g>
</svg>