<?xml version="1.0" encoding="UTF-8"?>
<svg width="1000px" height="200px" viewBox="0 0 1000 200" version="1.1" xmlns="http://www.w3.org/2000/svg" xmlns:xlink="http://www.w3.org/1999/xlink">
    <!-- Generator: Sketch 48 (47235) - http://www.bohemiancoding.com/sketch -->
    <title>venmo</title>
    <desc>Created with Sketch.</desc>
    <defs></defs>
    <g id="Donate-Buttons" stroke="none" stroke-width="1" fill="none" fill-rule="evenodd" transform="translate(-204.000000, -52.000000)">
        <g id="venmo" transform="translate(204.000000, 52.000000)">
            <rect id="Rectangle" fill="#3D95CE" x="0" y="0" width="1000" height="200"></rect>
            <path d="M87.3339844,140 L87.3339844,54.6875 L112.529297,54.6875 C120.068397,54.6875 126.757783,56.3671707 132.597656,59.7265625 C138.437529,63.0859543 142.958968,67.8515316 146.162109,74.0234375 C149.36525,80.1953434 150.966797,87.2655852 150.966797,95.234375 L150.966797,99.5117188 C150.966797,107.597697 149.355485,114.707001 146.132812,120.839844 C142.91014,126.972687 138.320342,131.699202 132.363281,135.019531 C126.40622,138.33986 119.580117,140 111.884766,140 L87.3339844,140 Z M102.158203,66.640625 L102.158203,128.164062 L111.826172,128.164062 C119.599648,128.164062 125.566385,125.732446 129.726562,120.869141 C133.88674,116.005835 136.005859,109.023483 136.083984,99.921875 L136.083984,95.1757812 C136.083984,85.9179225 134.072286,78.8476807 130.048828,73.9648438 C126.025371,69.0820068 120.185585,66.640625 112.529297,66.640625 L102.158203,66.640625 Z M161.689453,107.714844 C161.689453,101.503875 162.91991,95.908228 165.380859,90.9277344 C167.841809,85.9472407 171.298806,82.119154 175.751953,79.4433594 C180.2051,76.7675647 185.322237,75.4296875 191.103516,75.4296875 C199.658246,75.4296875 206.601536,78.1835662 211.933594,83.6914062 C217.265652,89.1992463 220.146482,96.5038607 220.576172,105.605469 L220.634766,108.945312 C220.634766,115.195344 219.433606,120.781225 217.03125,125.703125 C214.628894,130.625025 211.191429,134.43358 206.71875,137.128906 C202.246071,139.824232 197.080107,141.171875 191.220703,141.171875 C182.275346,141.171875 175.117214,138.193389 169.746094,132.236328 C164.374973,126.279267 161.689453,118.339893 161.689453,108.417969 L161.689453,107.714844 Z M175.927734,108.945312 C175.927734,115.468783 177.275377,120.576153 179.970703,124.267578 C182.666029,127.959003 186.415992,129.804688 191.220703,129.804688 C196.025415,129.804688 199.765612,127.929706 202.441406,124.179688 C205.117201,120.429669 206.455078,114.941442 206.455078,107.714844 C206.455078,101.308562 205.078139,96.2304875 202.324219,92.4804688 C199.570299,88.73045 195.830102,86.8554688 191.103516,86.8554688 C186.455055,86.8554688 182.763686,88.7011534 180.029297,92.3925781 C177.294908,96.0840028 175.927734,101.601526 175.927734,108.945312 Z M245.888672,76.6015625 L246.298828,83.9257812 C250.986352,78.2616904 257.138634,75.4296875 264.755859,75.4296875 C277.95905,75.4296875 284.677733,82.9882057 284.912109,98.1054688 L284.912109,140 L270.673828,140 L270.673828,98.9257812 C270.673828,94.9023236 269.804696,91.9238378 268.066406,89.9902344 C266.328116,88.056631 263.486348,87.0898438 259.541016,87.0898438 C253.798799,87.0898438 249.521498,89.687474 246.708984,94.8828125 L246.708984,140 L232.470703,140 L232.470703,76.6015625 L245.888672,76.6015625 Z M337.294922,140 C336.669919,138.789056 336.123049,136.81642 335.654297,134.082031 C331.123024,138.808617 325.576205,141.171875 319.013672,141.171875 C312.646453,141.171875 307.451192,139.355487 303.427734,135.722656 C299.404277,132.089826 297.392578,127.597683 297.392578,122.246094 C297.392578,115.488247 299.902319,110.302752 304.921875,106.689453 C309.941431,103.076154 317.119094,101.269531 326.455078,101.269531 L335.185547,101.269531 L335.185547,97.109375 C335.185547,93.8281086 334.267587,91.2011817 332.431641,89.2285156 C330.595694,87.2558495 327.802753,86.2695312 324.052734,86.2695312 C320.810531,86.2695312 318.154307,87.08007 316.083984,88.7011719 C314.013662,90.3222737 312.978516,92.3828 312.978516,94.8828125 L298.740234,94.8828125 C298.740234,91.4062326 299.892567,88.154312 302.197266,85.1269531 C304.501965,82.0995942 307.636699,79.7265711 311.601562,78.0078125 C315.566426,76.2890539 319.99021,75.4296875 324.873047,75.4296875 C332.294959,75.4296875 338.212869,77.2949032 342.626953,81.0253906 C347.041038,84.755878 349.30664,89.9999662 349.423828,96.7578125 L349.423828,125.351563 C349.423828,131.054716 350.224601,135.605452 351.826172,139.003906 L351.826172,140 L337.294922,140 Z M321.650391,129.746094 C324.462905,129.746094 327.109363,129.062507 329.589844,127.695312 C332.070325,126.328118 333.935541,124.492199 335.185547,122.1875 L335.185547,110.234375 L327.509766,110.234375 C322.236302,110.234375 318.271498,111.152335 315.615234,112.988281 C312.958971,114.824228 311.630859,117.421858 311.630859,120.78125 C311.630859,123.515639 312.539053,125.693351 314.355469,127.314453 C316.171884,128.935555 318.6035,129.746094 321.650391,129.746094 Z M382.177734,61.1914062 L382.177734,76.6015625 L393.369141,76.6015625 L393.369141,87.1484375 L382.177734,87.1484375 L382.177734,122.539062 C382.177734,124.96095 382.656245,126.708979 383.613281,127.783203 C384.570317,128.857427 386.279285,129.394531 388.740234,129.394531 C390.380868,129.394531 392.041007,129.199221 393.720703,128.808594 L393.720703,139.824219 C390.478499,140.722661 387.353531,141.171875 384.345703,141.171875 C373.408148,141.171875 367.939453,135.136779 367.939453,123.066406 L367.939453,87.1484375 L357.509766,87.1484375 L357.509766,76.6015625 L367.939453,76.6015625 L367.939453,61.1914062 L382.177734,61.1914062 Z M432.158203,141.171875 C423.134721,141.171875 415.820341,138.330107 410.214844,132.646484 C404.609347,126.962862 401.806641,119.394579 401.806641,109.941406 L401.806641,108.183594 C401.806641,101.855437 403.027332,96.2011968 405.46875,91.2207031 C407.910168,86.2402095 411.337869,82.3632951 415.751953,79.5898438 C420.166038,76.8163924 425.087863,75.4296875 430.517578,75.4296875 C439.150434,75.4296875 445.820289,78.1835662 450.527344,83.6914062 C455.234399,89.1992463 457.587891,96.9921371 457.587891,107.070312 L457.587891,112.8125 L416.162109,112.8125 C416.591799,118.046901 418.339828,122.187485 421.40625,125.234375 C424.472672,128.281265 428.330055,129.804688 432.978516,129.804688 C439.501986,129.804688 444.814433,127.167995 448.916016,121.894531 L456.591797,129.21875 C454.052722,133.007831 450.664084,135.947255 446.425781,138.037109 C442.187479,140.126964 437.431667,141.171875 432.158203,141.171875 Z M430.458984,86.8554688 C426.552715,86.8554688 423.39845,88.2226426 420.996094,90.9570312 C418.593738,93.6914199 417.06055,97.4999756 416.396484,102.382812 L443.525391,102.382812 L443.525391,101.328125 C443.212889,96.5624762 441.943371,92.9589966 439.716797,90.5175781 C437.490223,88.0761597 434.404317,86.8554688 430.458984,86.8554688 Z" id="Donate" fill="#FFFFFF"></path>
            <g id="text" transform="translate(500.000000, 69.387755)" fill="#FFFFFF" fill-rule="nonzero">
                <path d="M68.6368432,0 C71.4562067,4.67792797 72.7272727,9.49620105 72.7272727,15.5826704 C72.7272727,34.9953806 56.2316438,60.21387 42.8434674,77.9220779 L12.2640502,77.9220779 L0,4.25034804 L26.775629,1.69650333 L33.2598031,54.1186745 C39.3183583,44.2028925 46.7949194,28.6202221 46.7949194,17.99617 C46.7949194,12.1809376 45.8032562,8.22000587 44.2535111,4.95861819 L68.6368432,0 Z" id="Shape"></path>
                <path d="M103.171253,33.149399 C108.10273,33.149399 120.517997,30.8153671 120.517997,23.5149591 C120.517997,20.0094141 118.12217,18.260764 115.298905,18.260764 C110.359459,18.260764 103.877613,24.3889094 103.171253,33.149399 Z M102.606165,47.6078047 C102.606165,56.5219477 107.397095,60.0192479 113.748536,60.0192479 C120.665065,60.0192479 127.287458,58.2705978 135.894903,53.7449444 L132.652894,76.5216179 C126.588343,79.5871897 117.136889,81.6326531 107.962907,81.6326531 C84.69216,81.6326531 76.3636364,67.031837 76.3636364,48.7785683 C76.3636364,25.1204492 89.9112522,0 117.8418,0 C133.21943,0 141.818182,8.91339348 141.818182,21.3248367 C141.819631,41.3335012 116.99779,47.4631457 102.606165,47.6078047 Z" id="Shape"></path>
                <path d="M221.818182,17.0681245 C221.818182,19.9114739 221.384189,24.0356442 220.952399,26.7308417 L212.801266,77.9213481 L186.351205,77.9213481 L193.786361,30.9958658 C193.927353,29.7230728 194.360612,27.1607012 194.360612,25.7390265 C194.360612,22.3256936 192.214881,21.4740024 189.635157,21.4740024 C186.208744,21.4740024 182.774253,23.0365309 180.486795,24.1772278 L172.053676,77.9220779 L145.454545,77.9220779 L157.606343,1.28082112 L180.627788,1.28082112 L180.919319,7.39810927 C186.350471,3.84392253 193.502172,2.33993418e-07 203.649232,2.33993418e-07 C217.092727,-0.00145939095 221.818182,6.82593629 221.818182,17.0681245 Z" id="Shape"></path>
                <path d="M299.141506,8.38968848 C306.678013,2.99214707 313.794445,0 323.606662,0 C337.118458,0 341.818182,6.82720387 341.818182,17.0691044 C341.818182,19.9123739 341.387879,24.0364283 340.958307,26.73155 L332.858535,77.9206183 L306.537014,77.9206183 L314.074982,30.004667 C314.21379,28.7238821 314.505285,27.1613975 314.505285,26.17034 C314.505285,22.3272555 312.369844,21.4748585 309.8041,21.4748585 C306.535553,21.4748585 303.268467,22.8964932 300.842992,24.1780079 L292.454646,77.9213481 L266.139701,77.9213481 L273.677669,30.0053968 C273.816476,28.7246119 274.099205,27.1621273 274.099205,26.1710698 C274.099205,22.3279853 271.963033,21.4755883 269.406056,21.4755883 C265.989935,21.4755883 262.580389,23.0380729 260.30468,24.1787377 L251.908298,77.9220779 L225.454545,77.9220779 L237.542471,1.28297428 L260.165872,1.28297428 L260.876712,7.68106048 C266.139701,3.84673347 273.248828,0.00291916788 282.779046,0.00291916788 C291.030776,0 296.433303,3.55481668 299.141506,8.38968848 Z" id="Shape"></path>
                <path d="M391.082017,31.4321599 C391.082017,25.0296721 389.511863,20.6645092 384.810189,20.6645092 C374.399864,20.6645092 372.26214,39.4328425 372.26214,49.0339603 C372.26214,56.3176957 374.260718,60.8255012 378.960926,60.8255012 C388.800753,60.8255012 391.082017,41.0325309 391.082017,31.4321599 Z M345.454545,47.8748957 C345.454545,23.142458 358.285281,0 387.806224,0 C410.050559,0 418.181818,13.3897357 418.181818,31.8712901 C418.181818,56.3169489 405.489497,81.6326531 375.256711,81.6326531 C352.868836,81.6326531 345.454545,66.6439758 345.454545,47.8748957 Z" id="Shape"></path>
            </g>
        </g>
    </g>
</svg>