<svg xmlns="http://www.w3.org/2000/svg" width="100" height="30" fill="none"><path fill="#fff" d="M0 0h100v30H0z"/><path fill="#9013FE" d="M0 0h100v30H0z"/><path fill="#fff" d="M15.05 15.08a2.34 2.34 0 0 1-1.09 1.5l-.41.22.75 1.27.39-.22a3.59 3.59 0 0 0 1.38-1.35c.34-.613.525-1.3.54-2a4.34 4.34 0 0 0-.54-2 3.66 3.66 0 0 0-1.34-1.45l-.39-.21-.75 1.26.41.23a2.353 2.353 0 0 1 1.11 1.56h-4.9a1.33 1.33 0 1 0-1.19 1.93 1.32 1.32 0 0 0 1.2-.74h4.83zM14.73 26C9.36 26 5 20.85 5 14.5S9.36 3 14.73 3s9.73 5.15 9.73 11.5S20.1 26 14.73 26zm5.36-10.7a7.76 7.76 0 0 1-3.89 6.11l.79 1.31a9.48 9.48 0 0 0 0-16.36l-.79 1.31a7.76 7.76 0 0 1 3.89 6.11v1.52zm-4.46 5.11l.19-.1a6.1 6.1 0 0 0 2.34-2.36 7.31 7.31 0 0 0 .94-3.45 7.31 7.31 0 0 0-.94-3.49 6.1 6.1 0 0 0-2.34-2.36l-.19-.15-.76 1.28.2.1c.68.394 1.25.95 1.66 1.62.45.74.73 1.57.82 2.43v1a5.85 5.85 0 0 1-.82 2.47 4.73 4.73 0 0 1-1.7 1.63l-.2.1.8 1.28zM31 3h66v24H31z"/><path fill="#000" d="M51.68 19h1.353l-2.505-7.046h-1.416L46.612 19h1.275l.605-1.802h2.593L51.681 19zm-1.928-5.703h.083l.957 2.905h-2.007l.967-2.905zM54.117 19h1.211v-3.11c0-.787.454-1.285 1.177-1.285.737 0 1.079.41 1.079 1.226V19h1.21v-3.457c0-1.274-.648-1.992-1.84-1.992-.796 0-1.333.366-1.587.962h-.083v-.855h-1.167V19zm10.728-3.545c-.127-1.123-.957-1.904-2.33-1.904-1.606 0-2.548 1.03-2.548 2.763 0 1.758.947 2.793 2.553 2.793 1.353 0 2.193-.752 2.325-1.87h-1.153c-.127.557-.547.855-1.176.855-.826 0-1.324-.654-1.324-1.777 0-1.109.493-1.749 1.324-1.749.664 0 1.064.371 1.176.89h1.153zM66.05 19h1.21v-3.1c0-.767.445-1.285 1.241-1.285.703 0 1.074.415 1.074 1.226V19h1.211v-3.447c0-1.27-.693-1.993-1.836-1.993-.796 0-1.367.362-1.62.963h-.089v-2.93H66.05V19zm8.476.107c1.597 0 2.569-1.044 2.569-2.778 0-1.728-.977-2.778-2.569-2.778-1.587 0-2.568 1.054-2.568 2.778 0 1.733.967 2.778 2.568 2.778zm0-1.015c-.844 0-1.328-.645-1.328-1.763 0-1.113.484-1.763 1.328-1.763.84 0 1.324.65 1.324 1.763 0 1.118-.479 1.763-1.324 1.763zm3.79.908h1.21v-3.086c0-.747.547-1.235 1.333-1.235.205 0 .528.034.62.068v-1.123a2.085 2.085 0 0 0-.502-.054c-.689 0-1.265.39-1.412.918h-.083v-.83h-1.167V19z"/></svg>