<svg fill="none" height="30" width="100" xmlns="http://www.w3.org/2000/svg" xmlns:xlink="http://www.w3.org/1999/xlink"><linearGradient id="a" gradientUnits="userSpaceOnUse" x1="50" x2="50" y2="30"><stop offset="0" stop-color="#f452ff"/><stop offset="1" stop-color="#832bc1"/></linearGradient><path d="m0 0h100v30h-100z" fill="#fff"/><path d="m0 0h100v30h-100z" fill="url(#a)"/><path d="m17.04 17.175c-.427-.449-1.175-.738-2.059-.738-.875 0-1.623.288-2.054.738-.216.235-.343.476-.368.818-.063.664-.025 1.235.05 2.149.077.875.216 2.041.407 3.22.14.85.24 1.294.342 1.624.165.533.748.99 1.661.99.926 0 1.51-.457 1.662-.99.101-.317.203-.774.342-1.623.19-1.18.33-2.334.406-3.209.076-.913.127-1.484.05-2.143a1.306 1.306 0 0 0 -.367-.812zm-4.38-4.003a2.326 2.326 0 0 0 2.334 2.324 2.325 2.325 0 1 0 .013-4.649 2.323 2.323 0 0 0 -2.321 2.325h-.025zm2.297-9.172c-5.428.015-9.88 4.426-9.955 9.86-.051 4.403 2.764 8.17 6.683 9.55a.133.133 0 0 0 .178-.146c-.051-.343-.102-.685-.14-1.024a.33.33 0 0 0 -.203-.27c-3.094-1.357-5.263-4.466-5.225-8.07.051-4.73 3.906-8.585 8.637-8.623 4.831-.038 8.788 3.883 8.788 8.709 0 3.567-2.156 6.64-5.238 7.984a.39.39 0 0 0 -.202.27 29.43 29.43 0 0 1 -.14 1.023.137.137 0 0 0 .178.145c3.892-1.367 6.682-5.075 6.682-9.422 0-5.517-4.49-10.002-10.019-9.986h-.025zm-.178 4.582a5.422 5.422 0 0 1 5.631 5.408c0 1.553-.66 2.954-1.712 3.944a.44.44 0 0 0 -.127.326 8.64 8.64 0 0 1 -.012 1.14c0 .109.114.178.215.115a6.692 6.692 0 0 0 2.93-5.525c0-3.777-3.145-6.833-6.95-6.684-3.538.136-6.379 3.054-6.417 6.597a6.7 6.7 0 0 0 2.93 5.615c.088.05.215-.013.202-.127a8.586 8.586 0 0 1 0-1.142.449.449 0 0 0 -.126-.33c-1.078-1.027-1.75-2.485-1.7-4.096.076-2.84 2.36-5.161 5.2-5.263zm16.221-5.582h66v24h-66z" fill="#fff"/><path d="m56.068 13h1.217l-2.254-6.341h-1.275l-2.25 6.341h1.147l.545-1.622h2.334zm-1.736-5.133h.075l.861 2.615h-1.806zm6.548.246c-.66 0-1.217.33-1.494.875h-.075v-.796h-1.05v6.408h1.09v-2.33h.074c.246.51.778.81 1.468.81 1.213 0 1.969-.95 1.969-2.484 0-1.542-.765-2.483-1.982-2.483zm-.343 4.039c-.743 0-1.204-.593-1.208-1.556.004-.958.47-1.555 1.212-1.555.748 0 1.2.584 1.2 1.555s-.448 1.556-1.204 1.556zm6.038-4.039c-.659 0-1.217.33-1.494.875h-.075v-.796h-1.05v6.408h1.09v-2.33h.075c.246.51.777.81 1.467.81 1.213 0 1.97-.95 1.97-2.484 0-1.542-.766-2.483-1.983-2.483zm-.343 4.039c-.742 0-1.204-.593-1.208-1.556.004-.958.47-1.555 1.213-1.555.747 0 1.2.584 1.2 1.555s-.449 1.556-1.205 1.556zm3.463.848h1.09v-6.667h-1.09zm4.487-4.039c.655 0 1.086.457 1.108 1.17h-2.264c.049-.704.506-1.17 1.156-1.17zm1.116 2.716c-.158.356-.531.554-1.072.554-.716 0-1.178-.501-1.204-1.3v-.058h3.357v-.351c0-1.517-.821-2.426-2.193-2.426-1.393 0-2.258.97-2.258 2.518 0 1.547.852 2.483 2.267 2.483 1.134 0 1.93-.545 2.136-1.42zm-30.906 5.983v6.34h1.133v-2.079h1.376c1.283 0 2.18-.86 2.18-2.118 0-1.279-.866-2.144-2.132-2.144h-2.557zm1.133.949h1.125c.818 0 1.28.417 1.28 1.195 0 .756-.475 1.178-1.284 1.178h-1.12v-2.373zm6.636 5.489c1.437 0 2.312-.94 2.312-2.5 0-1.556-.88-2.501-2.312-2.501-1.428 0-2.311.949-2.311 2.5 0 1.56.87 2.5 2.311 2.5zm0-.914c-.76 0-1.195-.58-1.195-1.587 0-1.002.435-1.586 1.195-1.586.756 0 1.191.584 1.191 1.586 0 1.006-.43 1.587-1.19 1.587zm5.15.896c.669 0 1.222-.312 1.495-.84h.074v.76h1.055v-6.666h-1.09v2.623h-.075c-.254-.527-.8-.844-1.459-.844-1.212 0-1.977.958-1.977 2.479 0 1.53.76 2.487 1.977 2.487zm.339-4.038c.747 0 1.208.597 1.208 1.555 0 .967-.457 1.556-1.208 1.556-.747 0-1.2-.585-1.2-1.556 0-.967.457-1.555 1.2-1.555zm7.813.769c-.114-1.011-.86-1.714-2.096-1.714-1.446 0-2.294.927-2.294 2.487 0 1.582.853 2.514 2.299 2.514 1.217 0 1.973-.677 2.091-1.683h-1.037c-.114.5-.492.769-1.059.769-.742 0-1.19-.59-1.19-1.6 0-.998.443-1.573 1.19-1.573.598 0 .958.334 1.06.8zm2.685 2.412c-.483 0-.83-.242-.83-.646 0-.39.285-.61.896-.65l1.086-.07v.382c0 .558-.492.984-1.152.984zm-.32.857c.628 0 1.155-.272 1.423-.738h.075v.658h1.05v-3.283c0-1.02-.694-1.621-1.929-1.621-1.142 0-1.938.54-2.026 1.388h1.029c.1-.325.444-.5.944-.5.59 0 .906.263.906.733v.405l-1.24.074c-1.168.07-1.823.572-1.823 1.442 0 .879.663 1.441 1.59 1.441zm3.753-3.511c0 .725.435 1.151 1.358 1.362l.852.198c.457.101.664.272.664.545 0 .356-.383.598-.932.598-.545 0-.883-.211-.989-.567h-1.077c.084.874.84 1.393 2.04 1.393s2.047-.616 2.047-1.538c0-.708-.426-1.103-1.344-1.31l-.848-.193c-.484-.11-.712-.277-.712-.55 0-.347.373-.584.87-.584.51 0 .83.215.91.554h1.023c-.079-.875-.795-1.38-1.938-1.38-1.133 0-1.924.602-1.924 1.472zm5.379-2.553v1.208h-.76v.87h.76v2.624c0 .931.439 1.305 1.542 1.305.21 0 .413-.022.571-.053v-.852c-.132.013-.215.022-.369.022-.457 0-.66-.211-.66-.686v-2.36h1.03v-.87h-1.03v-1.208zm3.032 2.553c0 .725.435 1.151 1.358 1.362l.852.198c.457.101.664.272.664.545 0 .356-.383.598-.932.598-.545 0-.883-.211-.989-.567h-1.075c.083.874.839 1.393 2.039 1.393s2.048-.616 2.048-1.538c0-.708-.427-1.103-1.345-1.31l-.848-.193c-.484-.11-.712-.277-.712-.55 0-.347.373-.584.87-.584.51 0 .83.215.91.554h1.023c-.079-.875-.795-1.38-1.938-1.38-1.133 0-1.924.602-1.924 1.472z" fill="#000"/></svg>