<svg width="100" height="30" fill="none" xmlns="http://www.w3.org/2000/svg"><path fill="#fff" d="M0 0H100V30H0z"/><path fill="url(#paint0_linear)" d="M0 0H30V30H0z"/><path d="M17.04 17.175c-.427-.449-1.175-.738-2.059-.738-.875 0-1.623.288-2.054.738-.216.235-.343.476-.368.818-.063.664-.025 1.235.05 2.149.077.875.216 2.041.407 3.22.14.85.24 1.294.342 1.624.165.533.748.99 1.661.99.926 0 1.51-.457 1.662-.99.101-.317.203-.774.342-1.623.19-1.18.33-2.334.406-3.209.076-.913.127-1.484.05-2.143a1.306 1.306 0 0 0-.367-.812l-.072-.024zm-4.38-4.003a2.326 2.326 0 0 0 2.334 2.324 2.325 2.325 0 1 0 .013-4.649c-1.281 0-2.321 1.04-2.321 2.325h-.025zM14.957 4c-5.428.015-9.88 4.426-9.955 9.86-.051 4.403 2.764 8.17 6.683 9.55a.133.133 0 0 0 .178-.146c-.051-.343-.102-.685-.14-1.024a.33.33 0 0 0-.203-.27c-3.094-1.357-5.263-4.466-5.225-8.07.051-4.73 3.906-8.585 8.637-8.623 4.831-.038 8.788 3.883 8.788 8.709 0 3.567-2.156 6.64-5.238 7.984a.39.39 0 0 0-.202.27 29.43 29.43 0 0 1-.14 1.023.137.137 0 0 0 .178.145C22.21 22.041 25 18.333 25 13.986 25 8.469 20.51 3.984 14.981 4h-.025zm-.178 4.582a5.422 5.422 0 0 1 5.631 5.408c0 1.553-.66 2.954-1.712 3.944a.44.44 0 0 0-.127.326 8.64 8.64 0 0 1-.012 1.14c0 .109.114.178.215.115a6.692 6.692 0 0 0 2.93-5.525c0-3.777-3.145-6.833-6.95-6.684-3.538.136-6.379 3.054-6.417 6.597a6.7 6.7 0 0 0 2.93 5.615c.088.05.215-.013.202-.127a8.586 8.586 0 0 1 0-1.142.449.449 0 0 0-.126-.33c-1.078-1.027-1.75-2.485-1.7-4.096.076-2.84 2.36-5.161 5.2-5.263l-.064.022z" fill="#fff"/><path d="M56.187 13h1.352l-2.505-7.046h-1.416L51.118 13h1.275l.605-1.802h2.593L56.187 13zm-1.93-5.703h.084l.957 2.905H53.29l.967-2.905zm7.276.273c-.732 0-1.352.367-1.66.972h-.083v-.884h-1.167v7.12h1.211V12.19h.083c.273.566.864.898 1.63.898 1.349 0 2.188-1.055 2.188-2.759 0-1.714-.85-2.759-2.202-2.759zm-.38 4.488c-.826 0-1.338-.66-1.343-1.729.005-1.064.522-1.728 1.347-1.728.83 0 1.333.649 1.333 1.728 0 1.08-.498 1.729-1.338 1.729zM67.86 7.57c-.732 0-1.352.367-1.66.972h-.083v-.884h-1.167v7.12h1.211V12.19h.083c.274.566.864.898 1.631.898 1.348 0 2.188-1.055 2.188-2.759 0-1.714-.85-2.759-2.203-2.759zm-.38 4.488c-.826 0-1.338-.66-1.343-1.729.005-1.064.522-1.728 1.347-1.728.83 0 1.333.649 1.333 1.728 0 1.08-.498 1.729-1.337 1.729zm3.847.942h1.211V5.593h-1.21V13zm4.986-4.487c.727 0 1.206.508 1.23 1.299h-2.515c.054-.782.562-1.3 1.285-1.3zm1.24 3.017c-.176.396-.591.616-1.192.616-.796 0-1.308-.557-1.338-1.446v-.063h3.73v-.39c0-1.685-.912-2.696-2.436-2.696-1.547 0-2.51 1.079-2.51 2.798 0 1.718.948 2.758 2.52 2.758 1.26 0 2.144-.605 2.373-1.577h-1.147zm-34.341 6.424V25h1.26v-2.31H46c1.426 0 2.422-.957 2.422-2.353 0-1.421-.962-2.383-2.368-2.383h-2.842zm1.26 1.055h1.25c.908 0 1.42.464 1.42 1.328 0 .84-.527 1.308-1.425 1.308h-1.245V19.01zm7.373 6.098c1.596 0 2.568-1.044 2.568-2.778 0-1.728-.977-2.778-2.568-2.778-1.587 0-2.569 1.055-2.569 2.778 0 1.733.967 2.778 2.569 2.778zm0-1.015c-.845 0-1.328-.645-1.328-1.763 0-1.113.483-1.763 1.328-1.763.84 0 1.323.65 1.323 1.763 0 1.118-.479 1.763-1.323 1.763zm5.722.996c.742 0 1.358-.347 1.66-.933h.084V25h1.171v-7.407h-1.21v2.915h-.084c-.283-.586-.888-.938-1.62-.938-1.348 0-2.198 1.065-2.198 2.754 0 1.7.845 2.764 2.197 2.764zm.376-4.487c.83 0 1.343.664 1.343 1.728 0 1.074-.508 1.729-1.343 1.729-.83 0-1.333-.65-1.333-1.729 0-1.074.508-1.728 1.333-1.728zm8.682.854c-.127-1.123-.957-1.904-2.33-1.904-1.606 0-2.548 1.03-2.548 2.764 0 1.757.947 2.792 2.554 2.792 1.352 0 2.192-.752 2.324-1.87h-1.152c-.127.557-.547.855-1.177.855-.825 0-1.323-.654-1.323-1.777 0-1.109.493-1.749 1.323-1.749.664 0 1.064.372 1.177.89h1.152zm2.983 2.68c-.537 0-.922-.268-.922-.717 0-.435.317-.679.996-.723l1.206-.078v.425c0 .62-.547 1.094-1.28 1.094zm-.356.953c.698 0 1.284-.303 1.582-.82h.083V25h1.167v-3.648c0-1.132-.771-1.801-2.144-1.801-1.27 0-2.153.6-2.25 1.543h1.142c.112-.362.493-.557 1.05-.557.654 0 1.006.293 1.006.816v.449l-1.377.083c-1.3.078-2.027.634-2.027 1.601 0 .977.738 1.602 1.768 1.602zm4.17-3.902c0 .806.483 1.28 1.509 1.514l.947.22c.508.112.737.303.737.605 0 .396-.425.665-1.035.665-.605 0-.981-.235-1.099-.63h-1.196c.093.971.933 1.547 2.266 1.547s2.275-.683 2.275-1.709c0-.786-.474-1.225-1.494-1.455l-.942-.215c-.538-.122-.791-.307-.791-.61 0-.386.415-.65.966-.65.567 0 .923.24 1.011.616h1.138c-.088-.972-.884-1.533-2.154-1.533-1.26 0-2.138.669-2.138 1.636zm5.976-2.836v1.342h-.844v.967h.844v2.915c0 1.035.489 1.45 1.714 1.45.235 0 .46-.024.635-.058v-.947c-.146.014-.24.024-.41.024-.508 0-.732-.234-.732-.762V20.66h1.142v-.967h-1.142V18.35h-1.207zm3.37 2.836c0 .806.483 1.28 1.508 1.514l.948.22c.507.112.737.303.737.605 0 .396-.425.665-1.035.665-.606 0-.982-.235-1.099-.63h-1.196c.093.971.932 1.547 2.265 1.547 1.334 0 2.276-.683 2.276-1.709 0-.786-.474-1.225-1.494-1.455l-.943-.215c-.537-.122-.79-.307-.79-.61 0-.386.414-.65.966-.65.566 0 .923.24 1.01.616h1.139c-.088-.972-.884-1.533-2.154-1.533-1.26 0-2.138.669-2.138 1.636z" fill="#000"/><defs><linearGradient id="paint0_linear" x1="15" x2="15" y2="30" gradientUnits="userSpaceOnUse"><stop stop-color="#F452FF"/><stop offset="1" stop-color="#832BC1"/></linearGradient></defs></svg>