<svg xmlns="http://www.w3.org/2000/svg" width="100" height="30" fill="none"><path fill="#fff" d="M0 0H100V30H0z"/><path fill="#fff" d="M0 0H100V30H0z"/><path fill="#000" d="M0 0H100V30H0z"/><g filter="url(#filter0_d)"><path fill="url(#paint0_radial)" d="M5.016 9.819a4.787 4.787 0 0 1 4.826-4.787h10.371A4.786 4.786 0 0 1 25 9.819v10.37a4.827 4.827 0 0 1-4.826 4.827H9.841a4.827 4.827 0 0 1-4.826-4.826V9.817z"/><path fill="#FFDB66" fill-opacity=".1" d="M11.869 5l2.736 12.996L14.741 5h.111l.12 12.996L17.724 5h.104l-2.45 13.067 5.585-13.011h.088L15.77 18.227l7.977-11.663.056.063-7.738 11.815 8.927-8.735v.167l-8.656 8.848 8.656-5.657v.2l-8.424 5.76L25 15.642v.192L16.711 19.4l8.281-1.548v.207l-8.209 1.764 8.209.095v.208l-8.209.087 7.906 1.66c0 .08-.056.143-.088.207l-7.898-1.484 6.917 2.952-.176.176-6.876-2.817 5.392 3.702-.287.104-5.345-3.486 3.654 3.725h-.399l-3.526-3.454 2.25 3.454h-.36l-2.217-3.19 1.308 3.246h-.343l-1.316-3.111.574 3.08h-.327l-.654-3v3h-.327v-3l-.63 3h-.327l.582-3.08-1.372 3.08h-.32l1.293-3.232-2.202 3.231h-.367l2.258-3.446-3.534 3.446h-.399l3.638-3.726-5.218 3.36-.255-.097 5.25-3.598-6.622 2.657a1.742 1.742 0 0 1-.167-.183l6.613-2.825-7.467 1.413c0-.08-.056-.152-.08-.216l7.515-1.595-7.778-.088v-.216l7.746-.04-7.786-1.675v-.215l7.874 1.484-7.874-3.375v-.207l8.018 3.19-7.978-5.496v-.215l8.233 5.377-8.273-8.393v-.191l8.52 8.328L6.006 6.9a.144.144 0 0 1 .063-.072l7.794 11.4L8.59 5.152h.088l5.536 12.915L11.781 5h.088z"/><path fill="#0069FF" d="M24.992 20.357a4.659 4.659 0 0 1-4.659 4.62h-3.566a19.945 19.945 0 0 1-3.989-6.973 3.99 3.99 0 0 0 2.992 2.616c1.355.294 2.738.436 4.124.423a19.551 19.551 0 0 0 5.098-.686z"/><path fill="#5C9DFF" d="M16.76 24.976H9.674c-.366.003-.73-.04-1.085-.128.064-.478.152-.957.24-1.428a19.897 19.897 0 0 1 4.674-9.294 3.989 3.989 0 0 0-.925 2.601c.002.43.075.855.215 1.26a20.104 20.104 0 0 0 3.989 6.973s-.032.008-.024.016z"/><path fill="#B2D2FF" d="M8.59 24.864A4.683 4.683 0 0 1 5 20.317V14.15a20.128 20.128 0 0 1 12.286-1.308 4.915 4.915 0 0 0-.798-.072 3.942 3.942 0 0 0-2.976 1.357 19.808 19.808 0 0 0-4.69 9.301c-.08.463-.158.942-.232 1.436z"/><path fill="#D9E9FF" d="M13.177 12.411c1.38-.001 2.757.14 4.109.423a3.988 3.988 0 0 1 2.96 2.593l.055.16-.056-.16A20.024 20.024 0 0 0 12.268 5H9.683a4.667 4.667 0 0 0-4.667 4.659v4.491a19.944 19.944 0 0 1 8.161-1.739z"/><path fill="#fff" d="M24.992 14.964V9.66A4.667 4.667 0 0 0 20.333 5h-8.057A20.048 20.048 0 0 1 20.3 15.586c.096.32.224.798.327 1.125a6.661 6.661 0 0 0 4.364-1.747z"/><path fill="#003DAD" d="M9.26 24.96a4.197 4.197 0 0 1-1.292-.311c.063-.463.135-.925.223-1.372a20.862 20.862 0 0 1 4.842-9.573c.191-.211.397-.408.615-.59h-.47a18.778 18.778 0 0 0-8.154 1.754V13.44a20.805 20.805 0 0 1 12.39-1.244c.273.054.54.137.797.247a19.402 19.402 0 0 0-7.18-7.427h2.393a20.67 20.67 0 0 1 7.491 10.37c.056.184.128.4.192.631a6.047 6.047 0 0 0 3.877-2.002v1.819a7.403 7.403 0 0 1-4.356 1.547h-.526l-.136-.51a28.167 28.167 0 0 0-.319-1.101 3.334 3.334 0 0 0-2.513-2.298 3.302 3.302 0 0 0-3.127 1.061 3.024 3.024 0 0 0-.798 2.162c-.003.36.054.72.168 1.061a3.295 3.295 0 0 0 2.465 2.17c1.309.292 2.647.434 3.989.423 1.738.003 3.47-.23 5.145-.694v.646c.002.246-.017.492-.056.734a20.741 20.741 0 0 1-5.09.638 19.724 19.724 0 0 1-4.26-.446 3.79 3.79 0 0 1-.797-.248 18.797 18.797 0 0 0 2.465 3.51l.415.463h-1.78a20.996 20.996 0 0 1-3.757-6.78 5.35 5.35 0 0 1-.191-.838 18.994 18.994 0 0 0-2.442 6.19c-.095.495-.16.957-.223 1.436z"/></g><path fill="#fff" d="M31 3H97V27H31z"/><path fill="#000" d="M48.853 19c1.504 0 2.422-.767 2.422-2.002 0-.918-.654-1.602-1.601-1.69v-.087c.708-.113 1.255-.767 1.255-1.51 0-1.083-.806-1.757-2.144-1.757h-2.944V19h3.012zm-1.752-6.045h1.377c.761 0 1.206.361 1.206.982 0 .634-.474.981-1.368.981h-1.215v-1.963zm0 5.044v-2.173h1.416c.961 0 1.47.371 1.47 1.074 0 .718-.494 1.099-1.422 1.099h-1.464zM52.52 19h1.21v-3.086c0-.747.547-1.235 1.334-1.235.205 0 .527.034.62.068v-1.123a2.085 2.085 0 0 0-.503-.054c-.689 0-1.265.39-1.412.918h-.083v-.83h-1.166V19zm6.264-4.487c.728 0 1.206.508 1.23 1.299h-2.514c.054-.782.562-1.3 1.284-1.3zm1.24 3.017c-.175.396-.59.615-1.191.615-.796 0-1.309-.556-1.338-1.445v-.063h3.73v-.39c0-1.685-.913-2.696-2.436-2.696-1.548 0-2.51 1.079-2.51 2.798 0 1.718.947 2.758 2.52 2.758 1.26 0 2.143-.605 2.373-1.577h-1.148zm4.244.606c-.538 0-.923-.269-.923-.718 0-.435.317-.679.996-.723l1.206-.078v.425c0 .62-.547 1.094-1.28 1.094zm-.357.952c.698 0 1.284-.303 1.582-.82h.083V19h1.167v-3.648c0-1.132-.771-1.801-2.143-1.801-1.27 0-2.154.6-2.251 1.543h1.142c.113-.362.493-.557 1.05-.557.654 0 1.006.293 1.006.815v.45l-1.377.083c-1.299.078-2.027.635-2.027 1.601 0 .977.738 1.602 1.768 1.602zm5.635-3.252h-.083v-4.243h-1.211V19h1.21v-1.86l.43-.43L71.608 19h1.465l-2.275-3.052 2.129-2.29h-1.407l-1.972 2.178zm6.406-1.323c.728 0 1.206.508 1.23 1.299H74.67c.054-.782.562-1.3 1.284-1.3zm1.24 3.017c-.175.396-.59.615-1.191.615-.796 0-1.309-.556-1.338-1.445v-.063h3.73v-.39c0-1.685-.913-2.696-2.436-2.696-1.548 0-2.51 1.079-2.51 2.798 0 1.718.948 2.758 2.52 2.758 1.26 0 2.143-.605 2.373-1.577h-1.148zM79.61 19h1.211v-3.086c0-.747.547-1.235 1.333-1.235.205 0 .528.034.62.068v-1.123a2.084 2.084 0 0 0-.502-.054c-.689 0-1.265.39-1.412.918h-.083v-.83H79.61V19z"/><defs><filter id="filter0_d" width="28" height="28.016" x="5" y="1" color-interpolation-filters="sRGB" filterUnits="userSpaceOnUse"><feFlood flood-opacity="0" result="BackgroundImageFix"/><feColorMatrix in="SourceAlpha" values="0 0 0 0 0 0 0 0 0 0 0 0 0 0 0 0 0 0 127 0"/><feOffset dx="4"/><feGaussianBlur stdDeviation="2"/><feColorMatrix values="0 0 0 0 1 0 0 0 0 1 0 0 0 0 1 0 0 0 0.25 0"/><feBlend in2="BackgroundImageFix" result="effect1_dropShadow"/><feBlend in="SourceGraphic" in2="effect1_dropShadow" result="shape"/></filter><radialGradient id="paint0_radial" cx="0" cy="0" r="1" gradientTransform="translate(13.357 18.949) scale(14.0692)" gradientUnits="userSpaceOnUse"><stop stop-color="#FFF266"/><stop offset=".17" stop-color="#FFA866"/><stop offset=".38" stop-color="#FF7066"/><stop offset=".66" stop-color="#FF40C0"/></radialGradient></defs></svg>