<svg width="100" height="30" fill="none" xmlns="http://www.w3.org/2000/svg"><path fill="#fff" d="M0 0H100V30H0z"/><path fill="url(#paint0_linear)" d="M0 0H30V30H0z"/><path d="M48.652 19.176c1.626 0 2.818-.972 2.984-2.412h-1.24c-.171.79-.85 1.289-1.744 1.289-1.2 0-1.948-.987-1.948-2.578 0-1.587.747-2.574 1.944-2.574.888 0 1.567.547 1.743 1.392h1.24c-.147-1.47-1.382-2.515-2.983-2.515-1.998 0-3.233 1.412-3.233 3.701 0 2.28 1.24 3.697 3.237 3.697zm6.084-1.04c-.537 0-.922-.269-.922-.718 0-.435.317-.679.996-.723l1.206-.078v.425c0 .62-.547 1.094-1.28 1.094zm-.356.952c.698 0 1.284-.303 1.582-.82h.083V19h1.167v-3.648c0-1.132-.772-1.801-2.144-1.801-1.27 0-2.153.6-2.25 1.543h1.142c.112-.362.493-.557 1.05-.557.654 0 1.006.293 1.006.815v.45l-1.377.083c-1.3.078-2.027.635-2.027 1.601 0 .977.738 1.602 1.768 1.602zm4.17-3.902c0 .806.483 1.28 1.509 1.514l.947.22c.508.112.737.303.737.605 0 .396-.425.665-1.035.665-.605 0-.981-.235-1.099-.63h-1.196c.093.971.933 1.547 2.266 1.547s2.275-.683 2.275-1.709c0-.786-.474-1.225-1.494-1.455l-.942-.214c-.538-.123-.791-.308-.791-.61 0-.387.415-.65.966-.65.567 0 .923.239 1.011.615h1.138c-.088-.972-.884-1.533-2.154-1.533-1.26 0-2.138.669-2.138 1.636zm5.976-2.836v1.342h-.844v.967h.844v2.915c0 1.035.489 1.45 1.714 1.45.235 0 .46-.024.635-.058v-.947c-.147.014-.24.024-.41.024-.508 0-.733-.234-.733-.762V14.66h1.143v-.967h-1.143V12.35h-1.206zm6.529 6.738c1.347 0 2.192-1.06 2.192-2.759 0-1.709-.84-2.759-2.192-2.759-.733 0-1.348.357-1.626.938h-.083v-2.915h-1.211V19h1.167v-.845h.083c.302.586.923.933 1.67.933zm-.381-4.487c.825 0 1.328.654 1.328 1.728 0 1.074-.498 1.729-1.328 1.729-.83 0-1.348-.664-1.348-1.729 0-1.064.523-1.728 1.348-1.728zm6.094 4.506c1.596 0 2.568-1.044 2.568-2.778 0-1.728-.977-2.778-2.568-2.778-1.587 0-2.569 1.054-2.569 2.778 0 1.733.967 2.778 2.569 2.778zm0-1.015c-.845 0-1.329-.645-1.329-1.763 0-1.113.484-1.763 1.329-1.763.84 0 1.323.65 1.323 1.763 0 1.118-.479 1.763-1.323 1.763zm5.595-.933L83.457 19h1.367l-1.743-2.7 1.724-2.642h-1.333l-1.055 1.836h-.083l-1.065-1.836h-1.4l1.742 2.69L79.883 19h1.303l1.094-1.84h.083z" fill="#000"/><path d="M17.868 11.018v7.331a1.073 1.073 0 0 1-1.834.76 1.073 1.073 0 0 1-.314-.76v-2.06a.73.73 0 0 0-1.418 0v1.91a1.073 1.073 0 0 1-2.148 0v-2.566a.727.727 0 0 0-.87-.568.72.72 0 0 0-.559.569v5.173a1.073 1.073 0 0 1-2.148 0v-3.81a.73.73 0 0 0-1.428 0v.279a1.073 1.073 0 0 1-2.149 0V13.97a1.074 1.074 0 0 1 2.149-.065v.344a.73.73 0 0 0 1.428 0v-2.372a1.073 1.073 0 0 1 1.834-.76c.201.202.314.475.314.76v.998a.718.718 0 0 0 .86.569.752.752 0 0 0 .569-.57v-2.8a1.073 1.073 0 0 1 2.148 0v3.466a.718.718 0 0 0 .86.559.73.73 0 0 0 .558-.537v-2.576a1.072 1.072 0 0 1 1.833-.76c.202.202.315.475.315.76v.032zm2.492 1.792a1.074 1.074 0 0 0-1.074 1.074v4.186a1.073 1.073 0 0 0 2.148 0v-4.186a1.073 1.073 0 0 0-1.074-1.074zm3.566 2.147a1.075 1.075 0 0 0-1.074 1.074v1.073a1.073 1.073 0 0 0 2.148 0v-1.073a1.074 1.074 0 0 0-1.074-1.095v.021z" fill="#fff"/><defs><linearGradient id="paint0_linear" x1="15" x2="15" y2="30" gradientUnits="userSpaceOnUse"><stop stop-color="#FF9E57"/><stop offset="1" stop-color="#FF5321"/></linearGradient></defs></svg>