<svg width="100" height="30" fill="none" xmlns="http://www.w3.org/2000/svg"><path fill="#fff" d="M0 0H100V30H0z"/><path fill="#F4F4F4" d="M0 0H30V30H0z"/><path d="M54.58 10.178v-.884h-2.925v.986h1.695l-.005.147c-.02.971-.752 1.626-1.826 1.626-1.255 0-2.041-.987-2.041-2.588 0-1.582.771-2.564 2.002-2.564.903 0 1.533.445 1.787 1.245h1.255c-.225-1.44-1.416-2.368-3.042-2.368-2.007 0-3.291 1.44-3.291 3.697 0 2.285 1.269 3.7 3.31 3.7 1.88 0 3.081-1.166 3.081-2.997zm3.643 2.93c1.596 0 2.568-1.046 2.568-2.779 0-1.728-.976-2.778-2.568-2.778-1.587 0-2.569 1.054-2.569 2.778 0 1.733.967 2.778 2.569 2.778zm0-1.016c-.845 0-1.328-.645-1.328-1.763 0-1.113.483-1.763 1.328-1.763.84 0 1.323.65 1.323 1.763 0 1.118-.479 1.763-1.323 1.763zm6.093 1.015c1.597 0 2.569-1.044 2.569-2.778 0-1.728-.977-2.778-2.569-2.778-1.587 0-2.568 1.054-2.568 2.778 0 1.733.967 2.778 2.568 2.778zm0-1.015c-.844 0-1.328-.645-1.328-1.763 0-1.113.484-1.763 1.328-1.763.84 0 1.324.65 1.324 1.763 0 1.118-.479 1.763-1.324 1.763zm6.084-.157c-.844 0-1.323-.644-1.323-1.665 0-1.02.479-1.67 1.323-1.67.84 0 1.353.65 1.353 1.67 0 1.021-.508 1.665-1.353 1.665zm0 3.096c1.558 0 2.544-.776 2.544-2.011V7.658h-1.167v.855h-.083c-.293-.581-.927-.943-1.655-.943-1.362 0-2.207 1.065-2.207 2.7 0 1.607.84 2.652 2.188 2.652.742 0 1.323-.313 1.63-.884h.083v1.01c0 .67-.483 1.06-1.313 1.06-.664 0-1.094-.234-1.172-.6h-1.216c.098.918.996 1.523 2.368 1.523zM74.482 13h1.211V5.593h-1.21V13zm4.986-4.487c.727 0 1.206.508 1.23 1.299h-2.514c.053-.782.561-1.3 1.284-1.3zm1.24 3.017c-.176.396-.59.616-1.191.616-.796 0-1.309-.557-1.338-1.446v-.063h3.73v-.39c0-1.685-.913-2.696-2.436-2.696-1.548 0-2.51 1.079-2.51 2.798 0 1.718.947 2.758 2.52 2.758 1.26 0 2.143-.605 2.373-1.577h-1.148zm-37.495 6.424V25h1.26v-2.31H46c1.426 0 2.422-.957 2.422-2.353 0-1.421-.962-2.383-2.368-2.383h-2.842zm1.26 1.055h1.25c.908 0 1.42.464 1.42 1.328 0 .84-.527 1.308-1.425 1.308h-1.245V19.01zm7.373 6.098c1.596 0 2.568-1.044 2.568-2.778 0-1.728-.977-2.778-2.568-2.778-1.587 0-2.569 1.055-2.569 2.778 0 1.733.967 2.778 2.569 2.778zm0-1.015c-.845 0-1.328-.645-1.328-1.763 0-1.113.483-1.763 1.328-1.763.84 0 1.323.65 1.323 1.763 0 1.118-.479 1.763-1.323 1.763zm5.722.996c.742 0 1.358-.347 1.66-.933h.084V25h1.171v-7.407h-1.21v2.915h-.084c-.283-.586-.888-.938-1.62-.938-1.348 0-2.198 1.065-2.198 2.754 0 1.7.845 2.764 2.197 2.764zm.376-4.487c.83 0 1.343.664 1.343 1.728 0 1.074-.508 1.729-1.343 1.729-.83 0-1.333-.65-1.333-1.729 0-1.074.508-1.728 1.333-1.728zm8.682.854c-.127-1.123-.957-1.904-2.33-1.904-1.606 0-2.548 1.03-2.548 2.764 0 1.757.947 2.792 2.554 2.792 1.352 0 2.192-.752 2.324-1.87h-1.152c-.127.557-.547.855-1.177.855-.825 0-1.323-.654-1.323-1.777 0-1.109.493-1.749 1.323-1.749.664 0 1.064.372 1.177.89h1.152zm2.983 2.68c-.537 0-.922-.268-.922-.717 0-.435.317-.679.996-.723l1.206-.078v.425c0 .62-.547 1.094-1.28 1.094zm-.356.953c.698 0 1.284-.303 1.582-.82h.083V25h1.167v-3.648c0-1.132-.771-1.801-2.144-1.801-1.27 0-2.153.6-2.25 1.543h1.142c.112-.362.493-.557 1.05-.557.654 0 1.006.293 1.006.816v.449l-1.377.083c-1.3.078-2.027.634-2.027 1.601 0 .977.738 1.602 1.768 1.602zm4.17-3.902c0 .806.483 1.28 1.509 1.514l.947.22c.508.112.737.303.737.605 0 .396-.425.665-1.035.665-.605 0-.981-.235-1.099-.63h-1.196c.093.971.933 1.547 2.266 1.547s2.275-.683 2.275-1.709c0-.786-.474-1.225-1.494-1.455l-.942-.215c-.538-.122-.791-.307-.791-.61 0-.386.415-.65.966-.65.567 0 .923.24 1.011.616h1.138c-.088-.972-.884-1.533-2.154-1.533-1.26 0-2.138.669-2.138 1.636zm5.976-2.836v1.342h-.844v.967h.844v2.915c0 1.035.489 1.45 1.714 1.45.235 0 .46-.024.635-.058v-.947c-.146.014-.24.024-.41.024-.508 0-.732-.234-.732-.762V20.66h1.142v-.967h-1.142V18.35h-1.207zm3.37 2.836c0 .806.483 1.28 1.508 1.514l.948.22c.507.112.737.303.737.605 0 .396-.425.665-1.035.665-.606 0-.982-.235-1.099-.63h-1.196c.093.971.932 1.547 2.265 1.547 1.334 0 2.276-.683 2.276-1.709 0-.786-.474-1.225-1.494-1.455l-.943-.215c-.537-.122-.79-.307-.79-.61 0-.386.414-.65.966-.65.566 0 .923.24 1.01.616h1.139c-.088-.972-.884-1.533-2.154-1.533-1.26 0-2.138.669-2.138 1.636z" fill="#000"/><path d="M13.75 11.364v7.272h2.5v-7.272h-2.5z" fill="#FAB908"/><path d="M6.25 15.568a1.25 1.25 0 1 0 0-2.5 1.25 1.25 0 0 0 0 2.5z" fill="#0066D9"/><path d="M6.25 16.932a1.25 1.25 0 1 0 0-2.5 1.25 1.25 0 0 0 0 2.5z" fill="#0066D9"/><path d="M7.5 14.318H5v1.364h2.5v-1.364z" fill="#0066D9"/><path d="M23.75 16.932a1.25 1.25 0 1 0 0-2.5 1.25 1.25 0 0 0 0 2.5z" fill="#4285F4"/><path d="M23.75 15.568a1.25 1.25 0 1 0 0-2.5 1.25 1.25 0 0 0 0 2.5z" fill="#4285F4"/><path d="M22.5 15.682H25v-1.364h-2.5v1.364z" fill="#4285F4"/><path d="M10.568 19.66a1.25 1.25 0 1 0 0-2.501 1.25 1.25 0 0 0 0 2.5z" fill="#EA4335"/><path d="M10.568 21.023a1.25 1.25 0 1 0 0-2.5 1.25 1.25 0 0 0 0 2.5z" fill="#EA4335"/><path d="M11.818 18.41h-2.5v1.363h2.5v-1.364zm-1.25-6.933a1.25 1.25 0 1 0 0-2.5 1.25 1.25 0 0 0 0 2.5zm0 4.432a1.25 1.25 0 1 0 0-2.5 1.25 1.25 0 0 0 0 2.5z" fill="#EA4335"/><path d="M11.818 10.227h-2.5v4.46h2.5v-4.46z" fill="#EA4335"/><path d="M19.432 12.84a1.25 1.25 0 1 0 0-2.499 1.25 1.25 0 0 0 0 2.5z" fill="#34A853"/><path d="M19.432 11.477a1.25 1.25 0 1 0 0-2.5 1.25 1.25 0 0 0 0 2.5z" fill="#34A853"/><path d="M18.182 11.59h2.5v-1.363h-2.5v1.364z" fill="#34A853"/><path d="M15 8.864a1.25 1.25 0 1 0 0-2.5 1.25 1.25 0 0 0 0 2.5z" fill="#FAB908"/><path d="M15 7.5A1.25 1.25 0 1 0 15 5a1.25 1.25 0 0 0 0 2.5z" fill="#FAB908"/><path d="M13.75 7.614h2.5V6.25h-2.5v1.364zM15 25a1.25 1.25 0 1 0 0-2.5 1.25 1.25 0 0 0 0 2.5z" fill="#FAB908"/><path d="M15 23.636a1.25 1.25 0 1 0 0-2.5 1.25 1.25 0 0 0 0 2.5z" fill="#FAB908"/><path d="M13.75 23.75h2.5v-1.364h-2.5v1.364z" fill="#FAB908"/><path d="M19.432 21.023a1.25 1.25 0 1 0 0-2.5 1.25 1.25 0 0 0 0 2.5zm0-4.432a1.25 1.25 0 1 0 0-2.5 1.25 1.25 0 0 0 0 2.5z" fill="#34A853"/><path d="M18.182 19.773h2.5V15.34h-2.5v4.432z" fill="#34A853"/><path d="M15 12.614a1.25 1.25 0 1 0 0-2.5 1.25 1.25 0 0 0 0 2.5zm0 7.272a1.25 1.25 0 1 0 0-2.5 1.25 1.25 0 0 0 0 2.5z" fill="#FAB908"/></svg>