<svg fill="none" height="30" width="100" xmlns="http://www.w3.org/2000/svg"><filter id="b" color-interpolation-filters="sRGB" filterUnits="userSpaceOnUse" height="28" width="28" x="2" y="5"><feFlood flood-opacity="0" result="BackgroundImageFix"/><feColorMatrix in="SourceAlpha" values="0 0 0 0 0 0 0 0 0 0 0 0 0 0 0 0 0 0 127 0"/><feOffset dy="4"/><feGaussianBlur stdDeviation="2"/><feColorMatrix values="0 0 0 0 0 0 0 0 0 0 0 0 0 0 0 0 0 0 0.25 0"/><feBlend in2="BackgroundImageFix" result="effect1_dropShadow"/><feBlend in="SourceGraphic" in2="effect1_dropShadow" result="shape"/></filter><clipPath id="a"><path d="M0 0h100v30H0z"/></clipPath><g clip-path="url(#a)"><path d="M0 0h100v30H0z" fill="#e6e6e6"/><g filter="url(#b)"><path d="M14.75 11.364v7.272h2.5v-7.272z" fill="#fab908"/><path d="M7.25 15.568a1.25 1.25 0 1 0 0-2.5 1.25 1.25 0 0 0 0 2.5z" fill="#0066d9"/><path d="M7.25 16.932a1.25 1.25 0 1 0 0-2.5 1.25 1.25 0 0 0 0 2.5z" fill="#0066d9"/><path d="M8.5 14.318H6v1.364h2.5z" fill="#0066d9"/><path d="M24.75 16.932a1.25 1.25 0 1 0 0-2.5 1.25 1.25 0 0 0 0 2.5z" fill="#4285f4"/><path d="M24.75 15.568a1.25 1.25 0 1 0 0-2.5 1.25 1.25 0 0 0 0 2.5z" fill="#4285f4"/><path d="M23.5 15.682H26v-1.364h-2.5z" fill="#4285f4"/><path d="M11.568 19.66a1.25 1.25 0 1 0 0-2.501 1.25 1.25 0 0 0 0 2.5z" fill="#ea4335"/><path d="M11.568 21.023a1.25 1.25 0 1 0 0-2.5 1.25 1.25 0 0 0 0 2.5z" fill="#ea4335"/><path d="M12.818 18.41h-2.5v1.363h2.5v-1.364zm-1.25-6.933a1.25 1.25 0 1 0 0-2.5 1.25 1.25 0 0 0 0 2.5zm0 4.432a1.25 1.25 0 1 0 0-2.5 1.25 1.25 0 0 0 0 2.5z" fill="#ea4335"/><path d="M12.818 10.227h-2.5v4.46h2.5z" fill="#ea4335"/><path d="M20.432 12.84a1.25 1.25 0 1 0 0-2.499 1.25 1.25 0 0 0 0 2.5z" fill="#34a853"/><path d="M20.432 11.477a1.25 1.25 0 1 0 0-2.5 1.25 1.25 0 0 0 0 2.5z" fill="#34a853"/><path d="M19.182 11.59h2.5v-1.363h-2.5v1.364z" fill="#34a853"/><g fill="#fab908"><path d="M16 8.864a1.25 1.25 0 1 0 0-2.5 1.25 1.25 0 0 0 0 2.5z"/><path d="M16 7.5A1.25 1.25 0 1 0 16 5a1.25 1.25 0 0 0 0 2.5z"/><path d="M14.75 7.614h2.5V6.25h-2.5zM16 25a1.25 1.25 0 1 0 0-2.5 1.25 1.25 0 0 0 0 2.5z"/><path d="M16 23.636a1.25 1.25 0 1 0 0-2.5 1.25 1.25 0 0 0 0 2.5z"/><path d="M14.75 23.75h2.5v-1.364h-2.5z"/></g><path d="M20.432 21.023a1.25 1.25 0 1 0 0-2.5 1.25 1.25 0 0 0 0 2.5zm0-4.432a1.25 1.25 0 1 0 0-2.5 1.25 1.25 0 0 0 0 2.5z" fill="#34a853"/><path d="M19.182 19.773h2.5V15.34h-2.5v4.432z" fill="#34a853"/><path d="M16 12.614a1.25 1.25 0 1 0 0-2.5 1.25 1.25 0 0 0 0 2.5zm0 7.272a1.25 1.25 0 1 0 0-2.5 1.25 1.25 0 0 0 0 2.5z" fill="#fab908"/></g><path d="M31 3h66v24H31z" fill="#fff"/><path d="M54.622 10.46v-.795H51.99v.887h1.525l-.005.132c-.017.875-.676 1.464-1.643 1.464-1.13 0-1.837-.888-1.837-2.33 0-1.423.694-2.307 1.801-2.307.813 0 1.38.4 1.609 1.12h1.13c-.203-1.296-1.275-2.13-2.739-2.13-1.806 0-2.961 1.296-2.961 3.326 0 2.057 1.142 3.331 2.98 3.331 1.691 0 2.772-1.05 2.772-2.698zm3.278 2.637c1.437 0 2.312-.94 2.312-2.5 0-1.556-.879-2.501-2.312-2.501-1.428 0-2.311.949-2.311 2.5 0 1.56.87 2.5 2.311 2.5zm0-.914c-.76 0-1.195-.58-1.195-1.587 0-1.002.435-1.586 1.195-1.586.756 0 1.191.584 1.191 1.586 0 1.006-.43 1.587-1.19 1.587zm5.485.914c1.437 0 2.311-.94 2.311-2.5 0-1.556-.879-2.501-2.311-2.501-1.428 0-2.312.949-2.312 2.5 0 1.56.87 2.5 2.312 2.5zm0-.914c-.76 0-1.195-.58-1.195-1.587 0-1.002.434-1.586 1.195-1.586.756 0 1.19.584 1.19 1.586 0 1.006-.43 1.587-1.19 1.587zm5.475-.141c-.76 0-1.19-.58-1.19-1.498 0-.919.43-1.503 1.19-1.503.756 0 1.218.584 1.218 1.502 0 .919-.457 1.499-1.218 1.499zm0 2.786c1.402 0 2.29-.699 2.29-1.81V8.192H70.1v.77h-.075c-.264-.524-.835-.849-1.49-.849-1.226 0-1.986.958-1.986 2.43 0 1.446.756 2.387 1.969 2.387.668 0 1.19-.282 1.467-.796h.075v.91c0 .602-.435.954-1.182.954-.598 0-.984-.211-1.055-.541H66.73c.088.826.897 1.371 2.131 1.371zM72.534 13h1.09V6.333h-1.09zm4.487-4.039c.655 0 1.085.457 1.107 1.17h-2.263c.049-.704.506-1.17 1.156-1.17zm1.116 2.716c-.158.356-.531.554-1.072.554-.716 0-1.178-.501-1.204-1.3v-.058h3.357v-.351c0-1.517-.822-2.426-2.193-2.426-1.393 0-2.258.97-2.258 2.518 0 1.547.852 2.483 2.267 2.483 1.134 0 1.93-.545 2.136-1.42zM44.392 17.66V24h1.133v-2.079h1.376c1.283 0 2.18-.86 2.18-2.118 0-1.279-.866-2.144-2.132-2.144h-2.557zm1.133.949h1.125c.818 0 1.28.417 1.28 1.195 0 .756-.475 1.178-1.284 1.178h-1.12v-2.373zm6.636 5.489c1.437 0 2.312-.94 2.312-2.5 0-1.556-.88-2.501-2.312-2.501-1.428 0-2.311.949-2.311 2.5 0 1.56.87 2.5 2.311 2.5zm0-.914c-.76 0-1.195-.58-1.195-1.587 0-1.002.435-1.586 1.195-1.586.756 0 1.191.584 1.191 1.586 0 1.006-.43 1.587-1.19 1.587zm5.15.896c.669 0 1.222-.312 1.495-.84h.074V24h1.055v-6.666h-1.09v2.623h-.075c-.254-.527-.8-.844-1.459-.844-1.212 0-1.977.958-1.977 2.479 0 1.53.76 2.487 1.977 2.487zm.339-4.038c.747 0 1.208.597 1.208 1.555 0 .967-.457 1.556-1.208 1.556-.747 0-1.2-.585-1.2-1.556 0-.967.457-1.555 1.2-1.555zm7.813.769c-.114-1.011-.86-1.714-2.096-1.714-1.446 0-2.294.927-2.294 2.487 0 1.582.853 2.514 2.299 2.514 1.217 0 1.973-.677 2.091-1.683h-1.037c-.114.5-.492.769-1.059.769-.742 0-1.19-.59-1.19-1.6 0-.998.443-1.573 1.19-1.573.598 0 .958.334 1.06.8zm2.685 2.412c-.483 0-.83-.242-.83-.646 0-.39.285-.61.896-.65l1.086-.07v.382c0 .558-.492.984-1.152.984zm-.32.857c.628 0 1.155-.272 1.423-.738h.075V24h1.05v-3.283c0-1.02-.694-1.621-1.929-1.621-1.142 0-1.938.54-2.026 1.388h1.029c.1-.325.444-.5.944-.5.59 0 .906.263.906.733v.405l-1.24.074c-1.168.07-1.823.572-1.823 1.442 0 .879.663 1.441 1.59 1.441zm3.753-3.511c0 .725.435 1.151 1.358 1.362l.852.198c.457.101.664.272.664.545 0 .356-.383.598-.932.598-.545 0-.883-.211-.989-.567h-1.077c.084.874.84 1.393 2.04 1.393s2.047-.616 2.047-1.538c0-.708-.426-1.103-1.344-1.31l-.848-.193c-.484-.11-.712-.277-.712-.55 0-.347.373-.584.87-.584.51 0 .83.215.91.554h1.023c-.079-.875-.795-1.38-1.938-1.38-1.133 0-1.924.602-1.924 1.472zm5.379-2.553v1.208h-.76v.87h.76v2.624c0 .931.439 1.305 1.542 1.305.21 0 .413-.022.571-.053v-.852c-.132.013-.215.022-.369.022-.457 0-.66-.211-.66-.686v-2.36h1.03v-.87h-1.03v-1.208zm3.032 2.553c0 .725.435 1.151 1.358 1.362l.852.198c.457.101.664.272.664.545 0 .356-.383.598-.932.598-.545 0-.883-.211-.989-.567H79.87c.083.874.839 1.393 2.039 1.393s2.048-.616 2.048-1.538c0-.708-.427-1.103-1.345-1.31l-.848-.193c-.484-.11-.712-.277-.712-.55 0-.347.373-.584.87-.584.51 0 .83.215.91.554h1.023c-.079-.875-.795-1.38-1.938-1.38-1.133 0-1.924.602-1.924 1.472z" fill="#000"/></g></svg>