<svg width="100" height="30" fill="none" xmlns="http://www.w3.org/2000/svg"><path fill="#fff" d="M0 0H100V30H0z"/><path fill="url(#paint0_linear)" d="M0 0H30V30H0z"/><path d="M46.836 11.778c-2.046 0-3.34 1.421-3.34 3.697 0 2.275 1.27 3.7 3.34 3.7 2.056 0 3.325-1.43 3.325-3.7 0-2.276-1.28-3.697-3.325-3.697zm0 1.118c1.25 0 2.036 1.002 2.036 2.579 0 1.572-.781 2.583-2.036 2.583-1.274 0-2.05-1.011-2.05-2.583 0-1.577.795-2.579 2.05-2.579zm9.302.762h-1.28l-1.225 4.131h-.083l-1.235-4.13h-1.3l1.9 5.341h1.333l1.89-5.342zm3.052.855c.727 0 1.206.508 1.23 1.299h-2.515c.054-.782.562-1.3 1.285-1.3zm1.24 3.017c-.176.396-.591.615-1.192.615-.796 0-1.308-.556-1.338-1.445v-.063h3.73v-.39c0-1.685-.912-2.696-2.436-2.696-1.547 0-2.51 1.079-2.51 2.798 0 1.718.948 2.758 2.52 2.758 1.26 0 2.144-.605 2.373-1.577H60.43zM62.847 19h1.21v-3.086c0-.747.547-1.235 1.334-1.235.205 0 .527.034.62.068v-1.123a2.084 2.084 0 0 0-.503-.054c-.689 0-1.265.39-1.411.918h-.083v-.83h-1.167V19zm8.637-3.545c-.127-1.123-.957-1.904-2.329-1.904-1.606 0-2.549 1.03-2.549 2.763 0 1.758.948 2.793 2.554 2.793 1.353 0 2.193-.752 2.324-1.87h-1.152c-.127.557-.547.855-1.177.855-.825 0-1.323-.654-1.323-1.777 0-1.109.493-1.749 1.323-1.749.664 0 1.065.371 1.177.89h1.152zm2.984 2.68c-.537 0-.923-.268-.923-.717 0-.435.317-.679.996-.723l1.206-.078v.425c0 .62-.547 1.094-1.28 1.094zm-.357.953c.699 0 1.284-.303 1.582-.82h.083V19h1.167v-3.648c0-1.132-.771-1.801-2.143-1.801-1.27 0-2.153.6-2.251 1.543h1.142c.113-.362.494-.557 1.05-.557.654 0 1.006.293 1.006.815v.45l-1.377.083c-1.299.078-2.026.635-2.026 1.601 0 .977.737 1.602 1.767 1.602zm4.17-3.902c0 .806.484 1.28 1.509 1.514l.947.22c.508.112.738.303.738.605 0 .396-.425.665-1.035.665-.606 0-.982-.235-1.1-.63h-1.196c.093.971.933 1.547 2.266 1.547s2.276-.683 2.276-1.709c0-.786-.474-1.225-1.495-1.455l-.942-.214c-.537-.123-.791-.308-.791-.61 0-.387.415-.65.967-.65.566 0 .923.239 1.01.615h1.138c-.088-.972-.883-1.533-2.153-1.533-1.26 0-2.139.669-2.139 1.636zm5.977-2.836v1.342h-.845v.967h.845v2.915c0 1.035.488 1.45 1.714 1.45.234 0 .459-.024.634-.058v-.947c-.146.014-.239.024-.41.024-.507 0-.732-.234-.732-.762V14.66h1.142v-.967h-1.142V12.35h-1.206z" fill="#000"/><path d="M15 25a10 10 0 1 1 10-10.014A9.97 9.97 0 0 1 15 25zm0-3.96l.751-.751-.751-2.89-.752 2.89.752.751zm-.954 0l-.375 1.445.881-.881-.506-.564zm1.922 0l-.506.506.882.882-.376-1.388zm.708 2.587l-1.662-1.662-1.661 1.662c.548.101 1.104.159 1.661.174a7.294 7.294 0 0 0 1.648-.217l.014.043zM15 6.315a8.67 8.67 0 0 0-2.89 16.994l1.878-6.95a1.617 1.617 0 0 1-.664-1.33 1.66 1.66 0 0 1 2.401-1.477 1.662 1.662 0 0 1 .272 2.806l1.879 6.951a8.671 8.671 0 0 0-2.89-16.994H15zm5.708 13.006a.65.65 0 0 1-.881.13.564.564 0 0 1-.13-.838 6.402 6.402 0 0 0 0-7.226.563.563 0 0 1 .13-.838.65.65 0 0 1 .881.13 7.514 7.514 0 0 1 0 8.67v-.028zm-3.035-1.619a.708.708 0 0 1 0-.954c.425-.489.66-1.114.665-1.763a2.89 2.89 0 0 0-.621-1.748.752.752 0 0 1 0-.954.58.58 0 0 1 .881 0 4.147 4.147 0 0 1 0 5.506.606.606 0 0 1-.925-.087zm-5.332 0a.607.607 0 0 1-.881 0 4.147 4.147 0 0 1 0-5.506.58.58 0 0 1 .881 0 .708.708 0 0 1 0 .954 2.89 2.89 0 0 0-.68 1.835 2.717 2.717 0 0 0 .622 1.75.708.708 0 0 1 .058.967zm-2.168 1.749a.65.65 0 0 1-.881-.13 7.515 7.515 0 0 1 0-8.67.65.65 0 0 1 .881-.13.564.564 0 0 1 .13.837 6.402 6.402 0 0 0 0 7.226.608.608 0 0 1-.13.867z" fill="#fff"/><defs><linearGradient id="paint0_linear" x1="15" x2="15" y2="30" gradientUnits="userSpaceOnUse"><stop stop-color="#FF9402"/><stop offset="1" stop-color="#FF613C"/></linearGradient></defs></svg>