<svg width="100" height="30" fill="none" xmlns="http://www.w3.org/2000/svg"><path fill="#fff" d="M0 0H100V30H0z"/><path fill="url(#paint0_linear)" d="M0 0H30V30H0z"/><path d="M15 22.399A7.384 7.384 0 1 1 22.384 15H25a10 10 0 1 0-10 10v-2.601z" fill="#fff"/><path d="M15 8.93a6.084 6.084 0 0 0 0 12.168v-2.167A3.916 3.916 0 1 1 18.916 15h2.168A6.084 6.084 0 0 0 15 8.93z" fill="#fff"/><path d="M47.7 5.954V13h1.26v-2.31h1.528c1.426 0 2.422-.957 2.422-2.353 0-1.421-.962-2.383-2.368-2.383H47.7zm1.26 1.055h1.25c.908 0 1.42.464 1.42 1.328 0 .84-.527 1.309-1.425 1.309H48.96V7.009zm7.373 6.098c1.597 0 2.568-1.044 2.568-2.778 0-1.728-.976-2.778-2.568-2.778-1.587 0-2.568 1.054-2.568 2.778 0 1.733.966 2.778 2.568 2.778zm0-1.015c-.845 0-1.328-.645-1.328-1.763 0-1.113.483-1.763 1.328-1.763.84 0 1.323.65 1.323 1.763 0 1.118-.478 1.763-1.323 1.763zm8.403-2.637c-.127-1.123-.957-1.904-2.329-1.904-1.606 0-2.549 1.03-2.549 2.764 0 1.757.948 2.792 2.554 2.792 1.353 0 2.193-.752 2.324-1.87h-1.152c-.127.557-.547.855-1.177.855-.825 0-1.323-.655-1.323-1.777 0-1.109.493-1.749 1.323-1.749.664 0 1.065.371 1.177.89h1.152zm2.5.38h-.083V5.594h-1.21V13h1.21v-1.86l.43-.43L69.297 13h1.465l-2.276-3.052 2.13-2.29h-1.407l-1.973 2.178zm6.407-1.322c.727 0 1.206.508 1.23 1.299h-2.515c.054-.782.562-1.3 1.285-1.3zm1.24 3.017c-.176.396-.591.616-1.192.616-.796 0-1.308-.557-1.338-1.446v-.063h3.731v-.39c0-1.685-.913-2.696-2.437-2.696-1.547 0-2.51 1.079-2.51 2.798 0 1.718.948 2.758 2.52 2.758 1.26 0 2.144-.605 2.373-1.577h-1.147zm2.803-5.18v1.342h-.845v.967h.845v2.915c0 1.035.488 1.45 1.713 1.45.235 0 .46-.024.635-.058v-.947c-.146.014-.24.024-.41.024-.508 0-.732-.234-.732-.762V8.66h1.142v-.967h-1.142V6.35h-1.206zM54.839 25.176c1.626 0 2.817-.972 2.983-2.412h-1.24c-.17.79-.85 1.289-1.743 1.289-1.201 0-1.948-.987-1.948-2.578 0-1.587.747-2.574 1.943-2.574.889 0 1.567.547 1.743 1.392h1.24c-.146-1.47-1.382-2.515-2.983-2.515-1.997 0-3.232 1.412-3.232 3.702 0 2.28 1.24 3.696 3.237 3.696zm6.084-1.04c-.537 0-.923-.269-.923-.718 0-.435.317-.679.996-.723l1.206-.078v.425c0 .62-.547 1.094-1.28 1.094zm-.357.952c.699 0 1.285-.303 1.582-.82h.083V25h1.167v-3.648c0-1.132-.771-1.801-2.143-1.801-1.27 0-2.153.6-2.251 1.543h1.143c.112-.362.493-.557 1.05-.557.654 0 1.005.293 1.005.816v.449l-1.377.083c-1.299.078-2.026.634-2.026 1.601 0 .977.737 1.602 1.767 1.602zm4.17-3.902c0 .806.484 1.28 1.51 1.514l.946.22c.508.112.738.303.738.605 0 .396-.425.665-1.036.665-.605 0-.98-.235-1.098-.63H64.6c.092.971.932 1.547 2.265 1.547 1.333 0 2.276-.683 2.276-1.709 0-.786-.474-1.225-1.495-1.455l-.942-.215c-.537-.122-.79-.307-.79-.61 0-.386.414-.65.966-.65.566 0 .923.24 1.01.616h1.138c-.088-.972-.884-1.533-2.153-1.533-1.26 0-2.139.669-2.139 1.636zm5.977-2.836v1.342h-.845v.967h.845v2.915c0 1.035.488 1.45 1.714 1.45.234 0 .459-.024.634-.058v-.947c-.146.014-.239.024-.41.024-.507 0-.732-.234-.732-.762V20.66h1.142v-.967H71.92V18.35h-1.206zm3.369 2.836c0 .806.483 1.28 1.509 1.514l.947.22c.508.112.737.303.737.605 0 .396-.424.665-1.035.665-.605 0-.981-.235-1.098-.63h-1.197c.093.971.933 1.547 2.266 1.547s2.275-.683 2.275-1.709c0-.786-.473-1.225-1.494-1.455l-.942-.215c-.537-.122-.791-.307-.791-.61 0-.386.415-.65.967-.65.566 0 .922.24 1.01.616h1.138c-.088-.972-.884-1.533-2.153-1.533-1.26 0-2.139.669-2.139 1.636z" fill="#000"/><defs><linearGradient id="paint0_linear" x1="15" x2="15" y2="30" gradientUnits="userSpaceOnUse"><stop stop-color="#F0564C"/><stop offset="1" stop-color="#E14E50"/></linearGradient></defs></svg>