<svg xmlns="http://www.w3.org/2000/svg" width="100" height="30" fill="none"><path fill="#fff" d="M0 0H100V30H0z"/><path fill="url(#paint0_linear)" d="M0 0H100V30H0z"/><path fill="#fff" d="M15 22.399A7.384 7.384 0 1 1 22.384 15H25a10 10 0 1 0-10 10v-2.601z"/><path fill="#fff" d="M15 8.93a6.084 6.084 0 0 0 0 12.168v-2.167A3.916 3.916 0 1 1 18.916 15h2.168A6.084 6.084 0 0 0 15 8.93z"/><path fill="#fff" d="M31 3H97V27H31z"/><path fill="#000" d="M48.43 6.659V13h1.134v-2.079h1.376c1.283 0 2.18-.86 2.18-2.118 0-1.279-.867-2.144-2.132-2.144H48.43zm1.134.949h1.125c.817 0 1.279.417 1.279 1.195 0 .756-.475 1.178-1.283 1.178h-1.121V7.608zm6.636 5.489c1.437 0 2.311-.94 2.311-2.5 0-1.556-.879-2.501-2.311-2.501-1.428 0-2.312.949-2.312 2.5 0 1.56.87 2.5 2.312 2.5zm0-.914c-.76 0-1.196-.58-1.196-1.587 0-1.002.436-1.586 1.196-1.586.756 0 1.19.584 1.19 1.586 0 1.006-.43 1.587-1.19 1.587zm7.563-2.373c-.115-1.011-.862-1.714-2.096-1.714-1.446 0-2.294.927-2.294 2.487 0 1.582.852 2.514 2.298 2.514 1.217 0 1.973-.677 2.092-1.683h-1.037c-.115.5-.493.769-1.06.769-.742 0-1.19-.59-1.19-1.6 0-.998.443-1.573 1.19-1.573.598 0 .959.334 1.06.8h1.037zm2.25.342h-.075V6.334h-1.09V13h1.09v-1.674l.387-.387L67.867 13h1.319l-2.048-2.747 1.916-2.06h-1.266l-1.775 1.96zm5.765-1.19c.655 0 1.086.456 1.108 1.168h-2.263c.048-.703.505-1.169 1.155-1.169zm1.116 2.715c-.158.356-.531.554-1.072.554-.716 0-1.178-.501-1.204-1.3v-.058h3.358v-.351c0-1.517-.822-2.426-2.193-2.426-1.393 0-2.26.97-2.26 2.518 0 1.547.853 2.483 2.269 2.483 1.133 0 1.929-.545 2.135-1.42h-1.033zm2.523-4.662v1.208h-.76v.87h.76v2.624c0 .931.44 1.305 1.543 1.305.21 0 .413-.022.57-.053v-.852c-.131.013-.215.022-.368.022-.457 0-.66-.211-.66-.686v-2.36h1.029v-.87h-1.029V7.015h-1.085zM54.855 24.158c1.463 0 2.536-.874 2.685-2.17h-1.116c-.154.711-.765 1.16-1.569 1.16-1.081 0-1.753-.888-1.753-2.32 0-1.43.672-2.317 1.749-2.317.8 0 1.41.492 1.568 1.253h1.117c-.132-1.323-1.244-2.264-2.685-2.264-1.798 0-2.91 1.27-2.91 3.331 0 2.053 1.117 3.327 2.914 3.327zm5.476-.936c-.484 0-.831-.242-.831-.646 0-.39.286-.61.897-.65l1.085-.07v.382c0 .558-.492.984-1.151.984zm-.321.857c.628 0 1.156-.272 1.424-.738h.074V24h1.05v-3.283c0-1.02-.694-1.621-1.929-1.621-1.142 0-1.938.54-2.026 1.388h1.029c.1-.325.444-.5.945-.5.589 0 .905.263.905.733v.405l-1.24.074c-1.168.07-1.823.572-1.823 1.442 0 .879.664 1.441 1.59 1.441zm3.753-3.511c0 .725.435 1.151 1.358 1.362l.852.198c.457.101.664.272.664.545 0 .356-.383.598-.932.598-.545 0-.883-.211-.989-.567H63.64c.083.874.839 1.393 2.039 1.393 1.2 0 2.048-.616 2.048-1.538 0-.708-.427-1.103-1.345-1.31l-.848-.193c-.484-.11-.712-.277-.712-.55 0-.347.373-.584.87-.584.51 0 .83.215.91.554h1.023c-.079-.875-.795-1.38-1.938-1.38-1.133 0-1.924.602-1.924 1.472zm5.379-2.553v1.208h-.76v.87h.76v2.624c0 .931.44 1.305 1.542 1.305.211 0 .413-.022.571-.053v-.852c-.131.013-.215.022-.369.022-.457 0-.659-.211-.659-.686v-2.36h1.028v-.87h-1.028v-1.208h-1.085zm3.032 2.553c0 .725.435 1.151 1.358 1.362l.852.198c.457.101.664.272.664.545 0 .356-.383.598-.932.598-.545 0-.883-.211-.989-.567h-1.076c.083.874.84 1.393 2.039 1.393 1.2 0 2.048-.616 2.048-1.538 0-.708-.427-1.103-1.345-1.31l-.848-.193c-.484-.11-.712-.277-.712-.55 0-.347.373-.584.87-.584.51 0 .83.215.91.554h1.024c-.08-.875-.796-1.38-1.938-1.38-1.134 0-1.925.602-1.925 1.472z"/><defs><linearGradient id="paint0_linear" x1="50" x2="50" y2="30" gradientUnits="userSpaceOnUse"><stop stop-color="#F0564C"/><stop offset="1" stop-color="#E14E50"/></linearGradient></defs></svg>