<svg xmlns="http://www.w3.org/2000/svg" width="100" height="30" fill="none"><path fill="#fff" d="M0 0h100v30H0z"/><path fill="#CF2327" d="M0 0h100v30H0z"/><path fill="#fff" d="M18.722 12.437c.225-.077.46-.117.699-.116.194 0 .233.271.22.44v2.187a.659.659 0 0 1-.156.557c-.194.22-.504.194-.763.246v-3.314zm-8.44-2.705a2.02 2.02 0 0 1 .919-.104c.085.205.12.426.103.647v1.748a.633.633 0 0 1-.35.414c-.21.076-.426.132-.647.168-.038-.957-.013-1.941-.025-2.938v.065zm.673-2.059c-.89.232-1.793.4-2.706.505v11.897a12.837 12.837 0 0 0 2.11-.363v-5.074c.253-.092.52-.14.79-.143.194.078.22.324.207.505v3.728c-.003.252.055.5.168.725a10.965 10.965 0 0 1 2.15-.362 2.186 2.186 0 0 1-.17-.764v-3.961a2.149 2.149 0 0 0-.18-.984 1.294 1.294 0 0 0-.7-.582 2.41 2.41 0 0 0 .57-.57 2.654 2.654 0 0 0 .35-1.631c.052-.763 0-1.53-.156-2.278a1.19 1.19 0 0 0-.738-.777 3.146 3.146 0 0 0-1.695.13zm8.79 2.59c-1.014.27-2.043.479-3.082.62v11.858c.7-.077 1.398-.233 2.085-.362v-4.803a7.679 7.679 0 0 0 1.54-.388 2.407 2.407 0 0 0 1.049-.777 2.59 2.59 0 0 0 .453-1.294v-2.408a5.717 5.717 0 0 0-.13-1.631 1.294 1.294 0 0 0-.53-.712 2.2 2.2 0 0 0-1.437-.09l.051-.014zM13.97 4.01a5.605 5.605 0 0 1 2.68.505v3.223c1.85-.194 3.624-.893 5.501-1.01A5.45 5.45 0 0 1 25 7.26v18.227a6.11 6.11 0 0 0-3.495-.466c-1.722.233-3.366.841-5.1.957a5.591 5.591 0 0 1-2.9-.504V22.25c-1.58.169-3.081.687-4.634.92a6.77 6.77 0 0 1-3.094-.091A7.937 7.937 0 0 1 5 22.793V4.566l.479.182a6.55 6.55 0 0 0 2.693.298c1.928-.182 3.78-.945 5.747-1.01l.052-.026zM31 3h66v24H31z"/><path fill="#000" d="M37.062 12.999h1.425c.801 0 1.29.45 1.29 1.182 0 .747-.46 1.176-1.26 1.176H37.06V13zm0 3.36h1.396L39.84 19h1.44l-1.538-2.837c.84-.303 1.328-1.079 1.328-2.007 0-1.352-.927-2.202-2.407-2.202h-2.861V19h1.26v-2.642zm7.216 1.777c-.537 0-.922-.269-.922-.718 0-.435.317-.679.996-.723l1.206-.078v.425c0 .62-.547 1.094-1.28 1.094zm-.356.952c.698 0 1.284-.303 1.582-.82h.083V19h1.167v-3.648c0-1.132-.772-1.801-2.144-1.801-1.27 0-2.153.6-2.25 1.543h1.142c.112-.362.493-.557 1.05-.557.654 0 1.006.293 1.006.815v.45l-1.377.083c-1.3.078-2.027.635-2.027 1.601 0 .977.738 1.602 1.768 1.602zm6.226 0c.742 0 1.357-.347 1.66-.933h.083V19h1.172v-7.407h-1.211v2.915h-.083c-.284-.586-.89-.938-1.621-.938-1.348 0-2.198 1.065-2.198 2.754 0 1.7.845 2.764 2.197 2.764zm.375-4.487c.83 0 1.343.664 1.343 1.728 0 1.074-.508 1.729-1.343 1.729-.83 0-1.333-.65-1.333-1.729 0-1.074.508-1.728 1.333-1.728zM54.605 19h1.207v-5.342h-1.206V19zm.601-6.21c.444 0 .747-.284.747-.67 0-.386-.303-.669-.747-.669-.44 0-.747.283-.747.67 0 .385.308.668.747.668zm4.414 6.317c1.597 0 2.569-1.044 2.569-2.778 0-1.728-.977-2.778-2.569-2.778-1.587 0-2.568 1.054-2.568 2.778 0 1.733.967 2.778 2.568 2.778zm0-1.015c-.845 0-1.328-.645-1.328-1.763 0-1.113.483-1.763 1.328-1.763.84 0 1.323.65 1.323 1.763 0 1.118-.478 1.763-1.323 1.763zm3.916-6.138V19h1.26v-2.31h1.528c1.426 0 2.422-.957 2.422-2.353 0-1.421-.962-2.383-2.368-2.383h-2.842zm1.26 1.055h1.25c.908 0 1.42.464 1.42 1.328 0 .84-.526 1.309-1.425 1.309h-1.245v-2.637zm9.863.65h-1.21v3.11c0 .79-.43 1.274-1.217 1.274-.722 0-1.06-.4-1.06-1.216v-3.169h-1.21v3.472c0 1.25.683 1.977 1.85 1.977.816 0 1.338-.346 1.597-.957h.083V19h1.167v-5.342zm4.453 5.429c1.348 0 2.193-1.06 2.193-2.759 0-1.709-.84-2.759-2.193-2.759-.732 0-1.347.357-1.626.938h-.083v-2.915h-1.21V19h1.166v-.845h.083c.303.586.923.933 1.67.933zm-.38-4.487c.825 0 1.328.654 1.328 1.728 0 1.074-.499 1.729-1.329 1.729s-1.347-.664-1.347-1.729c0-1.064.522-1.728 1.347-1.728zM82.568 19h1.211v-7.407h-1.21V19zm2.76 0h1.205v-5.342h-1.206V19zm.6-6.21c.444 0 .747-.284.747-.67 0-.386-.303-.669-.747-.669-.44 0-.747.283-.747.67 0 .385.307.668.747.668zm6.723 2.665c-.127-1.123-.957-1.904-2.329-1.904-1.606 0-2.549 1.03-2.549 2.763 0 1.758.948 2.793 2.554 2.793 1.353 0 2.192-.752 2.324-1.87H91.5c-.127.557-.547.855-1.177.855-.825 0-1.323-.654-1.323-1.777 0-1.109.493-1.749 1.323-1.749.664 0 1.065.371 1.177.89h1.152z"/></svg>