<svg xmlns="http://www.w3.org/2000/svg" width="100" height="30" fill="none"><path fill="#fff" d="M0 0h100v30H0z"/><path fill="url(#paint0_linear)" d="M0 0h100v30H0z"/><path fill="#fff" d="M5 22.337c0-1.483 0-2.677 2.663-2.677s2.746 1.194 2.746 2.677c0 1.482 0 2.663-2.746 2.663C4.918 25 5 23.805 5 22.337zM7.004 5C5.014 5 5 5.892 5 6.99c0 1.098 0 2.004 2.004 2.004 8.374 0 14.002 5.628 14.002 14.002 0 1.112 0 2.004 2.004 2.004S25 24.108 25 22.996C25 12.399 17.601 5 7.004 5zm0 6.657c-1.99 0-2.004.906-2.004 2.005 0 1.098 0 2.004 2.004 2.004s7.33.713 7.33 7.33c0 1.112 0 2.004 2.005 2.004 2.004 0 2.004-.892 2.004-2.004 0-8.36-6.109-11.339-11.339-11.339zM31 3h66v24H31z"/><path fill="#000" d="M56.12 12.999h1.425c.8 0 1.289.45 1.289 1.182 0 .747-.459 1.176-1.26 1.176H56.12V13zm0 3.36h1.396L58.898 19h1.44L58.8 16.163c.84-.303 1.328-1.079 1.328-2.007 0-1.352-.928-2.202-2.407-2.202h-2.862V19h1.26v-2.642zm5.214.727c.063 1.28 1.133 2.09 2.749 2.09 1.709 0 2.769-.855 2.769-2.227 0-1.074-.601-1.67-2.032-1.992l-.81-.186c-.874-.2-1.23-.478-1.23-.952 0-.6.536-.99 1.347-.99.771 0 1.318.39 1.406 1.01h1.206c-.058-1.211-1.128-2.06-2.607-2.06-1.577 0-2.622.849-2.622 2.128 0 1.05.6 1.685 1.88 1.973l.913.21c.903.21 1.289.508 1.289 1.015 0 .591-.6 1.016-1.43 1.016-.894 0-1.52-.405-1.598-1.035h-1.23zm6.611 0c.064 1.28 1.133 2.09 2.75 2.09 1.708 0 2.768-.855 2.768-2.227 0-1.074-.6-1.67-2.031-1.992l-.81-.186c-.875-.2-1.231-.478-1.231-.952 0-.6.537-.99 1.347-.99.772 0 1.319.39 1.406 1.01h1.207c-.059-1.211-1.128-2.06-2.608-2.06-1.577 0-2.622.849-2.622 2.128 0 1.05.6 1.685 1.88 1.973l.913.21c.903.21 1.29.508 1.29 1.015 0 .591-.601 1.016-1.431 1.016-.894 0-1.52-.405-1.597-1.035h-1.23z"/><defs><linearGradient id="paint0_linear" x1="50" x2="50" y2="30" gradientUnits="userSpaceOnUse"><stop stop-color="#FA9C39"/><stop offset="1" stop-color="#E26C2D"/></linearGradient></defs></svg>