<svg xmlns="http://www.w3.org/2000/svg" width="100" height="30" fill="none"><path fill="#fff" d="M0 0h100v30H0z"/><path fill="#1ED760" d="M0 0h100v30H0z"/><path fill="#fff" d="M15 5a10 10 0 1 0 10 10A9.987 9.987 0 0 0 15 5zm4.58 14.389a.623.623 0 0 1-.851.203 11.462 11.462 0 0 0-8.789-.959.623.623 0 0 1-.663-.94.635.635 0 0 1 .387-.283 12.744 12.744 0 0 1 9.713 1.115.636.636 0 0 1 .203.9v-.037zm1.2-2.722a.78.78 0 0 1-1.068.252 13.19 13.19 0 0 0-9.964-1.2.78.78 0 1 1-.455-1.486 14.605 14.605 0 0 1 11.235 1.319.79.79 0 0 1 .275 1.15l-.024-.035zm.095-2.806c-3.225-1.907-8.537-2.086-11.618-1.2a.935.935 0 1 1-.54-1.786c3.537-1.079 9.4-.863 13.117 1.331a.936.936 0 0 1-.959 1.607v.048zM31 3h66v24H31z"/><path fill="#000" d="M46.847 17.086c.063 1.28 1.133 2.09 2.749 2.09 1.709 0 2.768-.855 2.768-2.227 0-1.074-.6-1.67-2.031-1.992l-.81-.186c-.875-.2-1.231-.478-1.231-.952 0-.6.537-.99 1.348-.99.771 0 1.318.39 1.406 1.01h1.206c-.059-1.211-1.128-2.06-2.608-2.06-1.577 0-2.621.849-2.621 2.128 0 1.05.6 1.685 1.88 1.973l.912.21c.904.21 1.29.508 1.29 1.015 0 .591-.601 1.016-1.431 1.016-.894 0-1.519-.405-1.597-1.035h-1.23zm9.716-3.516c-.732 0-1.352.367-1.66.972h-.083v-.884h-1.167v7.12h1.211V18.19h.083c.274.566.864.898 1.631.898 1.348 0 2.188-1.055 2.188-2.759 0-1.714-.85-2.759-2.203-2.759zm-.38 4.488c-.826 0-1.338-.66-1.343-1.729.005-1.064.522-1.728 1.347-1.728.83 0 1.334.649 1.334 1.728 0 1.08-.498 1.729-1.338 1.729zm6.103 1.05c1.597 0 2.569-1.046 2.569-2.779 0-1.728-.977-2.778-2.569-2.778-1.587 0-2.568 1.054-2.568 2.778 0 1.733.967 2.778 2.568 2.778zm0-1.016c-.845 0-1.328-.645-1.328-1.763 0-1.113.483-1.763 1.328-1.763.84 0 1.323.65 1.323 1.763 0 1.118-.478 1.763-1.323 1.763zm4.175-5.742v1.342h-.845v.967h.845v2.915c0 1.035.488 1.45 1.714 1.45.234 0 .459-.024.635-.058v-.947c-.147.014-.24.024-.41.024-.508 0-.733-.234-.733-.762V14.66h1.143v-.967h-1.143V12.35h-1.206zM70.035 19h1.206v-5.342h-1.206V19zm.6-6.21c.445 0 .748-.284.748-.67 0-.386-.303-.669-.747-.669-.44 0-.747.283-.747.67 0 .385.307.668.747.668zm2.5 6.21h1.207v-4.34h1.147v-.968h-1.162v-.483c0-.503.225-.752.796-.752.17 0 .317.01.415.024v-.888a3.882 3.882 0 0 0-.674-.054c-1.186 0-1.728.532-1.728 1.592v.561h-.874v.967h.874V19zm4.112 1.939c1.196 0 1.768-.44 2.222-1.768l1.928-5.513h-1.279l-1.245 4.17h-.083l-1.25-4.17h-1.328l1.91 5.366-.064.235c-.157.493-.445.688-.957.688-.083 0-.264-.005-.332-.02v.992c.078.015.405.02.478.02z"/></svg>