<svg xmlns="http://www.w3.org/2000/svg" width="100" height="30" fill="none"><g clip-path="url(#clip0)"><path fill="#fff" d="M0 0H100V30H0z"/><path fill="#fff" d="M0 0H100V30H0z"/><path fill="#000" d="M0 0H100V30H0z"/><path fill="#fff" d="M31 3H97V27H31z"/><path fill="#000" d="M44.933 17.086c.063 1.28 1.132 2.09 2.749 2.09 1.709 0 2.768-.855 2.768-2.227 0-1.074-.6-1.67-2.031-1.992l-.81-.186c-.875-.2-1.231-.478-1.231-.952 0-.6.537-.99 1.348-.99.771 0 1.318.39 1.406 1.01h1.206c-.059-1.211-1.128-2.06-2.608-2.06-1.577 0-2.622.849-2.622 2.128 0 1.05.601 1.685 1.88 1.973l.913.21c.904.21 1.29.508 1.29 1.015 0 .591-.601 1.016-1.431 1.016-.894 0-1.519-.405-1.597-1.035h-1.23zm7.192-4.736v1.342h-.845v.967h.845v2.915c0 1.035.488 1.45 1.714 1.45.234 0 .459-.024.635-.058v-.947c-.147.014-.24.024-.41.024-.508 0-.733-.234-.733-.762V14.66h1.143v-.967H53.33V12.35h-1.206zM55.699 19h1.206v-5.342H55.7V19zm.6-6.21c.445 0 .748-.284.748-.67 0-.386-.303-.669-.747-.669-.44 0-.747.283-.747.67 0 .385.307.668.747.668zm2.496-.44v1.342h-.845v.967h.845v2.915c0 1.035.488 1.45 1.714 1.45.234 0 .459-.024.635-.058v-.947c-.147.014-.24.024-.41.024-.508 0-.733-.234-.733-.762V14.66h1.143v-.967H60V12.35h-1.206zm8.125 3.105c-.127-1.123-.957-1.904-2.33-1.904-1.606 0-2.548 1.03-2.548 2.763 0 1.758.947 2.793 2.554 2.793 1.352 0 2.192-.752 2.324-1.87h-1.152c-.127.557-.547.855-1.177.855-.825 0-1.323-.654-1.323-1.777 0-1.109.493-1.749 1.323-1.749.664 0 1.064.371 1.177.89h1.152zM68.126 19h1.21v-3.1c0-.767.445-1.285 1.241-1.285.703 0 1.074.415 1.074 1.226V19h1.211v-3.447c0-1.27-.693-1.993-1.836-1.993-.795 0-1.367.362-1.62.963h-.089v-2.93h-1.191V19zm8.413-4.487c.728 0 1.206.508 1.23 1.299h-2.514c.054-.782.561-1.3 1.284-1.3zm1.24 3.017c-.175.396-.59.615-1.191.615-.796 0-1.309-.556-1.338-1.445v-.063h3.73v-.39c0-1.685-.913-2.696-2.436-2.696-1.548 0-2.51 1.079-2.51 2.798 0 1.718.947 2.758 2.52 2.758 1.26 0 2.143-.605 2.373-1.577h-1.148zM80.196 19h1.211v-3.086c0-.747.547-1.235 1.333-1.235.205 0 .528.034.62.068v-1.123a2.085 2.085 0 0 0-.503-.054c-.688 0-1.264.39-1.41.918h-.084v-.83h-1.167V19z"/><g filter="url(#filter0_d)"><path fill="#3792C4" d="M7.26 12.08H3v8.33h4.26v-8.33z"/><path fill="#612268" d="M12.33 10H8.07v9.38h4.26V10z"/><path fill="#FAC617" d="M17.4 11.04h-4.26v9.38h4.26v-9.38z"/><path fill="#EB8A23" d="M22.47 10h-4.26v9.38h4.26V10z"/><path fill="#C33727" d="M27.54 11.04h-4.26v7.29h4.26v-7.29z"/></g></g><defs><filter id="filter0_d" width="32.54" height="18.42" x="-1" y="10" color-interpolation-filters="sRGB" filterUnits="userSpaceOnUse"><feFlood flood-opacity="0" result="BackgroundImageFix"/><feColorMatrix in="SourceAlpha" values="0 0 0 0 0 0 0 0 0 0 0 0 0 0 0 0 0 0 127 0"/><feOffset dy="4"/><feGaussianBlur stdDeviation="2"/><feColorMatrix values="0 0 0 0 1 0 0 0 0 1 0 0 0 0 1 0 0 0 0.25 0"/><feBlend in2="BackgroundImageFix" result="effect1_dropShadow"/><feBlend in="SourceGraphic" in2="effect1_dropShadow" result="shape"/></filter><clipPath id="clip0"><path fill="#fff" d="M0 0H100V30H0z"/></clipPath></defs></svg>