<svg width="800" height="800" viewBox="0 0 800 800" xmlns="http://www.w3.org/2000/svg"><title>Closed In</title><defs><linearGradient x1="50%" y1="46.804%" x2="0%" y2="50%" id="a"><stop stop-color="#B71C1C" offset="0%"/><stop stop-color="#F44336" offset="100%"/></linearGradient><linearGradient x1="0%" y1="16.45%" x2="80.865%" y2="68.481%" id="b"><stop stop-color="#1B5E20" offset="0%"/><stop stop-color="#00C853" offset="100%"/></linearGradient><linearGradient x1="0%" y1="50%" y2="65.449%" id="c"><stop stop-color="#3E2723" offset="0%"/><stop stop-color="#795548" offset="100%"/></linearGradient></defs><g fill="none" fill-rule="evenodd"><path d="M151.88 431.568c-28.55-17.7-49.212-40.565-61.246-53.49C17.097 299.09 0 205.368 0 160.798 0 114.105 17.981 48.84 109.459 11.95 128.159 4.408 164.619.425 218.837.001h.04l.04-.001c54.219.425 90.679 4.408 109.38 11.95 91.477 36.89 109.458 102.155 109.458 148.848 0 44.57-17.097 138.293-90.634 217.28-12.034 12.925-32.697 35.79-61.246 53.49h2.201c-29.822 18.573-52.523 27.86-68.1 27.86-15.579 0-38.28-9.287-68.102-27.86h.005z" transform="rotate(-45 473.345 38.57)" fill="url(#a)"/><path d="M96.26 334.48s-3.15-62.06 51.306-100.874c0 0-82.987-33.89-109.98-139.434 0 0 56.448-7.369 116.588 47.866 0 0 42.96-55.235 25.78-101.87 0 0 90.355 41.259 70.948 139.67 0 0 84.02 4.816 134.166 55.307 0 0-16.546 26.359-67.291 41.04 0 0 37.312 55.217 43.014 108.424 0 0-59.162 3.06-136.194-73.972 0 0-74.569 33.438-128.336 23.843z" fill="url(#b)" fill-rule="nonzero" transform="rotate(-75 220.037 167.316)"/><path d="M271.954 628.972c-4.258-9.553 66.794-45.294 124.896-82.91 20.319-13.154 48.454-32.494 61.12-53.218 5.819-9.52 8.792-37.038-1.482-64.366-17.04-45.328-64.418-82.556-20.4-105.42 62.738-32.588 32.024 50.953 43.265 98.863 6.958 29.654 25.933 50.907 31.901 61.191 7.904 13.62 57.549 57.653 89.333 117.383 27.624 51.912 38.406 118.239 38.606 154.696.146 21.185-2.453 73.496-37.745 42.466-13.686-12.033-43.574-111.86-63.296-118.66-27.45-9.465-91.843 57.427-116.599 41.504-19.93-12.819 21.24-79.711-.298-89.327-63.782-28.478-140.44 17.673-149.3-2.202z" fill="url(#c)" transform="scale(1 -1) rotate(16 4386.693 190.384)"/></g></svg>