<?xml version="1.0" encoding="UTF-8"?>
<svg width="1000px" height="1000px" viewBox="0 0 1000 1000" version="1.1" xmlns="http://www.w3.org/2000/svg" xmlns:xlink="http://www.w3.org/1999/xlink">
    <!-- Generator: Sketch 46.1 (44463) - http://www.bohemiancoding.com/sketch -->
    <title>Logo - Circle</title>
    <desc>Created with Sketch.</desc>
    <defs>
        <circle id="path-1" cx="500.5" cy="500.5" r="471.5"></circle>
        <linearGradient x1="50%" y1="46.804289%" x2="0%" y2="50%" id="linearGradient-3">
            <stop stop-color="#B71C1C" offset="0%"></stop>
            <stop stop-color="#F44336" offset="100%"></stop>
        </linearGradient>
        <linearGradient x1="-2.22044605e-14%" y1="16.4504481%" x2="80.8653507%" y2="68.4808129%" id="linearGradient-4">
            <stop stop-color="#1B5E20" offset="0%"></stop>
            <stop stop-color="#00C853" offset="100%"></stop>
        </linearGradient>
        <linearGradient x1="0%" y1="50%" x2="100%" y2="65.4491019%" id="linearGradient-5">
            <stop stop-color="#3E2723" offset="0%"></stop>
            <stop stop-color="#795548" offset="100%"></stop>
        </linearGradient>
    </defs>
    <g id="2017" stroke="none" stroke-width="1" fill="none" fill-rule="evenodd">
        <g id="Logo---Circle">
            <mask id="mask-2" fill="white">
                <use xlink:href="#path-1"></use>
            </mask>
            <use id="Oval" fill="#FFFFFF" xlink:href="#path-1"></use>
            <g id="Chocolate-Dipped-Strawberry" mask="url(#mask-2)">
                <g transform="translate(125.000000, 45.000000)" id="Choco-Strawberry">
                    <g>
                        <g id="Berry" transform="translate(405.776273, 405.935589) rotate(-45.000000) translate(-405.776273, -405.935589) translate(171.192321, 159.553603)" fill="url(#linearGradient-3)">
                            <path d="M162.628941,462.528785 C132.059582,443.557844 109.934401,419.05352 97.0487696,405.200561 C18.3072561,320.547905 0,220.101785 0,172.333738 C0,122.291089 19.253727,52.3437433 117.205719,12.8064776 C137.229874,4.72394329 176.269954,0.455339628 234.325958,0.00066658876 C234.340206,0.000110630037 234.354453,0.000221489637 234.368698,0.000332578799 L234.411439,0 C292.467443,0.455339628 331.507522,4.72394329 351.531677,12.8064776 C449.48367,52.3437433 468.737397,122.291089 468.737397,172.333738 C468.737397,220.101785 450.430141,320.547905 371.688627,405.200561 C358.802996,419.05352 336.677815,443.557844 306.108456,462.528785 L308.464951,462.528785 C276.531852,482.433763 252.224926,492.386252 235.544172,492.386252 C218.863419,492.386252 194.556493,482.433763 162.623394,462.528785 L162.628941,462.528785 Z" id="Combined-Shape"></path>
                        </g>
                        <path d="M103.136251,358.511889 C103.136251,358.511889 99.7612079,291.993579 158.10676,250.390529 C158.10676,250.390529 69.1918637,214.065478 40.2712466,100.937781 C40.2712466,100.937781 100.750446,93.0401875 165.186588,152.243035 C165.186588,152.243035 211.215175,93.0401875 192.80762,43.0544334 C192.80762,43.0544334 289.61701,87.2770784 268.823649,192.759439 C268.823649,192.759439 358.844161,197.921011 412.573275,252.039904 C412.573275,252.039904 394.844607,280.292722 340.475399,296.029695 C340.475399,296.029695 380.452187,355.213139 386.562177,412.242693 C386.562177,412.242693 323.173461,415.522039 240.64011,332.956284 C240.64011,332.956284 160.744723,368.796225 103.136251,358.511889 Z" id="Fill-20" fill="url(#linearGradient-4)" fill-rule="nonzero" transform="translate(226.422261, 227.657443) rotate(-75.000000) translate(-226.422261, -227.657443) "></path>
                        <path d="M291.3796,674.163087 C286.816668,663.924197 362.94406,625.6148 425.196645,585.296721 C446.966609,571.197337 477.11163,550.46721 490.682265,528.254304 C496.916317,518.050181 500.101615,488.555448 489.093869,459.263392 C470.836161,410.67889 420.075268,370.776437 467.237602,346.269216 C534.456689,311.339795 501.548326,400.883086 513.592562,452.235746 C521.04721,484.019912 541.377666,506.799845 547.772287,517.823585 C556.240806,532.422536 609.431312,579.618052 643.486345,643.64042 C673.083402,699.281937 684.635743,770.374317 684.849144,809.450835 C685.006354,832.158368 682.22116,888.2275 644.409074,854.96843 C629.744973,842.070057 597.722645,735.070166 576.591582,727.781595 C547.180477,717.637054 478.187896,789.335678 451.664382,772.268963 C430.310532,758.5287 474.42022,686.830137 451.345149,676.523196 C383.007321,645.998742 300.873291,695.466241 291.3796,674.163087 Z" id="Chocolate" fill="url(#linearGradient-5)" transform="translate(488.019412, 601.823846) scale(1, -1) rotate(16.000000) translate(-488.019412, -601.823846) "></path>
                    </g>
                </g>
            </g>
        </g>
    </g>
</svg>