<svg width="1000" height="1000" viewBox="0 0 1000 1000" xmlns="http://www.w3.org/2000/svg" xmlns:xlink="http://www.w3.org/1999/xlink"><title>Logo - Circle</title><defs><circle id="a" cx="500.5" cy="500.5" r="471.5"/><linearGradient x1="50%" y1="46.804%" x2="0%" y2="50%" id="c"><stop stop-color="#B71C1C" offset="0%"/><stop stop-color="#F44336" offset="100%"/></linearGradient><linearGradient x1="0%" y1="16.45%" x2="80.865%" y2="68.481%" id="d"><stop stop-color="#1B5E20" offset="0%"/><stop stop-color="#00C853" offset="100%"/></linearGradient><linearGradient x1="0%" y1="50%" y2="65.449%" id="e"><stop stop-color="#3E2723" offset="0%"/><stop stop-color="#795548" offset="100%"/></linearGradient></defs><g fill="none" fill-rule="evenodd"><mask id="b" fill="#fff"><use xlink:href="#a"/></mask><use fill="#FFF" xlink:href="#a"/><g mask="url(#b)"><path d="M162.629 462.529c-30.57-18.971-52.695-43.475-65.58-57.328C18.307 320.548 0 220.1 0 172.334 0 122.29 19.254 52.344 117.206 12.806 137.23 4.724 176.27.456 234.326.001h.043L234.41 0c58.056.455 97.097 4.724 117.12 12.806 97.953 39.538 117.206 109.485 117.206 159.528 0 47.768-18.307 148.214-97.048 232.867-12.886 13.853-35.011 38.357-65.58 57.328h2.356c-31.933 19.905-56.24 29.857-72.92 29.857-16.682 0-40.989-9.952-72.922-29.857h.006z" transform="rotate(-45 629.598 -8.877)" fill="url(#c)"/><path d="M103.136 358.512s-3.375-66.518 54.97-108.121c0 0-88.914-36.326-117.835-149.453 0 0 60.48-7.898 124.916 51.305 0 0 46.028-59.203 27.62-109.189 0 0 96.81 44.223 76.017 149.705 0 0 90.02 5.162 143.75 59.28 0 0-17.73 28.254-72.099 43.99 0 0 39.977 59.184 46.087 116.214 0 0-63.389 3.279-145.922-79.287 0 0-79.895 35.84-137.504 25.556z" fill="url(#d)" fill-rule="nonzero" transform="rotate(-75 318.245 168.706)"/><path d="M291.38 674.163c-4.563-10.239 71.564-48.548 133.817-88.866 21.77-14.1 51.915-34.83 65.485-57.043 6.234-10.204 9.42-39.699-1.588-68.99-18.258-48.585-69.019-88.488-21.856-112.995 67.219-34.93 34.31 54.614 46.355 105.967 7.454 31.784 27.785 54.564 34.18 65.588 8.468 14.599 61.658 61.794 95.713 125.816 29.597 55.642 41.15 126.734 41.363 165.81.157 22.708-2.628 78.777-40.44 45.518-14.664-12.898-46.686-119.898-67.817-127.186-29.412-10.145-98.404 61.554-124.928 44.487-21.353-13.74 22.756-85.439-.319-95.746-68.338-30.524-150.472 18.943-159.965-2.36z" fill="url(#e)" transform="scale(1 -1) rotate(16 4992.814 422.21)"/></g></g></svg>