<?xml version="1.0" encoding="UTF-8"?>
<svg width="1000px" height="1000px" viewBox="0 0 1000 1000" version="1.1" xmlns="https://www.w3.org/2000/svg" xmlns:xlink="https://www.w3.org/1999/xlink">
    <!-- Generator: Sketch 41.2 (35397) - https://www.bohemiancoding.com/sketch -->
    <title>Logo - White</title>
    <desc>Created with Sketch.</desc>
    <defs>
        <circle id="path-1" cx="475" cy="475" r="475"></circle>
    </defs>
    <g id="2016" stroke="none" stroke-width="1" fill="none" fill-rule="evenodd">
        <g id="Logo---White">
            <g id="strawberry" transform="translate(25.000000, 25.000000)">
                <mask id="mask-2" fill="white">
                    <use xlink:href="#path-1"></use>
                </mask>
                <g id="Oval"></g>
                <path class="logo-svg" d="M561.716525,881.244724 C559.603207,878.449499 557.31378,875.564106 556.785451,874.932926 C555.640737,872.678712 554.936298,871.59669 554.143804,870.604836 C553.263255,869.612982 551.237993,866.817757 549.56495,864.383206 C539.350583,849.32506 525.966239,831.742195 518.129354,823.35652 C507.210547,811.544441 506.418053,810.37225 505.09723,803.339104 C504.128626,797.748655 500.166156,797.928992 492.68149,803.880115 C486.693758,808.56888 465.120309,819.118599 459.396741,820.200621 C457.547589,820.561295 455.874546,821.192475 455.610381,821.643318 C455.346216,822.094161 453.761228,822.454835 452.17624,822.454835 C447.773496,822.454835 446.981002,820.29079 447.597386,809.831239 C448.03766,803.248936 448.830154,799.011014 451.295691,791.797531 C454.465667,782.329834 455.962601,777.190227 460.189235,761.140227 C463.183102,749.778991 463.975596,745.991912 464.063651,742.114665 C464.063651,739.229271 463.535321,738.507923 458.163973,734.36017 C450.943472,728.859889 444.07519,725.07281 441.433544,725.07281 C440.11272,725.07281 438.968007,726.064664 437.911348,728.048372 C436.678579,730.482923 436.32636,735.261856 435.798031,761.59107 C435.269701,786.838261 434.829427,793.69107 433.420549,800.183205 C430.426682,814.069161 426.728377,815.421689 418.627327,805.683486 C416.249845,802.798093 412.991814,799.011014 411.406826,797.297812 C403.657995,788.641632 393.179463,768.083205 391.418365,757.984328 C391.066146,756.00062 390.449762,754.016912 390.097542,753.475901 C389.745323,753.025058 389.128938,750.229833 388.776719,747.34444 C388.07228,740.762137 385.342578,737.155395 381.908437,738.05708 C378.650406,738.868597 369.228533,748.065788 367.115216,752.484047 C366.146612,754.557923 364.913843,759.246688 364.385514,762.943598 C362.272196,778.27225 359.366385,795.58461 358.926111,796.035452 C358.133617,796.846969 355.756135,795.494441 355.13975,793.871407 C354.787531,792.969722 354.259201,792.068037 353.995037,791.797531 C352.145884,790.445003 348.623688,776.829553 347.919249,768.443879 C346.774536,755.279272 344.837328,753.475901 336.824333,758.254834 C327.40246,763.845283 324.848868,765.197811 313.225622,771.239104 C306.53345,774.665508 299.13684,778.182081 296.759358,779.173935 C296.759358,779.173935 293.195869,781.072323 292.444668,780.887137 C291.693467,780.701952 308.149968,752.946059 302.923202,749.308113 C297.696437,745.670167 286.809155,751.67253 273.160647,750.320002 C267.965408,749.869159 264.531267,749.057642 264.002938,748.336294 C262.946279,746.623092 263.914883,743.286856 266.908749,738.417755 C269.286231,734.720844 270.254835,733.999496 275.185909,732.376462 C278.179775,731.384608 284.255563,729.941912 288.482198,729.130395 C307.149835,725.884327 316.131434,721.916912 316.131434,717.04781 C316.131434,713.170563 311.112305,710.014664 302.9232,708.842473 C288.218033,706.768597 281.525861,706.137417 265.323761,705.235731 C242.517545,703.883203 224.378237,700.186293 212.666937,694.415507 C209.67307,692.882641 197.96177,689.2759 192.414312,688.103709 C184.137152,686.390506 180.174682,683.234607 181.143285,679.177023 C182.728274,672.414382 187.923512,666.643596 195.936507,662.946686 C221.648535,651.044438 233.447891,643.109607 232.127067,638.691348 C231.774848,637.789663 228.340707,633.822247 224.466292,630.035168 C216.453297,622.100337 214.868309,619.124775 214.868309,611.550617 C214.868309,604.337134 215.308583,603.34528 218.830779,603.34528 C222.176865,603.34528 226.05128,605.419156 233.712055,611.37028 C238.378965,614.977022 239.611733,615.518033 244.454752,615.788539 C251.411089,616.239381 254.933284,615.06719 259.864358,610.468595 C263.650718,606.952022 263.738773,606.771685 263.562664,601.902583 C263.474609,599.197527 263.034334,595.590786 262.506005,594.05792 C262.06573,592.434887 260.568797,583.057358 259.247974,573.04865 C259.247974,573.04865 256.211163,563.686268 256.134405,557.85017 C256.057647,552.014072 258.895754,546.268594 258.895754,546.268594 C260.480742,539.776459 261.625456,536.800897 263.474609,534.72702 C265.852091,532.112133 266.38042,531.931796 270.69511,532.29247 C275.978403,532.743312 280.205038,535.628706 285.312222,542.481515 C291.211899,550.326178 296.407138,555.646122 297.816016,555.105111 C298.51847,554.835367 296.393132,527.60524 316.131434,499.906023 C333.679192,475.280847 357.155308,447.328632 364.385507,427.78715 C388.776722,361.863594 408.950531,358.46746 447.597395,326.03101 C496.790414,284.743134 556.481771,268.381276 563.653732,265.213251 C576.460107,259.556372 586.548004,253.491341 588.837431,251.868307 C590.24631,250.966622 594.825164,247.720554 599.139854,244.835161 C606.800629,239.695554 617.455271,230.04752 619.392479,226.530947 C624.851882,216.702576 626.348815,213.546677 628.638242,206.693868 C633.305151,192.898081 633.129042,177.749766 628.197968,160.79808 C626.965199,156.46999 625.556321,152.141901 625.116046,151.150047 C624.763827,150.158193 623.002729,145.469428 621.241631,140.780664 C619.568588,136.0919 617.80749,131.583473 617.367216,130.771956 C616.926942,130.050608 615.518063,125.542181 614.285295,120.763248 C611.291429,109.582349 611.291429,99.9343152 614.109185,85.5975172 C615.782228,77.0315058 616.838887,74.1461125 619.480533,70.0885281 C621.342127,67.2069433 628.116153,55 648.274479,55 C668.432804,55 678.495628,66.6673415 680.062298,69.0966742 C683.320329,74.3264496 684.553098,81.3595958 684.465043,94.7947084 C684.288933,109.582349 682.439781,119.500889 677.596762,130.411282 C666.5899,155.387968 661.570771,181.176171 663.772144,200.923081 C665.621296,217.243587 677.772871,234.014936 690.364721,237.621677 C691.597489,237.982352 696.264398,240.146397 700.843253,242.490779 C707.09515,245.736846 710.617346,248.261565 715.37231,253.040498 C720.655603,258.360442 727.347775,266.926453 727.347775,268.36915 C727.347775,268.549487 728.404434,270.262689 729.637202,272.156229 C732.543014,276.484319 743.197655,298.846117 743.197655,300.559319 C743.197655,301.190499 743.725985,302.543027 744.342369,303.534881 C745.046808,304.526735 769.520814,363.316633 769.873034,427.78714 C770.313308,491.355962 750.065937,549.063818 743.46182,568.630392 C741.788777,573.589661 739.85157,579.450617 739.14713,581.70483 C738.442691,583.959044 737.562142,586.573931 737.033813,587.565785 C735.272715,591.443033 731.75052,607.402864 727.347775,631.928708 C726.467226,637.068314 725.498622,641.576741 725.146403,642.027584 C724.882238,642.568595 724.265854,645.273652 723.737524,648.159045 C722.240591,657.085731 717.045353,673.766911 712.818718,683.144439 C699.962704,711.998372 695.824124,718.490507 678.917585,735.893035 C670.200151,744.90989 664.916857,748.967474 655.583039,753.926744 C640.613707,761.951744 633.481261,766.189665 629.342681,769.61607 C627.757693,770.878429 627.757693,771.058766 629.518791,774.395002 C631.720163,778.632924 633.569316,780.7068 637.707896,783.952868 C640.613707,786.207081 641.582311,786.387418 648.274483,786.29725 C657.079972,786.207081 667.910724,785.125059 678.037036,783.321688 C686.402251,781.788823 696.264398,781.518317 698.201606,782.690508 C698.906045,783.141351 699.434375,784.764385 699.434375,786.29725 C699.434375,790.535171 695.648014,794.232081 683.848659,801.355396 C681.559232,802.798093 677.684816,805.863823 675.307334,808.118037 L670.992645,812.26579 L671.168754,818.667756 C671.256809,822.274498 671.0807,825.340228 670.816535,825.610734 C670.112096,826.422251 661.130497,823.266352 653.381666,819.569442 C649.771416,817.766071 644.488122,815.33152 641.758421,813.978992 C638.940664,812.716632 633.833481,811.00343 630.311285,810.282082 C624.499662,809.019722 623.178839,809.019722 616.838887,810.282082 C602.662049,813.167475 600.284567,812.896969 594.384889,808.027868 C592.976011,806.855677 591.479078,806.404835 590.510474,806.765509 C588.749376,807.486857 584.698851,815.602026 584.698851,818.487419 C584.698851,821.102307 583.201918,825.340228 581.79304,826.512419 C581.176656,827.05343 579.767778,828.586296 578.535009,830.028992 L576.333637,832.553711 L575.893362,863.301184 C575.365033,898.286578 575.453088,898.016072 569.025081,890.532083 C567.087873,888.27787 563.829842,884.130117 561.716525,881.244724 Z" id="Shape" fill="#FFFFFF" mask="url(#mask-2)" transform="translate(475.440052, 474.790919) scale(1, -1) translate(-475.440052, -474.790919) "></path>
            </g>
        </g>
    </g>
</svg>