<?xml version="1.0" encoding="UTF-8"?>
<svg width="2560px" height="1440px" viewBox="0 0 2560 1440" version="1.1" xmlns="http://www.w3.org/2000/svg" xmlns:xlink="http://www.w3.org/1999/xlink">
    <!-- Generator: Sketch 47.1 (45422) - http://www.bohemiancoding.com/sketch -->
    <title>Wallpapersvg</title>
    <desc>Created with Sketch.</desc>
    <defs>
        <linearGradient x1="50%" y1="100%" x2="50%" y2="0%" id="linearGradient-1">
            <stop stop-color="#263238" offset="0%"></stop>
            <stop stop-color="#37474F" offset="13.9344159%"></stop>
            <stop stop-color="#455A64" offset="27.5650201%"></stop>
            <stop stop-color="#546E7A" offset="38.4745695%"></stop>
            <stop stop-color="#607D8B" offset="48.9995217%"></stop>
            <stop stop-color="#78909C" offset="60.5070153%"></stop>
            <stop stop-color="#90A4AE" offset="72.9243431%"></stop>
            <stop stop-color="#B0BEC5" offset="85.5986926%"></stop>
            <stop stop-color="#CFD8DC" offset="100%"></stop>
        </linearGradient>
        <linearGradient x1="100%" y1="50%" x2="0.71747449%" y2="50%" id="linearGradient-2">
            <stop stop-color="#FEFFFF" offset="0%"></stop>
            <stop stop-color="#C5CDD0" offset="100%"></stop>
        </linearGradient>
    </defs>
    <g id="Page-1" stroke="none" stroke-width="1" fill="none" fill-rule="evenodd">
        <g id="Wallpaper">
            <rect id="Rectangle" fill="url(#linearGradient-1)" x="0" y="0" width="2560" height="1440"></rect>
            <g id="Planets" transform="translate(747.000000, 450.000000)" fill="url(#linearGradient-2)">
                <circle id="Oval" cx="270" cy="353" r="150"></circle>
                <circle id="Oval" cx="438" cy="25" r="25"></circle>
                <circle id="Oval" cx="12.5" cy="453.5" r="12.5"></circle>
                <circle id="Oval" cx="963" cy="249" r="50"></circle>
            </g>
            <g id="Lines-1" opacity="0.15" stroke="#ECEFF1" stroke-linecap="square">
                <path d="M0.99921936,2.99376299 L0.99921936,1440" id="Line"></path>
                <path d="M100.921155,0 L100.921155,1437.00624" id="Line"></path>
                <path d="M202.84153,2.99376299 L202.84153,1440" id="Line"></path>
                <path d="M304.761905,2.99376299 L304.761905,1440" id="Line"></path>
                <path d="M406.682279,2.99376299 L406.682279,1440" id="Line"></path>
                <path d="M508.602654,2.99376299 L508.602654,1440" id="Line"></path>
                <path d="M610.523029,2.99376299 L610.523029,1440" id="Line"></path>
                <path d="M712.443404,2.99376299 L712.443404,1440" id="Line"></path>
                <path d="M814.363778,2.99376299 L814.363778,1440" id="Line"></path>
                <path d="M916.284153,2.99376299 L916.284153,1440" id="Line"></path>
                <path d="M1018.20453,2.99376299 L1018.20453,1440" id="Line"></path>
                <path d="M1120.1249,2.99376299 L1120.1249,1440" id="Line"></path>
                <path d="M1222.04528,2.99376299 L1222.04528,1440" id="Line"></path>
                <path d="M2559.00078,2.99376299 L2559.00078,1440" id="Line"></path>
                <path d="M2048.39969,2.99376299 L2048.39969,1440" id="Line"></path>
                <path d="M2150.32006,2.99376299 L2150.32006,1440" id="Line"></path>
                <path d="M2252.24044,2.99376299 L2252.24044,1440" id="Line"></path>
                <path d="M2354.16081,2.99376299 L2354.16081,1440" id="Line"></path>
                <path d="M2456.08119,2.99376299 L2456.08119,1440" id="Line"></path>
                <path d="M2558.00156,2.99376299 L2558.00156,1440" id="Line"></path>
                <path d="M1336.9555,2.99376299 L1336.9555,1440" id="Line"></path>
                <path d="M1436.87744,2.99376299 L1436.87744,1440" id="Line"></path>
                <path d="M1538.79781,2.99376299 L1538.79781,1440" id="Line"></path>
                <path d="M1640.71819,2.99376299 L1640.71819,1440" id="Line"></path>
                <path d="M1742.63856,2.99376299 L1742.63856,1440" id="Line"></path>
                <path d="M1844.55894,2.99376299 L1844.55894,1440" id="Line"></path>
                <path d="M1946.47931,2.99376299 L1946.47931,1440" id="Line"></path>
            </g>
            <g id="Lines-1" opacity="0.2" transform="translate(1280.000000, 2275.889019) rotate(90.000000) translate(-1280.000000, -2275.889019) translate(-995.889019, 995.889019)" stroke="#ECEFF1" stroke-linecap="square">
                <path d="M1.77638997,5.32224532 L1.77638997,2560" id="Line"></path>
                <path d="M179.415387,0 L179.415387,2554.67775" id="Line"></path>
                <path d="M360.607165,5.32224532 L360.607165,2560" id="Line"></path>
                <path d="M541.798942,5.32224532 L541.798942,2560" id="Line"></path>
                <path d="M722.990719,5.32224532 L722.990719,2560" id="Line"></path>
                <path d="M904.182496,5.32224532 L904.182496,2560" id="Line"></path>
                <path d="M1085.37427,5.32224532 L1085.37427,2560" id="Line"></path>
                <path d="M1266.56605,5.32224532 L1266.56605,2560" id="Line"></path>
            </g>
        </g>
    </g>
</svg>