<svg fill="none" height="200" width="750" xmlns="http://www.w3.org/2000/svg"><path d="M0 0h750v200H0z" fill="#fff"/><g clip-rule="evenodd" fill-rule="evenodd"><path d="M0 0h750v200H0z" fill="#ff813f"/><path d="M166.1 50.9v-2.7c0-1.5-1.3-2.8-2.8-2.8h-.9c-1.5 0-2.8 1.3-2.8 2.8V51h-2.8c-1.5 0-2.8 1.3-2.8 2.8v.9c0 1.5 1.3 2.8 2.8 2.8h2.8v2.8c0 1.5 1.3 2.8 2.8 2.8h.9c1.5 0 2.8-1.3 2.8-2.8v-2.8h2.8c1.5 0 2.8-1.3 2.8-2.8v-.9c0-1.5-1.3-2.8-2.8-2.8z" fill="#fd0"/><path d="M106.5 65.1l-29.1-.2 14.3 90.6h34.7l14.3-90.6z" fill="#ff9100"/><path d="M106.5 65.1l-29.1-.2 14.3 90.6h27.5l14.2-90.6z" fill="#fd0"/><path d="M69.1 64.9H144v-8.4H69.1z" fill="#fff"/><path d="M69.1 64.9H144v-8.4H69.1z" stroke="#000" stroke-width="4.319"/><path d="M129.5 43H83.2l-5.5 12.6h57.2z" fill="#fff"/><path d="M129.455 43h-46.3l-5.4 12.6h57.2z" stroke="#050505"/><path d="M106.455 65.1l-34.2-.2 14.2 90.6h40.1l14.2-90.6z" stroke="#000"/><path d="M141.7 90.5H70.9l6.4 36 29-.3 29 .3z" fill="#fff"/><path d="M141.7 90.5H70.9l6.4 36 29-.3 29 .3z" stroke="#000" stroke-width="4.319"/><path d="M44.5 84.9a7.5 7.5 0 1 0 0-15 7.5 7.5 0 0 0 0 15z" stroke="#eee" stroke-width="6.958"/><path d="M155.4 114.3a5 5 0 1 0-.001-10.001 5 5 0 0 0 .001 10.001z" fill="#eee"/><path d="M61.5 143.1a5 5 0 1 0 0-10 5 5 0 0 0 0 10z" fill="#ff813f"/><g fill="#fff"><path d="M207.6 63.62c-.9.4-1.4 1.3-1.8 2.7a615.7 615.7 0 0 1-.5 6.5c-.175 2.174-.35 4.35-.5 6.5-.144 1.62-.275 3.253-.407 4.9-.235 2.925-.473 5.892-.793 8.9-.244 2.298-.441 4.572-.637 6.834a316.033 316.033 0 0 1-.663 7.065c-.227 2.092-.413 4.142-.596 6.15-.218 2.41-.431 4.76-.704 7.05.2 1.3.6 2.3 1.1 3 .6.8 1.3 1.2 2 1.3s1.5 0 2.3-.4 1.6-1.1 2.2-2.1c1.8 1 4 1.7 6.3 2s4.7.3 7.1 0c2.3-.3 4.8-.9 7.1-1.7 2.3-.9 4.5-1.9 6.4-3.2 1.9-1.2 3.5-2.7 4.9-4.3 1.3-1.6 2.1-3.3 2.6-5.2s.6-3.9.4-5.8c-.1-1.9-.7-3.7-1.4-5.3-.8-1.6-1.8-3-3.1-4.3s-2.8-2.2-4.5-2.7c.9-.6 1.6-1.5 2.3-2.9.7-1.3 1.4-2.8 1.9-4.3.6-1.5.9-3.2 1.1-4.7.2-1.6.2-2.9-.2-4.1-.8-2.9-2.1-5.1-3.8-6.7-1.8-1.6-3.7-2.7-6-3.3-2.4-.6-4.8-.8-7.6-.4s-5.6 1.1-8.5 2.1c0-.2 0-.4.1-.7s.1-.5.1-.8c0-.6-.4-1.3-1.1-1.8s-1.5-.8-2.4-.9-1.8.2-2.7.6zm6.4 53.499c-1.9-.4-3.4-1-4.8-1.9l1.6-15.4c1.3-.4 3-.9 5.1-1.4 2.1-.6 4.2-.9 6.4-1.1 2.1-.2 4.2-.2 6.2.1 1.9.3 3.4.9 4.6 1.9.4.334.711.756 1.022 1.178.156.211.311.422.478.622.4.7.7 1.4.8 2.1.3 2-.1 3.8-.9 5.4-.9 1.6-2.1 3-3.5 4.2-1.5 1.2-3.2 2.2-5.2 2.9-1.9.8-3.9 1.2-5.9 1.5-2.1.3-4 .2-5.9-.1zm-2.6-26.5c.4 0 1 0 2.1-.1l.33-.03c1.01-.09 2.109-.19 3.37-.37 1.4-.2 2.9-.5 4.5-.9 1.5-.4 3.1-.9 4.4-1.6 1.4-.7 2.5-1.5 3.5-2.5s1.5-2.3 1.7-3.7c.3-1.8.1-3.3-.5-4.5-.5-1.2-1.3-2.1-2.3-2.8-1.1-.6-2.3-1-3.7-1.2s-2.8-.1-4.2.1-2.9.5-4.2 1-2.6 1-3.6 1.6zm39.6-7.7c-.9.4-1.7 1.2-2.3 2.4a46.1 46.1 0 0 0-.148.675c-.24 1.116-.505 2.349-1.252 3.925a71.647 71.647 0 0 0-.658 3c-.14.685-.283 1.385-.442 2.1-.4 1.8-.7 3.5-1 5.2-.2 1.6-.4 3.1-.6 4.4-.2 1-.3 2.2-.4 3.6-.1 1.3-.2 2.9-.2 4.5s.1 3.3.4 4.8.7 2.9 1.3 4.3c.6 1.3 1.5 2.4 2.6 3.2 1.1.9 2.5 1.3 4.2 1.4s3.2 0 4.5-.4c1.2-.3 2.4-.9 3.5-1.6 1.1-.8 2-1.7 2.9-2.7.173-.211.346-.419.518-.626.724-.869 1.436-1.724 2.082-2.774.8 1.8 1.8 3.1 3.1 4.1s2.7 1.6 4.1 1.8 2.9 0 4.3-.6c1.5-.6 2.8-1.6 4-3 .9-.9 1.6-1.9 2.3-3.1.7-1.1 1.4-2.2 2-3.4.425-.708.75-1.466 1.081-2.239.136-.319.273-.64.419-.961.388-.854.656-1.588.897-2.248.069-.19.136-.373.203-.552.4-1.2.4-2.3 0-3.2s-1-1.5-1.7-1.9-1.5-.5-2.3-.2c-.8.2-1.4.9-1.9 1.9-1.4 4-2.7 6.9-3.9 8.7s-2.6 2.6-4.1 2.3c-.7-.3-1.1-1-1.3-2s-.3-2.3-.2-3.8c0-1.5.2-3.2.5-5.1l.137-.831c.259-1.577.539-3.287.963-5.069.281-1.124.531-2.25.784-3.392.198-.889.397-1.789.616-2.708.324-1.36.606-2.678.873-3.927.145-.68.286-1.338.427-1.973 0-1.6-.5-2.9-1.4-3.8-1-.8-2.3-1.2-3.9-1-1.1.4-1.9 1.1-2.5 1.8-.553.646-.851 1.546-1.208 2.623l-.092.277c-.116.349-.232.932-.387 1.713a85.448 85.448 0 0 1-.413 1.987c-.3 1.8-.8 4-1.4 6.3-.6 2.5-1.3 4.9-2.1 7.5s-1.7 4.9-2.7 7c-.9 2-2 3.7-3.2 5-1.2 1.2-2.4 1.8-3.8 1.5-.7-.1-1.2-.9-1.4-2.3s-.3-3.1-.1-5.2c.1-2 .3-4.4.8-6.8.4-2.5.8-4.7 1.3-7l.344-1.587c.348-1.612.652-3.02.956-4.313.153-.649.276-1.225.382-1.718.171-.796.294-1.373.418-1.682 0-1.3-.3-2.4-.9-3.2-.7-.8-1.4-1.4-2.3-1.5s-1.8 0-2.7.4z"/><path d="M348.769 120.452l-.269 1.867c-.1 1 .3 1.8.8 2.1.8.6 1.8 1 2.9 1.1s2.1 0 3.1-.5c.9-.4 1.4-1.2 1.6-2.4l.077-.822c.178-1.895.374-3.998.723-6.178.3-2.4.8-5 1.4-7.4.504-2.016 1.079-3.892 1.665-5.804l.335-1.096c.8-2.3 1.6-4.2 2.5-5.9.9-1.8 1.9-3.1 2.9-4.1s2-1.5 3.1-1.5c1.4 0 2.4.6 3.1 1.8s1.2 2.7 1.5 4.6c.4 1.8.5 3.8.5 6.1s-.1 4.4-.3 6.5c-.1 2.1-.3 3.9-.5 5.5-.17 1.363-.341 2.363-.449 3l-.051.3c0 1.1.5 2 1.3 2.6.9.7 1.8 1.1 2.8 1.2 1.1.2 2 0 2.9-.5s1.3-1.3 1.5-2.5c.6-3.4 1.2-6.8 2-10.2s1.7-6.5 2.8-9.2 2.2-5 3.5-6.7 2.7-2.6 4.1-2.6c.7 0 1.3.5 1.7 1.5s.6 2.4.6 4.2c0 1.313-.176 2.537-.362 3.838l-.038.262-.066.468c-.179 1.263-.367 2.587-.634 3.832a96.482 96.482 0 0 1-.309 1.964c-.138.842-.28 1.705-.391 2.536-.3 1.6-.4 3.2-.4 4.9 0 1.2.1 2.6.4 4.1s.8 3 1.4 4.4c.6 1.3 1.5 2.5 2.7 3.5 1.2.9 2.6 1.4 4.4 1.4 2.7 0 5-.5 7.1-1.7s3.9-2.6 5.3-4.5c1.4-1.8 2.8-3.9 3.7-6.2s1.8-4.6 2.3-6.9c.1-1 0-1.9-.5-2.6-.4-.7-1-1.2-1.7-1.5-.7-.4-1.4-.3-2.1-.2s-1.2.6-1.6 1.4l-.269.601c-.38.846-.874 1.946-1.431 3.299-.517 1.257-1.144 2.404-1.799 3.603-.231.423-.466.854-.701 1.297-.9 1.7-2 3-3.2 4.1s-2.4 1.6-3.7 1.2c-.8-.2-1.2-1-1.3-2.6s0-3.5.3-5.8c.177-1.412.319-2.825.467-4.299.103-1.03.21-2.09.333-3.201.3-2.7.5-5.3.5-7.7 0-2.1-.4-4.1-1.2-6.1-.7-2-1.8-3.6-3.2-4.9-1.5-1.3-3.1-2.1-4.9-2.6s-3.8-.2-5.9.8c-2.1.9-3.7 2.3-5 4.1-1.2 1.8-2.4 3.7-3.4 5.7-.3-1.5-.9-2.9-1.6-4.2s-1.6-2.4-2.7-3.4-2.2-1.8-3.6-2.3c-1.2-.5-2.7-.8-4.1-.8s-2.7.3-3.9.8c-1.1.6-2.2 1.3-3.2 2.1-1 .9-1.9 1.8-2.7 2.9-.301.474-.621.947-.935 1.412a41.745 41.745 0 0 0-1.165 1.788 45.049 45.049 0 0 1-.342-2.658c-.019-.188-.039-.368-.058-.542-.1-.9-.3-1.7-.6-2.3s-.8-1-1.3-1.4c-.6-.3-1.4-.5-2.4-.5-.5 0-1 .2-1.5.4-.141.085-.282.162-.421.237-.353.192-.692.376-.979.663-.4.4-.7.9-.9 1.4s-.3 1.2-.2 1.9c0 .5.2 1.2.4 1.9s.4 1.7.6 2.9c.2 1.1.4 2.5.5 4.2.1 1.6.1 3.6.1 6.1s-.2 5.3-.5 8.5c-.17 2.804-.629 5.969-1.131 9.433zM286.1 85.319c.5-1.2 1.3-1.9 2.3-2.2 1.1-.4 2.1-.4 3.1 0 1 .3 1.8.9 2.3 1.8s.5 2.1 0 3.4c-.4 1.2-.8 2.5-1.2 4.1-.353 1.131-.607 2.362-.867 3.623-.107.522-.216 1.05-.333 1.577-.38 1.71-.58 3.511-.77 5.23l-.03.27c-.2 1.9-.3 3.6-.2 5.1s.3 2.9.6 3.9 1 1.7 1.8 1.9c1.8.1 3.5-.3 5.1-1.1 1.5-.8 3.1-2 4.4-3.4 1.4-1.4 2.6-3.2 3.7-5 1.2-1.9 2.2-3.8 3.1-5.9.9-2 1.7-4 2.4-5.9s1.4-3.7 2-5.2c.6-1.2 1.4-2 2.3-2.4s1.8-.5 2.7-.4 1.6.7 2.3 1.5.9 1.9.9 3.2c-.8 2.5-1.5 5-2 7.7s-.7 5.1-.9 7.7c-.1 1.8-.1 3.5-.1 5.3 0 1.7.1 3.3.4 4.9.112-.067.24-.139.38-.219.485-.276 1.122-.638 1.82-1.181.384-.298.785-.596 1.197-.902a59.085 59.085 0 0 0 1.703-1.298c1-.8 2-1.8 2.9-2.8s1.7-2.1 2.3-3.2c.9-1.2 1.9-1.6 2.8-1.5s1.7.5 2.3 1.2 1 1.5 1.2 2.5 0 1.8-.5 2.5c-1.7 2.9-3.9 5.6-6.4 8.2-2.6 2.6-5.9 4.7-9.9 6.4.2 2 .2 4.3 0 6.9s-.5 5.2-1 7.9-1.3 5.2-2.2 7.7c-.9 2.4-2.1 4.6-3.5 6.3s-3.2 3-5 3.7-4.1.7-6.7-.1c-2.4-.7-4.2-2-5.3-3.7s-1.6-3.8-1.6-6.1.5-4.9 1.3-7.5c.9-2.7 2.2-5.3 3.7-7.9s3.4-5 5.5-7.4c2.1-2.3 4.3-4.2 6.7-5.9.1-1.2.1-2.2.1-3.2s0-2 .1-3.1c-1.2 1.5-2.5 3-4.1 4.3-1.5 1.4-3.2 2.6-5.1 3.6-1.8 1-3.8 1.7-5.8 2.1s-4.1.3-6.2-.3c-2-.5-3.5-1.6-4.7-3.1s-2-3.3-2.5-5.4-.7-4.4-.7-6.9c.1-2.5.3-5 .6-7.7.4-2.5.9-5 1.6-7.5.5-2 1.2-4.2 2-6.1zm24.7 44.3c-1.1.9-2.1 2-3.1 3.3s-1.9 2.7-2.6 4.2c-.8 1.4-1.4 2.9-2 4.4-.5 1.4-.9 2.8-1.1 4s-.2 2.2 0 3 .6 1.3 1.4 1.4c.9.2 1.7-.2 2.5-1.1s1.4-2 2.1-3.4 1.2-3 1.6-4.7l.23-.97c.32-1.345.628-2.637.87-3.93.276-1.381.383-2.678.476-3.811l.024-.289c0-1.1-.1-1.8-.4-2.1z"/><path d="M549.5 97.12c0 .1.1.1.2.1l.7-9.2c.3-1.2.1-2.3-.5-3.2s-1.5-1.4-2.6-1.6c-1.4-2-3.2-3.1-5.5-3.2-2.2-.1-4.7.7-7.1 2.3-1.5 1.1-2.8 2.6-4 4.5-1.1 1.9-2.1 4-2.8 6.3-.7 2.4-1.2 4.8-1.5 7.399-.3 2.6-.4 5.2-.2 7.6s.6 4.7 1.3 6.9 1.6 4 2.9 5.4c1 1.3 2.1 2.2 3.5 2.8 1.3.6 2.7.9 4.1 1.1s2.7.1 4.2-.2 2.8-.6 4.1-1.1c1.6-.6 3.3-1.4 5-2.3 1.8-1 3.4-2 5-3.4s3.1-2.8 4.5-4.6 2.6-3.6 3.5-5.9c.3-1.1.3-1.9-.2-2.6s-1.1-1.2-1.9-1.5c-.8-.4-1.6-.5-2.4-.3-.8.1-1.3.6-1.7 1.3-.9 2.4-1.9 4.4-3.2 5.9s-2.5 2.8-3.9 3.8-2.6 1.8-4 2.3c-1.2.6-2.5.9-3.5 1.1-1.2.3-2.3.3-3.5.1-1.1-.2-2.2-.7-3.1-1.6-.7-.7-1.3-1.8-1.7-3.2-.4-1.5-.6-3.1-.7-5s0-3.9.2-5.9c.2-2.1.6-4 1.1-5.8.6-1.8 1.2-3.5 2-4.9.8-1.5 1.7-2.5 2.8-3.1.7.1 1 .5 1.2 1.1.1.7.2 1.4.1 2.3s-.2 1.8-.4 2.7l-.038.338c-.086.762-.162 1.438-.162 1.962.2 1.3.7 2.3 1.4 3 .7.8 1.5 1.2 2.3 1.3.9.1 1.7-.1 2.5-.6.8-.4 1.5-1.2 2-2.4zm-110.2-6.1c-.1 2.3-.5 4.7-1.3 7.1-.7 2.299-1.9 4.499-3.3 6.399s-3.2 3.4-5.3 4.6-4.5 1.6-7.1 1.4l.01.136c.097 1.361.2 2.806.49 4.064.3 1.4.7 2.5 1.4 3.5.6 1 1.5 1.6 2.6 2.1 1.1.4 2.4.4 4.1-.2 1.6-.5 3.2-1.3 4.7-2.3 1.5-1.1 2.9-2.3 4.1-3.7s2.3-2.9 3.1-4.5c.8-1.5 1.4-3.2 1.8-4.6.2-.8.6-1.3 1.4-1.4l.13-.016c.737-.093 1.319-.167 2.17.116.8.3 1.4.6 2 1.3.5.6.7 1.3.5 2-.963 2.601-2.019 4.923-2.989 7.056l-.111.244c-1 2.1-2.2 4-3.3 5.6-1.3 1.6-2.6 3-4.1 4.1-1.5 1.2-3.3 2.1-5.4 2.8-2.8 1-5.3 1.4-7.7 1.3-2.3-.1-4.4-.7-6.1-1.9s-3.2-2.7-4.1-4.8c-1-2.1-1.6-4.6-1.7-7.6-.1-1.4-.1-3.2-.1-5.1 0-1.909.182-3.909.373-6l.027-.3c.2-2.3.6-4.4 1.2-6.7s1.3-4.3 2.1-6.3c.9-2 2-3.7 3.3-5.1 1.4-1.4 3-2.5 4.9-3.2 1.6-.5 3.2-.8 4.7-.6s2.9.6 4.1 1.4 2.2 2.1 2.9 3.6c.043.322.095.657.149 1.008.2 1.283.43 2.764.351 4.492zm-8.9-1.8c-.6-.5-1.3-.5-2-.1-.6.4-1.3.9-1.8 1.8-.5.8-1.1 1.8-1.4 2.9-.5 1.2-.8 2.3-1.1 3.5s-.5 2.3-.6 3.399c-.2 1.1-.2 2-.1 2.6 2.2-.5 3.9-1.4 5.1-2.7 1.3-1.4 2.2-2.8 2.6-4.4.5-1.5.6-3 .5-4.4-.1-1.3-.5-2.2-1.2-2.6zm37.4 31.999c1.7 1.6 3.9 2.4 6.8 2.4.6 0 1.2-.075 1.8-.15s1.2-.15 1.8-.15c1.1-.4 2.2-1.1 3.2-1.8l.214-.171c.915-.73 1.736-1.386 2.386-2.129.447-.446.8-.862 1.112-1.229.246-.29.467-.55.688-.771.3 1.7.9 3.1 1.6 4.3.8 1.2 1.6 2.2 2.6 2.9s2 1.2 3.1 1.6c1.1.3 2.1.5 3.1.5 2.2 0 4.3-.8 6.2-2.3 2-1.4 3.7-3.3 5.2-5.5s2.8-4.5 3.8-6.9 1.6-4.6 2-6.5c.3-.8.3-1.5-.2-2.3-.4-.7-1-1.3-1.8-1.7s-1.5-.5-2.3-.3c-.7.2-1.2.9-1.6 2.2-.2 1.4-.7 2.9-1.3 4.7-.6 1.7-1.4 3.4-2.4 5-1 1.7-2 3-3.3 4s-2.6 1.5-4 1.4c-1.1-.1-1.9-.7-2.4-1.8-.4-1-.7-2.4-.7-4.1s.1-3.6.5-5.7.8-4.1 1.3-6.2c.25-1 .5-1.975.75-2.95s.5-1.95.75-2.95c.351-1.169.599-2.167.825-3.074.16-.645.309-1.244.475-1.826.3-1.2.2-2.2-.4-3-.6-.9-1.4-1.4-2.3-1.8s-1.9-.4-2.8-.3-1.5.7-1.8 1.5c-2.8-2.5-5.5-3.7-8-3.9-2.6-.2-4.9.3-7.1 1.7-2.2 1.3-4.1 3.2-5.8 5.7-1.8 2.4-3.1 5.1-4.1 8.1-1.1 3-1.7 5.9-2 9s0 5.9.6 8.4c.7 2.4 1.8 4.5 3.5 6.1zm6.7-6.4c1.5.2 2.8-.2 4-1.1 1.2-.8 2.2-2 3.1-3.4s1.6-3.1 2.3-4.9c.6-1.8 1.1-3.5 1.5-5.2.294-1.247.533-2.387.759-3.458.081-.39.161-.769.241-1.142.249-1.16.36-1.977.448-2.621v-.002l.052-.377c-1.5-1.3-2.9-1.9-4.2-2s-2.5.4-3.6 1.1c-1.1.8-2.1 1.9-2.9 3.2-.8 1.4-1.5 3-2.2 4.6-.6 1.7-1 3.3-1.3 5.1s-.5 3.3-.4 4.8c0 1.4.3 2.6.6 3.6.2 1.1.8 1.7 1.6 1.8z"/><path d="M580 82.32c2.2-.7 4.1-.8 5.7-.5s3 1.3 4.1 2.4c1.1 1.3 2 2.7 2.6 4.5s1.1 3.7 1.3 5.8c.1.9.2 2 .2 3.1 0 1.2 0 2.3-.1 3.399-.1 1.2-.2 2.3-.3 3.2-.1 1-.3 2-.5 2.8 1.2-.1 2.2-.2 3.1-.5.205-.068.405-.131.6-.193.66-.208 1.26-.398 1.8-.707.282-.161.563-.305.851-.453.428-.22.871-.448 1.349-.747.467-.333.933-.577 1.4-.822.233-.122.467-.244.7-.378.9-.5 1.6-.5 2.3-.2.6.4 1 .9 1.2 1.6s.3 1.4.2 2.3-.5 1.4-1 2c-2.3 2.1-4.7 3.6-7.4 4.5s-5.4 1.4-8.2 1.4c-1.8 3.2-4.1 5.7-7 7.4s-6 2.5-9.4 2.6c-3.2.1-5.8-.6-7.9-1.9-2.2-1.4-3.9-3.1-5.1-5.1-1.3-2.1-2.1-4.5-2.5-7.2s-.4-5.4 0-8.2 1.2-5.4 2.4-8 2.7-4.9 4.6-6.8 4.1-3.4 6.7-4.4c2.1-1 5-1.4 8.3-.9zm-5.2 8.1c-1.5.4-2.9 1.2-4.1 2.5-1.3 1.4-2.3 3-3.2 4.8-.9 1.9-1.5 3.899-1.9 5.999-.4 2.2-.5 4.2-.1 6.1.3 1.9 1 3.6 2.2 5s2.8 2.3 4.9 2.8c.7.2 1.6.1 2.5-.2s1.9-.7 2.8-1.3 1.7-1.3 2.4-2c.7-.8 1.3-1.5 1.6-2.3-1.4-.8-2.4-1.8-3.3-2.9-.9-1.2-1.7-2.3-2.3-3.7-1-2.3-1.6-4.7-1.8-7.2-.4-2.8-.2-5.2.3-7.6zm6.5 3.6c.2-1.4.9-2.5 2.3-3.3.5-.2 1-.1 1.3.4.349.522.545 1.121.789 1.862.036.11.072.222.111.337.2.9.4 1.9.5 3.2l.012.139c.095 1.146.184 2.208.088 3.361-.1 1.1-.2 2.1-.4 3-.1.8-.3 1.3-.6 1.6-.5-.3-1.2-1-1.9-2.2-.8-1.2-1.3-2.6-1.8-4-.4-1.5-.6-3-.4-4.4z"/><path d="M604.9 63.62c-1 .4-1.9 1.1-2.5 2.3-.3 1.7-.6 4.2-.8 7.4a271.878 271.878 0 0 0-.658 6c-.14 1.368-.283 2.768-.442 4.2-.227 2.038-.421 4.14-.62 6.29a510.842 510.842 0 0 1-.48 5.01c-.243 2.366-.412 4.623-.574 6.791-.106 1.404-.208 2.772-.326 4.108-.079 2.676-.281 5.042-.461 7.147-.049.57-.096 1.121-.139 1.653-.2 2.4-.3 4.1-.3 5-.019.309-.039.628-.058.959a178.463 178.463 0 0 1-.342 4.841c-.2 2.2-.3 4.6-.4 7.2s0 5.2.3 7.7c.1 2.6.7 4.9 1.4 7 .8 2.1 1.8 3.9 3.2 5.3s3.2 2.3 5.5 2.6c2.4.3 4.5-.1 6.2-1.3s3.1-2.8 4.2-4.9 1.8-4.4 2.3-7.1.6-5.4.4-8.1c-.1-2.7-.6-5.3-1.4-7.7s-1.9-4.4-3.3-5.9c.9-.3 1.9-.8 3.1-1.4 1.2-.8 2.3-1.5 3.6-2.3s2.5-1.7 3.7-2.6c.465-.348.915-.697 1.35-1.034.688-.533 1.338-1.037 1.95-1.466.8-.4 1.2-1.2 1.4-2.3.1-1.1.1-2.2-.2-3.2s-.7-1.9-1.3-2.5c-.6-.8-1.3-.9-2-.5-.954 1.102-2.071 2.041-3.23 3.017-.42.353-.845.711-1.27 1.083-1.6 1.3-3.3 2.5-5.1 3.6s-3.7 1.9-5.6 2.6c-1.9.8-3.9 1.1-5.9 1.3l4.4-46.8c.2-1 0-1.9-.5-2.6-.6-.7-1.3-1.2-2.2-1.5s-1.9-.3-2.9.1zm5.9 80.399c-.9 1.1-1.9 1.6-3.2 1.7-.8.1-1.4-.3-1.8-1.3-.4-.9-.7-2-.9-3.4-.1-1.4-.2-3-.2-4.7s.1-3.4.2-5.1a72.59 72.59 0 0 0 .232-2.235c.081-.867.16-1.709.268-2.465.126-.945.212-1.731.284-2.384.042-.383.079-.72.116-1.016 1.7.2 3 1 4 2.1s1.9 2.6 2.4 4.2.9 3.4 1 5.3c0 1.9-.1 3.6-.5 5.2-.5 1.7-1 3-1.9 4.1z"/><path d="M630.5 63.62c-1 .4-1.9 1.1-2.5 2.3-.4 1.7-.8 4.2-.8 7.4a271.878 271.878 0 0 0-.658 6c-.14 1.368-.283 2.768-.442 4.2-.227 2.038-.421 4.14-.62 6.29a510.842 510.842 0 0 1-.48 5.01c-.243 2.366-.412 4.623-.574 6.791-.106 1.404-.208 2.772-.326 4.108-.079 2.676-.281 5.042-.461 7.147-.049.57-.096 1.121-.139 1.653-.2 2.4-.3 4.1-.3 5l-.059.959c-.083 1.388-.18 2.984-.341 4.841-.2 2.2-.3 4.6-.4 7.2s0 5.2.3 7.7c.1 2.6.7 4.9 1.4 7 .8 2.1 1.8 3.9 3.2 5.3s3.2 2.3 5.5 2.6c2.4.3 4.5-.1 6.2-1.3s3.1-2.8 4.2-4.9 1.8-4.4 2.3-7.1.6-5.4.4-8.1c-.1-2.7-.6-5.3-1.4-7.7s-1.9-4.4-3.3-5.9c.9-.3 1.9-.8 3.1-1.4 1.2-.8 2.3-1.5 3.6-2.3s2.5-1.7 3.7-2.6c.465-.348.915-.697 1.35-1.034a51.251 51.251 0 0 1 1.95-1.466c.8-.4 1.2-1.2 1.4-2.3.1-1.1.1-2.2-.2-3.2s-.7-1.9-1.3-2.5c-.6-.8-1.3-.9-2-.5-.955 1.102-2.071 2.041-3.23 3.017-.42.353-.845.711-1.27 1.083-1.6 1.3-3.3 2.5-5.1 3.6-1.467.897-3.001 1.528-4.547 2.164-.351.144-.702.289-1.053.436-1.9.8-3.9 1.1-5.9 1.3l4.4-46.8c.2-1 0-1.9-.5-2.6-.6-.7-1.3-1.2-2.2-1.5s-1.9-.3-2.9.1zm5.8 80.399c-.9 1.1-1.9 1.6-3.2 1.7-.8.1-1.5-.3-1.8-1.3-.4-.9-.8-2-.9-3.4s-.2-3-.2-4.7 0-3.5.2-5.1a72.59 72.59 0 0 0 .232-2.235c.081-.867.16-1.709.268-2.465.126-.945.212-1.731.284-2.384.042-.383.079-.72.116-1.016 1.6.2 3 1 4 2.1s1.9 2.6 2.4 4.2.9 3.4 1 5.3c0 1.9-.1 3.6-.5 5.2-.5 1.7-1.1 3-1.9 4.1z"/><path d="M672.7 98.12c.8-2.4 1.2-4.8 1.3-7.1 0-1.89-.221-3.485-.411-4.848l-.089-.653c-.7-1.5-1.7-2.8-2.9-3.6s-2.6-1.2-4.1-1.4-3.1.1-4.7.6c-1.9.7-3.5 1.8-4.9 3.2-1.3 1.4-2.4 3.1-3.3 5.1-.8 2-1.5 4-2.1 6.3s-1 4.4-1.2 6.7l-.027.3c-.191 2.092-.373 4.092-.373 6 0 1.9 0 3.7.1 5.1.1 3 .7 5.5 1.7 7.6.9 2.1 2.4 3.6 4.1 4.8s3.8 1.8 6.1 1.9c2.4.1 4.9-.3 7.7-1.3 2.1-.7 3.9-1.6 5.4-2.8 1.5-1.1 2.8-2.5 4.1-4.1 1.1-1.6 2.3-3.5 3.3-5.6l.111-.244c.97-2.133 2.026-4.455 2.989-7.056.2-.7 0-1.4-.5-2-.6-.7-1.2-1-2-1.3-.851-.283-1.433-.209-2.17-.116l-.13.016c-.8.1-1.2.6-1.4 1.4-.4 1.4-1 3.1-1.8 4.6-.8 1.6-1.9 3.1-3.1 4.5s-2.6 2.6-4.1 3.7c-1.5 1-3.1 1.8-4.7 2.3-1.7.6-3 .6-4.1.2-1.1-.5-2-1.1-2.6-2.1-.7-1-1.1-2.1-1.4-3.5-.29-1.258-.393-2.703-.49-4.064a5.79 5.79 0 0 1-.01-.136c2.6.2 5-.2 7.1-1.4s3.9-2.7 5.3-4.6 2.6-4.1 3.3-6.4zm-9.7-9c.7-.4 1.4-.4 2 .1.8.4 1.2 1.3 1.2 2.6.1 1.4 0 2.9-.5 4.4-.4 1.6-1.4 3.1-2.6 4.399-1.2 1.3-2.9 2.2-5.1 2.7-.1-.6-.1-1.5.1-2.6.1-1.1.3-2.2.6-3.4s.6-2.3 1.1-3.5c.3-1.1.9-2.1 1.4-2.9.5-.9 1.2-1.4 1.8-1.8z"/><path d="M701.1 98.12c.8-2.4 1.2-4.8 1.3-7.1 0-1.396-.161-2.63-.304-3.729a29.108 29.108 0 0 1-.196-1.772c-.7-1.5-1.7-2.8-2.9-3.6s-2.6-1.2-4.1-1.4-3.1.1-4.7.6c-1.9.7-3.5 1.8-4.9 3.2-1.3 1.4-2.4 3.1-3.3 5.1-.8 2-1.5 4-2.1 6.3s-1 4.4-1.2 6.7l-.027.3c-.191 2.092-.373 4.092-.373 6 0 1.9 0 3.7.1 5.1.1 3 .7 5.5 1.7 7.6.9 2.1 2.4 3.6 4.1 4.8s3.8 1.8 6.1 1.9c2.4.1 4.9-.3 7.7-1.3 2.1-.7 3.9-1.6 5.4-2.8 1.5-1.1 2.8-2.5 4.1-4.1 1.1-1.6 2.3-3.5 3.3-5.6l.111-.244c.97-2.133 2.026-4.455 2.989-7.056.2-.7 0-1.4-.5-2-.6-.7-1.2-1-2-1.3-.851-.283-1.433-.209-2.17-.116l-.13.016c-.8.1-1.2.6-1.4 1.4-.4 1.4-1 3.1-1.8 4.6-.8 1.6-1.9 3.1-3.1 4.5s-2.6 2.6-4.1 3.7c-1.5 1-3.1 1.8-4.7 2.3-1.7.6-3 .6-4.1.2-1.1-.5-2-1.1-2.6-2.1-.7-1-1.1-2.1-1.4-3.5-.29-1.258-.393-2.703-.49-4.064a5.79 5.79 0 0 1-.01-.136c2.6.2 5-.2 7.1-1.4s3.9-2.7 5.3-4.6 2.6-4.1 3.3-6.4zm-9.6-9c.7-.4 1.4-.4 2 .1.7.4 1.2 1.3 1.2 2.6.1 1.4 0 2.9-.5 4.4-.4 1.6-1.4 3.1-2.6 4.399-1.2 1.3-2.9 2.2-5.1 2.7-.1-.6-.1-1.5.1-2.6.1-1.1.3-2.2.6-3.4s.6-2.3 1.1-3.5c.3-1.1.9-2.1 1.4-2.9.5-.9 1.2-1.4 1.8-1.8z"/></g></g></svg>