<svg viewBox="0 0 786 190" xmlns="http://www.w3.org/2000/svg"><path d="M0 0h786v190H0z" fill="#ff813f"/><path d="M191.4 39.8v-2.7c0-1.5-1.3-2.8-2.8-2.8h-.9c-1.5 0-2.8 1.3-2.8 2.8v2.8h-2.8c-1.5 0-2.8 1.3-2.8 2.8v.9c0 1.5 1.3 2.8 2.8 2.8h2.8v2.8c0 1.5 1.3 2.8 2.8 2.8h.9c1.5 0 2.8-1.3 2.8-2.8v-2.8h2.8c1.5 0 2.8-1.3 2.8-2.8v-.9c0-1.5-1.3-2.8-2.8-2.8z" fill="#fd0"/><path d="M131.8 54l-29.1-.2 14.3 90.6h34.7L166 53.8z" fill="#ff9100"/><path d="M131.8 54l-29.1-.2 14.3 90.6h27.5l14.2-90.6z" fill="#fd0"/><path d="M94.4 53.8h74.9v-8.4H94.4z" fill="#fff"/><path d="M94.4 53.8h74.9v-8.4H94.4z" fill="none" stroke="#000" stroke-width="4.319"/><path d="M154.8 31.9h-46.3L103 44.5h57.2z" fill="#fff"/><g fill="none" stroke-width="4.319"><path d="M154.755 31.9h-46.3l-5.4 12.6h57.2z" stroke="#050505"/><path d="M131.755 54l-34.2-.2 14.2 90.6H151.855l14.2-90.6z" stroke="#000"/></g><path d="M167 79.4H96.2l6.4 36 29-.3 29 .3z" fill="#fff"/><path d="M167 79.4H96.2l6.4 36 29-.3 29 .3z" fill="none" stroke="#000" stroke-width="4.319"/><circle cx="69.8" cy="66.3" fill="none" r="7.5" stroke="#eee" stroke-width="6.958"/><circle cx="180.7" cy="98.2" fill="#eee" r="5"/><circle cx="86.8" cy="127" fill="#ff813f" r="5"/><g fill="#fff"><path d="M215.8 66.5c.4-1.4.9-2.3 1.8-2.7s1.8-.7 2.7-.6 1.7.4 2.4.9 1.1 1.2 1.1 1.8c0 .3 0 .5-.1.8s-.1.5-.1.7c2.9-1 5.7-1.7 8.5-2.1s5.2-.2 7.6.4c2.3.6 4.2 1.7 6 3.3 1.7 1.6 3 3.8 3.8 6.7.4 1.2.4 2.5.2 4.1-.2 1.5-.5 3.2-1.1 4.7-.5 1.5-1.2 3-1.9 4.3-.7 1.4-1.4 2.3-2.3 2.9 1.7.5 3.2 1.4 4.5 2.7s2.3 2.7 3.1 4.3c.7 1.6 1.3 3.4 1.4 5.3.2 1.9.1 3.9-.4 5.8s-1.3 3.6-2.6 5.2c-1.4 1.6-3 3.1-4.9 4.3-1.9 1.3-4.1 2.3-6.4 3.2-2.3.8-4.8 1.4-7.1 1.7-2.4.3-4.8.3-7.1 0s-4.5-1-6.3-2c-.6 1-1.4 1.7-2.2 2.1s-1.6.5-2.3.4-1.4-.5-2-1.3c-.5-.7-.9-1.7-1.1-3 .5-4.2.8-8.6 1.3-13.2s.8-9.2 1.3-13.9.8-9.3 1.2-13.8c.3-4.3.7-8.7 1-13zm3.4 48.9c1.4.9 2.9 1.5 4.8 1.9 1.9.3 3.8.4 5.9.1 2-.3 4-.7 5.9-1.5 2-.7 3.7-1.7 5.2-2.9 1.4-1.2 2.6-2.6 3.5-4.2.8-1.6 1.2-3.4.9-5.4-.1-.7-.4-1.4-.8-2.1-.5-.6-.9-1.3-1.5-1.8-1.2-1-2.7-1.6-4.6-1.9-2-.3-4.1-.3-6.2-.1-2.2.2-4.3.5-6.4 1.1-2.1.5-3.8 1-5.1 1.4zm2.2-24.6c.4 0 1 0 2.1-.1s2.3-.2 3.7-.4 2.9-.5 4.5-.9c1.5-.4 3.1-.9 4.4-1.6 1.4-.7 2.5-1.5 3.5-2.5s1.5-2.3 1.7-3.7c.3-1.8.1-3.3-.5-4.5-.5-1.2-1.3-2.1-2.3-2.8-1.1-.6-2.3-1-3.7-1.2s-2.8-.1-4.2.1-2.9.5-4.2 1-2.6 1-3.6 1.6zm37.3-5.3c.6-1.2 1.4-2 2.3-2.4s1.8-.5 2.7-.4 1.6.7 2.3 1.5c.6.8.9 1.9.9 3.2-.2.5-.4 1.7-.8 3.4s-.8 3.6-1.3 5.9-.9 4.5-1.3 7c-.5 2.4-.7 4.8-.8 6.8-.2 2.1-.1 3.8.1 5.2s.7 2.2 1.4 2.3c1.4.3 2.6-.3 3.8-1.5 1.2-1.3 2.3-3 3.2-5 1-2.1 1.9-4.4 2.7-7s1.5-5 2.1-7.5c.6-2.3 1.1-4.5 1.4-6.3.4-1.8.6-3.1.8-3.7.4-1.2.7-2.2 1.3-2.9s1.4-1.4 2.5-1.8c1.6-.2 2.9.2 3.9 1 .9.9 1.4 2.2 1.4 3.8-.4 1.8-.8 3.8-1.3 5.9s-.9 4.1-1.4 6.1c-.5 2.1-.8 4.1-1.1 5.9-.3 1.9-.5 3.6-.5 5.1-.1 1.5 0 2.8.2 3.8s.6 1.7 1.3 2c1.5.3 2.9-.5 4.1-2.3s2.5-4.7 3.9-8.7c.5-1 1.1-1.7 1.9-1.9.8-.3 1.6-.2 2.3.2s1.3 1 1.7 1.9.4 2 0 3.2c-.3.8-.6 1.7-1.1 2.8s-.9 2.2-1.5 3.2c-.6 1.2-1.3 2.3-2 3.4-.7 1.2-1.4 2.2-2.3 3.1-1.2 1.4-2.5 2.4-4 3-1.4.6-2.9.8-4.3.6s-2.8-.8-4.1-1.8-2.3-2.3-3.1-4.1c-.8 1.3-1.7 2.3-2.6 3.4-.9 1-1.8 1.9-2.9 2.7-1.1.7-2.3 1.3-3.5 1.6-1.3.4-2.8.5-4.5.4s-3.1-.5-4.2-1.4c-1.1-.8-2-1.9-2.6-3.2-.6-1.4-1-2.8-1.3-4.3s-.4-3.2-.4-4.8.1-3.2.2-4.5c.1-1.4.2-2.6.4-3.6.2-1.3.4-2.8.6-4.4.3-1.7.6-3.4 1-5.2s.7-3.5 1.1-5.1c.9-1.9 1.1-3.3 1.4-4.6z"/><path d="M296.1 85.5c.5-1.2 1.3-1.9 2.3-2.2 1.1-.4 2.1-.4 3.1 0 1 .3 1.8.9 2.3 1.8s.5 2.1 0 3.4c-.4 1.2-.8 2.5-1.2 4.1-.5 1.6-.8 3.4-1.2 5.2s-.6 3.7-.8 5.5c-.2 1.9-.3 3.6-.2 5.1s.3 2.9.6 3.9 1 1.7 1.8 1.9c1.8.1 3.5-.3 5.1-1.1 1.5-.8 3.1-2 4.4-3.4 1.4-1.4 2.6-3.2 3.7-5 1.2-1.9 2.2-3.8 3.1-5.9.9-2 1.7-4 2.4-5.9s1.4-3.7 2-5.2c.6-1.2 1.4-2 2.3-2.4s1.8-.5 2.7-.4 1.6.7 2.3 1.5.9 1.9.9 3.2c-.8 2.5-1.5 5-2 7.7s-.7 5.1-.9 7.7c-.1 1.8-.1 3.5-.1 5.3 0 1.7.1 3.3.4 4.9.5-.3 1.3-.7 2.2-1.4s1.9-1.4 2.9-2.2 2-1.8 2.9-2.8 1.7-2.1 2.3-3.2c.9-1.2 1.9-1.6 2.8-1.5s1.7.5 2.3 1.2 1 1.5 1.2 2.5 0 1.8-.5 2.5c-1.7 2.9-3.9 5.6-6.4 8.2-2.6 2.6-5.9 4.7-9.9 6.4.2 2 .2 4.3 0 6.9s-.5 5.2-1 7.9-1.3 5.2-2.2 7.7c-.9 2.4-2.1 4.6-3.5 6.3s-3.2 3-5 3.7-4.1.7-6.7-.1c-2.4-.7-4.2-2-5.3-3.7s-1.6-3.8-1.6-6.1.5-4.9 1.3-7.5c.9-2.7 2.2-5.3 3.7-7.9s3.4-5 5.5-7.4c2.1-2.3 4.3-4.2 6.7-5.9.1-1.2.1-2.2.1-3.2s0-2 .1-3.1c-1.2 1.5-2.5 3-4.1 4.3-1.5 1.4-3.2 2.6-5.1 3.6-1.8 1-3.8 1.7-5.8 2.1s-4.1.3-6.2-.3c-2-.5-3.5-1.6-4.7-3.1s-2-3.3-2.5-5.4-.7-4.4-.7-6.9c.1-2.5.3-5 .6-7.7.4-2.5.9-5 1.6-7.5.5-2 1.2-4.2 2-6.1zm24.7 44.3c-1.1.9-2.1 2-3.1 3.3s-1.9 2.7-2.6 4.2c-.8 1.4-1.4 2.9-2 4.4-.5 1.4-.9 2.8-1.1 4s-.2 2.2 0 3 .6 1.3 1.4 1.4c.9.2 1.7-.2 2.5-1.1s1.4-2 2.1-3.4 1.2-3 1.6-4.7.8-3.3 1.1-4.9c.3-1.5.4-2.9.5-4.1 0-1.1-.1-1.8-.4-2.1zm37.7-7.3c.6-4.2 1.2-8 1.4-11.3.3-3.2.5-6 .5-8.5s0-4.5-.1-6.1c-.1-1.7-.3-3.1-.5-4.2-.2-1.2-.4-2.2-.6-2.9s-.4-1.4-.4-1.9c-.1-.7 0-1.4.2-1.9s.5-1 .9-1.4.9-.6 1.4-.9c.5-.2 1-.4 1.5-.4 1 0 1.8.2 2.4.5.5.4 1 .8 1.3 1.4s.5 1.4.6 2.3.2 2 .4 3.2c.6-1 1.4-2.1 2.1-3.2.8-1.1 1.7-2 2.7-2.9 1-.8 2.1-1.5 3.2-2.1 1.2-.5 2.5-.8 3.9-.8s2.9.3 4.1.8c1.4.5 2.5 1.3 3.6 2.3s2 2.1 2.7 3.4 1.3 2.7 1.6 4.2c1-2 2.2-3.9 3.4-5.7 1.3-1.8 2.9-3.2 5-4.1 2.1-1 4.1-1.3 5.9-.8s3.4 1.3 4.9 2.6c1.4 1.3 2.5 2.9 3.2 4.9.8 2 1.2 4 1.2 6.1 0 2.4-.2 5-.5 7.7s-.5 5.1-.8 7.5c-.3 2.3-.4 4.2-.3 5.8s.5 2.4 1.3 2.6c1.3.4 2.5-.1 3.7-1.2s2.3-2.4 3.2-4.1 1.8-3.2 2.5-4.9 1.3-3 1.7-3.9c.4-.8.9-1.3 1.6-1.4s1.4-.2 2.1.2c.7.3 1.3.8 1.7 1.5.5.7.6 1.6.5 2.6-.5 2.3-1.4 4.6-2.3 6.9s-2.3 4.4-3.7 6.2c-1.4 1.9-3.2 3.3-5.3 4.5s-4.4 1.7-7.1 1.7c-1.8 0-3.2-.5-4.4-1.4-1.2-1-2.1-2.2-2.7-3.5-.6-1.4-1.1-2.9-1.4-4.4s-.4-2.9-.4-4.1c0-1.7.1-3.3.4-4.9.2-1.5.5-3.1.7-4.5.3-1.4.5-2.9.7-4.3s.4-2.7.4-4.1c0-1.8-.2-3.2-.6-4.2s-1-1.5-1.7-1.5c-1.4 0-2.8.9-4.1 2.6s-2.4 4-3.5 6.7-2 5.8-2.8 9.2-1.4 6.8-2 10.2c-.2 1.2-.6 2-1.5 2.5s-1.8.7-2.9.5c-1-.1-1.9-.5-2.8-1.2-.8-.6-1.3-1.5-1.3-2.6.1-.6.3-1.7.5-3.3s.4-3.4.5-5.5c.2-2.1.3-4.2.3-6.5s-.1-4.3-.5-6.1c-.3-1.9-.8-3.4-1.5-4.6S381 90 379.6 90c-1.1 0-2.1.5-3.1 1.5s-2 2.3-2.9 4.1c-.9 1.7-1.7 3.6-2.5 5.9-.7 2.3-1.4 4.5-2 6.9s-1.1 5-1.4 7.4c-.4 2.5-.6 4.9-.8 7-.2 1.2-.7 2-1.6 2.4-1 .5-2 .6-3.1.5s-2.1-.5-2.9-1.1c-.5-.3-.9-1.1-.8-2.1z"/><path d="M449.3 91.2c-.1 2.3-.5 4.7-1.3 7.1-.7 2.3-1.9 4.5-3.3 6.4s-3.2 3.4-5.3 4.6-4.5 1.6-7.1 1.4c.1 1.4.2 2.9.5 4.2.3 1.4.7 2.5 1.4 3.5.6 1 1.5 1.6 2.6 2.1 1.1.4 2.4.4 4.1-.2 1.6-.5 3.2-1.3 4.7-2.3 1.5-1.1 2.9-2.3 4.1-3.7s2.3-2.9 3.1-4.5c.8-1.5 1.4-3.2 1.8-4.6.2-.8.6-1.3 1.4-1.4s1.4-.2 2.3.1c.8.3 1.4.6 2 1.3.5.6.7 1.3.5 2-1 2.7-2.1 5.1-3.1 7.3-1 2.1-2.2 4-3.3 5.6-1.3 1.6-2.6 3-4.1 4.1-1.5 1.2-3.3 2.1-5.4 2.8-2.8 1-5.3 1.4-7.7 1.3-2.3-.1-4.4-.7-6.1-1.9s-3.2-2.7-4.1-4.8c-1-2.1-1.6-4.6-1.7-7.6-.1-1.4-.1-3.2-.1-5.1 0-2 .2-4.1.4-6.3.2-2.3.6-4.4 1.2-6.7s1.3-4.3 2.1-6.3c.9-2 2-3.7 3.3-5.1 1.4-1.4 3-2.5 4.9-3.2 1.6-.5 3.2-.8 4.7-.6s2.9.6 4.1 1.4 2.2 2.1 2.9 3.6c.2 1.5.6 3.3.5 5.5zm-8.9-1.8c-.6-.5-1.3-.5-2-.1-.6.4-1.3.9-1.8 1.8-.5.8-1.1 1.8-1.4 2.9-.5 1.2-.8 2.3-1.1 3.5s-.5 2.3-.6 3.4c-.2 1.1-.2 2-.1 2.6 2.2-.5 3.9-1.4 5.1-2.7 1.3-1.4 2.2-2.8 2.6-4.4.5-1.5.6-3 .5-4.4-.1-1.3-.5-2.2-1.2-2.6zm44.2 34.4c-2.9 0-5.1-.8-6.8-2.4s-2.8-3.7-3.5-6.1c-.6-2.5-.9-5.3-.6-8.4s.9-6 2-9c1-3 2.3-5.7 4.1-8.1 1.7-2.5 3.6-4.4 5.8-5.7 2.2-1.4 4.5-1.9 7.1-1.7 2.5.2 5.2 1.4 8 3.9.3-.8.9-1.4 1.8-1.5s1.9-.1 2.8.3 1.7.9 2.3 1.8c.6.8.7 1.8.4 3-.4 1.4-.7 2.9-1.3 4.9-.5 2-1 3.9-1.5 5.9-.5 2.1-.9 4.1-1.3 6.2s-.5 4-.5 5.7.3 3.1.7 4.1c.5 1.1 1.3 1.7 2.4 1.8 1.4.1 2.7-.4 4-1.4s2.3-2.3 3.3-4c1-1.6 1.8-3.3 2.4-5 .6-1.8 1.1-3.3 1.3-4.7.4-1.3.9-2 1.6-2.2.8-.2 1.5-.1 2.3.3s1.4 1 1.8 1.7c.5.8.5 1.5.2 2.3-.4 1.9-1 4.1-2 6.5s-2.3 4.7-3.8 6.9-3.2 4.1-5.2 5.5c-1.9 1.5-4 2.3-6.2 2.3-1 0-2-.2-3.1-.5-1.1-.4-2.1-.9-3.1-1.6s-1.8-1.7-2.6-2.9c-.7-1.2-1.3-2.6-1.6-4.3-.5.5-1 1.2-1.8 2-.7.8-1.6 1.5-2.6 2.3-1 .7-2.1 1.4-3.2 1.8-1.2 0-2.4.3-3.6.3zm-.1-8.8c1.5.2 2.8-.2 4-1.1 1.2-.8 2.2-2 3.1-3.4s1.6-3.1 2.3-4.9c.6-1.8 1.1-3.5 1.5-5.2s.7-3.2 1-4.6.4-2.3.5-3c-1.5-1.3-2.9-1.9-4.2-2s-2.5.4-3.6 1.1c-1.1.8-2.1 1.9-2.9 3.2-.8 1.4-1.5 3-2.2 4.6-.6 1.7-1 3.3-1.3 5.1s-.5 3.3-.4 4.8c0 1.4.3 2.6.6 3.6.2 1.1.8 1.7 1.6 1.8zm75.2-17.6c-.1 0-.2 0-.2-.1-.5 1.2-1.2 2-2 2.4-.8.5-1.6.7-2.5.6-.8-.1-1.6-.5-2.3-1.3-.7-.7-1.2-1.7-1.4-3 0-.6.1-1.4.2-2.3.2-.9.3-1.8.4-2.7s0-1.6-.1-2.3c-.2-.6-.5-1-1.2-1.1-1.1.6-2 1.6-2.8 3.1-.8 1.4-1.4 3.1-2 4.9-.5 1.8-.9 3.7-1.1 5.8-.2 2-.3 4-.2 5.9s.3 3.5.7 5c.4 1.4 1 2.5 1.7 3.2.9.9 2 1.4 3.1 1.6 1.2.2 2.3.2 3.5-.1 1-.2 2.3-.5 3.5-1.1 1.4-.5 2.6-1.3 4-2.3s2.6-2.3 3.9-3.8 2.3-3.5 3.2-5.9c.4-.7.9-1.2 1.7-1.3.8-.2 1.6-.1 2.4.3.8.3 1.4.8 1.9 1.5s.5 1.5.2 2.6c-.9 2.3-2.1 4.1-3.5 5.9s-2.9 3.2-4.5 4.6-3.2 2.4-5 3.4c-1.7.9-3.4 1.7-5 2.3-1.3.5-2.6.8-4.1 1.1s-2.8.4-4.2.2-2.8-.5-4.1-1.1c-1.4-.6-2.5-1.5-3.5-2.8-1.3-1.4-2.2-3.2-2.9-5.4s-1.1-4.5-1.3-6.9-.1-5 .2-7.6.8-5 1.5-7.4c.7-2.3 1.7-4.4 2.8-6.3 1.2-1.9 2.5-3.4 4-4.5 2.4-1.6 4.9-2.4 7.1-2.3 2.3.1 4.1 1.2 5.5 3.2 1.1.2 2 .7 2.6 1.6s.8 2 .5 3.2z"/><path d="M590 82.5c2.2-.7 4.1-.8 5.7-.5s3 1.3 4.1 2.4c1.1 1.3 2 2.7 2.6 4.5s1.1 3.7 1.3 5.8c.1.9.2 2 .2 3.1 0 1.2 0 2.3-.1 3.4-.1 1.2-.2 2.3-.3 3.2-.1 1-.3 2-.5 2.8 1.2-.1 2.2-.2 3.1-.5s1.7-.5 2.4-.9 1.4-.7 2.2-1.2c.7-.5 1.4-.8 2.1-1.2.9-.5 1.6-.5 2.3-.2.6.4 1 .9 1.2 1.6s.3 1.4.2 2.3-.5 1.4-1 2c-2.3 2.1-4.7 3.6-7.4 4.5s-5.4 1.4-8.2 1.4c-1.8 3.2-4.1 5.7-7 7.4s-6 2.5-9.4 2.6c-3.2.1-5.8-.6-7.9-1.9-2.2-1.4-3.9-3.1-5.1-5.1-1.3-2.1-2.1-4.5-2.5-7.2s-.4-5.4 0-8.2 1.2-5.4 2.4-8 2.7-4.9 4.6-6.8 4.1-3.4 6.7-4.4c2.1-1 5-1.4 8.3-.9zm-5.2 8.1c-1.5.4-2.9 1.2-4.1 2.5-1.3 1.4-2.3 3-3.2 4.8-.9 1.9-1.5 3.9-1.9 6-.4 2.2-.5 4.2-.1 6.1.3 1.9 1 3.6 2.2 5s2.8 2.3 4.9 2.8c.7.2 1.6.1 2.5-.2s1.9-.7 2.8-1.3 1.7-1.3 2.4-2c.7-.8 1.3-1.5 1.6-2.3-1.4-.8-2.4-1.8-3.3-2.9-.9-1.2-1.7-2.3-2.3-3.7-1-2.3-1.6-4.7-1.8-7.2-.4-2.8-.2-5.2.3-7.6zm8.8.3c-1.4.8-2.1 1.9-2.3 3.3s0 2.9.4 4.4c.5 1.4 1 2.8 1.8 4 .7 1.2 1.4 1.9 1.9 2.2.3-.3.5-.8.6-1.6.2-.9.3-1.9.4-3 .1-1.2 0-2.3-.1-3.5-.1-1.3-.3-2.3-.5-3.2-.3-.9-.5-1.6-.9-2.2-.3-.5-.8-.6-1.3-.4z"/><path d="M612.4 66.1c.6-1.2 1.5-1.9 2.5-2.3s2-.4 2.9-.1 1.6.8 2.2 1.5c.5.7.7 1.6.5 2.6l-4.4 46.8c2-.2 4-.5 5.9-1.3 1.9-.7 3.8-1.5 5.6-2.6s3.5-2.3 5.1-3.6c1.6-1.4 3.2-2.6 4.5-4.1.7-.4 1.4-.3 2 .5.6.6 1 1.5 1.3 2.5s.3 2.1.2 3.2c-.2 1.1-.6 1.9-1.4 2.3-1 .7-2.1 1.6-3.3 2.5s-2.4 1.8-3.7 2.6-2.4 1.5-3.6 2.3c-1.2.6-2.2 1.1-3.1 1.4 1.4 1.5 2.5 3.5 3.3 5.9s1.3 5 1.4 7.7c.2 2.7.1 5.4-.4 8.1s-1.2 5-2.3 7.1-2.5 3.7-4.2 4.9-3.8 1.6-6.2 1.3c-2.3-.3-4.1-1.2-5.5-2.6s-2.4-3.2-3.2-5.3c-.7-2.1-1.3-4.4-1.4-7-.3-2.5-.4-5.1-.3-7.7s.2-5 .4-7.2c.2-2.3.3-4.2.4-5.8 0-.9.1-2.6.3-5 .2-2.5.5-5.4.6-8.8.3-3.4.5-7 .9-10.9s.7-7.7 1.1-11.3.7-7 1.1-10.2c.2-3.2.5-5.7.8-7.4zm5.2 79.8c1.3-.1 2.3-.6 3.2-1.7s1.4-2.4 1.9-4.1c.4-1.6.5-3.3.5-5.2-.1-1.9-.5-3.7-1-5.3s-1.4-3.1-2.4-4.2-2.3-1.9-4-2.1c-.1.8-.2 1.9-.4 3.4-.2 1.4-.3 3.1-.5 4.7-.1 1.7-.2 3.4-.2 5.1s.1 3.3.2 4.7c.2 1.4.5 2.5.9 3.4.4 1 1 1.4 1.8 1.3z"/><path d="M638 66.1c.6-1.2 1.5-1.9 2.5-2.3s2-.4 2.9-.1 1.6.8 2.2 1.5c.5.7.7 1.6.5 2.6l-4.4 46.8c2-.2 4-.5 5.9-1.3s3.8-1.5 5.6-2.6 3.5-2.3 5.1-3.6c1.6-1.4 3.2-2.6 4.5-4.1.7-.4 1.4-.3 2 .5.6.6 1 1.5 1.3 2.5s.3 2.1.2 3.2c-.2 1.1-.6 1.9-1.4 2.3-1 .7-2.1 1.6-3.3 2.5s-2.4 1.8-3.7 2.6-2.4 1.5-3.6 2.3c-1.2.6-2.2 1.1-3.1 1.4 1.4 1.5 2.5 3.5 3.3 5.9s1.3 5 1.4 7.7c.2 2.7.1 5.4-.4 8.1s-1.2 5-2.3 7.1-2.5 3.7-4.2 4.9-3.8 1.6-6.2 1.3c-2.3-.3-4.1-1.2-5.5-2.6s-2.4-3.2-3.2-5.3c-.7-2.1-1.3-4.4-1.4-7-.3-2.5-.4-5.1-.3-7.7s.2-5 .4-7.2c.2-2.3.3-4.2.4-5.8 0-.9.1-2.6.3-5 .2-2.5.5-5.4.6-8.8.3-3.4.5-7 .9-10.9s.7-7.7 1.1-11.3.7-7 1.1-10.2c0-3.2.4-5.7.8-7.4zm5.1 79.8c1.3-.1 2.3-.6 3.2-1.7.8-1.1 1.4-2.4 1.9-4.1.4-1.6.5-3.3.5-5.2-.1-1.9-.5-3.7-1-5.3s-1.4-3.1-2.4-4.2-2.4-1.9-4-2.1c-.1.8-.2 1.9-.4 3.4-.2 1.4-.3 3.1-.5 4.7s-.2 3.4-.2 5.1.1 3.3.2 4.7.5 2.5.9 3.4c.3 1 1 1.4 1.8 1.3z"/><path d="M684 91.2c-.1 2.3-.5 4.7-1.3 7.1-.7 2.3-1.9 4.5-3.3 6.4s-3.2 3.4-5.3 4.6-4.5 1.6-7.1 1.4c.1 1.4.2 2.9.5 4.2.3 1.4.7 2.5 1.4 3.5.6 1 1.5 1.6 2.6 2.1 1.1.4 2.4.4 4.1-.2 1.6-.5 3.2-1.3 4.7-2.3 1.5-1.1 2.9-2.3 4.1-3.7s2.3-2.9 3.1-4.5c.8-1.5 1.4-3.2 1.8-4.6.2-.8.6-1.3 1.4-1.4s1.4-.2 2.3.1c.8.3 1.4.6 2 1.3.5.6.7 1.3.5 2-1 2.7-2.1 5.1-3.1 7.3-1 2.1-2.2 4-3.3 5.6-1.3 1.6-2.6 3-4.1 4.1-1.5 1.2-3.3 2.1-5.4 2.8-2.8 1-5.3 1.4-7.7 1.3-2.3-.1-4.4-.7-6.1-1.9s-3.2-2.7-4.1-4.8c-1-2.1-1.6-4.6-1.7-7.6-.1-1.4-.1-3.2-.1-5.1 0-2 .2-4.1.4-6.3.2-2.3.6-4.4 1.2-6.7s1.3-4.3 2.1-6.3c.9-2 2-3.7 3.3-5.1 1.4-1.4 3-2.5 4.9-3.2 1.6-.5 3.2-.8 4.7-.6s2.9.6 4.1 1.4 2.2 2.1 2.9 3.6c.2 1.5.5 3.3.5 5.5zm-9-1.8c-.6-.5-1.3-.5-2-.1-.6.4-1.3.9-1.8 1.8-.5.8-1.1 1.8-1.4 2.9-.5 1.2-.8 2.3-1.1 3.5s-.5 2.3-.6 3.4c-.2 1.1-.2 2-.1 2.6 2.2-.5 3.9-1.4 5.1-2.7s2.2-2.8 2.6-4.4c.5-1.5.6-3 .5-4.4 0-1.3-.4-2.2-1.2-2.6z"/><path d="M712.4 91.2c-.1 2.3-.5 4.7-1.3 7.1-.7 2.3-1.9 4.5-3.3 6.4s-3.2 3.4-5.3 4.6-4.5 1.6-7.1 1.4c.1 1.4.2 2.9.5 4.2.3 1.4.7 2.5 1.4 3.5.6 1 1.5 1.6 2.6 2.1 1.1.4 2.4.4 4.1-.2 1.6-.5 3.2-1.3 4.7-2.3 1.5-1.1 2.9-2.3 4.1-3.7s2.3-2.9 3.1-4.5c.8-1.5 1.4-3.2 1.8-4.6.2-.8.6-1.3 1.4-1.4s1.4-.2 2.3.1c.8.3 1.4.6 2 1.3.5.6.7 1.3.5 2-1 2.7-2.1 5.1-3.1 7.3-1 2.1-2.2 4-3.3 5.6-1.3 1.6-2.6 3-4.1 4.1-1.5 1.2-3.3 2.1-5.4 2.8-2.8 1-5.3 1.4-7.7 1.3-2.3-.1-4.4-.7-6.1-1.9s-3.2-2.7-4.1-4.8c-1-2.1-1.6-4.6-1.7-7.6-.1-1.4-.1-3.2-.1-5.1 0-2 .2-4.1.4-6.3.2-2.3.6-4.4 1.2-6.7s1.3-4.3 2.1-6.3c.9-2 2-3.7 3.3-5.1 1.4-1.4 3-2.5 4.9-3.2 1.6-.5 3.2-.8 4.7-.6s2.9.6 4.1 1.4 2.2 2.1 2.9 3.6c.1 1.5.5 3.3.5 5.5zm-8.9-1.8c-.6-.5-1.3-.5-2-.1-.6.4-1.3.9-1.8 1.8-.5.8-1.1 1.8-1.4 2.9-.5 1.2-.8 2.3-1.1 3.5s-.5 2.3-.6 3.4c-.2 1.1-.2 2-.1 2.6 2.2-.5 3.9-1.4 5.1-2.7s2.2-2.8 2.6-4.4c.5-1.5.6-3 .5-4.4 0-1.3-.5-2.2-1.2-2.6z"/></g></svg>