<svg fill="none" height="200" viewBox="0 0 750 200" width="750" xmlns="http://www.w3.org/2000/svg"><path d="m0 0h750v200h-750z" fill="#fff"/><g clip-rule="evenodd" fill-rule="evenodd"><path d="m0 0h750v200h-750z" fill="#ff813f"/><path d="m166.1 50.9v-2.7c0-1.5-1.3-2.8-2.8-2.8h-.9c-1.5 0-2.8 1.3-2.8 2.8v2.8h-2.8c-1.5 0-2.8 1.3-2.8 2.8v.9c0 1.5 1.3 2.8 2.8 2.8h2.8v2.8c0 1.5 1.3 2.8 2.8 2.8h.9c1.5 0 2.8-1.3 2.8-2.8v-2.8h2.8c1.5 0 2.8-1.3 2.8-2.8v-.9c0-1.5-1.3-2.8-2.8-2.8z" fill="#fd0"/><path d="m106.5 65.1-29.1-.2 14.3 90.6h34.7l14.3-90.6z" fill="#ff9100"/><path d="m106.5 65.1-29.1-.2 14.3 90.6h27.5l14.2-90.6z" fill="#fd0"/><path d="m69.1 64.9h74.9v-8.4h-74.9z" fill="#fff"/><path d="m69.1 64.9h74.9v-8.4h-74.9z" stroke="#000" stroke-width="4.319"/><path d="m129.5 43h-46.3l-5.5 12.6h57.2z" fill="#fff"/><path d="m129.455 43h-46.3l-5.4 12.6h57.2z" stroke="#050505"/><path d="m106.455 65.1-34.2-.2 14.2 90.6h40.1l14.2-90.6z" stroke="#000"/><path d="m141.7 90.5h-70.8l6.4 36 29-.3 29 .3z" fill="#fff"/><path d="m141.7 90.5h-70.8l6.4 36 29-.3 29 .3z" stroke="#000" stroke-width="4.319"/><path d="m44.5 84.9c4.1421 0 7.5-3.3578 7.5-7.5 0-4.1421-3.3579-7.5-7.5-7.5s-7.5 3.3579-7.5 7.5c0 4.1422 3.3579 7.5 7.5 7.5z" stroke="#eee" stroke-width="6.958"/><path d="m155.4 114.3c2.761 0 5-2.239 5-5s-2.239-5-5-5-5 2.239-5 5 2.239 5 5 5z" fill="#eee"/><path d="m61.5 143.1c2.7614 0 5-2.239 5-5s-2.2386-5-5-5-5 2.239-5 5 2.2386 5 5 5z" fill="#ff813f"/><path d="m207.6 63.6194c-.9.4-1.4 1.3-1.8 2.7-.15 2.15-.325 4.325-.5 6.5v.0001c-.175 2.1749-.35 4.3499-.5 6.4999-.144 1.6204-.275 3.2537-.407 4.9-.235 2.9257-.473 5.8924-.793 8.9-.244 2.2981-.441 4.5722-.637 6.8342-.204 2.3644-.407 4.7154-.663 7.0654-.227 2.092-.413 4.142-.596 6.15-.218 2.41-.431 4.76-.704 7.05.2 1.3.6 2.3 1.1 3 .6.8 1.3 1.2 2 1.3s1.5 0 2.3-.4 1.6-1.1 2.2-2.1c1.8 1 4 1.7 6.3 2s4.7.3 7.1 0c2.3-.3 4.8-.9 7.1-1.7 2.3-.9 4.5-1.9 6.4-3.2 1.9-1.2 3.5-2.7 4.9-4.3 1.3-1.6 2.1-3.3 2.6-5.2s.6-3.9.4-5.8c-.1-1.9-.7-3.7-1.4-5.2996-.8-1.6-1.8-3-3.1-4.3s-2.8-2.2-4.5-2.7c.9-.6 1.6-1.5 2.3-2.9.7-1.3 1.4-2.8 1.9-4.3.6-1.5.9-3.2 1.1-4.7.2-1.6.2-2.9-.2-4.1-.8-2.9-2.1-5.1-3.8-6.7-1.8-1.6-3.7-2.7-6-3.3-2.4-.6-4.8-.8-7.6-.4s-5.6 1.1-8.5 2.1c0-.2 0-.4.1-.7s.1-.5.1-.8c0-.6-.4-1.3-1.1-1.8s-1.5-.8-2.4-.9-1.8.2-2.7.6zm6.4 53.4996c-1.9-.4-3.4-1-4.8-1.9l1.6-15.3996c1.3-.4 3-.9 5.1-1.4 2.1-.6 4.2-.9 6.4-1.1 2.1-.2 4.2-.2 6.2.1 1.9.3 3.4.9 4.6 1.9.4.3333.711.7556 1.022 1.1776.156.211.311.422.478.622.4.7.7 1.4.8 2.1.3 2-.1 3.8-.9 5.4-.9 1.6-2.1 3-3.5 4.2-1.5 1.2-3.2 2.2-5.2 2.9-1.9.8-3.9 1.2-5.9 1.5-2.1.3-4 .2-5.9-.1zm-2.6-26.4996c.4 0 1 0 2.1-.1l.33-.0298c1.01-.091 2.109-.19 3.37-.3702 1.4-.2 2.9-.5 4.5-.9 1.5-.4 3.1-.9 4.4-1.6 1.4-.7 2.5-1.5 3.5-2.5s1.5-2.3 1.7-3.7c.3-1.8.1-3.3-.5-4.5-.5-1.2-1.3-2.1-2.3-2.8-1.1-.6-2.3-1-3.7-1.2s-2.8-.1-4.2.1-2.9.5-4.2 1-2.6 1-3.6 1.6zm39.6-7.7c-.9.4-1.7 1.2-2.3 2.4-.051.2212-.099.4452-.148.6742-.24 1.1166-.505 2.349-1.252 3.9258-.241.9637-.446 1.9637-.658 3-.14.6842-.283 1.3842-.442 2.1-.4 1.8-.7 3.5-1 5.1996-.2 1.6-.4 3.1-.6 4.4-.2 1-.3 2.2-.4 3.6-.1 1.3-.2 2.9-.2 4.5s.1 3.3.4 4.8.7 2.9 1.3 4.3c.6 1.3 1.5 2.4 2.6 3.2 1.1.9 2.5 1.3 4.2 1.4s3.2 0 4.5-.4c1.2-.3 2.4-.9 3.5-1.6 1.1-.8 2-1.7 2.9-2.7.173-.211.346-.419.518-.626.724-.869 1.436-1.724 2.082-2.774.8 1.8 1.8 3.1 3.1 4.1s2.7 1.6 4.1 1.8 2.9 0 4.3-.6c1.5-.6 2.8-1.6 4-3 .9-.9 1.6-1.9 2.3-3.1.7-1.1 1.4-2.2 2-3.4.425-.708.75-1.466 1.081-2.239.136-.319.273-.64.419-.961.388-.854.656-1.588.897-2.248.069-.19.136-.373.203-.552.4-1.2.4-2.3 0-3.2s-1-1.5-1.7-1.9-1.5-.5-2.3-.2c-.8.2-1.4.9-1.9 1.9-1.4 4-2.7 6.9-3.9 8.7s-2.6 2.6-4.1 2.3c-.7-.3-1.1-1-1.3-2s-.3-2.3-.2-3.8c0-1.5.2-3.2.5-5.1.045-.272.091-.55.137-.831.259-1.577.539-3.287.963-5.0686.281-1.1248.531-2.2496.784-3.3922.198-.889.397-1.7888.616-2.7078.324-1.3601.606-2.6782.873-3.9272.145-.6795.286-1.3386.427-1.9728 0-1.6-.5-2.9-1.4-3.8-1-.8-2.3-1.2-3.9-1-1.1.4-1.9 1.1-2.5 1.8-.553.6454-.851 1.5459-1.208 2.623-.03.0911-.061.1834-.092.277-.116.3482-.232.9321-.387 1.7126-.112.5646-.245 1.2319-.413 1.9874-.3 1.8-.8 4-1.4 6.3-.6 2.5-1.3 4.8996-2.1 7.4996s-1.7 4.9-2.7 7c-.9 2-2 3.7-3.2 5-1.2 1.2-2.4 1.8-3.8 1.5-.7-.1-1.2-.9-1.4-2.3s-.3-3.1-.1-5.2c.1-2 .3-4.4.8-6.8.4-2.5.8-4.6996 1.3-6.9996.12-.5511.234-1.0792.344-1.5871.348-1.6119.652-3.0202.956-4.3129.153-.6494.276-1.2258.382-1.7181.171-.7965.294-1.3729.418-1.6819 0-1.3-.3-2.4-.9-3.2-.7-.8-1.4-1.4-2.3-1.5s-1.8 0-2.7.4z" fill="#fff"/><path d="m348.769 120.452c-.089.613-.179 1.236-.269 1.867-.1 1 .3 1.8.8 2.1.8.6 1.8 1 2.9 1.1s2.1 0 3.1-.5c.9-.4 1.4-1.2 1.6-2.4.026-.269.051-.543.077-.822.178-1.895.374-3.998.723-6.178.3-2.4.8-5 1.4-7.4.504-2.016 1.079-3.892 1.665-5.804.111-.364.223-.728.335-1.096.8-2.2996 1.6-4.1996 2.5-5.8996.9-1.8 1.9-3.1 2.9-4.1s2-1.5 3.1-1.5c1.4 0 2.4.6 3.1 1.8s1.2 2.7 1.5 4.6c.4 1.8.5 3.7996.5 6.0996s-.1 4.4-.3 6.5c-.1 2.1-.3 3.9-.5 5.5-.17 1.363-.341 2.363-.449 3-.019.111-.036.211-.051.3 0 1.1.5 2 1.3 2.6.9.7 1.8 1.1 2.8 1.2 1.1.2 2 0 2.9-.5s1.3-1.3 1.5-2.5c.6-3.4 1.2-6.8 2-10.2s1.7-6.5 2.8-9.1996c1.1-2.7 2.2-5 3.5-6.7s2.7-2.6 4.1-2.6c.7 0 1.3.5 1.7 1.5s.6 2.4.6 4.2c0 1.3122-.176 2.5365-.362 3.8376-.013.0871-.025.1746-.038.2624-.022.1547-.044.3106-.066.4675-.179 1.2631-.367 2.5871-.634 3.8321-.089.624-.198 1.288-.309 1.964-.138.842-.28 1.705-.391 2.536-.3 1.6-.4 3.2-.4 4.9 0 1.2.1 2.6.4 4.1s.8 3 1.4 4.4c.6 1.3 1.5 2.5 2.7 3.5 1.2.9 2.6 1.4 4.4 1.4 2.7 0 5-.5 7.1-1.7s3.9-2.6 5.3-4.5c1.4-1.8 2.8-3.9 3.7-6.2s1.8-4.6 2.3-6.9c.1-1 0-1.9-.5-2.6-.4-.7-1-1.2-1.7-1.5-.7-.4-1.4-.3-2.1-.2s-1.2.6-1.6 1.4c-.082.184-.171.384-.269.601-.38.846-.874 1.946-1.431 3.299-.517 1.257-1.144 2.404-1.799 3.603-.231.423-.466.854-.701 1.297-.9 1.7-2 3-3.2 4.1s-2.4 1.6-3.7 1.2c-.8-.2-1.2-1-1.3-2.6s0-3.5.3-5.8c.177-1.412.319-2.825.467-4.299.103-1.03.21-2.09.333-3.201.3-2.6996.5-5.2996.5-7.6996 0-2.1-.4-4.1-1.2-6.1-.7-2-1.8-3.6-3.2-4.9-1.5-1.3-3.1-2.1-4.9-2.6s-3.8-.2-5.9.8c-2.1.9-3.7 2.3-5 4.1-1.2 1.8-2.4 3.7-3.4 5.7-.3-1.5-.9-2.9-1.6-4.2s-1.6-2.4-2.7-3.4-2.2-1.8-3.6-2.3c-1.2-.5-2.7-.8-4.1-.8s-2.7.3-3.9.8c-1.1.6-2.2 1.3-3.2 2.1-1 .9-1.9 1.8-2.7 2.9-.301.4733-.621.9465-.935 1.4117-.416.6163-.823 1.2185-1.165 1.7883-.161-.9689-.258-1.8726-.342-2.6585-.019-.1874-.039-.3682-.058-.5415-.1-.9-.3-1.7-.6-2.3s-.8-1-1.3-1.4c-.6-.3-1.4-.5-2.4-.5-.5 0-1 .2-1.5.4-.141.0847-.282.1614-.421.2369-.353.1919-.692.376-.979.6631-.4.4-.7.9-.9 1.4s-.3 1.2-.2 1.9c0 .5.2 1.2.4 1.9s.4 1.7.6 2.9c.2 1.1.4 2.5.5 4.2.1 1.6.1 3.5996.1 6.0996s-.2 5.3-.5 8.5c-.17 2.804-.629 5.969-1.131 9.433zm-62.669-35.1326c.5-1.2 1.3-1.9 2.3-2.2 1.1-.4 2.1-.4 3.1 0 1 .3 1.8.9 2.3 1.8s.5 2.1 0 3.4c-.4 1.2-.8 2.5-1.2 4.1-.353 1.1311-.607 2.3621-.867 3.6224-.107.5225-.216 1.0501-.333 1.5776-.38 1.7103-.58 3.5106-.77 5.2296l-.03.27c-.2 1.9-.3 3.6-.2 5.1s.3 2.9.6 3.9 1 1.7 1.8 1.9c1.8.1 3.5-.3 5.1-1.1 1.5-.8 3.1-2 4.4-3.4 1.4-1.4 2.6-3.2 3.7-5 1.2-1.9 2.2-3.8 3.1-5.8996.9-2 1.7-4 2.4-5.9s1.4-3.7 2-5.2c.6-1.2 1.4-2 2.3-2.4s1.8-.5 2.7-.4 1.6.7 2.3 1.5.9 1.9.9 3.2c-.8 2.5-1.5 5-2 7.7s-.7 5.0996-.9 7.6996c-.1 1.8-.1 3.5-.1 5.3 0 1.7.1 3.3.4 4.9.112-.067.24-.139.38-.219.485-.276 1.122-.638 1.82-1.181.384-.298.785-.596 1.197-.902.555-.412 1.129-.839 1.703-1.298 1-.8 2-1.8 2.9-2.8s1.7-2.1 2.3-3.2c.9-1.2 1.9-1.6 2.8-1.5s1.7.5 2.3 1.2 1 1.5 1.2 2.5 0 1.8-.5 2.5c-1.7 2.9-3.9 5.6-6.4 8.2-2.6 2.6-5.9 4.7-9.9 6.4.2 2 .2 4.3 0 6.9s-.5 5.2-1 7.9-1.3 5.2-2.2 7.7c-.9 2.4-2.1 4.6-3.5 6.3s-3.2 3-5 3.7-4.1.7-6.7-.1c-2.4-.7-4.2-2-5.3-3.7s-1.6-3.8-1.6-6.1.5-4.9 1.3-7.5c.9-2.7 2.2-5.3 3.7-7.9s3.4-5 5.5-7.4c2.1-2.3 4.3-4.2 6.7-5.9.1-1.2.1-2.2.1-3.2s0-2 .1-3.1c-1.2 1.5-2.5 3-4.1 4.3-1.5 1.4-3.2 2.6-5.1 3.6-1.8 1-3.8 1.7-5.8 2.1s-4.1.3-6.2-.3c-2-.5-3.5-1.6-4.7-3.1s-2-3.3-2.5-5.4-.7-4.4-.7-6.9c.1-2.5.3-5 .6-7.6996.4-2.5.9-5 1.6-7.5.5-2 1.2-4.2 2-6.1zm24.7 44.2996c-1.1.9-2.1 2-3.1 3.3s-1.9 2.7-2.6 4.2c-.8 1.4-1.4 2.9-2 4.4-.5 1.4-.9 2.8-1.1 4s-.2 2.2 0 3 .6 1.3 1.4 1.4c.9.2 1.7-.2 2.5-1.1s1.4-2 2.1-3.4 1.2-3 1.6-4.7c.077-.326.154-.649.23-.97.32-1.345.628-2.637.87-3.93.276-1.381.383-2.678.476-3.811l.024-.289c0-1.1-.1-1.8-.4-2.1z" fill="#fff"/><path d="m549.5 97.1193c0 .1.1.1.2.1l.7-9.2c.3-1.2.1-2.3-.5-3.2s-1.5-1.4-2.6-1.6c-1.4-2-3.2-3.1-5.5-3.2-2.2-.1-4.7.7-7.1 2.3-1.5 1.1-2.8 2.6-4 4.5-1.1 1.9-2.1 4-2.8 6.3-.7 2.4-1.2 4.8-1.5 7.3997-.3 2.6-.4 5.2-.2 7.6s.6 4.7 1.3 6.9 1.6 4 2.9 5.4c1 1.3 2.1 2.2 3.5 2.8 1.3.6 2.7.9 4.1 1.1s2.7.1 4.2-.2 2.8-.6 4.1-1.1c1.6-.6 3.3-1.4 5-2.3 1.8-1 3.4-2 5-3.4s3.1-2.8 4.5-4.6 2.6-3.6 3.5-5.9c.3-1.1.3-1.9-.2-2.6s-1.1-1.2-1.9-1.5c-.8-.4-1.6-.5-2.4-.3-.8.1-1.3.6-1.7 1.3-.9 2.4-1.9 4.4-3.2 5.9s-2.5 2.8-3.9 3.8-2.6 1.8-4 2.3c-1.2.6-2.5.9-3.5 1.1-1.2.3-2.3.3-3.5.1-1.1-.2-2.2-.7-3.1-1.6-.7-.7-1.3-1.8-1.7-3.2-.4-1.5-.6-3.1-.7-5s0-3.9.2-5.9c.2-2.0997.6-3.9997 1.1-5.7997.6-1.8 1.2-3.5 2-4.9.8-1.5 1.7-2.5 2.8-3.1.7.1 1 .5 1.2 1.1.1.7.2 1.4.1 2.3v.0002c-.1.9-.2 1.7999-.4 2.6998-.013.1144-.025.2271-.038.3379-.086.7621-.162 1.4383-.162 1.9621.2 1.3.7 2.3 1.4 3 .7.8 1.5 1.1997 2.3 1.2997.9.1 1.7-.1 2.5-.5997.8-.4 1.5-1.2 2-2.4zm-110.2-6.1c-.1 2.3-.5 4.7-1.3 7.1-.7 2.2997-1.9 4.4997-3.3 6.3997s-3.2 3.4-5.3 4.6-4.5 1.6-7.1 1.4l.01.136c.097 1.361.2 2.806.49 4.064.3 1.4.7 2.5 1.4 3.5.6 1 1.5 1.6 2.6 2.1 1.1.4 2.4.4 4.1-.2 1.6-.5 3.2-1.3 4.7-2.3 1.5-1.1 2.9-2.3 4.1-3.7s2.3-2.9 3.1-4.5c.8-1.5 1.4-3.2 1.8-4.6.2-.8.6-1.3 1.4-1.4l.13-.016c.737-.093 1.319-.167 2.17.116.8.3 1.4.6 2 1.3.5.6.7 1.3.5 2-.963 2.601-2.019 4.923-2.989 7.056l-.111.244c-1 2.1-2.2 4-3.3 5.6-1.3 1.6-2.6 3-4.1 4.1-1.5 1.2-3.3 2.1-5.4 2.8-2.8 1-5.3 1.4-7.7 1.3-2.3-.1-4.4-.7-6.1-1.9s-3.2-2.7-4.1-4.8c-1-2.1-1.6-4.6-1.7-7.6-.1-1.4-.1-3.2-.1-5.1 0-1.909.182-3.909.373-6l.027-.3c.2-2.3.6-4.3997 1.2-6.6997s1.3-4.3 2.1-6.3c.9-2 2-3.7 3.3-5.1 1.4-1.4 3-2.5 4.9-3.2 1.6-.5 3.2-.8 4.7-.6s2.9.6 4.1 1.4 2.2 2.1 2.9 3.6c.043.3217.095.6571.149 1.0073.2 1.283.43 2.7645.351 4.4927zm-8.9-1.8c-.6-.5-1.3-.5-2-.1-.6.4-1.3.9-1.8 1.8-.5.8-1.1 1.8-1.4 2.9-.5 1.2-.8 2.3-1.1 3.5s-.5 2.3-.6 3.3997c-.2 1.1-.2 2-.1 2.6 2.2-.5 3.9-1.4 5.1-2.7 1.3-1.3997 2.2-2.7997 2.6-4.3997.5-1.5.6-3 .5-4.4-.1-1.3-.5-2.2-1.2-2.6zm37.4 31.9997c1.7 1.6 3.9 2.4 6.8 2.4.6 0 1.2-.075 1.8-.15.6-.075 1.2-.15 1.8-.15 1.1-.4 2.2-1.1 3.2-1.8l.214-.171c.915-.73 1.736-1.386 2.386-2.129.447-.446.8-.862 1.112-1.229.246-.29.467-.55.688-.771.3 1.7.9 3.1 1.6 4.3.8 1.2 1.6 2.2 2.6 2.9s2 1.2 3.1 1.6c1.1.3 2.1.5 3.1.5 2.2 0 4.3-.8 6.2-2.3 2-1.4 3.7-3.3 5.2-5.5s2.8-4.5 3.8-6.9 1.6-4.6 2-6.5c.3-.8.3-1.5-.2-2.3-.4-.7-1-1.3-1.8-1.7s-1.5-.5-2.3-.3c-.7.2-1.2.9-1.6 2.2-.2 1.4-.7 2.9-1.3 4.7-.6 1.7-1.4 3.4-2.4 5-1 1.7-2 3-3.3 4s-2.6 1.5-4 1.4c-1.1-.1-1.9-.7-2.4-1.8-.4-1-.7-2.4-.7-4.1s.1-3.6.5-5.7.8-4.1 1.3-6.2c.25-.9997.5-1.9747.75-2.9497s.5-1.95.75-2.95c.351-1.169.599-2.1671.825-3.0744v-.0001c.16-.6449.309-1.2438.475-1.8255.3-1.2.2-2.2-.4-3-.6-.9-1.4-1.4-2.3-1.8s-1.9-.4-2.8-.3-1.5.7-1.8 1.5c-2.8-2.5-5.5-3.7-8-3.9-2.6-.2-4.9.3-7.1 1.7-2.2 1.3-4.1 3.2-5.8 5.7-1.8 2.4-3.1 5.1-4.1 8.1-1.1 2.9997-1.7 5.8997-2 8.9997s0 5.9.6 8.4c.7 2.4 1.8 4.5 3.5 6.1zm6.7-6.4c1.5.2 2.8-.2 4-1.1 1.2-.8 2.2-2 3.1-3.4s1.6-3.1 2.3-4.9c.6-1.8 1.1-3.5 1.5-5.2.294-1.247.533-2.3868.759-3.4583v-.0001c.081-.3888.161-.7686.241-1.1413.249-1.1603.36-1.9772.448-2.6215v-.002c.018-.1323.035-.2573.052-.3765-1.5-1.3-2.9-1.9-4.2-2s-2.5.4-3.6 1.1c-1.1.8-2.1 1.9-2.9 3.2-.8 1.4-1.5 3-2.2 4.6-.6 1.6997-1 3.2997-1.3 5.0997s-.5 3.3-.4 4.8c0 1.4.3 2.6.6 3.6.2 1.1.8 1.7 1.6 1.8z" fill="#fff"/><path d="m580 82.3194c2.2-.7 4.1-.8 5.7-.5s3 1.3 4.1 2.4c1.1 1.3 2 2.7 2.6 4.5s1.1 3.7 1.3 5.8c.1.9.2 2 .2 3.1 0 1.2 0 2.3-.1 3.3996-.1 1.2-.2 2.3-.3 3.2-.1 1-.3 2-.5 2.8 1.2-.1 2.2-.2 3.1-.5.205-.068.405-.131.6-.193.66-.208 1.26-.398 1.8-.707.282-.161.563-.305.851-.453.428-.22.871-.448 1.349-.747.467-.333.933-.577 1.4-.822.233-.122.467-.244.7-.378.9-.5 1.6-.5 2.3-.2.6.4 1 .9 1.2 1.6s.3 1.4.2 2.3-.5 1.4-1 2c-2.3 2.1-4.7 3.6-7.4 4.5s-5.4 1.4-8.2 1.4c-1.8 3.2-4.1 5.7-7 7.4s-6 2.5-9.4 2.6c-3.2.1-5.8-.6-7.9-1.9-2.2-1.4-3.9-3.1-5.1-5.1-1.3-2.1-2.1-4.5-2.5-7.2s-.4-5.4 0-8.2c.4-2.7996 1.2-5.3996 2.4-7.9996s2.7-4.9 4.6-6.8 4.1-3.4 6.7-4.4c2.1-1 5-1.4 8.3-.9zm-5.2 8.1c-1.5.4-2.9 1.2-4.1 2.5-1.3 1.4-2.3 3-3.2 4.8-.9 1.9-1.5 3.8996-1.9 5.9996-.4 2.2-.5 4.2-.1 6.1.3 1.9 1 3.6 2.2 5s2.8 2.3 4.9 2.8c.7.2 1.6.1 2.5-.2s1.9-.7 2.8-1.3 1.7-1.3 2.4-2c.7-.8 1.3-1.5 1.6-2.3-1.4-.8-2.4-1.8-3.3-2.9-.9-1.2-1.7-2.3-2.3-3.7-1-2.3-1.6-4.7-1.8-7.1996-.4-2.8-.2-5.2.3-7.6zm6.5 3.6c.2-1.4.9-2.5 2.3-3.3.5-.2 1-.1 1.3.4.349.5229.545 1.1218.789 1.8629.036.1092.072.2215.111.3371.2.9.4 1.9.5 3.2.004.0463.008.0924.012.1384.095 1.1466.184 2.2079.088 3.3612-.1 1.1-.2 2.1-.4 3-.1.8-.3 1.3-.6 1.6-.5-.3-1.2-1-1.9-2.2-.8-1.2-1.3-2.5996-1.8-3.9996-.4-1.5-.6-3-.4-4.4z" fill="#fff"/><path d="m604.9 63.6194c-1 .4-1.9 1.1-2.5 2.3-.3 1.7-.6 4.2-.8 7.4-.241 1.9274-.446 3.9274-.658 6-.14 1.3684-.283 2.7684-.442 4.2-.227 2.0386-.421 4.1414-.62 6.2902-.152 1.6456-.307 3.3183-.48 5.0098-.243 2.3668-.412 4.6232-.574 6.7916-.106 1.404-.208 2.772-.326 4.108-.079 2.676-.281 5.042-.461 7.147-.049.57-.096 1.121-.139 1.653-.2 2.4-.3 4.1-.3 5-.019.309-.039.628-.058.959-.084 1.388-.181 2.984-.342 4.841-.2 2.2-.3 4.6-.4 7.2s0 5.2.3 7.7c.1 2.6.7 4.9 1.4 7 .8 2.1 1.8 3.9 3.2 5.3s3.2 2.3 5.5 2.6c2.4.3 4.5-.1 6.2-1.3s3.1-2.8 4.2-4.9 1.8-4.4 2.3-7.1.6-5.4.4-8.1c-.1-2.7-.6-5.3-1.4-7.7s-1.9-4.4-3.3-5.9c.9-.3 1.9-.8 3.1-1.4 1.2-.8 2.3-1.5 3.6-2.3s2.5-1.7 3.7-2.6c.465-.348.915-.697 1.35-1.034.688-.533 1.338-1.037 1.95-1.466.8-.4 1.2-1.2 1.4-2.3.1-1.1.1-2.2-.2-3.2s-.7-1.9-1.3-2.5c-.6-.8-1.3-.9-2-.5-.954 1.102-2.071 2.041-3.23 3.017-.42.353-.845.711-1.27 1.083-1.6 1.3-3.3 2.5-5.1 3.6s-3.7 1.9-5.6 2.6c-1.9.8-3.9 1.1-5.9 1.3l4.4-46.7996c.2-1 0-1.9-.5-2.6-.6-.7-1.3-1.2-2.2-1.5s-1.9-.3-2.9.1zm5.9 80.3996c-.9 1.1-1.9 1.6-3.2 1.7-.8.1-1.4-.3-1.8-1.3-.4-.9-.7-2-.9-3.4-.1-1.4-.2-3-.2-4.7s.1-3.4.2-5.1c.092-.737.163-1.495.232-2.235.081-.867.16-1.709.268-2.465.126-.945.212-1.731.284-2.384.042-.383.079-.72.116-1.016 1.7.2 3 1 4 2.1s1.9 2.6 2.4 4.2.9 3.4 1 5.3c0 1.9-.1 3.6-.5 5.2-.5 1.7-1 3-1.9 4.1z" fill="#fff"/><path d="m630.5 63.6194c-1 .4-1.9 1.1-2.5 2.3-.4 1.7-.8 4.2-.8 7.4-.241 1.9274-.446 3.9274-.658 6-.14 1.3684-.283 2.7684-.442 4.2-.227 2.0386-.421 4.1414-.62 6.2902-.152 1.6456-.307 3.3183-.48 5.0098-.243 2.3668-.412 4.6232-.574 6.7916-.106 1.404-.208 2.772-.326 4.108-.079 2.676-.281 5.042-.461 7.147-.049.57-.096 1.121-.139 1.653-.2 2.4-.3 4.1-.3 5-.019.309-.039.628-.059.959-.083 1.388-.18 2.984-.341 4.841-.2 2.2-.3 4.6-.4 7.2s0 5.2.3 7.7c.1 2.6.7 4.9 1.4 7 .8 2.1 1.8 3.9 3.2 5.3s3.2 2.3 5.5 2.6c2.4.3 4.5-.1 6.2-1.3s3.1-2.8 4.2-4.9 1.8-4.4 2.3-7.1.6-5.4.4-8.1c-.1-2.7-.6-5.3-1.4-7.7s-1.9-4.4-3.3-5.9c.9-.3 1.9-.8 3.1-1.4 1.2-.8 2.3-1.5 3.6-2.3s2.5-1.7 3.7-2.6c.465-.348.915-.697 1.35-1.034.687-.533 1.337-1.037 1.95-1.466.8-.4 1.2-1.2 1.4-2.3.1-1.1.1-2.2-.2-3.2s-.7-1.9-1.3-2.5c-.6-.8-1.3-.9-2-.5-.955 1.102-2.071 2.041-3.23 3.017-.42.353-.845.711-1.27 1.083-1.6 1.3-3.3 2.5-5.1 3.6-1.467.897-3.001 1.528-4.547 2.164-.351.144-.702.289-1.053.436-1.9.8-3.9 1.1-5.9 1.3l4.4-46.7996c.2-1 0-1.9-.5-2.6-.6-.7-1.3-1.2-2.2-1.5s-1.9-.3-2.9.1zm5.8 80.3996c-.9 1.1-1.9 1.6-3.2 1.7-.8.1-1.5-.3-1.8-1.3-.4-.9-.8-2-.9-3.4s-.2-3-.2-4.7 0-3.5.2-5.1c.092-.737.163-1.495.232-2.235.081-.867.16-1.709.268-2.465.126-.945.212-1.731.284-2.384.042-.383.079-.72.116-1.016 1.6.2 3 1 4 2.1s1.9 2.6 2.4 4.2.9 3.4 1 5.3c0 1.9-.1 3.6-.5 5.2-.5 1.7-1.1 3-1.9 4.1z" fill="#fff"/><path d="m672.7 98.1194c.8-2.4 1.2-4.8 1.3-7.1 0-1.8898-.221-3.4845-.411-4.8473-.031-.2237-.061-.4412-.089-.6527-.7-1.5-1.7-2.8-2.9-3.6s-2.6-1.2-4.1-1.4-3.1.1-4.7.6c-1.9.7-3.5 1.8-4.9 3.2-1.3 1.4-2.4 3.1-3.3 5.1-.8 2-1.5 4-2.1 6.3s-1 4.3996-1.2 6.6996c-.009.101-.018.201-.027.3-.191 2.092-.373 4.092-.373 6 0 1.9 0 3.7.1 5.1.1 3 .7 5.5 1.7 7.6.9 2.1 2.4 3.6 4.1 4.8s3.8 1.8 6.1 1.9c2.4.1 4.9-.3 7.7-1.3 2.1-.7 3.9-1.6 5.4-2.8 1.5-1.1 2.8-2.5 4.1-4.1 1.1-1.6 2.3-3.5 3.3-5.6.037-.081.074-.162.111-.244.97-2.133 2.026-4.455 2.989-7.056.2-.7 0-1.4-.5-2-.6-.7-1.2-1-2-1.3-.851-.283-1.433-.209-2.17-.116-.043.005-.086.011-.13.016-.8.1-1.2.6-1.4 1.4-.4 1.4-1 3.1-1.8 4.6-.8 1.6-1.9 3.1-3.1 4.5s-2.6 2.6-4.1 3.7c-1.5 1-3.1 1.8-4.7 2.3-1.7.6-3 .6-4.1.2-1.1-.5-2-1.1-2.6-2.1-.7-1-1.1-2.1-1.4-3.5-.29-1.258-.393-2.703-.49-4.064-.004-.045-.007-.09-.01-.136 2.6.2 5-.2 7.1-1.4s3.9-2.7 5.3-4.6 2.6-4.1 3.3-6.3996zm-9.7-9c.7-.4 1.4-.4 2 .1.8.4 1.2 1.3 1.2 2.6.1 1.4 0 2.9-.5 4.4-.4 1.6-1.4 3.1-2.6 4.3996-1.2 1.3-2.9 2.2-5.1 2.7-.1-.6-.1-1.5.1-2.6.1-1.0996.3-2.1996.6-3.3996s.6-2.3 1.1-3.5c.3-1.1.9-2.1 1.4-2.9.5-.9 1.2-1.4 1.8-1.8z" fill="#fff"/><path d="m701.1 98.1194c.8-2.4 1.2-4.8 1.3-7.1 0-1.395-.161-2.6291-.304-3.728-.083-.6341-.159-1.2231-.196-1.772-.7-1.5-1.7-2.8-2.9-3.6s-2.6-1.2-4.1-1.4-3.1.1-4.7.6c-1.9.7-3.5 1.8-4.9 3.2-1.3 1.4-2.4 3.1-3.3 5.1-.8 2-1.5 4-2.1 6.3s-1 4.3996-1.2 6.6996c-.009.101-.018.201-.027.3-.191 2.092-.373 4.092-.373 6 0 1.9 0 3.7.1 5.1.1 3 .7 5.5 1.7 7.6.9 2.1 2.4 3.6 4.1 4.8s3.8 1.8 6.1 1.9c2.4.1 4.9-.3 7.7-1.3 2.1-.7 3.9-1.6 5.4-2.8 1.5-1.1 2.8-2.5 4.1-4.1 1.1-1.6 2.3-3.5 3.3-5.6.037-.081.074-.162.111-.244.97-2.133 2.026-4.455 2.989-7.056.2-.7 0-1.4-.5-2-.6-.7-1.2-1-2-1.3-.851-.283-1.433-.209-2.17-.116-.043.005-.086.011-.13.016-.8.1-1.2.6-1.4 1.4-.4 1.4-1 3.1-1.8 4.6-.8 1.6-1.9 3.1-3.1 4.5s-2.6 2.6-4.1 3.7c-1.5 1-3.1 1.8-4.7 2.3-1.7.6-3 .6-4.1.2-1.1-.5-2-1.1-2.6-2.1-.7-1-1.1-2.1-1.4-3.5-.29-1.258-.393-2.703-.49-4.064-.004-.045-.007-.09-.01-.136 2.6.2 5-.2 7.1-1.4s3.9-2.7 5.3-4.6 2.6-4.1 3.3-6.3996zm-9.6-9c.7-.4 1.4-.4 2 .1.7.4 1.2 1.3 1.2 2.6.1 1.4 0 2.9-.5 4.4-.4 1.6-1.4 3.1-2.6 4.3996-1.2 1.3-2.9 2.2-5.1 2.7-.1-.6-.1-1.5.1-2.6.1-1.0996.3-2.1996.6-3.3996s.6-2.3 1.1-3.5c.3-1.1.9-2.1 1.4-2.9.5-.9 1.2-1.4 1.8-1.8z" fill="#fff"/></g></svg>