<svg width="750" height="200" viewBox="0 0 750 200" fill="none" xmlns="http://www.w3.org/2000/svg">
<rect width="750" height="200" fill="black"/>
<rect width="750" height="200" fill="black"/>
<g clip-path="url(#clip0)">
<path d="M681.16 113.063C677.298 113.063 673.969 111.465 671.572 108.802C671.439 108.536 671.439 108.269 671.705 108.136L694.076 98.6828L700.601 95.8868C700.867 95.7536 700.867 95.6205 700.867 95.4873C698.736 86.3003 690.347 79.5099 680.494 79.9093C670.108 80.3088 661.452 88.6969 661.053 99.0823C660.52 110.666 669.708 120.252 681.293 120.252C689.682 120.252 696.872 115.06 699.935 107.737C700.068 107.47 699.935 107.204 699.669 107.204L693.144 106.006C693.011 106.006 692.744 106.006 692.744 106.272C690.347 110.266 686.086 113.063 681.16 113.063ZM681.16 87.2323C685.021 87.2323 688.483 88.9632 690.747 91.6261C690.88 91.8924 690.88 92.1587 690.614 92.2918C690.614 92.2918 669.042 101.479 668.776 101.612C668.51 101.745 668.243 101.479 668.243 101.346V100.281C668.11 92.9576 673.969 87.2323 681.16 87.2323Z" fill="white"/>
<path d="M660.121 80.5762H653.729C653.596 80.5762 653.463 80.7093 653.33 80.8425L642.943 111.333C642.677 111.998 641.878 111.998 641.612 111.333L631.226 80.8425C631.226 80.7093 631.092 80.5762 630.826 80.5762H624.435C624.168 80.5762 624.035 80.8425 624.035 81.1088L637.218 119.455C637.218 119.588 637.351 119.721 637.617 119.721H646.672C646.805 119.721 646.938 119.588 647.071 119.455L660.254 81.1088C660.52 80.8425 660.387 80.5762 660.121 80.5762Z" fill="white"/>
<path d="M618.043 80.5762H611.518C611.252 80.5762 611.119 80.7093 611.119 80.9756V119.321C611.119 119.588 611.252 119.721 611.518 119.721H618.043C618.309 119.721 618.442 119.588 618.442 119.321V80.9756C618.442 80.8425 618.309 80.5762 618.043 80.5762Z" fill="white"/>
<path d="M618.043 68.0596H611.518C611.252 68.0596 611.119 68.1927 611.119 68.459V74.9831C611.119 75.2494 611.252 75.3826 611.518 75.3826H618.043C618.309 75.3826 618.442 75.2494 618.442 74.9831V68.459C618.442 68.1927 618.309 68.0596 618.043 68.0596Z" fill="white"/>
<path d="M604.594 80.5755H597.27C597.137 80.5755 597.004 80.4424 597.004 80.3092V63.666C597.004 63.3997 596.871 63.2666 596.605 63.2666H590.08C589.814 63.2666 589.68 63.3997 589.68 63.666V80.3092C589.68 80.4424 589.547 80.5755 589.414 80.5755H582.224C581.957 80.5755 581.824 80.7086 581.824 80.9749V87.4991C581.824 87.7653 581.957 87.8985 582.224 87.8985H589.414C589.547 87.8985 589.68 88.0316 589.68 88.1648V119.321C589.68 119.587 589.814 119.72 590.08 119.72H596.605C596.871 119.72 597.004 119.587 597.004 119.321V88.1648C597.004 88.0316 597.137 87.8985 597.27 87.8985H604.594C604.86 87.8985 604.994 87.7653 604.994 87.4991V80.9749C604.994 80.8418 604.727 80.5755 604.594 80.5755Z" fill="white"/>
<path d="M561.85 113.063C553.861 113.063 547.603 105.873 549.067 97.6179C549.866 93.091 554.394 88.4309 558.921 87.4989C563.848 86.4337 568.508 88.1646 571.438 91.4933C571.571 91.6264 571.837 91.6264 571.97 91.4933C573.036 90.4281 576.365 87.0995 576.631 86.8332C576.764 86.7 576.764 86.4337 576.631 86.3006C572.769 82.0399 567.044 79.5102 560.785 79.7765C550.532 80.309 542.01 88.6972 541.477 98.9494C540.945 110.533 550.133 120.12 561.717 120.12C567.576 120.12 572.903 117.59 576.631 113.595C576.764 113.462 576.764 113.329 576.631 113.196C575.832 112.397 572.903 109.468 571.97 108.536C571.837 108.403 571.571 108.403 571.438 108.536C569.174 111.465 565.712 113.063 561.85 113.063Z" fill="white"/>
<path d="M518.308 113.063C514.446 113.063 511.117 111.465 508.721 108.802C508.587 108.536 508.587 108.269 508.854 108.136L531.224 98.6828L537.749 95.8868C538.015 95.7536 538.015 95.6205 538.015 95.4873C535.885 86.3003 527.496 79.5099 517.642 79.9093C507.256 80.3088 498.601 88.6969 498.201 99.0823C497.668 110.666 506.856 120.252 518.441 120.252C526.83 120.252 534.02 115.06 537.083 107.737C537.216 107.47 537.083 107.204 536.817 107.204L530.292 106.006C530.159 106.006 529.893 106.006 529.893 106.272C527.496 110.266 523.102 113.063 518.308 113.063ZM518.308 87.2323C522.169 87.2323 525.632 88.9632 527.895 91.6261C528.028 91.8924 528.028 92.1587 527.762 92.2918C527.762 92.2918 506.191 101.479 505.924 101.612C505.658 101.745 505.392 101.479 505.392 101.346V100.281C505.258 92.9576 511.117 87.2323 518.308 87.2323Z" fill="white"/>
<path d="M492.608 63.2666H486.084C485.817 63.2666 485.684 63.3997 485.684 63.666V119.321C485.684 119.587 485.817 119.72 486.084 119.72H492.608C492.875 119.72 493.008 119.587 493.008 119.321V63.666C493.008 63.3997 492.742 63.2666 492.608 63.2666Z" fill="white"/>
<path d="M478.361 63.2666H471.836C471.57 63.2666 471.436 63.3997 471.436 63.666V119.321C471.436 119.587 471.57 119.72 471.836 119.72H478.361C478.627 119.72 478.76 119.587 478.76 119.321V63.666C478.627 63.3997 478.494 63.2666 478.361 63.2666Z" fill="white"/>
<path d="M446.403 87.2327C453.593 87.2327 459.319 93.0911 459.319 100.148C459.319 107.204 453.46 113.063 446.403 113.063C439.346 113.063 433.487 107.204 433.487 100.148C433.487 93.0911 439.212 87.2327 446.403 87.2327ZM446.403 79.9097C435.218 79.9097 426.163 88.9636 426.163 100.148C426.163 111.332 435.218 120.386 446.403 120.386C457.588 120.386 466.643 111.332 466.643 100.148C466.643 88.9636 457.588 79.9097 446.403 79.9097Z" fill="white"/>
<path d="M409.252 113.063C401.262 113.063 395.004 105.873 396.469 97.6179C397.268 93.091 401.795 88.4309 406.322 87.4989C411.249 86.4337 415.91 88.1646 418.839 91.4933C418.972 91.6264 419.239 91.6264 419.372 91.4933C420.437 90.4281 423.766 87.0995 424.032 86.8332C424.166 86.7 424.166 86.4337 424.032 86.3006C420.171 82.0399 414.445 79.5102 408.187 79.7765C397.934 80.309 389.411 88.6972 388.879 98.9494C388.346 110.533 397.534 120.12 409.119 120.12C414.978 120.12 420.304 117.59 424.032 113.595C424.166 113.462 424.166 113.329 424.032 113.196C423.233 112.397 420.304 109.468 419.372 108.536C419.239 108.403 418.972 108.403 418.839 108.536C416.576 111.465 413.113 113.063 409.252 113.063Z" fill="white"/>
<path d="M343.073 79.9097C338.812 79.9097 333.885 82.5726 331.621 85.7681C331.488 86.0344 330.955 85.9012 330.955 85.6349V80.9748C330.955 80.8417 330.822 80.5754 330.556 80.5754H324.031C323.898 80.5754 323.632 80.7085 323.632 80.9748V100.281V119.454C323.632 119.587 323.765 119.853 324.031 119.853H330.556C330.689 119.853 330.955 119.72 330.955 119.454V100.281C330.955 92.9579 335.882 87.7652 342.939 87.7652C352.261 87.7652 355.057 93.8899 355.057 101.08V119.454C355.057 119.587 355.19 119.853 355.456 119.853H361.981C362.114 119.853 362.38 119.72 362.38 119.454V101.08C362.514 89.8956 357.187 79.9097 343.073 79.9097Z" fill="white"/>
<path d="M300.063 113.063C296.201 113.063 292.872 111.465 290.475 108.802C290.342 108.536 290.342 108.269 290.609 108.136L312.979 98.6828L319.504 95.8868C319.77 95.7536 319.77 95.6205 319.77 95.4873C317.64 86.3003 309.251 79.5099 299.397 79.9093C289.011 80.3088 280.355 88.6969 279.956 99.0823C279.423 110.666 288.611 120.252 300.196 120.252C308.585 120.252 315.775 115.06 318.838 107.737C318.971 107.47 318.838 107.204 318.572 107.204L312.047 106.006C311.914 106.006 311.647 106.006 311.647 106.272C309.251 110.266 304.99 113.063 300.063 113.063ZM300.063 87.2323C303.924 87.2323 307.386 88.9632 309.65 91.6261C309.783 91.8924 309.783 92.1587 309.517 92.2918C309.517 92.2918 287.945 101.479 287.679 101.612C287.413 101.745 287.147 101.479 287.147 101.346V100.281C287.147 92.9576 293.005 87.2323 300.063 87.2323Z" fill="white"/>
<path d="M255.855 79.5102C250.795 79.6433 246.8 81.6405 244.003 84.9691C243.737 85.2354 243.338 85.1023 243.338 84.7029V80.9748C243.338 80.7085 243.205 80.5754 242.938 80.5754H236.414C236.147 80.5754 236.014 80.7085 236.014 80.9748V136.763C236.014 137.029 236.147 137.162 236.414 137.162H242.805C243.071 137.162 243.205 137.029 243.205 136.763V114.794C243.205 114.394 243.604 114.261 243.87 114.527C246.667 117.856 250.795 119.986 256.121 119.986C268.504 119.986 278.358 108.802 275.961 96.0202C274.363 86.3006 265.575 79.377 255.855 79.5102ZM258.384 112.53C249.596 113.995 242.006 106.406 243.471 97.618C244.403 92.2921 248.664 87.8983 253.99 87.0995C262.779 85.6349 270.369 93.2242 268.904 102.012C268.105 107.338 263.711 111.598 258.384 112.53Z" fill="white"/>
<path d="M212.046 79.9097C200.86 79.9097 191.806 88.9636 191.806 100.148C191.806 111.332 200.86 120.386 212.046 120.386C223.231 120.386 232.286 111.332 232.286 100.148C232.286 88.9636 223.231 79.9097 212.046 79.9097ZM212.046 87.2327C219.236 87.2327 224.962 93.0911 224.962 100.148C224.962 107.204 219.103 113.063 212.046 113.063C204.988 113.063 199.129 107.204 199.129 100.148C199.129 93.0911 204.988 87.2327 212.046 87.2327Z" fill="white"/>
</g>
<g clip-path="url(#clip1)">
<path fill-rule="evenodd" clip-rule="evenodd" d="M132.045 99.2927C132.045 105.916 130.121 112.263 126.824 117.506L140.288 131.027C146.883 122.197 151.004 111.159 151.004 99.2927C151.004 87.4267 146.883 76.3886 140.288 67.5581L126.824 81.0798C130.121 86.3229 132.045 92.3939 132.045 99.2927Z" fill="#B8D3F4"/>
<path fill-rule="evenodd" clip-rule="evenodd" d="M98.5357 132.959C80.1253 132.959 65.0124 117.782 65.0124 99.2929C65.0124 80.8041 80.1253 65.6266 98.5357 65.6266C105.405 65.6266 111.45 67.5583 116.671 71.1457L130.135 57.624C121.342 51.0011 110.351 46.8618 98.5357 46.8618C69.6837 46.8618 46.0525 70.3178 46.0525 99.5689C46.0525 128.82 69.6837 152 98.5357 152C110.626 152 121.617 147.861 130.41 141.238L116.946 127.716C111.725 131.028 105.405 132.959 98.5357 132.959Z" fill="#3385FF"/>
</g>
<defs>
<clipPath id="clip0">
<rect x="191" y="63" width="510" height="74.5614" fill="white"/>
</clipPath>
<clipPath id="clip1">
<rect x="46" y="47" width="105" height="105" fill="white"/>
</clipPath>
</defs>
</svg>
