<svg fill="none" height="200" width="750" xmlns="http://www.w3.org/2000/svg"><path d="m0 0h750v200h-750z" fill="#fff"/><path d="m0 0h750v200h-750z" fill="#f86753"/><path clip-rule="evenodd" d="m197 121.998v-46.998h16.107c5.315 0 9.361 1.065 12.137 3.196 2.776 2.13 4.164 5.304 4.164 9.522 0 2.152-.581 4.088-1.743 5.81s-2.862 3.056-5.1 4.003c2.539.688 4.503 1.985 5.891 3.889 1.388 1.905 2.082 4.191 2.082 6.86 0 4.411-1.415 7.8-4.245 10.167-2.83 2.368-6.881 3.551-12.153 3.551zm8.167-21.207v14.687h9.07c2.561 0 4.562-.635 6.004-1.905 1.442-1.269 2.162-3.034 2.162-5.293 0-4.885-2.496-7.382-7.488-7.489zm0-6.004h8.005c2.539 0 4.524-.576 5.955-1.727s2.147-2.781 2.147-4.89c0-2.324-.662-4.003-1.985-5.036-1.324-1.033-3.384-1.55-6.182-1.55h-7.94zm48.16 27.857c-4.971 0-9.001-1.566-12.089-4.697s-4.632-7.3-4.632-12.508v-.968c0-3.487.673-6.601 2.018-9.345s3.233-4.88 5.665-6.407c2.431-1.528 5.143-2.292 8.134-2.292 4.756 0 8.43 1.517 11.023 4.551s3.89 7.327 3.89 12.879v3.164h-22.821c.236 2.883 1.199 5.164 2.888 6.843 1.69 1.678 3.815 2.518 6.376 2.518 3.593 0 6.52-1.453 8.779-4.358l4.229 4.035c-1.399 2.087-3.266 3.706-5.6 4.858-2.335 1.151-4.955 1.727-7.86 1.727zm-.936-29.923c-2.152 0-3.89.753-5.213 2.26-1.324 1.506-2.169 3.604-2.534 6.294h14.945v-.581c-.172-2.625-.872-4.61-2.098-5.956-1.227-1.344-2.927-2.017-5.1-2.017zm35.377 23.661c1.959 0 3.583-.571 4.874-1.711 1.292-1.141 1.98-2.55 2.066-4.229h7.392c-.086 2.174-.764 4.202-2.034 6.085-1.269 1.883-2.991 3.373-5.164 4.47-2.174 1.098-4.519 1.647-7.037 1.647-4.885 0-8.758-1.582-11.62-4.745-2.862-3.164-4.293-7.532-4.293-13.106v-.807c0-5.315 1.42-9.57 4.26-12.766 2.841-3.195 6.714-4.793 11.621-4.793 4.153 0 7.537 1.21 10.152 3.631 2.614 2.421 3.986 5.6 4.115 9.538h-7.392c-.086-2-.769-3.647-2.05-4.938-1.28-1.291-2.91-1.937-4.89-1.937-2.539 0-4.497.92-5.875 2.76-1.377 1.84-2.076 4.632-2.098 8.376v1.259c0 3.788.684 6.612 2.05 8.473 1.367 1.862 3.341 2.793 5.923 2.793zm18.787-12.17c0-3.421.677-6.504 2.033-9.248 1.356-2.743 3.26-4.852 5.713-6.326 2.454-1.474 5.273-2.211 8.458-2.211 4.712 0 8.537 1.517 11.475 4.551 2.937 3.034 4.524 7.058 4.761 12.072l.032 1.84c0 3.443-.662 6.521-1.985 9.232s-3.217 4.81-5.681 6.294c-2.464 1.485-5.31 2.228-8.538 2.228-4.928 0-8.871-1.641-11.83-4.923s-4.438-7.655-4.438-13.121zm7.843.678c0 3.594.743 6.408 2.228 8.441 1.484 2.034 3.55 3.051 6.197 3.051s4.707-1.033 6.182-3.099c1.474-2.066 2.211-5.09 2.211-9.071 0-3.529-.759-6.326-2.276-8.392s-3.578-3.099-6.181-3.099c-2.561 0-4.595 1.017-6.101 3.05-1.507 2.034-2.26 5.074-2.26 9.119zm38.638-17.818.226 3.648c2.453-2.862 5.81-4.293 10.071-4.293 4.67 0 7.865 1.786 9.587 5.358 2.539-3.572 6.111-5.358 10.717-5.358 3.852 0 6.719 1.065 8.602 3.195s2.846 5.272 2.889 9.426v22.95h-7.844v-22.724c0-2.217-.484-3.841-1.452-4.874-.969-1.033-2.572-1.55-4.81-1.55-1.786 0-3.244.479-4.374 1.437-1.13.957-1.92 2.21-2.372 3.76l.032 23.951h-7.844v-22.983c-.107-4.11-2.206-6.165-6.294-6.165-3.142 0-5.369 1.28-6.682 3.841v25.307h-7.844v-34.926zm65.526 35.572c-4.971 0-9-1.566-12.088-4.697s-4.632-7.3-4.632-12.508v-.968c0-3.487.672-6.601 2.017-9.345s3.234-4.88 5.665-6.407c2.432-1.528 5.143-2.292 8.134-2.292 4.756 0 8.431 1.517 11.024 4.551s3.889 7.327 3.889 12.879v3.164h-22.821c.237 2.883 1.2 5.164 2.889 6.843 1.689 1.678 3.814 2.518 6.375 2.518 3.594 0 6.521-1.453 8.78-4.358l4.229 4.035c-1.399 2.087-3.266 3.706-5.601 4.858-2.335 1.151-4.955 1.727-7.86 1.727zm-.936-29.923c-2.152 0-3.889.753-5.213 2.26-1.323 1.506-2.168 3.604-2.534 6.294h14.945v-.581c-.172-2.625-.871-4.61-2.098-5.956-1.226-1.344-2.926-2.017-5.1-2.017zm58.36 29.277c-.344-.667-.645-1.754-.903-3.26-2.497 2.604-5.552 3.906-9.168 3.906-3.507 0-6.369-1.001-8.586-3.002-2.216-2.002-3.324-4.476-3.324-7.424 0-3.723 1.382-6.58 4.147-8.57 2.766-1.991 6.72-2.986 11.863-2.986h4.809v-2.292c0-1.808-.505-3.255-1.517-4.342-1.011-1.086-2.55-1.63-4.616-1.63-1.786 0-3.249.447-4.39 1.34-1.14.893-1.71 2.028-1.71 3.405h-7.844c0-1.915.635-3.706 1.904-5.374 1.27-1.668 2.997-2.975 5.181-3.922s4.621-1.42 7.311-1.42c4.089 0 7.349 1.027 9.781 3.082 2.431 2.055 3.68 4.944 3.744 8.667v15.752c0 3.142.441 5.649 1.324 7.521v.549zm-8.618-5.649a8.917 8.917 0 0 0 4.374-1.13c1.366-.753 2.394-1.764 3.082-3.034v-6.585h-4.228c-2.905 0-5.089.506-6.553 1.517-1.463 1.012-2.195 2.443-2.195 4.294 0 1.506.501 2.706 1.501 3.599 1.001.893 2.34 1.339 4.019 1.339zm48.903-11.814v17.463h-8.167v-46.998h17.979c5.251 0 9.42 1.367 12.508 4.1 3.088 2.732 4.632 6.348 4.632 10.845 0 4.605-1.511 8.188-4.535 10.749-3.023 2.561-7.257 3.841-12.702 3.841zm0-6.552h9.812c2.905 0 5.122-.684 6.65-2.05 1.528-1.367 2.292-3.341 2.292-5.923 0-2.54-.775-4.568-2.325-6.085-1.549-1.517-3.679-2.297-6.391-2.34h-10.038zm54.196 24.015c-.345-.667-.646-1.754-.904-3.26-2.496 2.604-5.552 3.906-9.167 3.906-3.508 0-6.37-1.001-8.586-3.002-2.217-2.002-3.325-4.476-3.325-7.424 0-3.723 1.382-6.58 4.148-8.57 2.765-1.991 6.719-2.986 11.862-2.986h4.81v-2.292c0-1.808-.506-3.255-1.517-4.342-1.012-1.086-2.55-1.63-4.616-1.63-1.786 0-3.25.447-4.39 1.34-1.141.893-1.711 2.028-1.711 3.405h-7.844c0-1.915.635-3.706 1.905-5.374 1.269-1.668 2.996-2.975 5.18-3.922 2.185-.947 4.622-1.42 7.312-1.42 4.088 0 7.348 1.027 9.78 3.082s3.68 4.944 3.744 8.667v15.752c0 3.142.442 5.649 1.324 7.521v.549zm-8.619-5.649c1.55 0 3.008-.376 4.374-1.13 1.367-.753 2.394-1.764 3.083-3.034v-6.585h-4.229c-2.905 0-5.089.506-6.552 1.517-1.464 1.012-2.195 2.443-2.195 4.294 0 1.506.5 2.706 1.501 3.599 1 .893 2.34 1.339 4.018 1.339zm33.344-37.766v8.49h6.166v5.81h-6.166v19.496c0 1.334.264 2.297.791 2.889s1.469.888 2.825.888c.903 0 1.818-.108 2.743-.323v6.068c-1.786.495-3.507.743-5.164.743-6.026 0-9.038-3.325-9.038-9.975v-19.787h-5.746v-5.81h5.746v-8.489zm30.439 15.655a19.413 19.413 0 0 0 -3.195-.258c-3.594 0-6.015 1.377-7.263 4.132v23.886h-7.844v-34.926h7.489l.194 3.906c1.893-3.034 4.519-4.551 7.876-4.551 1.119 0 2.044.15 2.776.452l-.033 7.36zm3.486 9.974c0-3.421.678-6.504 2.034-9.248 1.356-2.743 3.26-4.852 5.713-6.326 2.454-1.474 5.273-2.211 8.458-2.211 4.712 0 8.537 1.517 11.475 4.551 2.937 3.034 4.524 7.058 4.761 12.072l.032 1.84c0 3.443-.662 6.521-1.985 9.232-1.324 2.711-3.217 4.81-5.681 6.294-2.464 1.485-5.31 2.228-8.538 2.228-4.928 0-8.871-1.641-11.83-4.923s-4.439-7.655-4.439-13.121zm7.844.678c0 3.594.743 6.408 2.228 8.441 1.484 2.034 3.55 3.051 6.197 3.051s4.707-1.033 6.181-3.099c1.475-2.066 2.212-5.09 2.212-9.071 0-3.529-.759-6.326-2.276-8.392s-3.578-3.099-6.181-3.099c-2.561 0-4.595 1.017-6.101 3.05-1.507 2.034-2.26 5.074-2.26 9.119zm38.541-17.818.226 4.035c2.583-3.12 5.972-4.68 10.168-4.68 7.274 0 10.975 4.164 11.104 12.492v23.079h-7.844v-22.627c0-2.217-.479-3.858-1.436-4.923-.958-1.065-2.523-1.598-4.697-1.598-3.163 0-5.519 1.431-7.069 4.293v24.855h-7.844v-34.926z" fill="#fff" fill-rule="evenodd"/><path d="m116.529 52c-19.62 0-35.582 16.286-35.582 36.305 0 19.959 15.962 36.198 35.582 36.198 19.559 0 35.471-16.239 35.471-36.198 0-20.02-15.912-36.305-35.471-36.305" fill="#fff"/><path d="m52 148.67v-96.67h18.421v96.67z" fill="#052a49"/></svg>