<svg width="500" height="200" fill="none" xmlns="http://www.w3.org/2000/svg"><path fill="#fff" d="M0 0H500V200H0z"/><path fill="#0070BA" d="M0 0H500V200H0z"/><path d="M323.151 96.281h-10.312a2.97 2.97 0 0 0-2.461 1.307l-14.227 20.95-6.028-20.132a2.98 2.98 0 0 0-2.853-2.125h-10.135a1.786 1.786 0 0 0-1.691 2.362l11.353 33.332-10.679 15.069c-.837 1.182.009 2.817 1.458 2.817h10.302a2.98 2.98 0 0 0 2.447-1.279l34.293-49.497c.82-1.185-.025-2.804-1.467-2.804zm-68.941 19.97c-.992 5.862-5.644 9.798-11.58 9.798-2.975 0-5.359-.959-6.89-2.771-1.516-1.795-2.088-4.356-1.607-7.204.922-5.812 5.652-9.873 11.497-9.873 2.914 0 5.279.967 6.84 2.796 1.571 1.842 2.19 4.417 1.74 7.254zm14.298-19.97h-10.259c-.879 0-1.627.638-1.766 1.508l-.45 2.868-.715-1.039c-2.224-3.224-7.177-4.304-12.122-4.304-11.334 0-21.016 8.591-22.9 20.638-.981 6.011.411 11.754 3.82 15.763 3.13 3.682 7.597 5.215 12.92 5.215 9.138 0 14.204-5.867 14.204-5.867l-.458 2.851a1.785 1.785 0 0 0 1.765 2.063h9.238a2.976 2.976 0 0 0 2.942-2.511l5.546-35.121a1.786 1.786 0 0 0-1.765-2.064zm-61.567.246c-1.171 7.691-7.044 7.691-12.726 7.691h-3.232l2.268-14.359a1.782 1.782 0 0 1 1.762-1.506h1.483c3.868 0 7.52 0 9.404 2.202 1.127 1.318 1.467 3.274 1.041 5.972zm-2.472-20.066h-21.426a2.98 2.98 0 0 0-2.942 2.514l-8.663 54.939a1.786 1.786 0 0 0 1.763 2.064h10.232a2.978 2.978 0 0 0 2.939-2.511l2.34-14.824a2.974 2.974 0 0 1 2.939-2.513h6.779c14.113 0 22.26-6.829 24.387-20.368.958-5.917.039-10.569-2.732-13.826-3.047-3.58-8.448-5.475-15.616-5.475m228.949 1.51l-8.793 55.945a1.784 1.784 0 0 0 1.762 2.063h8.845a2.975 2.975 0 0 0 2.94-2.514l8.671-54.939a1.786 1.786 0 0 0-1.765-2.063h-9.895c-.881 0-1.63.638-1.765 1.508zm-26.391 38.28c-.992 5.862-5.644 9.798-11.58 9.798-2.975 0-5.359-.959-6.89-2.771-1.519-1.795-2.088-4.356-1.607-7.204.922-5.812 5.652-9.873 11.497-9.873 2.914 0 5.279.967 6.84 2.796 1.571 1.842 2.19 4.417 1.74 7.254zm14.298-19.97h-10.259c-.879 0-1.627.638-1.766 1.508l-.45 2.868-.718-1.039c-2.221-3.224-7.174-4.304-12.119-4.304-11.334 0-21.016 8.591-22.9 20.638-.981 6.011.411 11.754 3.82 15.763 3.13 3.682 7.597 5.215 12.92 5.215 9.138 0 14.204-5.867 14.204-5.867l-.458 2.851a1.784 1.784 0 0 0 1.765 2.063h9.238a2.976 2.976 0 0 0 2.942-2.511l5.546-35.121a1.786 1.786 0 0 0-1.765-2.064zm-61.567.246c-1.171 7.691-7.044 7.691-12.727 7.691h-3.232l2.268-14.359a1.783 1.783 0 0 1 1.763-1.506h1.483c3.868 0 7.519 0 9.403 2.202 1.128 1.318 1.467 3.274 1.042 5.972zm-2.472-20.066H335.86a2.978 2.978 0 0 0-2.942 2.514l-8.663 54.939a1.787 1.787 0 0 0 1.763 2.064h10.994a2.084 2.084 0 0 0 2.058-1.757l2.459-15.578a2.974 2.974 0 0 1 2.939-2.513h6.779c14.113 0 22.26-6.829 24.387-20.368.958-5.917.038-10.569-2.732-13.826-3.047-3.58-8.448-5.475-15.616-5.475M137.76 91.304c0 2.268-.275 4.587-.715 6.884-3.584 18.699-15.851 25.161-31.521 25.161h-2.42c-1.917 0-3.546 1.414-3.842 3.338l-3.398 21.539c-.3 1.916-1.93 3.33-3.842 3.33H80.444a2.688 2.688 0 0 1-2.657-3.098l5.865-37.575.262-.237h9.12c22.151 0 36.005-11.078 40.084-32.024 3.436 3.445 4.642 7.939 4.642 12.682zm-60.155 17.992c.491-3.495 1.942-4.981 5.86-4.989l9.564-.009c19.355 0 30.458-8.844 33.949-27.039C130.363 59.766 118.084 50 101.458 50H70.382c-2.188 0-4.054 1.616-4.392 3.813-9.75 62.774-12.568 78.735-12.855 83.605a2.695 2.695 0 0 0 2.687 2.844H72.7l4.904-30.966z" fill="#fff"/></svg>