<svg fill="none" height="200" width="500" xmlns="http://www.w3.org/2000/svg" xmlns:xlink="http://www.w3.org/1999/xlink"><clipPath id="a"><path d="m0 0h500v200h-500z"/></clipPath><g clip-path="url(#a)"><path d="m0 0h500v200h-500z" fill="#fff"/><path d="m0 1h500v200h-500z" fill="#00d632"/><path d="m413.374 80.262c1.242 1.243 3.304 1.243 4.472 0l6.211-6.46c1.317-1.242 1.243-3.478-.149-4.82a49.018 49.018 0 0 0 -16.696-9.54l1.963-9.442c.422-2.062-1.118-4-3.181-4h-12.025a3.28 3.28 0 0 0 -3.18 2.634l-1.74 8.398c-16 .82-29.566 8.944-29.566 25.59 0 14.411 11.205 20.598 23.057 24.847 11.205 4.273 17.143 5.863 17.143 11.876 0 6.187-5.913 9.814-14.659 9.814-7.95 0-16.298-2.658-22.758-9.143a3.233 3.233 0 0 0 -3.524-.702 3.229 3.229 0 0 0 -1.048.702l-6.708 6.708a3.377 3.377 0 0 0 0 4.771c5.217 5.143 11.826 8.87 19.359 10.932l-1.838 8.87c-.423 2.062 1.093 3.975 3.155 4l12.051.099a3.275 3.275 0 0 0 3.229-2.633l1.74-8.423c19.25-1.292 30.978-11.901 30.978-27.38 0-14.262-11.678-20.274-25.84-25.17-8.1-3.005-15.106-5.068-15.106-11.254 0-6.013 6.534-8.398 13.093-8.398 8.349 0 16.374 3.453 21.616 8.174zm-272.901.671c-3.648.105-7.128 1.583-9.983 3.804a11.887 11.887 0 0 0 -2.938 3.026 21.346 21.346 0 0 0 -3.403 6.542c-2.026 6.689-1.666 14.261 1.574 20.505 1.262 2.221 2.614 4.148 4.609 5.793 1.617 1.008 3.498 2.335 5.502 2.856 5.483 1.74 11.836.846 16.419-2.697 1.147-.712 2.191-2.083 3.116-3.223-.066-.299.878-1.526.951-.57-.003 6.799.004 13.66 0 20.485h6.181v-55.57h-6.181v7.395c-1.108-1.622-2.084-3.4-3.644-4.437a17.538 17.538 0 0 0 -12.202-3.91zm2.166 5.601c2.838-.007 6.057.794 8.082 2.588a12.278 12.278 0 0 1 3.696 4.613 21.613 21.613 0 0 1 .711 16.034 13.245 13.245 0 0 1 -4.408 6.238c-3.003 2.569-7.353 2.999-11.151 2.336a10.622 10.622 0 0 1 -6.264-3.783c-3.007-3.302-3.865-8.08-3.81-12.456.152-3.797.881-7.78 3.213-10.87 1.569-1.942 3.623-3.62 6.137-4.214a11.297 11.297 0 0 1 3.793-.488zm-47.565-21.5c-4.702.188-9.49 1.42-13.258 4.331a8.734 8.734 0 0 0 -2.164 2.247 14.596 14.596 0 0 0 -3.109 10.388 11.757 11.757 0 0 0 2.947 7.332 8.853 8.853 0 0 0 2.4 2.242c4.865 3.782 11.194 4.485 16.937 6.204 3.586 1.092 7.738 1.833 10.085 5.024 1.988 2.427 1.932 6.075.845 8.927-.93 2.335-2.959 4.005-5.124 5.176-4.533 1.961-9.783 1.834-14.472.521a18.118 18.118 0 0 1 -8.96-6.092c-.587-.956-1.108-1.573-2.027-.467l-4.174 2.922a17.975 17.975 0 0 0 4.014 4.648c2.698 2.063 5.623 3.888 8.943 4.744a28.853 28.853 0 0 0 19.106-.835c2.424-1.266 4.739-2.545 6.453-4.668a16.234 16.234 0 0 0 3.71-9.879c.2-3.471-.942-6.887-3.19-9.54a6.07 6.07 0 0 0 -1.957-1.81c-1.131-1.003-2.41-1.632-3.795-2.382-6.179-3.091-13.225-3.758-19.537-6.46-1.933-.96-3.868-2.291-4.873-4.244a8.12 8.12 0 0 1 2.611-9.671c2.57-2.06 6.1-2.667 9.357-2.69 5.659-.057 11.396 2.41 14.811 6.973l5.074-3.803a20.614 20.614 0 0 0 -5.364-5.03 25.646 25.646 0 0 0 -15.289-4.108zm77.858 43.79c.007 3.63.744 7.401 2.958 10.353.969 1.574 2.879 2.825 4.576 3.752 4.436 2.052 9.761 1.739 14.154-.273 2-1.083 3.922-2.43 5.199-4.166.585-.54 1.245-2.073 1.584-2.155v7.014h6.18v-41.465h-6.18c-.041 8.469.1 16.942-.105 25.408-.5 3.408-2.049 6.7-4.86 8.768a13.037 13.037 0 0 1 -12.361 1.638c-2.811-1.264-4.414-4.35-4.614-7.381-.484-5.302-.142-10.639-.247-15.956v-12.476h-6.284zm60.031-27.89a27.76 27.76 0 0 0 -15.054 5.017l2.693 4.543c3.643-2.795 8.329-3.94 12.857-4.12 3.299-.045 7.182.586 9.08 3.512 1.083 1.986.836 4.836-1.019 6.26-1.554 1.492-4.192 2.106-6.443 2.535-4.272.785-8.752.954-12.763 2.763a10.783 10.783 0 0 0 -4.512 3.682c-2.216 2.746-2.37 6.559-1.714 9.89a12.015 12.015 0 0 0 2.506 5.007c.613.911 1.829 1.521 2.853 2.271 3.864 2.207 8.605 2.386 12.9 1.555a15.106 15.106 0 0 0 6.686-3.523c.954-.615 1.139-1.651 1.966-2.257.792.216.175 1.487.369 2.113v3.17h5.969c-.044-10.758.102-21.52-.105-32.275-.483-2.951-2.052-6.001-4.63-7.438-3.373-2.211-7.652-2.93-11.64-2.704l.001-.002zm10.195 19.544c-.172 4.328.701 9.003-1.462 12.979-1.78 3.228-5.313 5.135-8.954 5.417-3.228.269-6.992-.136-9.181-2.76-1.557-1.903-1.856-4.794-1.1-7.13.581-2.027 2.395-3.28 4.322-3.915 4.551-1.563 9.508-1.574 13.998-3.324.866-.43 1.667-.981 2.377-1.638zm34.674-19.386a14.841 14.841 0 0 0 -8.812 3.92 29.666 29.666 0 0 0 -2.81 3.845v-6.973h-6.18v41.466h6.18c.057-8.084-.129-16.177.13-24.254.479-3.911 2.115-7.893 5.443-10.185 2.969-2.234 7.223-2.406 10.644-1.057.734-.375.439-1.641.829-2.36l.808-3.08a11.178 11.178 0 0 0 -6.232-1.322zm27.017-.159c-3.61.13-7.11 1.284-10.089 3.328-.601.458-1.319.985-1.97 1.546-1.546 1.498-2.714 3.34-3.842 5.269-3.056 6.03-3.402 13.269-1.477 19.706.839 2.95 2.622 5.687 4.528 7.882a16.682 16.682 0 0 0 2.39 1.992 19.61 19.61 0 0 0 10.859 3.617c5.166.288 10.574-.932 14.605-4.298a15.276 15.276 0 0 0 3.324-3.122l-4.17-3.804a14.212 14.212 0 0 1 -8.722 5.265c-4.785.927-10.339-.09-13.65-3.866-2.782-2.675-3.687-6.771-3.775-10.537.586-.953 2.056-.153 3.021-.422h28.937c.697-5.617-.59-11.578-4.152-16.046-.855-1.323-2.238-2.282-3.56-3.233-3.492-2.485-8.003-3.536-12.255-3.275zm2.219 5.283c4.124.246 8.114 2.56 10.028 6.23a15.827 15.827 0 0 1 1.487 6.288h-25.67c.402-3.036 1.125-6.305 3.381-8.504.404-.695 1.527-1.377 2.183-2.036 2.515-1.639 5.625-2.186 8.593-1.978z" fill="#fff"/></g></svg>