<svg height="200" width="500" xmlns="http://www.w3.org/2000/svg"><g fill="none" fill-rule="evenodd"><path d="m0 0h500v200h-500z" fill="#3d95ce"/><path d="m121 63c3 4 4 9 4 14 0 18-15 41-28 58h-28l-11-68 25-2 6 48c5-9 12-24 12-33l-2-12zm32 30c4 0 16-2 16-8 0-4-2-5-5-5-5 0-11 5-11 13zm-1 14c0 8 5 11 11 11s12-1 20-6l-3 21c-6 3-14 5-23 5-21 0-29-13-29-30 0-22 13-45 38-45 14 0 22 8 22 20 0 18-23 24-36 24zm110-28-1 9-7 47h-25l7-44 1-4c0-3-2-4-5-4l-8 2-8 50h-24l11-71h21v6c5-3 12-7 21-7 12 0 17 6 17 16zm71-8c7-5 13-8 22-8 13 0 17 6 17 16l-1 9-7 47h-24l7-44v-4c0-3-2-4-4-4l-9 2-7 50h-24l6-44 1-4c0-3-2-4-4-4l-9 2-8 50h-24l11-71h21l1 6c5-3 11-7 20-7 7 0 12 3 15 8zm84 21c0-6-1-10-5-10-10 0-12 17-12 26 0 7 2 11 6 11 9 0 11-18 11-27zm-42 15c0-23 12-44 39-44 21 0 28 12 28 29 0 23-11 46-39 46-21 0-28-14-28-31z" fill="#fff" fill-rule="nonzero"/></g></svg>