<svg version="1" xmlns="http://www.w3.org/2000/svg" width="1333.333" height="1333.333" viewBox="0 0 1000 1000"><path d="M476.9 29.4c-.2.2-5.7.7-12.1 1-6.5.4-12.5.9-13.5 1-1 .2-4.5.7-7.8 1-7.7.9-12.6 1.6-14.5 2.1-.8.2-3.5.7-6 1-10.3 1.4-31.7 6-46.5 10-25.5 6.9-63.9 21.3-82.5 31-23.6 12.2-33 17.6-50.1 28.6-6.3 4-11.8 7.7-12.4 8.1-.5.5-4.6 3.5-9.1 6.7-4.4 3.2-8.9 6.6-10 7.4-1 .9-4.7 3.8-8.2 6.6-19 15-49.9 45.5-66.6 65.9-15.8 19.1-37.3 49.8-44.9 64-1.1 2-3.6 6.6-5.7 10.2-5.9 10.2-18.3 36.2-23.8 50-4.4 11.1-13.7 37.4-14.8 41.9-.2.9-2.2 8.5-4.4 16.9-2.2 8.5-4.2 16.4-4.4 17.5-.2 1.2-1.1 6-2 10.7-.9 4.7-1.9 10.1-2.2 12-.3 1.9-.7 4.6-.9 6-.4 2.4-2 14.3-3 22.1-2.7 22.7-2.7 83 .1 99.4.3 1.9.6 4.4 1.9 16.2.3 2.7.8 5.5 1 6.3.2.8.7 3.7 1.1 6.5.3 2.7.8 5.3 1 5.6.2.4.6 2.4 1 4.5.3 2.2 1.9 9.7 3.5 16.9 1.7 7.1 3.2 13.8 3.4 14.9.7 2.9 4.4 15.1 8.6 27.9 13.8 41.9 36.7 87.2 62.4 123.2 6.5 9.3 21.2 28.2 24.7 32 1.5 1.6 4.7 5.3 7 8.2 5.4 6.5 34.9 35.8 44.3 43.9 47.1 40.7 102 72 160.2 91.3 19.9 6.6 46.7 13.5 64.8 16.6 1.7.2 3.9.7 5 .9 2.3.4 8.3 1.3 14 2.1 2.3.3 5 .7 6.1.9 1.1.2 5.6.7 10 1.1 4.3.4 9.5.9 11.4 1.1 6.9.9 61.7 1.2 70.5.3 5-.4 11.5-1.1 14.5-1.3 41.8-3.9 93.6-16.8 131.5-32.8 14.5-6.2 16.9-7.2 27.6-12.5C781 888.5 846.7 831 892.7 762c6.3-9.4 11.4-17.8 19.7-32 11.2-19.2 29.2-60.4 36.9-84.5 8.8-27.5 16.7-63.7 19.2-87.5.3-3 .8-6.9 1-8.5 2.6-20.5 2.6-79.4 0-97.5-.2-1.4-.6-5.2-1-8.5-.5-5-2.3-16.2-5.1-32.8-3.7-22.1-14.1-57.4-24.8-84.7-5.6-14.1-21.6-47.9-26.1-55-1.2-1.9-4.8-7.8-7.9-13-7.7-12.9-16.1-25.8-20.8-32-21.5-28.5-28.2-36.3-49.1-57.5-42.2-42.7-90.2-75.7-146-100.4-36-15.9-86.6-30.2-123.2-34.6-2.7-.4-5.9-.8-7-1-1.1-.1-5.6-.6-10-1s-9.1-.9-10.5-1.2c-3-.6-60.5-1.4-61.1-.9z"/></svg>