<svg width="1000" height="1000" xmlns="http://www.w3.org/2000/svg" xmlns:xlink="http://www.w3.org/1999/xlink"><defs><circle id="a" cx="501" cy="501" r="472"/><linearGradient x1="50%" y1="47%" x2="0%" y2="50%" id="c"><stop stop-color="#B71C1C" offset="0%"/><stop stop-color="#F44336" offset="100%"/></linearGradient><linearGradient x1="0%" y1="16%" x2="81%" y2="68%" id="d"><stop stop-color="#1B5E20" offset="0%"/><stop stop-color="#00C853" offset="100%"/></linearGradient><linearGradient x1="0%" y1="50%" y2="65%" id="e"><stop stop-color="#3E2723" offset="0%"/><stop stop-color="#795548" offset="100%"/></linearGradient></defs><g fill="none" fill-rule="evenodd"><mask id="b" fill="#fff"><use xlink:href="#a"/></mask><use fill="#FFF" xlink:href="#a"/><g mask="url(#b)"><path d="M163 463c-31-19-53-44-66-58C18 321 0 220 0 172 0 122 19 52 117 13c20-8 59-13 117-13s98 5 118 13c97 39 117 109 117 159 0 48-19 149-97 233-13 14-35 39-66 58h2c-31 19-56 29-72 29-17 0-41-10-73-29z" transform="rotate(-45 630 -9)" fill="url(#c)"/><path d="M103 359s-3-67 55-109c0 0-89-36-118-149 0 0 61-8 125 51 0 0 46-59 28-109 0 0 97 44 76 150 0 0 90 5 144 59 0 0-18 28-73 44 0 0 40 59 47 116 0 0-64 4-146-79 0 0-80 36-138 26z" fill="url(#d)" fill-rule="nonzero" transform="rotate(-75 318 169)"/><path d="M291 674c-4-10 72-48 134-89 22-14 52-35 66-57 6-10 9-39-2-69-18-48-69-88-22-113 67-35 35 55 47 106 7 32 27 55 34 66 8 14 61 62 95 126 30 55 42 126 42 165 0 23-3 79-41 46-14-13-46-120-67-127-30-10-99 61-125 44-22-13 22-85-1-95-68-31-150 18-160-3z" fill="url(#e)" transform="scale(1 -1) rotate(16 4993 422)"/></g></g></svg>