<svg xmlns="http://www.w3.org/2000/svg" width="4000" height="4000" preserveAspectRatio="xMidYMid meet" version="1.0" viewBox="0 0 3000 3000"><metadata>Created by potrace 1.11, written by Peter Selinger 2001-2013</metadata><g fill="#000" stroke="none"><path d="M12589 26966 c-449 -270 -917 -683 -1319 -1163 -542 -648 -1029 -1484 -1349 -2313 -32 -83 -60 -153 -63 -155 -3 -3 -56 17 -117 45 -975 440 -1917 502 -2861 190 -659 -218 -1289 -615 -1809 -1140 l-144 -145 224 -6 c181 -5 250 -12 360 -33 537 -102 1067 -378 1614 -841 223 -189 512 -481 704 -711 l50 -61 -158 -106 c-784 -527 -1412 -1181 -1831 -1912 -93 -161 -240 -469 -304 -637 -87 -228 -175 -551 -155 -572 10 -12 573 10 779 29 614 59 1220 192 1750 386 137 50 155 55 147 42 -9 -15 -77 -330 -102 -473 -102 -581 -110 -1160 -25 -1688 156 -961 610 -1834 1339 -2576 337 -342 629 -591 1051 -895 495 -356 1167 -750 1701 -997 l106 -49 -25 -37 c-13 -21 -27 -58 -29 -83 -5 -37 -1 -50 20 -79 107 -140 585 -312 1682 -605 83 -22 445 -117 805 -211 2038 -533 2846 -786 3544 -1111 347 -161 687 -373 881 -551 230 -210 435 -705 514 -1248 76 -518 34 -1008 -145 -1710 -25 -96 -83 -316 -130 -488 -214 -790 -255 -1118 -173 -1412 86 -312 341 -507 785 -600 282 -59 574 -72 738 -31 220 53 348 181 392 391 12 57 15 112 11 230 -9 291 -57 491 -317 1310 -315 992 -384 1352 -359 1874 21 441 106 831 314 1451 52 154 110 333 130 398 45 149 101 276 333 752 649 1334 948 2065 1198 2930 259 892 368 1649 381 2636 18 1314 -159 2620 -483 3572 -224 655 -475 1024 -745 1094 l-68 17 -52 126 c-547 1332 -1405 2627 -2244 3389 -634 577 -1327 955 -2087 1142 -95 23 -174 43 -176 44 -1 1 31 71 72 156 109 227 201 477 183 495 -9 9 -85 21 -267 41 -197 22 -888 25 -1110 5 -626 -56 -1210 -159 -1833 -323 -134 -36 -448 -128 -488 -144 -14 -5 -17 13 -23 147 -37 803 -225 1511 -539 2033 -48 80 -163 245 -170 245 -1 0 -50 -29 -108 -64z" transform="translate(0.000000,3000.000000) scale(0.100000,-0.100000)"/></g></svg>