<?xml version="1.0" standalone="no"?>
<!DOCTYPE svg PUBLIC "-//W3C//DTD SVG 20010904//EN"
 "http://www.w3.org/TR/2001/REC-SVG-20010904/DTD/svg10.dtd">
<svg version="1.0" xmlns="http://www.w3.org/2000/svg"
 width="1000.000000pt" height="1000.000000pt" viewBox="0 0 1000.000000 1000.000000"
 preserveAspectRatio="xMidYMid meet">
<metadata>
Created by potrace 1.11, written by Peter Selinger 2001-2013
</metadata>
<g transform="translate(0.000000,1000.000000) scale(0.100000,-0.100000)"
fill="#000000" stroke="none">
<path d="M4769 9706 c-2 -2 -57 -7 -121 -10 -65 -4 -125 -9 -135 -10 -10 -2
-45 -7 -78 -10 -77 -9 -126 -16 -145 -21 -8 -2 -35 -7 -60 -10 -103 -14 -317
-60 -465 -100 -255 -69 -639 -213 -825 -310 -236 -122 -330 -176 -501 -286
-63 -40 -118 -77 -124 -81 -5 -5 -46 -35 -91 -67 -44 -32 -89 -66 -100 -74
-10 -9 -47 -38 -82 -66 -190 -150 -499 -455 -666 -659 -158 -191 -373 -498
-449 -640 -11 -20 -36 -66 -57 -102 -59 -102 -183 -362 -238 -500 -44 -111
-137 -374 -148 -419 -2 -9 -22 -85 -44 -169 -22 -85 -42 -164 -44 -175 -2 -12
-11 -60 -20 -107 -9 -47 -19 -101 -22 -120 -3 -19 -7 -46 -9 -60 -4 -24 -20
-143 -30 -221 -27 -227 -27 -830 1 -994 3 -19 6 -44 19 -162 3 -27 8 -55 10
-63 2 -8 7 -37 11 -65 3 -27 8 -53 10 -56 2 -4 6 -24 10 -45 3 -22 19 -97 35
-169 17 -71 32 -138 34 -149 7 -29 44 -151 86 -279 138 -419 367 -872 624
-1232 65 -93 212 -282 247 -320 15 -16 47 -53 70 -82 54 -65 349 -358 443
-439 471 -407 1020 -720 1602 -913 199 -66 467 -135 648 -166 17 -2 39 -7 50
-9 23 -4 83 -13 140 -21 23 -3 50 -7 61 -9 11 -2 56 -7 100 -11 43 -4 95 -9
114 -11 69 -9 617 -12 705 -3 50 4 115 11 145 13 418 39 936 168 1315 328 145
62 169 72 276 125 739 358 1396 933 1856 1623 63 94 114 178 197 320 112 192
292 604 369 845 88 275 167 637 192 875 3 30 8 69 10 85 26 205 26 794 0 975
-2 14 -6 52 -10 85 -5 50 -23 162 -51 328 -37 221 -141 574 -248 847 -56 141
-216 479 -261 550 -12 19 -48 78 -79 130 -77 129 -161 258 -208 320 -215 285
-282 363 -491 575 -422 427 -902 757 -1460 1004 -360 159 -866 302 -1232 346
-27 4 -59 8 -70 10 -11 1 -56 6 -100 10 -44 4 -91 9 -105 12 -30 6 -605 14
-611 9z"/>
</g>
</svg>
