<svg width="2560" height="1440" viewBox="0 0 2560 1440" xmlns="http://www.w3.org/2000/svg"><title>Wallpapersvg</title><defs><linearGradient x1="50%" y1="100%" x2="50%" y2="0%" id="a"><stop stop-color="#263238" offset="0%"/><stop stop-color="#37474F" offset="13.934%"/><stop stop-color="#455A64" offset="27.565%"/><stop stop-color="#546E7A" offset="38.475%"/><stop stop-color="#607D8B" offset="49%"/><stop stop-color="#78909C" offset="60.507%"/><stop stop-color="#90A4AE" offset="72.924%"/><stop stop-color="#B0BEC5" offset="85.599%"/><stop stop-color="#CFD8DC" offset="100%"/></linearGradient><linearGradient x1="100%" y1="50%" x2=".717%" y2="50%" id="b"><stop stop-color="#FEFFFF" offset="0%"/><stop stop-color="#C5CDD0" offset="100%"/></linearGradient></defs><g fill="none" fill-rule="evenodd"><path fill="url(#a)" d="M0 0h2560v1440H0z"/><g transform="translate(747 450)" fill="url(#b)"><circle cx="270" cy="353" r="150"/><circle cx="438" cy="25" r="25"/><circle cx="12.5" cy="453.5" r="12.5"/><circle cx="963" cy="249" r="50"/></g><path d="M1 2.994V1440M100.921 0v1437.006M202.842 2.994V1440M304.762 2.994V1440M406.682 2.994V1440M508.603 2.994V1440M610.523 2.994V1440M712.443 2.994V1440M814.364 2.994V1440M916.284 2.994V1440M1018.205 2.994V1440M1120.125 2.994V1440M1222.045 2.994V1440M2559 2.994V1440M2048.4 2.994V1440M2150.32 2.994V1440M2252.24 2.994V1440M2354.16 2.994V1440M2456.081 2.994V1440M2558.002 2.994V1440M1336.956 2.994V1440M1436.877 2.994V1440M1538.798 2.994V1440M1640.718 2.994V1440M1742.639 2.994V1440M1844.559 2.994V1440M1946.48 2.994V1440" opacity=".15" stroke="#ECEFF1" stroke-linecap="square"/><path d="M2554.678 1.776H0m2560 177.639H5.322m2549.356 181.192H0m2554.678 181.192H0M2554.678 722.99H0m2554.678 181.192H0m2554.678 181.192H0m2554.678 181.192H0" opacity=".2" stroke="#ECEFF1" stroke-linecap="square"/></g></svg>